<svg width="590" height="432" viewBox="0 0 590 432" fill="none" xmlns="http://www.w3.org/2000/svg">
<g clip-path="url(#clip0_428_11471)">
<g clip-path="url(#clip1_428_11471)">
<path d="M256.35 90.5142C236.516 18.4265 147.011 -4.83982 95.6467 49.067C94.8839 49.8298 94.1211 50.5926 93.4854 51.4826C19.8721 131.453 54.581 328.518 208.037 378.483C361.494 428.449 521.18 337.163 530.207 255.667C539.233 174.171 468.29 148.489 358.442 171.374C296.399 184.215 268.682 135.394 256.35 90.5142Z" fill="#BBE2F2"/>
<path d="M383.997 102.847C363.401 106.152 357.807 124.333 373.572 137.301C378.785 141.624 386.286 145.057 396.965 146.837C437.65 153.575 459.136 135.648 442.862 112.255C432.819 98.0155 404.339 99.5411 383.997 102.847Z" fill="#BBE2F2"/>
<path d="M56.4882 248.548C43.7743 232.147 24.9578 235.834 21.2707 255.922C19.9994 262.533 20.5079 270.797 24.0678 281.095C37.5445 319.999 63.7351 330.298 76.3218 304.87C84.2044 289.105 69.202 264.821 56.4882 248.548Z" fill="#BBE2F2"/>
<path d="M544.7 265.203C542.793 275.12 550.93 282.112 560.211 278.298C563.262 277.027 566.314 274.611 569.111 270.288C579.536 254.015 574.323 240.029 559.703 241.428C550.803 242.318 546.607 255.286 544.7 265.203Z" fill="#BBE2F2"/>
<path d="M492.828 160.568C502.745 162.602 509.864 154.592 506.177 145.184C504.906 142.133 502.617 138.954 498.422 136.157C482.275 125.35 468.29 130.436 469.434 145.057C470.07 154.211 483.038 158.533 492.828 160.568Z" fill="#BBE2F2"/>
<path d="M252.917 54.6611C260.673 61.018 270.844 57.2039 271.861 47.1599C272.243 43.8543 271.48 40.0402 269.064 35.5903C259.656 18.6809 244.908 16.6467 239.187 30.1233C235.627 38.5145 245.162 48.3042 252.917 54.6611Z" fill="#BBE2F2"/>
<path d="M569.238 314.66C584.876 298.894 596.827 281.095 585.003 278.298C573.179 275.501 553.092 306.523 549.659 334.747L546.226 344.029C549.15 323.432 542.03 298.513 531.732 297.496C521.434 296.479 527.664 312.752 535.801 326.611C542.03 337.163 543.683 345.554 544.065 349.877L527.664 393.867C532.114 361.319 521.053 321.906 504.652 320.254C488.378 318.601 498.295 344.41 511.136 366.405C520.925 383.06 523.468 396.155 524.231 403.148L520.925 411.921C522.324 412.683 523.85 413.573 525.248 414.336L544.828 361.955C548.642 359.158 554.363 355.725 562.5 352.928C577.756 347.716 593.013 339.579 584.622 333.603C577.375 328.391 560.211 338.307 548.387 352.42L555.126 334.239C558.177 329.026 562.5 321.525 569.238 314.66Z" fill="#1C31B5"/>
<path d="M75.0505 109.077C77.0847 90.0057 75.559 71.6978 66.0236 76.1476C56.6154 80.7246 59.921 112.382 72.762 133.233L75.4319 141.37C66.2779 125.986 48.0971 113.018 40.5959 117.849C33.2219 122.68 46.0629 130.182 59.031 135.14C68.8207 138.954 74.4148 143.658 77.0847 146.328L89.7986 184.724C75.3048 160.441 46.4443 139.971 34.6204 147.6C22.7965 155.228 43.2658 167.306 63.8623 175.061C79.3732 181.037 88.2729 188.411 92.3413 192.607L94.8841 200.235C96.2826 199.981 97.6812 199.726 99.0797 199.472L83.9502 153.702C84.9673 149.761 87.0015 144.421 90.9428 138.191C98.444 126.495 104.292 112.764 95.3927 113.272C87.7643 113.781 81.5345 129.673 81.1531 145.438L75.9404 129.673C75.3048 124.715 74.2876 117.341 75.0505 109.077Z" fill="#1C31B5"/>
<path d="M463.459 367.041C463.713 368.058 463.84 369.329 464.094 370.601C466.891 383.696 473.884 405.182 489.395 409.378C489.395 409.378 480.877 365.134 511.136 353.564C541.395 341.995 538.089 331.061 536.309 311.481C534.529 291.902 527.918 288.215 548.896 269.907C569.874 251.599 565.805 224.391 565.805 224.391C565.805 224.391 545.972 255.54 524.74 256.176C503.507 256.939 499.82 274.993 500.71 288.469C501.6 301.946 483.547 303.472 473.884 311.227C464.094 318.982 462.314 360.048 462.314 360.048C462.314 360.048 462.696 362.972 463.459 367.041Z" fill="#009CF8"/>
<path d="M463.459 367.041C463.713 368.058 463.84 369.329 464.094 370.601C466.256 363.99 469.307 358.523 472.231 354.2C478.97 344.156 488.632 335.892 497.15 332.586C510.881 327.374 517.493 314.024 518.764 289.105C519.527 274.611 534.656 266.093 534.784 265.966C535.165 265.711 535.419 265.203 535.165 264.694C534.911 264.186 534.402 264.059 533.894 264.313C533.258 264.694 517.747 273.467 516.857 288.978C515.586 313.134 509.356 325.975 496.388 330.934C487.361 334.366 477.698 342.63 470.579 353.183C468.163 356.87 465.493 361.574 463.459 367.041Z" fill="#006BDE"/>
<path d="M128.576 409.124H149.808C138.365 407.217 109.886 395.011 107.343 370.474C104.165 339.452 93.1039 339.833 74.4145 336.528C55.7251 333.222 50.6396 338.562 38.8157 314.533C27.1189 290.503 0.674072 287.452 0.674072 287.452C0.674072 287.452 24.7033 313.643 20.1263 333.603C15.5493 353.564 31.4416 361.574 44.2826 363.989C56.9965 366.532 53.9452 383.696 58.9036 394.63C61.0649 399.715 70.2189 404.928 79.3729 408.997H128.576V409.124Z" fill="#006BDE"/>
<path d="M82.5516 378.61C83.4416 387.892 88.7814 398.953 96.7911 408.234C97.0454 408.615 97.4268 408.869 97.6811 409.251H100.097C99.461 408.488 98.6982 407.852 98.1896 407.09C90.5613 398.317 85.2215 387.256 84.3315 378.483C82.933 364.498 72.1262 354.836 49.1141 347.461C35.7646 343.139 31.569 326.865 31.569 326.738C31.4419 326.229 30.9333 325.975 30.5519 326.102C30.0433 326.229 29.789 326.738 29.9162 327.119C30.0433 327.882 34.366 344.41 48.6056 349.114C70.7277 356.234 81.2802 365.388 82.5516 378.61Z" fill="#1C31B5"/>
<path d="M140.018 351.53C139.509 353.056 139.001 354.708 138.492 356.361C132.39 374.669 120.057 405.437 97.1722 409.124C97.1722 409.124 115.353 346.063 73.9058 324.958C32.4586 303.853 39.0698 288.723 44.5368 261.134C50.0037 233.545 60.1748 229.223 32.9671 199.981C5.88662 170.612 15.8034 132.343 15.8034 132.343C15.8034 132.343 39.3241 179.766 69.4559 184.088C99.5878 188.411 102.131 214.729 98.825 233.8C95.5193 252.87 120.947 257.829 133.661 270.415C146.375 283.002 142.688 341.867 142.688 341.867C142.688 341.867 141.798 345.809 140.018 351.53Z" fill="#009CF8"/>
<path d="M140.018 351.53C139.51 353.056 139.001 354.708 138.492 356.361C136.458 346.572 132.898 338.308 129.466 331.823C121.329 316.44 108.996 303.217 97.1724 297.242C78.483 287.834 70.9818 267.618 73.016 231.893C74.1603 211.169 53.8181 196.548 53.6909 196.421C53.0552 196.039 52.9281 195.149 53.3095 194.641C53.6909 194.005 54.5809 193.878 55.0895 194.259C55.9794 194.895 76.8302 209.77 75.5588 232.02C73.6517 266.601 80.6443 286.054 98.3166 294.953C110.776 301.183 123.236 314.533 131.754 330.679C134.805 336.273 137.857 343.393 140.018 351.53Z" fill="#006BDE"/>
<path d="M156.546 394.375C156.673 399.207 156.673 404.165 156.801 409.251H203.079C203.206 403.784 203.206 398.444 203.333 393.485C203.46 380.009 203.46 368.948 203.46 362.082C203.46 357.251 203.46 354.454 203.46 354.454L156.292 353.945C156.292 353.945 156.292 358.014 156.292 364.625C156.292 371.999 156.292 382.551 156.546 394.375Z" fill="#18315B"/>
<path d="M156.165 364.498C156.165 371.872 156.292 382.551 156.419 394.248C170.913 395.392 186.805 395.392 203.079 393.231C203.206 379.754 203.206 368.693 203.206 361.828L156.165 364.498Z" fill="#000B29"/>
<path d="M98.1896 383.696C98.1896 391.197 98.3168 399.843 98.4439 409.124H144.722C144.85 403.657 144.977 398.317 144.977 393.231C145.104 382.17 145.231 372.253 145.231 365.134C145.231 358.141 145.231 353.818 145.231 353.818L98.0625 354.327C98.0625 354.327 98.0625 359.285 98.0625 367.804C98.1896 372.126 98.1896 377.593 98.1896 383.696Z" fill="#18315B"/>
<path d="M98.1897 367.676C98.1897 372.126 98.1897 377.466 98.1897 383.696C107.598 386.493 124.38 390.816 144.977 393.231C145.104 382.17 145.231 372.253 145.231 365.134L98.1897 367.676Z" fill="#000B29"/>
<path d="M175.617 105.771C175.617 105.771 182.991 98.6511 182.991 91.5313C182.991 84.4116 178.159 86.5729 175.617 79.9617C173.074 73.3505 165.446 69.4092 161.123 70.172C156.927 70.9349 148.028 54.534 136.077 57.4582C123.998 60.3824 125.143 75.7661 119.93 78.0546C114.717 80.3431 116.243 89.4971 118.913 91.5313C121.583 93.5655 122.854 101.957 124.38 101.83C125.906 101.702 175.617 105.771 175.617 105.771Z" fill="#18315B"/>
<path d="M125.651 105.644C125.651 105.644 120.947 99.4139 117.515 104.627C114.082 109.839 118.913 124.969 127.431 121.282L125.651 105.644Z" fill="#F97853"/>
<path d="M125.652 116.451C125.397 116.451 125.016 116.196 125.016 115.942C123.744 111.238 118.786 109.331 118.786 109.331C118.405 109.204 118.277 108.822 118.405 108.441C118.532 108.059 118.913 107.932 119.295 108.059C119.549 108.187 124.889 110.221 126.414 115.688C126.541 116.069 126.287 116.451 125.906 116.578C125.779 116.451 125.652 116.451 125.652 116.451Z" fill="#EA5143"/>
<path d="M120.693 114.162C120.566 114.162 120.438 114.162 120.311 114.035C119.93 113.781 119.93 113.399 120.057 113.018C120.057 113.018 120.947 111.619 122.727 110.856C123.108 110.729 123.49 110.856 123.617 111.238C123.744 111.619 123.617 112.001 123.235 112.128C121.837 112.763 121.201 113.781 121.201 113.781C121.201 114.035 120.947 114.162 120.693 114.162Z" fill="#EA5143"/>
<path d="M173.837 105.644C173.837 105.644 178.541 99.4139 181.974 104.627C185.407 109.839 180.575 124.969 172.057 121.282L173.837 105.644Z" fill="#F97853"/>
<path d="M173.837 116.451C174.091 116.451 174.473 116.196 174.473 115.942C175.744 111.238 180.702 109.331 180.702 109.331C181.084 109.204 181.211 108.822 181.084 108.441C180.957 108.059 180.575 107.932 180.194 108.059C179.94 108.187 174.6 110.221 173.074 115.688C172.947 116.069 173.201 116.451 173.583 116.578C173.71 116.451 173.837 116.451 173.837 116.451Z" fill="#EA5143"/>
<path d="M178.795 114.162C178.922 114.162 179.049 114.162 179.177 114.035C179.558 113.781 179.558 113.399 179.431 113.018C179.431 113.018 178.541 111.619 176.761 110.856C176.379 110.729 175.998 110.856 175.871 111.238C175.744 111.619 175.871 112.001 176.252 112.128C177.651 112.763 178.287 113.781 178.287 113.781C178.287 114.035 178.541 114.162 178.795 114.162Z" fill="#EA5143"/>
<path d="M161.25 134.123V149.252C161.25 149.252 156.8 157.008 150.698 157.516C144.595 158.025 139.128 150.905 139.128 150.905V135.14L161.25 134.123Z" fill="#FFA681"/>
<path d="M161.25 134.123V140.861C157.182 145.438 149.935 146.582 139.128 144.929V135.14L161.25 134.123Z" fill="#F97853"/>
<path d="M177.143 95.2183C176.888 101.067 176.253 108.441 175.235 114.289C174.981 115.815 174.6 117.086 174.345 118.358C171.167 129.546 163.157 148.617 140.908 140.607C131.118 137.047 126.541 126.113 124.507 114.925C123.109 107.296 122.981 99.6682 122.981 94.2012C123.109 88.6071 126.16 83.5216 130.991 80.7245C144.086 73.2233 158.072 76.0204 167.226 79.5803C173.455 82.2502 177.524 88.48 177.143 95.2183Z" fill="#FFA681"/>
<path d="M124.38 115.052C124.38 115.052 126.541 127.893 128.576 132.597C130.61 137.301 136.204 138.191 138.238 142.133C141.29 147.854 145.739 152.304 153.241 149.507C159.47 147.218 159.216 144.04 162.649 141.624C168.624 137.428 171.549 132.724 171.803 128.91C172.057 125.096 174.981 114.289 174.981 114.289L171.803 114.035C171.803 114.035 170.023 117.849 167.226 122.045C164.556 116.069 151.461 120.392 151.461 120.392L148.918 121.155L146.375 120.392C146.375 120.392 133.153 116.196 130.61 122.426C128.957 120.01 127.686 117.213 127.177 114.289L124.38 115.052ZM149.299 123.316C164.175 120.773 161.505 129.546 161.505 129.8C160.487 130.817 159.47 131.58 158.453 132.089C152.605 135.267 152.096 134.759 149.808 134.886C147.519 135.013 144.341 134.25 141.035 132.47C140.018 131.961 138.493 130.817 136.84 129.292C136.713 129.292 134.424 121.282 149.299 123.316Z" fill="#18315B"/>
<path d="M140.272 107.551C140.272 109.203 139.382 110.475 138.365 110.475C137.348 110.475 136.458 109.203 136.458 107.551C136.458 105.898 137.348 104.626 138.365 104.626C139.51 104.626 140.272 106.025 140.272 107.551Z" fill="#18315B"/>
<path d="M162.394 107.551C162.394 109.203 161.505 110.475 160.487 110.475C159.47 110.475 158.58 109.203 158.58 107.551C158.58 105.898 159.47 104.626 160.487 104.626C161.505 104.626 162.394 106.025 162.394 107.551Z" fill="#18315B"/>
<path d="M167.861 98.0154C167.861 98.0154 160.233 94.9641 154.258 97.5068L154.893 100.812C154.893 100.812 163.539 100.05 167.989 101.83C168.243 100.558 168.37 99.2868 167.861 98.0154Z" fill="#18315B"/>
<path d="M131.373 98.0154C131.373 98.0154 139.128 94.9641 145.104 97.5068L144.468 100.812C144.468 100.812 135.695 100.05 131.373 101.83C130.864 100.558 130.864 99.2868 131.373 98.0154Z" fill="#18315B"/>
<path d="M149.935 119.883C151.206 119.883 152.351 119.375 152.478 119.375C152.859 119.248 152.986 118.866 152.859 118.485C152.732 118.103 152.351 117.976 151.969 118.103C151.333 118.358 149.808 118.739 149.045 118.358C148.918 118.23 148.791 118.103 148.664 117.722C148.409 115.179 149.045 106.788 149.045 106.661C149.045 106.279 148.791 105.898 148.409 105.898C148.028 105.898 147.646 106.152 147.646 106.534C147.646 106.915 146.884 115.179 147.265 117.849C147.392 118.866 147.901 119.375 148.282 119.629C148.918 119.756 149.426 119.883 149.935 119.883Z" fill="#F97853"/>
<path d="M140.781 124.714C141.289 127.512 143.196 132.47 149.299 132.47C155.402 132.47 157.182 127.893 157.69 124.714H140.781Z" fill="white"/>
<path d="M177.143 95.2184C176.888 101.067 176.253 108.441 175.235 114.289L172.057 114.035C172.057 114.035 172.82 109.076 173.201 105.898C173.583 102.72 174.218 96.6169 171.421 95.8541C168.624 95.0912 170.277 88.2257 166.463 85.1744C162.649 82.1231 154.13 79.5803 148.536 83.0131C142.942 86.4458 136.458 84.5387 133.915 85.1744C131.245 85.8101 127.813 89.37 128.703 92.6756C129.72 95.9812 126.796 98.0154 126.033 101.575C125.397 105.008 127.558 114.416 127.558 114.416L124.507 115.052C123.109 107.424 122.981 99.7954 122.981 94.3284C123.109 88.7343 126.16 83.6488 130.991 80.8517C144.086 73.3505 158.072 76.1476 167.226 79.7075C173.455 82.2502 177.524 88.48 177.143 95.2184Z" fill="#18315B"/>
<path d="M213.123 377.085C198.629 380.772 184.008 383.187 169.514 384.204C168.879 384.204 168.243 384.332 167.48 384.332C165.446 384.459 163.539 384.586 161.505 384.713C151.588 385.094 141.671 384.967 131.754 384.204C129.72 384.077 127.813 383.823 125.779 383.696C125.143 383.696 124.507 383.569 123.872 383.442C112.048 382.17 100.224 380.009 88.4 377.085C88.2729 366.151 88.4 331.696 89.0357 294.445C89.1628 289.995 89.1628 285.418 89.29 280.841C90.3071 231.638 92.3413 181.673 96.0283 176.587C99.4611 171.756 110.014 165.653 120.058 160.186C120.693 159.805 121.202 159.55 121.837 159.169C124.126 157.898 126.287 156.753 128.322 155.609C132.771 153.194 136.586 151.032 139.001 149.379V150.778C139.001 150.778 144.468 157.898 150.444 157.389C156.038 156.881 160.233 150.524 160.996 149.379C163.666 151.286 168.37 153.829 173.837 156.626C175.363 157.389 176.888 158.279 178.541 159.042C179.177 159.296 179.686 159.678 180.321 159.932C191.382 165.78 203.46 172.519 207.02 177.35C207.275 177.731 207.529 178.367 207.783 179.13C209.945 186.377 211.216 210.279 211.979 239.139C211.979 239.266 211.979 239.394 211.979 239.394C211.979 240.538 212.106 241.682 212.106 242.953C212.106 243.081 212.106 243.208 212.106 243.462C212.36 253.633 212.614 264.313 212.742 274.992C212.742 275.882 212.742 276.645 212.742 277.535C212.742 277.917 212.742 278.425 212.742 278.807C212.742 280.968 212.742 283.002 212.869 285.163C212.869 286.689 212.869 288.215 212.869 289.868C213.377 329.026 213.25 365.642 213.123 377.085Z" fill="#006BDE"/>
<path d="M212.233 243.335C208.673 237.614 204.986 231.765 201.426 226.68C199.901 224.518 198.502 222.484 197.104 220.577C197.104 220.577 197.104 220.45 196.976 220.45C196.595 219.814 196.086 219.306 195.705 218.797C195.578 218.67 195.578 218.543 195.578 218.543C195.451 218.161 195.578 217.78 195.959 217.526C196.341 217.144 196.976 217.271 197.358 217.653C201.553 223.247 207.02 231.384 212.233 239.648C212.233 239.775 212.233 239.902 212.233 239.902C212.106 240.919 212.106 242.063 212.233 243.335Z" fill="#264CBE"/>
<path d="M207.275 176.714C207.275 176.714 229.143 216.89 242.619 237.232C242.619 237.232 250.248 230.24 260.164 220.958C270.844 210.787 285.592 193.878 285.592 193.878L293.729 203.54C293.729 203.54 260.8 262.787 246.052 270.288C231.304 277.789 204.096 225.027 204.096 225.027L207.275 176.714Z" fill="#006BDE"/>
<path d="M114.336 335.129C113.701 335.129 113.319 334.62 113.319 334.112C114.463 301.692 97.681 291.139 97.4268 291.012C96.9182 290.758 96.7911 290.122 97.0454 289.613C97.2996 289.105 97.9353 288.978 98.4439 289.232C98.571 289.359 103.021 292.029 107.344 299.022C111.285 305.379 115.862 316.567 115.226 334.112C115.353 334.62 114.972 335.129 114.336 335.129Z" fill="#264CBE"/>
<path d="M186.17 304.489C185.661 304.489 185.28 304.107 185.152 303.599C184.644 296.733 186.932 291.775 189.729 285.418C190.619 283.511 191.382 281.604 192.272 279.569C197.739 266.22 195.069 250.836 194.942 250.709C194.815 250.2 195.196 249.692 195.705 249.565C196.214 249.438 196.722 249.819 196.849 250.328C196.976 250.963 199.773 266.347 194.052 280.332C193.162 282.494 192.272 284.401 191.509 286.308C188.712 292.538 186.678 297.115 187.06 303.471C187.187 303.98 186.805 304.489 186.17 304.489Z" fill="#264CBE"/>
<path d="M128.449 155.736C128.83 158.915 129.466 163.111 130.229 167.815C130.483 169.213 130.61 170.612 130.864 172.137C131.5 176.969 132.263 182.308 132.899 187.648C133.026 189.047 133.28 190.572 133.407 191.971C133.916 197.311 134.297 202.524 134.551 207.355C134.551 208.88 134.679 210.279 134.551 211.678C134.551 215.365 134.297 218.797 133.916 221.721C133.661 223.629 133.407 225.408 133.153 227.188C133.026 228.714 132.771 230.113 132.644 231.511C132.009 236.978 131.754 242.191 131.754 247.022C131.754 248.548 131.754 249.946 131.754 251.345C131.754 256.812 132.136 262.024 132.517 266.856C132.644 268.254 132.771 269.78 132.899 271.178C133.534 276.518 134.17 281.604 134.933 286.562C135.187 287.961 135.314 289.486 135.568 290.885C135.823 293.173 136.204 295.462 136.331 297.75C136.586 300.166 136.713 303.09 136.84 306.269C136.84 307.667 136.84 309.066 136.84 310.591C136.84 315.295 136.713 320.635 136.458 326.102C136.458 327.501 136.331 329.026 136.204 330.425C135.95 335.511 135.696 340.723 135.314 345.936C135.187 347.334 135.06 348.86 134.933 350.259C134.551 355.598 134.043 360.938 133.661 365.77C133.534 367.295 133.407 368.694 133.28 370.092C132.771 375.432 132.263 380.263 131.881 384.078C141.798 384.84 151.715 384.967 161.632 384.586C161.886 380.518 162.522 374.034 163.158 366.278C163.285 364.88 163.412 363.354 163.539 361.955C163.92 356.997 164.302 351.784 164.429 346.572C164.429 345.173 164.556 343.647 164.556 342.249C164.683 336.909 164.683 331.696 164.429 326.865C164.302 325.339 164.302 323.941 164.175 322.542C164.048 321.144 163.92 319.618 163.793 318.347C163.285 314.533 163.158 310.718 163.158 307.159C163.158 305.76 163.158 304.234 163.285 302.836C163.539 297.75 164.048 292.792 164.683 287.452C164.81 286.054 165.065 284.528 165.192 283.129C165.827 278.425 166.336 273.34 166.845 267.746C166.972 266.347 167.099 264.821 167.226 263.423C167.607 258.719 167.735 253.633 167.862 248.039C167.862 246.641 167.862 245.115 167.862 243.716C167.862 238.885 167.607 233.8 167.226 228.206C167.226 227.697 167.099 227.188 167.099 226.68C166.972 225.663 166.972 224.773 166.972 223.756C166.717 218.67 166.845 213.457 167.099 208.372C167.226 206.973 167.226 205.448 167.353 204.049C167.735 198.837 168.37 193.751 169.006 188.793C169.26 187.267 169.387 185.868 169.642 184.47C170.404 179.13 171.294 174.044 172.184 169.467C172.439 167.942 172.693 166.543 172.947 165.145C173.456 162.093 173.964 159.296 174.346 157.008C168.879 154.084 164.175 151.541 161.505 149.761C160.742 150.905 156.546 157.389 150.952 157.771C144.85 158.279 139.51 151.16 139.51 151.16V149.761C136.713 151.16 132.899 153.321 128.449 155.736Z" fill="white"/>
<path d="M130.229 167.687C130.483 169.086 130.61 170.485 130.864 172.01C136.331 172.137 142.815 171.374 150.444 169.467C158.708 167.56 166.082 167.942 171.803 168.959C172.057 167.433 172.312 166.035 172.566 164.636C166.336 163.492 158.454 163.11 149.427 165.272C141.798 167.179 135.441 167.942 130.229 167.687Z" fill="#E3E3E3"/>
<path d="M132.771 187.521C132.898 188.92 133.153 190.445 133.28 191.844C138.238 191.717 143.832 190.954 150.444 189.428C157.309 187.902 163.539 187.775 168.751 188.411C169.006 186.885 169.133 185.487 169.387 184.088C163.793 183.453 157.055 183.453 149.554 185.233C143.069 186.631 137.603 187.394 132.771 187.521Z" fill="#E3E3E3"/>
<path d="M134.424 207.355C134.424 208.88 134.551 210.279 134.424 211.677C139.001 211.423 144.341 210.66 150.444 209.262C156.419 207.863 162.013 207.736 166.718 208.118C166.845 206.719 166.845 205.193 166.972 203.795C161.886 203.413 155.911 203.668 149.427 205.066C143.705 206.338 138.747 207.1 134.424 207.355Z" fill="#E3E3E3"/>
<path d="M132.517 231.511C137.603 231.511 143.451 230.621 150.444 228.968C156.546 227.57 162.14 227.315 166.972 227.824C166.972 227.315 166.845 226.807 166.845 226.298C166.717 225.281 166.717 224.391 166.717 223.374C161.632 222.993 155.911 223.247 149.554 224.773C143.197 226.298 137.73 227.061 133.026 227.188C132.771 228.587 132.644 230.112 132.517 231.511Z" fill="#E3E3E3"/>
<path d="M131.5 251.345C136.84 251.345 143.069 250.582 150.443 248.802C156.8 247.276 162.649 247.149 167.607 247.658C167.607 246.259 167.607 244.733 167.607 243.335C162.394 242.826 156.165 243.081 149.426 244.606C142.434 246.259 136.458 247.022 131.5 247.022C131.5 248.42 131.5 249.946 131.5 251.345Z" fill="#E3E3E3"/>
<path d="M132.263 266.856C132.39 268.254 132.517 269.78 132.644 271.178C137.73 271.051 143.451 270.288 150.317 268.636C156.292 267.237 161.759 266.983 166.59 267.491C166.718 266.093 166.845 264.567 166.972 263.169C161.886 262.787 155.911 263.041 149.427 264.44C142.815 265.966 137.094 266.728 132.263 266.856Z" fill="#E3E3E3"/>
<path d="M134.806 286.562C135.06 287.961 135.187 289.486 135.441 290.885C139.891 290.63 144.85 289.868 150.571 288.469C155.656 287.325 160.361 286.943 164.683 287.198C164.81 285.799 165.065 284.274 165.192 282.875C160.488 282.621 155.275 283.002 149.681 284.274C143.96 285.545 139.001 286.308 134.806 286.562Z" fill="#E3E3E3"/>
<path d="M136.585 306.269C136.585 307.667 136.585 309.066 136.585 310.591C140.654 310.21 145.231 309.447 150.316 308.303C154.766 307.286 159.089 306.904 162.903 306.904C162.903 305.506 162.903 303.98 163.03 302.582C158.835 302.582 154.258 302.963 149.426 304.107C144.722 305.124 140.4 305.887 136.585 306.269Z" fill="#E3E3E3"/>
<path d="M136.204 330.425C140.399 330.043 145.104 329.281 150.443 328.136C155.529 326.992 160.106 326.611 164.301 326.865C164.174 325.339 164.174 323.941 164.047 322.542C159.597 322.415 154.766 322.796 149.426 324.068C144.595 325.212 140.272 325.975 136.331 326.229C136.331 327.501 136.204 328.899 136.204 330.425Z" fill="#E3E3E3"/>
<path d="M134.933 350.259C139.51 350.004 144.595 349.241 150.444 347.843C155.402 346.699 160.106 346.317 164.302 346.444C164.302 345.046 164.429 343.52 164.429 342.122C159.979 341.995 154.893 342.376 149.554 343.647C144.214 344.919 139.51 345.682 135.314 345.936C135.187 347.461 135.06 348.86 134.933 350.259Z" fill="#E3E3E3"/>
<path d="M133.28 370.219C138.238 370.092 143.832 369.329 150.444 367.804C154.893 366.787 159.089 366.405 163.03 366.405C163.157 365.007 163.285 363.481 163.412 362.082C159.216 362.082 154.512 362.464 149.554 363.608C143.578 365.007 138.238 365.769 133.788 366.024C133.534 367.295 133.407 368.821 133.28 370.219Z" fill="#E3E3E3"/>
<path d="M167.48 384.332C168.116 384.332 168.752 384.204 169.514 384.204C173.456 361.319 171.167 327.628 170.277 317.33C169.387 306.65 171.04 292.792 174.854 279.569C177.778 269.271 175.999 245.242 174.6 226.044C174.219 220.704 173.837 215.491 173.583 211.296C172.82 197.692 177.778 172.646 180.448 160.059C179.813 159.678 179.304 159.423 178.668 159.169C175.999 171.629 170.913 197.184 171.676 211.423C171.93 215.619 172.312 220.704 172.693 226.171C174.091 245.242 175.871 269.017 173.074 279.061C169.26 292.538 167.607 306.65 168.497 317.584C169.133 327.755 171.422 361.574 167.48 384.332Z" fill="#264CBE"/>
<path d="M127.559 291.012C129.847 305.124 129.084 314.278 128.321 324.831C128.067 328.264 127.813 331.823 127.559 335.765C126.923 348.097 124.889 372.762 123.999 383.442C124.634 383.569 125.27 383.569 125.906 383.696C126.796 373.016 128.957 348.224 129.466 335.892C129.72 331.951 129.974 328.518 130.229 325.085C131.118 314.405 131.754 305.124 129.466 290.758C128.957 287.706 128.449 284.528 127.94 281.476C125.397 266.093 122.6 250.2 123.872 242.572C124.126 240.665 124.634 238.631 125.016 236.342C126.796 227.188 128.957 215.746 128.194 205.829C127.559 196.039 123.49 169.34 121.965 159.296C121.329 159.678 120.82 159.932 120.185 160.313C121.837 170.866 125.652 196.421 126.287 205.956C126.923 215.619 124.762 226.934 123.109 235.961C122.727 238.249 122.346 240.284 121.965 242.191C120.693 250.073 123.236 265.457 126.033 281.731C126.542 284.782 127.05 287.961 127.559 291.012Z" fill="#264CBE"/>
<path d="M89.544 192.988C89.544 192.988 69.9647 258.464 65.0063 281.731C60.0478 304.997 59.7936 353.564 59.7936 353.564C59.7936 353.564 51.2753 371.363 51.021 379.246C50.7667 387.637 55.2166 394.375 54.708 399.97C54.1995 405.436 60.9378 402.512 59.0307 391.324C57.1237 380.136 62.4635 369.965 64.8791 370.346C67.1676 370.728 62.972 382.552 65.0063 386.874C67.0405 391.197 69.7104 382.806 72.3803 377.72C75.1774 372.508 74.9231 361.065 73.7788 352.801C72.5074 344.664 87.3827 294.953 87.3827 280.586L106.199 217.144C106.199 217.144 100.097 190.699 89.544 192.988Z" fill="#FFA681"/>
<path d="M108.615 215.492C107.979 219.687 105.564 226.934 102.639 235.961C102.385 236.724 102.131 237.487 101.877 238.249V238.377C101.114 240.665 100.351 242.953 99.588 245.496C96.2824 255.54 92.5954 267.11 89.5441 279.061C88.527 283.129 87.5098 287.198 86.6199 291.393C85.4756 296.606 84.5857 301.819 83.8228 306.904C81.2801 325.339 76.5759 348.606 76.5759 348.606C69.5833 351.53 58.5222 347.716 58.5222 347.716C58.5222 347.716 58.268 314.151 59.7936 301.183C61.7007 285.036 64.2435 273.594 67.2948 260.499C75.686 224.264 90.5612 188.792 94.6296 179.384C95.011 178.621 95.2653 178.113 95.3924 177.604H98.9523C105.564 182.054 110.395 204.176 108.615 215.492Z" fill="#006BDE"/>
<path d="M57.7595 340.977L58.2681 348.733C58.2681 348.733 68.6934 352.166 76.576 349.75L78.6103 342.884C71.1091 343.266 64.1165 343.012 57.7595 340.977Z" fill="#009CF8"/>
<path d="M102.639 236.088C102.639 236.215 102.639 236.342 102.639 236.469C102.385 237.105 102.131 237.741 101.877 238.504V238.631C101.114 240.792 100.351 243.208 99.588 245.75C95.5196 258.719 91.324 275.12 89.4169 285.672C89.4169 283.511 89.4169 281.476 89.5441 279.315C88.527 283.384 87.5098 287.452 86.6199 291.648C87.0013 287.833 88.1455 282.112 89.6712 275.501C92.7225 262.279 97.2995 246.005 100.987 235.961C101.114 235.452 101.749 235.198 102.258 235.325C102.385 235.325 102.639 235.707 102.639 236.088Z" fill="#264CBE"/>
<path d="M453.669 409.124H500.075C499.947 405.945 499.82 402.767 499.566 399.97C498.803 384.077 498.04 373.271 498.04 373.271L460.28 374.923L457.102 375.051L451.508 375.305C451.508 375.305 452.016 384.967 452.906 399.08C453.288 402.258 453.542 405.691 453.669 409.124Z" fill="#18315B"/>
<path d="M457.356 375.051L451.761 375.305C451.761 375.305 452.27 384.967 453.16 399.08C467.654 400.224 483.419 400.733 499.693 399.843C498.93 383.95 498.167 373.144 498.167 373.144L460.407 374.796L457.356 375.051Z" fill="#000B29"/>
<path d="M462.314 409.124C461.424 394.376 460.789 381.916 460.407 374.923L457.229 375.051C457.61 382.043 458.246 394.503 459.136 409.124H462.314Z" fill="#000B29"/>
<path d="M440.065 409.124C440.319 405.182 440.574 401.368 440.701 397.936C441.464 384.459 441.972 375.305 441.972 375.305L435.997 375.051L432.818 374.923L395.567 373.271C395.567 373.271 395.185 379.755 394.55 389.926C394.295 395.393 393.914 401.877 393.532 409.124H440.065Z" fill="#18315B"/>
<path d="M394.804 389.926C404.975 392.341 421.249 395.647 440.828 397.936C441.591 384.459 442.1 375.305 442.1 375.305L436.124 375.051L432.946 374.923L395.694 373.271C395.694 373.271 395.313 379.755 394.804 389.926Z" fill="#000B29"/>
<path d="M434.217 409.124C435.107 394.503 435.742 381.916 436.124 375.05L432.945 374.923C432.564 381.916 431.928 394.503 431.038 409.124H434.217Z" fill="#000B29"/>
<path d="M504.906 380.518C495.498 383.06 485.962 385.095 476.554 386.366C473.248 386.874 469.943 387.256 466.764 387.51C462.315 387.892 457.865 388.146 453.542 388.273C446.168 388.527 438.921 388.4 431.547 387.764C417.435 386.747 403.195 384.205 389.083 380.39C388.956 367.168 389.21 319.872 390.1 274.23C390.1 272.195 390.227 270.161 390.227 268.127C390.227 267.746 390.227 267.237 390.227 266.856C390.227 266.347 390.227 265.966 390.227 265.457C390.227 264.059 390.354 262.533 390.354 261.134C390.481 258.21 390.481 255.286 390.608 252.362C390.608 250.582 390.735 248.929 390.735 247.276C390.735 246.895 390.735 246.513 390.735 246.259C390.735 245.115 390.863 243.971 390.863 242.954C390.863 242.572 390.863 242.318 390.863 241.936C390.863 240.919 390.99 239.902 390.99 238.885C390.99 237.995 390.99 237.232 391.117 236.342C392.261 205.575 393.787 181.291 396.075 177.859C400.017 172.01 413.239 164.382 423.919 158.025C427.733 155.736 432.31 153.448 434.853 151.795C438.667 154.846 441.337 157.644 446.931 157.389C453.161 157.135 454.813 153.448 457.102 150.142C458.5 151.032 462.315 154.084 464.222 155.228C465.874 156.245 467.654 157.262 469.561 158.279C472.486 159.932 475.537 161.712 478.588 163.492C483.038 166.162 487.488 168.832 491.175 171.502C494.862 174.172 497.786 176.587 499.185 178.749C501.219 181.927 502.618 202.142 503.507 228.714C503.507 229.604 503.507 230.621 503.635 231.511C503.635 231.638 503.635 231.765 503.635 231.892C503.635 232.91 503.762 233.8 503.762 234.817C503.889 237.868 503.889 240.919 504.016 243.971C504.016 244.606 504.016 245.242 504.016 246.005C504.016 246.513 504.016 247.022 504.016 247.531C504.016 248.802 504.016 250.073 504.143 251.345C504.143 251.599 504.143 251.853 504.143 252.108C504.27 255.54 504.27 258.973 504.397 262.533C504.397 263.55 504.397 264.567 504.397 265.584C505.287 313.77 505.033 366.278 504.906 380.518Z" fill="#006BDE"/>
<path d="M504.397 265.711L489.395 280.841L475.41 266.728L461.425 280.841L447.439 266.601L433.454 280.841L419.342 266.601L405.229 280.841L389.973 265.457C389.973 264.058 390.1 262.533 390.1 261.134C390.227 258.21 390.227 255.286 390.354 252.362L405.229 237.232L419.342 251.472L433.454 237.232L447.439 251.472L461.425 237.232L475.41 251.345L489.395 237.232L504.143 252.235C504.27 255.667 504.27 259.1 504.397 262.66C504.397 263.677 504.397 264.694 504.397 265.711Z" fill="#264CBE"/>
<path d="M478.588 343.901C458.5 343.774 441.464 334.747 430.657 327.119C418.96 318.855 411.84 310.464 411.84 310.464C411.459 310.083 411.586 309.447 411.968 309.065C412.349 308.684 412.985 308.811 413.366 309.193C413.493 309.32 420.359 317.457 431.928 325.594C442.481 333.095 459.263 341.994 478.715 341.994C479.224 341.994 479.732 342.376 479.732 343.012C479.605 343.52 479.224 343.901 478.588 343.901Z" fill="#264CBE"/>
<path d="M466.128 332.078C449.092 328.772 433.962 315.677 433.327 315.041C432.945 314.66 432.945 314.024 433.199 313.643C433.581 313.261 434.217 313.261 434.598 313.515C434.725 313.643 452.525 329.026 470.578 330.679C471.087 330.679 471.468 331.188 471.468 331.696C471.468 332.205 470.96 332.586 470.451 332.586C469.053 332.586 467.527 332.332 466.128 332.078Z" fill="#264CBE"/>
<path d="M432.055 183.961C431.547 183.961 431.166 183.58 431.166 183.198C431.038 182.69 431.42 182.181 431.928 182.054C456.339 177.477 463.713 161.712 463.713 161.585C463.967 161.076 464.476 160.822 464.984 161.076C465.493 161.331 465.747 161.839 465.493 162.348C465.239 162.983 457.61 179.13 432.31 183.961C432.055 183.961 432.055 183.961 432.055 183.961Z" fill="#264CBE"/>
<path d="M402.178 226.171C402.178 226.298 402.051 226.425 402.051 226.425C401.669 227.061 401.288 227.57 400.906 228.205V228.332C399.635 230.367 398.364 232.401 397.092 234.689C395.058 238.249 392.897 242.191 390.863 246.132C390.863 244.988 390.99 243.843 390.99 242.826C390.99 242.445 390.99 242.191 390.99 241.809C394.295 235.579 397.728 229.731 400.525 225.408C400.779 224.9 401.415 224.773 401.796 225.154C402.178 225.408 402.305 225.79 402.178 226.171Z" fill="#264CBE"/>
<path d="M525.248 190.445C525.248 190.445 556.524 180.401 565.678 159.932C568.348 153.957 546.353 93.8199 546.353 93.8199L535.674 94.3285C535.674 94.3285 538.725 115.179 540.505 127.003C542.031 136.793 544.446 148.362 545.336 152.177C545.463 153.067 545.59 153.448 545.59 153.448C545.082 153.575 544.573 153.575 544.065 153.702C529.444 156.626 510.882 166.162 510.882 166.162L525.248 190.445Z" fill="#FFA681"/>
<path d="M553.473 159.296C553.854 159.678 554.49 159.55 554.871 159.042C555.253 158.533 555.126 158.025 554.617 157.643C552.329 155.991 548.896 154.083 545.336 152.176C545.463 153.066 545.59 153.448 545.59 153.448C545.082 153.575 544.573 153.575 544.065 153.702C547.752 155.736 551.184 157.643 553.473 159.296Z" fill="#F97853"/>
<path d="M477.444 162.983C477.444 162.983 468.036 185.105 492.065 197.438C508.72 205.956 546.607 183.707 546.607 183.707L533.131 154.974C533.131 154.974 498.422 169.34 477.444 162.983Z" fill="#006BDE"/>
<path d="M540.886 59.8738C539.996 60.5095 540.123 64.578 540.505 68.3921C540.378 68.3921 540.25 68.3921 540.123 68.5193C538.979 63.4337 536.818 54.6611 534.911 56.3139C533.639 57.4582 535.292 64.9594 536.436 69.4092C536.182 69.5364 535.928 69.5364 535.673 69.6635C534.275 64.3237 531.096 54.0255 529.062 56.0597C527.664 57.3311 530.334 66.485 531.732 71.062C531.478 71.1892 531.351 71.1892 531.096 71.3163C529.698 66.8665 526.647 58.3482 524.612 60.3824C522.705 62.1623 528.045 75.0033 528.045 75.0033L529.444 79.9617C529.444 79.9617 527.791 80.7246 525.248 77.8004C522.705 74.8762 519.527 74.3676 521.688 78.5632C524.104 83.3945 527.664 86.8272 529.316 90.1328C530.842 93.5656 535.928 94.5827 535.928 94.5827L545.844 94.0741C545.844 94.0741 547.752 77.1647 544.065 69.155C543.683 64.4508 542.539 58.7296 540.886 59.8738Z" fill="#FFA681"/>
<path d="M417.435 98.7784C417.435 115.815 427.86 127.512 444.897 127.512C461.933 127.512 473.757 114.925 473.757 97.8884C473.757 93.1843 472.994 88.8616 471.468 84.9203C471.341 84.666 471.341 84.4117 471.214 84.2846C471.087 83.9031 470.833 83.3946 470.706 83.0132C470.451 82.3775 470.07 81.7418 469.689 81.1061C465.239 73.0964 457.356 68.138 446.676 68.138C426.334 68.0108 417.435 81.8689 417.435 98.7784Z" fill="#18315B"/>
<path d="M421.249 106.152C421.249 106.152 416.545 99.7955 412.985 105.008C409.425 110.221 414.383 125.605 423.029 121.791L421.249 106.152Z" fill="#F97853"/>
<path d="M421.249 117.086C420.995 117.086 420.613 116.832 420.613 116.578C419.342 111.874 414.383 109.966 414.256 109.839C413.875 109.712 413.748 109.331 413.875 108.949C414.002 108.568 414.383 108.441 414.765 108.568C415.019 108.695 420.359 110.729 421.885 116.196C422.012 116.578 421.757 116.959 421.376 117.086H421.249Z" fill="#EA5143"/>
<path d="M416.291 114.671C416.163 114.671 416.036 114.671 415.909 114.544C415.528 114.289 415.528 113.908 415.655 113.527C415.655 113.527 416.545 112.128 418.325 111.365C418.706 111.238 419.088 111.365 419.342 111.747C419.469 112.128 419.342 112.509 418.961 112.764C417.562 113.399 416.926 114.417 416.926 114.417C416.672 114.544 416.545 114.671 416.291 114.671Z" fill="#EA5143"/>
<path d="M469.943 106.152C469.943 106.152 474.647 99.7955 478.207 105.008C481.767 110.221 476.809 125.605 468.163 121.791L469.943 106.152Z" fill="#F97853"/>
<path d="M469.943 117.086C470.197 117.086 470.579 116.832 470.579 116.578C471.85 111.874 476.808 109.966 476.936 109.839C477.317 109.712 477.444 109.331 477.317 108.949C477.19 108.568 476.808 108.441 476.427 108.568C476.173 108.695 470.833 110.729 469.307 116.196C469.18 116.578 469.434 116.959 469.816 117.086H469.943Z" fill="#EA5143"/>
<path d="M474.901 114.671C475.029 114.671 475.156 114.671 475.283 114.544C475.664 114.289 475.664 113.908 475.537 113.527C475.537 113.527 474.647 112.128 472.867 111.365C472.486 111.238 472.104 111.365 471.85 111.747C471.723 112.128 471.85 112.509 472.232 112.764C473.63 113.399 474.266 114.417 474.266 114.417C474.52 114.544 474.774 114.671 474.901 114.671Z" fill="#EA5143"/>
<path d="M457.229 134.886V150.143C457.229 150.143 452.652 157.898 446.549 158.407C440.447 158.915 434.98 151.668 434.98 151.668V136.03L457.229 134.886Z" fill="#FFA681"/>
<path d="M457.229 134.886V141.624C453.033 146.201 445.786 147.345 434.852 145.82V136.03L457.229 134.886Z" fill="#F97853"/>
<path d="M473.376 95.6C473.121 101.575 472.486 108.95 471.341 114.925C471.087 116.451 470.706 117.849 470.324 118.993C467.146 130.309 459.009 149.634 436.505 141.497C426.589 137.937 421.884 126.876 419.85 115.561C418.452 107.932 418.197 100.177 418.325 94.5829C418.452 88.9888 421.503 83.7761 426.461 80.979C439.811 73.4778 453.796 76.2749 463.077 79.8348C469.561 82.5047 473.63 88.7345 473.376 95.6Z" fill="#FFA681"/>
<path d="M435.997 108.187C435.997 109.839 435.107 111.111 434.09 111.111C433.073 111.111 432.183 109.839 432.183 108.187C432.183 106.534 433.073 105.262 434.09 105.262C435.107 105.135 435.997 106.534 435.997 108.187Z" fill="#18315B"/>
<path d="M458.119 108.06C458.119 109.712 457.229 110.984 456.212 110.984C455.195 110.984 454.305 109.712 454.305 108.06C454.305 106.407 455.195 105.135 456.212 105.135C457.229 105.135 458.119 106.407 458.119 108.06Z" fill="#18315B"/>
<path d="M462.315 97.8883C462.315 97.8883 456.339 95.5998 451.762 97.5069L452.271 100.05C452.271 100.05 459.009 99.5411 462.315 100.813C462.696 99.9226 462.696 98.9054 462.315 97.8883Z" fill="#18315B"/>
<path d="M427.86 97.8883C427.86 97.8883 433.836 95.5998 438.413 97.5069L437.904 100.05C437.904 100.05 431.166 99.5411 427.86 100.813C427.479 99.9226 427.352 98.9054 427.86 97.8883Z" fill="#18315B"/>
<path d="M445.913 120.519C447.185 120.519 448.329 120.011 448.583 120.011C448.965 119.883 449.092 119.375 448.965 119.121C448.838 118.739 448.329 118.612 448.075 118.739C447.439 118.993 445.786 119.375 445.151 118.993C445.024 118.866 444.896 118.739 444.769 118.358C444.515 115.815 445.151 107.297 445.151 107.297C445.151 106.915 444.896 106.534 444.515 106.534C444.134 106.534 443.752 106.788 443.752 107.17C443.752 107.551 442.989 115.942 443.371 118.612C443.498 119.629 444.006 120.138 444.388 120.392C444.769 120.392 445.278 120.519 445.913 120.519Z" fill="#F97853"/>
<path d="M436.124 124.206C437.268 128.402 440.701 132.597 445.532 132.597C450.236 132.597 453.669 128.402 454.94 124.206H436.124Z" fill="white"/>
<path d="M445.024 137.174C446.931 137.174 448.456 136.284 448.584 136.157C448.965 135.903 449.092 135.521 448.838 135.14C448.584 134.759 448.202 134.631 447.821 134.886C447.821 134.886 446.549 135.649 445.024 135.649C443.625 135.649 442.354 134.886 442.354 134.886C441.972 134.631 441.591 134.759 441.337 135.14C441.082 135.521 441.209 135.903 441.591 136.157C441.718 136.284 443.244 137.174 445.024 137.174Z" fill="#F97853"/>
<path d="M472.613 106.279H469.307C469.688 102.974 470.197 97.1254 467.527 96.3626C459.009 93.6927 470.07 87.7172 466.256 84.6659C462.442 81.6145 452.779 82.8859 446.041 82.7588C439.302 82.5045 428.496 82.6316 425.826 83.2673C423.156 83.903 424.681 88.2257 425.571 91.6585C426.588 95.0912 422.393 98.7782 421.63 102.338C421.376 103.355 421.503 104.881 421.63 106.407H418.833C418.452 102.084 418.452 98.1426 418.579 94.9641C418.706 89.37 421.757 84.1573 426.716 81.3603C440.065 73.8591 454.05 76.6561 463.332 80.216C469.688 82.6316 473.884 88.9886 473.503 95.8541C473.248 98.9054 472.994 102.592 472.613 106.279Z" fill="#18315B"/>
<path d="M433.709 116.705C429.132 116.705 425.445 113.018 425.445 108.441C425.445 103.864 429.132 100.177 433.709 100.177C438.286 100.177 441.973 103.864 441.973 108.441C441.973 113.018 438.286 116.705 433.709 116.705ZM433.709 101.575C429.894 101.575 426.716 104.627 426.716 108.568C426.716 112.382 429.767 115.561 433.709 115.561C437.523 115.561 440.701 112.509 440.701 108.568C440.701 104.627 437.523 101.575 433.709 101.575Z" fill="white"/>
<path d="M456.212 116.705C451.635 116.705 447.948 113.018 447.948 108.441C447.948 103.864 451.635 100.177 456.212 100.177C460.789 100.177 464.476 103.864 464.476 108.441C464.476 113.018 460.789 116.705 456.212 116.705ZM456.212 101.575C452.398 101.575 449.219 104.627 449.219 108.568C449.219 112.382 452.27 115.561 456.212 115.561C460.026 115.561 463.204 112.509 463.204 108.568C463.204 104.627 460.026 101.575 456.212 101.575Z" fill="white"/>
<path d="M426.843 105.771C426.716 105.771 426.462 105.771 426.334 105.644C426.334 105.644 422.52 101.957 417.689 103.101C417.308 103.228 417.053 102.974 416.926 102.593C416.799 102.211 417.053 101.957 417.435 101.83C423.029 100.558 427.097 104.5 427.352 104.627C427.606 104.881 427.606 105.262 427.352 105.517C427.224 105.771 427.097 105.771 426.843 105.771Z" fill="white"/>
<path d="M463.205 105.771C462.95 105.771 462.823 105.644 462.696 105.517C462.442 105.262 462.569 104.881 462.823 104.627C463.077 104.5 468.926 100.685 473.884 101.575C474.266 101.575 474.52 101.957 474.393 102.338C474.393 102.72 474.011 102.974 473.63 102.847C469.18 102.084 463.586 105.771 463.586 105.771C463.459 105.771 463.332 105.771 463.205 105.771Z" fill="white"/>
<path d="M448.456 106.661C448.456 106.661 446.93 104.627 444.896 104.627C442.862 104.627 441.591 106.661 441.463 106.661L440.446 105.898C440.573 105.771 442.226 103.228 444.896 103.228C447.566 103.228 449.346 105.771 449.473 105.898L448.456 106.661Z" fill="white"/>
<path d="M399.508 225.027C399.508 225.027 390.863 241.809 380.691 255.032C377.64 258.973 374.589 262.533 371.41 265.33C366.452 269.907 361.494 272.196 357.552 270.161C342.804 262.66 309.875 203.414 309.875 203.414L318.012 193.751C318.012 193.751 332.633 210.66 343.44 220.832C353.357 230.113 360.985 237.105 360.985 237.105C362.383 235.071 363.782 232.783 365.308 230.367C366.96 227.824 368.613 225.027 370.266 222.357C382.599 202.142 396.33 177.732 396.33 177.732L399.508 225.027Z" fill="#FFA681"/>
<path d="M380.691 255.032C377.64 258.973 374.589 262.533 371.41 265.33L365.18 230.494C366.833 227.951 368.486 225.154 370.139 222.484L380.691 255.032Z" fill="#F97853"/>
<path d="M396.202 177.859L366.579 224.391L376.496 265.33L401.034 225.408C401.034 225.535 403.958 198.201 396.202 177.859Z" fill="#006BDE"/>
<path d="M358.951 409.124C356.79 397.427 354.755 384.205 352.848 371.364C352.467 368.567 352.085 365.769 351.577 362.972C350.051 352.293 348.653 342.249 347.636 333.985C347.254 330.806 346.873 327.882 346.491 325.339C345.474 317.075 344.839 311.863 344.839 311.863L298.051 313.643L251.137 311.863C251.137 311.863 249.866 322.034 247.959 336.909C247.577 339.579 247.196 342.503 246.815 345.427C245.798 353.183 244.526 361.828 243.255 370.601C243.255 370.728 243.255 370.855 243.255 370.982C242.873 373.779 242.492 376.449 241.983 379.246V379.373C240.966 385.985 239.949 392.723 238.805 399.08C238.423 401.75 237.915 404.292 237.534 406.835C237.406 407.598 237.279 408.361 237.152 409.124H358.951Z" fill="#006BDE"/>
<path d="M261.944 325.848C261.944 328.264 259.91 330.298 257.494 330.298C255.079 330.298 253.044 328.264 253.044 325.848C253.044 323.432 255.079 321.398 257.494 321.398C260.037 321.398 261.944 323.305 261.944 325.848Z" fill="#264CBE"/>
<path d="M272.878 342.885C272.878 345.3 270.844 347.334 268.428 347.334C266.012 347.334 263.978 345.3 263.978 342.885C263.978 340.469 266.012 338.435 268.428 338.435C270.971 338.435 272.878 340.469 272.878 342.885Z" fill="#264CBE"/>
<path d="M294.364 334.112C294.364 336.528 292.33 338.562 289.914 338.562C287.499 338.562 285.465 336.528 285.465 334.112C285.465 331.696 287.499 329.662 289.914 329.662C292.457 329.662 294.364 331.569 294.364 334.112Z" fill="#264CBE"/>
<path d="M260.418 360.938C260.418 363.354 258.384 365.388 255.968 365.388C253.553 365.388 251.518 363.354 251.518 360.938C251.518 358.522 253.553 356.488 255.968 356.488C258.511 356.615 260.418 358.522 260.418 360.938Z" fill="#264CBE"/>
<path d="M287.372 359.158C287.372 361.574 285.337 363.608 282.922 363.608C280.506 363.608 278.472 361.574 278.472 359.158C278.472 356.743 280.506 354.708 282.922 354.708C285.337 354.708 287.372 356.615 287.372 359.158Z" fill="#264CBE"/>
<path d="M250.883 340.977C250.883 343.266 249.103 345.173 246.941 345.3C247.323 342.376 247.704 339.452 248.086 336.782C249.738 337.418 250.883 339.07 250.883 340.977Z" fill="#264CBE"/>
<path d="M331.107 384.967C331.107 387.383 329.073 389.417 326.657 389.417C324.242 389.417 322.208 387.383 322.208 384.967C322.208 382.552 324.242 380.518 326.657 380.518C329.2 380.645 331.107 382.552 331.107 384.967Z" fill="#264CBE"/>
<path d="M329.073 360.938C329.073 363.354 327.039 365.388 324.623 365.388C322.208 365.388 320.173 363.354 320.173 360.938C320.173 358.522 322.208 356.488 324.623 356.488C327.039 356.488 329.073 358.522 329.073 360.938Z" fill="#264CBE"/>
<path d="M352.848 371.364C352.339 371.618 351.704 371.745 351.068 371.745C348.652 371.745 346.618 369.711 346.618 367.295C346.618 364.88 348.652 362.845 351.068 362.845C351.195 362.845 351.449 362.845 351.577 362.845C351.958 365.77 352.467 368.567 352.848 371.364Z" fill="#264CBE"/>
<path d="M333.523 402.64C333.523 405.055 331.489 407.09 329.073 407.09C326.657 407.09 324.623 405.055 324.623 402.64C324.623 400.224 326.657 398.19 329.073 398.19C331.489 398.19 333.523 400.097 333.523 402.64Z" fill="#264CBE"/>
<path d="M352.339 395.52C352.339 397.936 350.305 399.97 347.889 399.97C345.474 399.97 343.439 397.936 343.439 395.52C343.439 393.104 345.474 391.07 347.889 391.07C350.305 391.197 352.339 393.104 352.339 395.52Z" fill="#264CBE"/>
<path d="M313.054 409.124C312.291 407.98 310.892 407.217 309.367 407.217C307.841 407.217 306.57 407.98 305.68 409.124H313.054Z" fill="#264CBE"/>
<path d="M257.621 388.782C257.621 391.197 255.587 393.231 253.171 393.231C250.755 393.231 248.721 391.197 248.721 388.782C248.721 386.366 250.755 384.332 253.171 384.332C255.587 384.459 257.621 386.366 257.621 388.782Z" fill="#264CBE"/>
<path d="M245.924 374.924C245.924 377.212 244.271 378.992 242.11 379.246V379.119C242.492 376.322 243 373.652 243.381 370.855C244.907 371.618 245.924 373.144 245.924 374.924Z" fill="#264CBE"/>
<path d="M240.839 402.64C240.839 404.674 239.567 406.327 237.66 406.835C238.169 404.292 238.55 401.75 238.932 399.08C240.076 399.843 240.839 401.114 240.839 402.64Z" fill="#264CBE"/>
<path d="M268.555 404.42C268.555 406.835 266.521 408.87 264.105 408.87C261.69 408.87 259.656 406.835 259.656 404.42C259.656 402.004 261.69 399.97 264.105 399.97C266.521 400.097 268.555 402.004 268.555 404.42Z" fill="#264CBE"/>
<path d="M291.694 400.987C291.694 403.402 289.66 405.437 287.245 405.437C284.829 405.437 282.795 403.402 282.795 400.987C282.795 398.571 284.829 396.537 287.245 396.537C289.787 396.537 291.694 398.571 291.694 400.987Z" fill="#264CBE"/>
<path d="M275.166 379.373C275.166 381.789 273.132 383.823 270.716 383.823C268.301 383.823 266.267 381.789 266.267 379.373C266.267 376.958 268.301 374.923 270.716 374.923C273.132 374.923 275.166 376.958 275.166 379.373Z" fill="#264CBE"/>
<path d="M298.814 374.923C298.814 377.339 296.78 379.373 294.364 379.373C291.949 379.373 289.914 377.339 289.914 374.923C289.914 372.508 291.949 370.474 294.364 370.474C296.78 370.474 298.814 372.508 298.814 374.923Z" fill="#264CBE"/>
<path d="M309.494 351.657C309.494 354.073 307.459 356.107 305.044 356.107C302.628 356.107 300.594 354.073 300.594 351.657C300.594 349.241 302.628 347.207 305.044 347.207C307.459 347.207 309.494 349.241 309.494 351.657Z" fill="#264CBE"/>
<path d="M347.635 333.985C347.381 334.112 347 334.112 346.746 334.112C344.33 334.112 342.296 332.078 342.296 329.662C342.296 327.246 344.203 325.339 346.491 325.212C346.873 327.882 347.254 330.806 347.635 333.985Z" fill="#264CBE"/>
<path d="M324.623 334.112C324.623 336.528 322.589 338.562 320.173 338.562C317.758 338.562 315.723 336.528 315.723 334.112C315.723 331.696 317.758 329.662 320.173 329.662C322.716 329.662 324.623 331.569 324.623 334.112Z" fill="#264CBE"/>
<path d="M340.77 349.75C340.77 352.166 338.736 354.2 336.32 354.2C333.905 354.2 331.87 352.166 331.87 349.75C331.87 347.335 333.905 345.3 336.32 345.3C338.863 345.3 340.77 347.335 340.77 349.75Z" fill="#264CBE"/>
<path d="M313.816 388.782C313.816 391.197 311.782 393.231 309.366 393.231C306.951 393.231 304.917 391.197 304.917 388.782C304.917 386.366 306.951 384.332 309.366 384.332C311.909 384.459 313.816 386.366 313.816 388.782Z" fill="#264CBE"/>
<path d="M347.635 312.88C322.97 329.026 277.709 327.755 249.23 312.88C251.9 295.97 255.587 279.061 254.697 256.43C254.57 254.015 254.443 251.472 254.443 249.056C254.315 246.895 254.188 244.861 254.061 242.699C251.646 205.193 245.161 174.553 248.34 170.612C249.738 168.832 252.027 167.052 254.824 165.145C255.968 164.382 257.112 163.619 258.384 162.856C261.308 161.076 264.614 159.296 267.919 157.516C275.802 153.321 283.684 149.507 287.626 146.837C291.567 148.617 294.746 149.507 298.051 149.507C298.178 149.507 298.305 149.507 298.305 149.507C298.433 149.507 298.56 149.507 298.56 149.507C301.992 149.507 305.044 148.617 308.985 146.837C312.672 149.252 319.665 152.685 326.784 156.499C331.997 159.296 337.337 162.221 341.405 165.018C344.075 166.925 346.364 168.705 347.635 170.357C349.161 172.265 348.525 180.91 347.254 193.624C345.982 206.211 343.948 222.739 342.804 240.919C342.423 246.005 342.168 251.218 342.041 256.43C341.405 279.061 344.965 295.97 347.635 312.88Z" fill="#009CF8"/>
<path d="M332.633 294.19C312.799 294.063 295.763 285.036 285.083 277.535C273.513 269.398 266.521 261.007 266.394 261.007C266.012 260.626 266.139 259.99 266.521 259.609C266.902 259.227 267.538 259.354 267.919 259.736C268.046 259.863 274.912 268 286.354 276.01C296.907 283.384 313.435 292.283 332.76 292.283C333.269 292.283 333.777 292.665 333.65 293.3C333.523 293.809 333.141 294.19 332.633 294.19Z" fill="#006BDE"/>
<path d="M319.411 282.621C302.501 279.315 287.499 266.347 286.863 265.711C286.482 265.33 286.482 264.821 286.736 264.313C287.117 263.931 287.626 263.931 288.135 264.186C288.262 264.313 305.934 279.569 323.861 281.222C324.369 281.222 324.75 281.731 324.75 282.239C324.75 282.748 324.242 283.129 323.733 283.129C322.335 283.129 320.809 282.875 319.411 282.621Z" fill="#006BDE"/>
<path d="M294.364 195.149C293.856 195.149 293.474 194.768 293.474 194.387C293.347 193.878 293.729 193.369 294.237 193.242C318.394 188.665 325.768 173.027 325.768 172.9C326.022 172.392 326.53 172.264 327.039 172.392C327.548 172.646 327.675 173.154 327.548 173.663C327.293 174.299 319.792 190.318 294.619 195.022C294.491 195.149 294.491 195.149 294.364 195.149Z" fill="#006BDE"/>
<path d="M327.039 156.499C322.208 167.433 310.384 178.748 295 176.206C280.125 173.663 273.005 165.78 267.919 157.643C275.802 153.448 283.685 149.634 287.626 146.964C291.567 148.744 294.746 149.634 298.051 149.634C298.178 149.634 298.306 149.634 298.306 149.634C298.433 149.634 298.56 149.634 298.56 149.634C301.993 149.634 305.044 148.744 308.985 146.964C312.927 149.252 319.919 152.685 327.039 156.499Z" fill="#FFA681"/>
<path d="M314.198 147.599C313.816 147.599 313.435 147.981 313.435 148.362C313.435 148.998 313.181 163.492 300.213 164.636C288.134 165.653 283.176 154.084 281.65 149.379C281.523 149.125 281.269 148.871 281.015 148.871H280.888C280.379 148.871 280.125 149.379 280.252 149.761C281.905 154.719 287.117 166.67 299.45 166.162C299.831 166.162 300.086 166.162 300.467 166.162C314.834 164.89 315.088 148.617 315.088 148.489C314.961 147.981 314.579 147.599 314.198 147.599Z" fill="white"/>
<path d="M323.352 70.6807C323.352 70.6807 334.922 88.7344 333.65 107.424C332.379 126.24 335.303 147.854 318.521 146.837C301.739 145.947 271.861 153.575 262.326 138.954C252.917 124.333 323.352 70.6807 323.352 70.6807Z" fill="#18315B"/>
<path d="M327.674 103.737C327.674 103.737 330.726 130.944 317.758 138.445C304.917 145.947 295.508 137.555 295.508 137.555C295.508 137.555 322.716 99.6682 327.674 103.737Z" fill="#000B29"/>
<path d="M274.022 103.61C274.022 103.61 269.445 97.3798 265.885 102.593C262.452 107.678 267.284 122.808 275.802 119.121L274.022 103.61Z" fill="#F97853"/>
<path d="M274.022 114.416C273.768 114.416 273.386 114.162 273.386 113.908C272.115 109.204 267.284 107.424 267.156 107.297C266.775 107.17 266.648 106.788 266.775 106.407C266.902 106.025 267.284 105.898 267.665 106.025C267.919 106.152 273.259 108.187 274.658 113.527C274.785 113.908 274.53 114.289 274.149 114.416H274.022Z" fill="#EA5143"/>
<path d="M269.191 112.001C269.064 112.001 268.936 112.001 268.809 111.874C268.428 111.619 268.428 111.238 268.555 110.857C268.555 110.857 269.445 109.458 271.225 108.695C271.606 108.568 271.988 108.695 272.115 109.077C272.242 109.458 272.115 109.839 271.734 109.967C270.335 110.602 269.699 111.619 269.699 111.619C269.572 111.874 269.318 112.001 269.191 112.001Z" fill="#EA5143"/>
<path d="M321.826 103.61C321.826 103.61 326.403 97.3798 329.963 102.593C333.396 107.678 328.565 122.808 320.046 119.121L321.826 103.61Z" fill="#F97853"/>
<path d="M321.826 114.416C322.081 114.416 322.462 114.162 322.462 113.908C323.733 109.204 328.565 107.424 328.692 107.297C329.073 107.17 329.2 106.788 329.073 106.407C328.946 106.025 328.565 105.898 328.183 106.025C327.929 106.152 322.589 108.187 321.191 113.527C321.063 113.908 321.318 114.289 321.699 114.416H321.826Z" fill="#EA5143"/>
<path d="M326.784 112.001C326.912 112.001 327.039 112.001 327.166 111.874C327.547 111.619 327.547 111.238 327.42 110.857C327.42 110.857 326.53 109.458 324.75 108.695C324.369 108.568 323.987 108.695 323.86 109.077C323.733 109.458 323.86 109.839 324.242 109.967C325.64 110.602 326.276 111.619 326.276 111.619C326.276 111.874 326.53 112.001 326.784 112.001Z" fill="#EA5143"/>
<path d="M309.367 131.834V146.837C309.367 146.837 304.917 154.465 298.814 154.974C292.712 155.482 287.372 148.362 287.372 148.362V132.852L309.367 131.834Z" fill="#FFA681"/>
<path d="M309.367 131.834V138.446C305.298 142.896 298.051 144.548 287.372 143.023V132.852L309.367 131.834Z" fill="#F97853"/>
<path d="M325.132 93.3113C324.878 99.1596 324.242 106.407 323.225 112.255C322.971 113.653 322.589 115.052 322.335 116.323C319.156 127.384 311.274 146.328 289.152 138.445C279.362 135.013 274.912 124.079 272.878 113.018C271.479 105.517 271.352 97.8883 271.352 92.5484C271.479 86.9543 274.531 81.9959 279.235 79.1989C292.33 71.8248 306.061 74.6219 315.088 78.0546C321.445 80.4703 325.513 86.5729 325.132 93.3113Z" fill="#FFA681"/>
<path d="M288.135 104.5C288.135 106.152 287.372 107.424 286.355 107.424C285.338 107.424 284.575 106.152 284.575 104.5C284.575 102.847 285.338 101.575 286.355 101.575C287.372 101.575 288.135 102.847 288.135 104.5Z" fill="#18315B"/>
<path d="M311.02 104.5C311.02 106.152 310.257 107.424 309.24 107.424C308.223 107.424 307.46 106.152 307.46 104.5C307.46 102.847 308.223 101.575 309.24 101.575C310.13 101.575 311.02 102.847 311.02 104.5Z" fill="#18315B"/>
<path d="M282.667 95.8541C284.193 95.4727 287.244 94.7098 290.55 94.7098C291.44 94.7098 292.076 95.4727 291.948 96.3626C291.821 96.9983 291.186 97.5069 290.55 97.5069C288.389 97.3798 282.54 97.7612 279.743 98.7783C279.743 98.2697 279.997 97.7612 280.379 97.2526C281.015 96.6169 281.777 96.1084 282.667 95.8541Z" fill="#18315B"/>
<path d="M312.545 95.9813C311.019 95.5999 307.968 94.837 304.663 94.837C303.773 94.837 303.137 95.5999 303.264 96.4898C303.391 97.1255 304.027 97.6341 304.663 97.6341C306.824 97.5069 312.672 97.8884 315.469 98.9055C315.469 98.3969 315.215 97.8884 314.834 97.3798C314.198 96.617 313.435 96.2356 312.545 95.9813Z" fill="#18315B"/>
<path d="M298.178 117.722C297.67 117.722 297.034 117.595 296.653 117.341C296.271 117.086 295.763 116.578 295.635 115.561C295.381 112.891 296.017 104.754 296.017 104.372C296.017 103.991 296.398 103.737 296.78 103.737C297.161 103.737 297.415 104.118 297.415 104.5C297.415 104.627 296.78 112.891 297.034 115.433C297.034 115.815 297.288 116.069 297.415 116.069C298.051 116.451 299.577 116.069 300.212 115.815C300.594 115.688 300.975 115.815 301.102 116.196C301.23 116.578 301.102 116.959 300.721 117.086C300.594 117.213 299.322 117.722 298.178 117.722Z" fill="#F97853"/>
<path d="M289.152 122.172C289.66 124.842 291.44 129.927 297.543 129.927C303.645 129.927 305.298 125.35 305.807 122.172H289.152Z" fill="white"/>
<path d="M297.415 134.123C295.636 134.123 294.11 133.233 294.11 133.106C293.728 132.851 293.728 132.47 293.856 132.089C294.11 131.707 294.491 131.707 294.873 131.834C294.873 131.834 296.144 132.597 297.415 132.597C298.814 132.597 300.085 131.834 300.213 131.834C300.594 131.58 300.975 131.707 301.23 132.089C301.484 132.47 301.357 132.851 300.975 133.106C300.848 133.106 299.195 134.123 297.415 134.123Z" fill="#F97853"/>
<path d="M328.056 92.1671C327.802 92.8028 327.166 93.1842 326.403 93.4385C326.403 94.9641 326.276 96.8712 326.149 98.6511C325.259 108.949 322.716 110.729 322.081 108.187C321.699 106.534 321.699 96.7441 321.953 93.6927C319.919 93.5656 318.139 93.1842 318.139 93.1842L315.724 83.1402L314.834 93.057C311.274 94.3284 302.883 92.2942 302.883 92.2942L300.086 82.3774L298.306 91.9128C292.966 94.5827 286.228 92.8028 286.228 92.8028L284.702 82.6317L281.142 92.8028C281.142 92.8028 269.699 96.8712 269.572 92.8028C269.445 90.3871 271.225 83.6488 272.751 78.4361C274.404 72.7149 278.091 67.8836 283.176 65.2137C297.416 57.5854 312.418 61.6538 317.631 64.7051C328.438 71.3163 328.056 92.1671 328.056 92.1671Z" fill="#18315B"/>
<path d="M275.802 71.4435C275.802 71.4435 266.394 82.6317 263.215 102.72C260.164 122.807 255.841 137.556 267.919 144.167C281.015 151.287 279.87 136.666 279.616 132.597C279.489 128.656 268.301 117.722 275.675 86.9544C278.218 77.0376 275.802 71.4435 275.802 71.4435Z" fill="#18315B"/>
<path d="M273.641 112.891C273.641 113.018 273.641 113.908 273.768 115.052C273.768 115.815 273.895 116.705 273.895 117.849C274.277 124.588 275.675 136.284 279.489 140.353C281.015 142.005 283.939 142.768 287.372 143.023V137.683C283.685 135.903 280.888 133.106 278.726 129.673C277.328 126.749 275.039 122.172 273.895 114.798L273.641 112.891Z" fill="#000B29"/>
<path d="M325.259 119.375C325.259 120.265 324.496 121.028 323.606 121.028C322.716 121.028 321.953 120.265 321.953 119.375C321.953 118.485 322.716 117.722 323.606 117.722C324.496 117.722 325.259 118.485 325.259 119.375Z" fill="white"/>
<path d="M359.332 245.115C354.628 258.592 333.396 257.702 309.367 250.328H309.24C309.112 250.328 309.112 250.328 308.985 250.201L305.68 249.183C305.171 249.056 304.79 248.929 304.281 248.675C301.738 247.785 299.069 246.895 296.399 245.878C287.753 242.572 279.108 238.758 270.844 234.563V234.435L273.259 228.078L274.149 225.917C274.149 225.917 318.902 230.748 341.406 226.044C341.787 225.917 342.169 225.917 342.55 225.79C342.423 225.281 342.423 224.773 342.296 224.264C330.345 183.707 343.44 175.952 347.763 170.23C347.89 170.357 368.232 219.56 359.332 245.115Z" fill="#009CF8"/>
<path d="M352.085 232.655C351.958 232.783 351.831 232.782 351.704 232.782C351.322 232.782 351.068 232.528 350.814 232.274C349.161 228.841 343.312 226.68 341.532 226.171C341.914 226.044 342.295 226.044 342.677 225.917C342.55 225.408 342.55 224.9 342.422 224.391C344.711 225.154 350.559 227.443 352.594 231.384C352.721 231.765 352.466 232.401 352.085 232.655Z" fill="#006BDE"/>
<path d="M289.406 230.875C280.252 230.875 272.878 230.367 272.242 230.367C271.734 230.367 271.352 229.858 271.352 229.35C271.352 228.841 271.861 228.46 272.369 228.46C272.751 228.46 306.188 230.875 319.538 225.536C320.046 225.281 320.555 225.536 320.809 226.044C321.064 226.553 320.809 227.061 320.301 227.315C312.927 230.24 299.959 230.875 289.406 230.875Z" fill="#006BDE"/>
<path d="M305.68 249.183C313.308 247.022 320.301 244.988 324.369 243.716C329.963 241.936 334.54 236.342 336.702 231.511C336.956 231.002 337.464 230.748 337.973 231.002C338.481 231.257 338.736 231.765 338.481 232.274C336.193 237.487 331.235 243.589 325.005 245.496C322.081 246.386 317.631 247.785 312.545 249.183C310.13 249.946 307.841 249.819 305.68 249.183Z" fill="#006BDE"/>
<path d="M326.276 242.572C257.113 265.839 235.88 250.582 235.88 250.582C231.176 208.499 248.34 170.739 248.34 170.739C253.426 179.13 259.147 193.624 259.147 193.624L260.673 225.917L260.545 226.807V227.188L260.291 229.35C260.418 229.35 260.545 229.477 260.8 229.477C281.65 233.927 319.919 228.968 319.919 228.968L326.276 242.572Z" fill="#009CF8"/>
<path d="M260.673 229.604C256.986 232.783 253.426 236.342 250.247 240.538C249.993 240.919 249.357 241.047 248.849 240.665C248.467 240.411 248.34 239.775 248.722 239.394C252.281 234.69 256.35 230.748 260.545 227.316L260.291 229.477C260.418 229.477 260.545 229.604 260.673 229.604Z" fill="#006BDE"/>
<path d="M319.792 229.095C319.792 229.095 327.42 211.677 339.117 213.203L342.677 225.79C336.32 228.46 335.43 239.394 326.276 242.572L319.792 229.095Z" fill="#FFA681"/>
<path d="M274.276 225.917C274.276 225.917 269.445 214.602 256.731 211.296C244.017 207.99 235.88 213.966 235.118 216.254C234.228 218.543 239.949 216.382 239.949 216.382C239.949 216.382 236.262 217.399 234.1 220.831C231.939 224.264 239.186 220.577 239.186 220.577C239.186 220.577 233.973 222.866 233.338 225.027C232.702 227.188 239.567 223.629 240.839 223.629C240.839 223.629 234.736 226.044 234.736 228.206C234.736 230.367 241.729 226.807 246.941 227.061C252.154 227.316 260.164 229.477 260.164 229.477C264.487 230.24 268.555 230.875 272.242 231.003L274.276 225.917Z" fill="#FFA681"/>
</g>
<g clip-path="url(#clip2_428_11471)">
<path d="M367.469 51.9913C362.765 51.9913 358.951 48.1771 358.951 43.473C358.951 38.7689 362.765 34.9547 367.469 34.9547C372.173 34.9547 375.988 38.7689 375.988 43.473C375.988 48.1771 372.173 51.9913 367.469 51.9913ZM367.469 37.6246C364.291 37.6246 361.621 40.2945 361.621 43.473C361.621 46.6515 364.291 49.3214 367.469 49.3214C370.648 49.3214 373.318 46.6515 373.318 43.473C373.318 40.1674 370.648 37.6246 367.469 37.6246Z" fill="#006BDE"/>
<path d="M441.845 37.4974C437.141 37.4974 433.327 33.6832 433.327 28.9791C433.327 24.275 437.141 20.4608 441.845 20.4608C446.549 20.4608 450.364 24.275 450.364 28.9791C450.364 33.6832 446.549 37.4974 441.845 37.4974ZM441.845 23.1307C438.667 23.1307 435.997 25.8006 435.997 28.9791C435.997 32.1576 438.667 34.8275 441.845 34.8275C445.024 34.8275 447.694 32.1576 447.694 28.9791C447.694 25.6735 445.151 23.1307 441.845 23.1307Z" fill="#009CF8"/>
<path d="M452.398 65.2137C451.635 65.2137 450.999 64.578 450.999 63.8151V57.9668C450.999 57.2039 451.635 56.5682 452.398 56.5682C453.161 56.5682 453.796 57.2039 453.796 57.9668V63.8151C453.796 64.578 453.161 65.2137 452.398 65.2137Z" fill="#006BDE"/>
<path d="M452.398 75.5119C451.635 75.5119 450.999 74.8762 450.999 74.1134V68.265C450.999 67.5021 451.635 66.8665 452.398 66.8665C453.161 66.8665 453.796 67.5021 453.796 68.265V74.2405C453.796 75.0033 453.161 75.5119 452.398 75.5119Z" fill="#006BDE"/>
<path d="M460.662 67.5023H455.322C454.559 67.5023 453.924 66.8666 453.924 66.1037C453.924 65.3409 454.559 64.7052 455.322 64.7052H460.662C461.425 64.7052 462.06 65.3409 462.06 66.1037C462.06 66.8666 461.425 67.5023 460.662 67.5023Z" fill="#006BDE"/>
<path d="M449.474 67.5023H444.134C443.371 67.5023 442.735 66.8666 442.735 66.1037C442.735 65.3409 443.371 64.7052 444.134 64.7052H449.474C450.237 64.7052 450.872 65.3409 450.872 66.1037C450.872 66.8666 450.237 67.5023 449.474 67.5023Z" fill="#006BDE"/>
<path d="M407.391 29.4878C406.628 29.4878 405.992 28.8521 405.992 28.0893V22.2409C405.992 21.4781 406.628 20.8424 407.391 20.8424C408.154 20.8424 408.789 21.4781 408.789 22.2409V28.0893C408.662 28.8521 408.027 29.4878 407.391 29.4878Z" fill="#1C31B5"/>
<path d="M407.391 39.7859C406.628 39.7859 405.992 39.1502 405.992 38.3874V32.539C405.992 31.7762 406.628 31.1405 407.391 31.1405C408.154 31.1405 408.789 31.7762 408.789 32.539V38.3874C408.662 39.1502 408.027 39.7859 407.391 39.7859Z" fill="#1C31B5"/>
<path d="M415.655 31.6492H410.315C409.552 31.6492 408.916 31.0135 408.916 30.2507C408.916 29.4879 409.552 28.8522 410.315 28.8522H415.655C416.417 28.8522 417.053 29.4879 417.053 30.2507C416.926 31.0135 416.417 31.6492 415.655 31.6492Z" fill="#1C31B5"/>
<path d="M404.339 31.6492H399C398.237 31.6492 397.601 31.0135 397.601 30.2507C397.601 29.4879 398.237 28.8522 399 28.8522H404.339C405.102 28.8522 405.738 29.4879 405.738 30.2507C405.738 31.0135 405.102 31.6492 404.339 31.6492Z" fill="#1C31B5"/>
<path d="M62.3364 21.8595C62.3364 17.1553 66.1506 13.3412 70.8547 13.3412C75.5588 13.3412 79.373 17.1553 79.373 21.8595C79.373 26.5636 75.5588 30.3778 70.8547 30.3778C66.1506 30.3778 62.3364 26.5636 62.3364 21.8595ZM65.0063 21.8595C65.0063 25.0379 67.6762 27.7079 70.8547 27.7079C74.0332 27.7079 76.7031 25.0379 76.7031 21.8595C76.7031 18.681 74.0332 16.0111 70.8547 16.0111C67.6762 15.884 65.0063 18.5539 65.0063 21.8595Z" fill="#006BDE"/>
<path d="M28.0088 54.2798C28.0088 49.5756 31.8229 45.7615 36.5271 45.7615C41.2312 45.7615 45.0454 49.5756 45.0454 54.2798C45.0454 58.9839 41.2312 62.7981 36.5271 62.7981C31.8229 62.9252 28.0088 58.9839 28.0088 54.2798ZM30.6787 54.2798C30.6787 57.4582 33.3486 60.1281 36.5271 60.1281C39.7055 60.1281 42.3755 57.4582 42.3755 54.2798C42.3755 51.1013 39.7055 48.4314 36.5271 48.4314C33.3486 48.4314 30.6787 51.1013 30.6787 54.2798Z" fill="#009CF8"/>
<path d="M10.3368 66.3578C11.0996 66.3578 11.7353 65.7221 11.7353 64.9593V59.1109C11.7353 58.3481 11.0996 57.7124 10.3368 57.7124C9.57393 57.7124 8.93823 58.3481 8.93823 59.1109V64.9593C8.93823 65.7221 9.57393 66.3578 10.3368 66.3578Z" fill="#006BDE"/>
<path d="M10.3368 76.6561C11.0996 76.6561 11.7353 76.0204 11.7353 75.2575V69.4091C11.7353 68.6463 11.0996 68.0106 10.3368 68.0106C9.57393 68.0106 8.93823 68.6463 8.93823 69.4091V75.2575C8.93823 76.0204 9.57393 76.6561 10.3368 76.6561Z" fill="#006BDE"/>
<path d="M2.0726 68.5192H7.41242C8.17525 68.5192 8.81095 67.8835 8.81095 67.1207C8.81095 66.3579 8.17525 65.7222 7.41242 65.7222H2.0726C1.30977 65.7222 0.674072 66.3579 0.674072 67.1207C0.674072 67.8835 1.30977 68.5192 2.0726 68.5192Z" fill="#006BDE"/>
<path d="M13.2608 68.5192H18.6007C19.3635 68.5192 19.9992 67.8835 19.9992 67.1207C19.9992 66.3579 19.3635 65.7222 18.6007 65.7222H13.2608C12.498 65.7222 11.8623 66.3579 11.8623 67.1207C11.9894 67.8835 12.498 68.5192 13.2608 68.5192Z" fill="#006BDE"/>
<path d="M41.1041 20.9693C41.8669 20.9693 42.5026 20.3336 42.5026 19.5708V13.7224C42.5026 12.9595 41.8669 12.3239 41.1041 12.3239C40.3413 12.3239 39.7056 12.9595 39.7056 13.7224V19.5708C39.8327 20.3336 40.4684 20.9693 41.1041 20.9693Z" fill="#1C31B5"/>
<path d="M41.1041 31.2675C41.8669 31.2675 42.5026 30.6318 42.5026 29.869V24.0206C42.5026 23.2578 41.8669 22.6221 41.1041 22.6221C40.3413 22.6221 39.7056 23.2578 39.7056 24.0206V29.869C39.8327 30.6318 40.4684 31.2675 41.1041 31.2675Z" fill="#1C31B5"/>
<path d="M32.8402 23.1308H38.18C38.9428 23.1308 39.5785 22.4951 39.5785 21.7323C39.5785 20.9694 38.9428 20.3337 38.18 20.3337H32.8402C32.0773 20.3337 31.4417 20.9694 31.4417 21.7323C31.5688 22.4951 32.0773 23.1308 32.8402 23.1308Z" fill="#1C31B5"/>
<path d="M44.1554 23.1308H49.4952C50.258 23.1308 50.8937 22.4951 50.8937 21.7323C50.8937 20.9694 50.258 20.3337 49.4952 20.3337H44.1554C43.3925 20.3337 42.7568 20.9694 42.7568 21.7323C42.7568 22.4951 43.3925 23.1308 44.1554 23.1308Z" fill="#1C31B5"/>
<path d="M296.399 22.3678C296.271 22.3678 296.144 22.3678 295.89 22.2407C294.237 21.605 293.347 21.2236 293.347 21.2236C292.839 21.0965 292.584 20.4608 292.712 20.0793C292.839 19.5708 293.474 19.3165 293.856 19.4437C293.856 19.4437 294.873 19.8251 296.526 20.4608C297.034 20.715 297.289 21.2236 297.034 21.7322C297.034 22.1136 296.78 22.3678 296.399 22.3678Z" fill="#BBE2F2"/>
<path d="M344.838 73.3506C345.474 75.1306 346.11 76.9105 346.618 78.6905C346.746 79.0719 347.127 79.4533 347.636 79.3261H347.763C348.271 79.199 348.525 78.6904 348.398 78.1819C347.89 76.402 347.254 74.4949 346.618 72.8421C346.491 72.3335 345.856 72.0792 345.347 72.3335C344.966 72.3335 344.711 72.9692 344.838 73.3506Z" fill="#BBE2F2"/>
<path d="M348.144 84.0302C348.526 85.8101 349.034 87.7172 349.289 89.4971C349.416 90.0057 349.797 90.26 350.306 90.26C350.306 90.26 350.306 90.26 350.433 90.26C350.941 90.1328 351.323 89.6243 351.196 89.1157C350.814 87.2086 350.433 85.4287 350.051 83.5216C349.924 83.0131 349.416 82.7588 348.907 82.8859C348.399 83.0131 348.017 83.5216 348.144 84.0302Z" fill="#BBE2F2"/>
<path d="M352.213 112.763C352.721 112.763 353.103 112.382 353.103 111.873C353.103 109.966 353.103 108.059 353.103 106.152C353.103 105.644 352.594 105.262 352.086 105.262C351.577 105.262 351.196 105.771 351.196 106.279C351.196 108.059 351.323 109.966 351.196 111.873C351.068 112.382 351.577 112.763 352.213 112.763C352.086 112.763 352.086 112.763 352.213 112.763Z" fill="#BBE2F2"/>
<path d="M351.068 93.9469C350.56 94.074 350.178 94.4555 350.305 94.964C350.433 95.854 350.56 96.744 350.56 97.5068C350.687 98.5239 350.814 99.541 350.814 100.431C350.814 100.94 351.323 101.321 351.831 101.321C352.34 101.321 352.721 100.812 352.721 100.304C352.594 99.2867 352.594 98.2696 352.467 97.2525C352.34 96.3625 352.212 95.4726 352.212 94.5826C351.958 94.3283 351.577 93.9469 351.068 93.9469Z" fill="#BBE2F2"/>
<path d="M342.804 68.2651C342.931 68.6465 343.313 68.9008 343.821 68.7736C343.948 68.7736 344.076 68.7736 344.076 68.6465C344.584 68.3922 344.711 67.8837 344.584 67.3751C343.821 65.5952 342.931 63.9424 342.041 62.2896C341.787 61.781 341.279 61.6539 340.77 61.9081C340.261 62.1624 340.134 62.671 340.389 63.1795C341.151 64.8323 342.041 66.4851 342.804 68.2651Z" fill="#BBE2F2"/>
<path d="M300.976 24.6563C302.628 25.5463 304.281 26.4363 305.934 27.3263C306.061 27.4534 306.315 27.4534 306.57 27.4534C306.824 27.4534 307.078 27.1991 307.332 26.9448C307.587 26.4363 307.46 25.9277 306.951 25.6735C305.298 24.6563 303.645 23.7664 301.993 22.8764C301.484 22.6221 300.976 22.8764 300.721 23.2578C300.34 23.8935 300.467 24.5292 300.976 24.6563Z" fill="#BBE2F2"/>
<path d="M315.215 33.6833C315.47 33.8104 315.597 33.9376 315.851 33.8104C316.105 33.8104 316.36 33.6833 316.487 33.429C316.868 33.0476 316.741 32.4119 316.36 32.1576C314.834 31.0134 313.308 29.8691 311.783 28.852C311.401 28.5977 310.765 28.7249 310.511 29.1063C310.257 29.4877 310.384 30.1234 310.765 30.3777C312.164 31.3948 313.69 32.539 315.215 33.6833Z" fill="#BBE2F2"/>
<path d="M331.108 49.1941C331.362 49.4484 331.616 49.5755 331.998 49.5755C332.125 49.5755 332.379 49.4484 332.506 49.3212C332.888 48.9398 333.015 48.4313 332.633 47.9227C331.489 46.3971 330.218 44.9985 328.946 43.6C328.565 43.2186 327.929 43.2186 327.548 43.4729C327.166 43.8543 327.166 44.49 327.421 44.8714C328.819 46.3971 329.963 47.7956 331.108 49.1941Z" fill="#BBE2F2"/>
<path d="M323.606 40.9302C323.861 41.1844 324.115 41.1844 324.369 41.1844C324.623 41.1844 324.751 41.0573 325.005 40.9302C325.386 40.5487 325.386 39.9131 325.005 39.5316C323.606 38.2603 322.208 36.8617 320.809 35.7175C320.428 35.3361 319.792 35.4632 319.411 35.8446C319.029 36.226 319.156 36.8617 319.538 37.2431C320.936 38.3874 322.335 39.6588 323.606 40.9302Z" fill="#BBE2F2"/>
<path d="M337.592 58.3482C337.846 58.7296 338.1 58.8567 338.481 58.8567C338.609 58.8567 338.736 58.8567 338.863 58.7296C339.371 58.4753 339.499 57.8396 339.117 57.4582C338.1 55.8054 337.083 54.2797 335.939 52.6269C335.684 52.2455 335.049 52.1184 334.667 52.3726C334.286 52.6269 334.159 53.2626 334.413 53.644C335.557 55.1697 336.574 56.8225 337.592 58.3482Z" fill="#BBE2F2"/>
<path d="M296.399 15.8838L300.594 0.5L249.612 0.881416L296.399 15.8838Z" fill="#009CF8"/>
<path d="M249.612 0.88147L293.983 19.5708V19.698L295.89 22.8765L296.399 15.8838L249.612 0.88147Z" fill="#006BDE"/>
<path d="M295.89 22.8763L291.822 22.2406L293.983 19.6979L295.89 22.8763Z" fill="#006BDE"/>
<path d="M288.516 17.2824L293.983 19.698L282.54 32.6661L249.612 0.88147L288.516 17.2824Z" fill="#009CF8"/>
<path d="M530.842 421.329V422.219C530.842 427.559 526.52 431.881 521.18 431.881H17.7109C12.3711 431.881 8.04834 427.559 8.04834 422.219V421.329C8.04834 415.989 12.3711 411.666 17.7109 411.666H521.053C526.52 411.666 530.842 415.989 530.842 421.329Z" fill="#1C31B5"/>
<path d="M530.842 421.329V421.837H8.04834V421.329C8.04834 415.989 12.3711 411.666 17.7109 411.666H521.053C526.52 411.666 530.842 415.989 530.842 421.329Z" fill="#006BDE"/>
<path d="M346.491 381.026H188.331C184.516 381.026 181.465 377.975 181.465 374.16V291.393C181.465 287.579 184.516 284.528 188.331 284.528H346.491C350.305 284.528 353.357 287.579 353.357 291.393V374.288C353.229 377.975 350.178 381.026 346.491 381.026Z" fill="#18315B"/>
<path d="M280.633 381.026H254.062V411.412H280.633V381.026Z" fill="#000B29"/>
<path d="M267.029 347.334C274.332 347.334 280.252 341.414 280.252 334.112C280.252 326.809 274.332 320.889 267.029 320.889C259.727 320.889 253.807 326.809 253.807 334.112C253.807 341.414 259.727 347.334 267.029 347.334Z" fill="#1D567E"/>
<path d="M301.23 411.285H232.575V408.997C232.575 404.292 236.389 400.605 240.966 400.605H292.712C297.416 400.605 301.103 404.42 301.103 408.997V411.285H301.23Z" fill="#18315B"/>
</g>
</g>
<defs>
<clipPath id="clip0_428_11471">
<rect width="588.652" height="431" fill="white" transform="translate(0.674072 0.5)"/>
</clipPath>
<clipPath id="clip1_428_11471">
<rect width="589.16" height="394.765" fill="white" transform="translate(0.674072 19.5708)"/>
</clipPath>
<clipPath id="clip2_428_11471">
<rect width="530.168" height="431.381" fill="white" transform="translate(0.674072 0.5)"/>
</clipPath>
</defs>
</svg>
