<svg width="80" height="71" viewBox="0 0 80 71" fill="none" xmlns="http://www.w3.org/2000/svg">
<rect y="0.447754" width="80" height="70" rx="5" fill="#005B96"/>
<g clip-path="url(#clip0_463_5605)">
<path d="M39.3438 47.479L35.1875 46.479L32.6562 43.6353C32.125 42.6665 31.125 42.0103 29.9375 42.0103C28.2188 42.0103 26.8437 43.3853 26.8437 45.104V52.0728C26.8437 53.7915 28.2188 55.1665 29.9375 55.1665C31.6562 55.1665 33.0312 53.7915 33.0312 52.0728V48.6665L33.3438 48.9165L33.5 49.0415C33.6562 49.1665 33.875 49.2603 34.0938 49.3228L38.8438 50.0415C39.5 50.1353 40.1562 49.729 40.3125 49.0728C40.4688 48.354 40.0312 47.6353 39.3438 47.479ZM23.9375 45.9165C23.75 46.104 23.625 46.354 23.625 46.6665L23.5312 51.0728C23.5312 51.604 23.9375 52.104 24.5 52.1353C25.0937 52.1978 25.5938 51.7603 25.6562 51.1978L25.9688 47.979V45.0728C25.9688 44.5415 26.0625 44.0103 26.2812 43.5415L24.0625 45.7915L23.9375 45.9165ZM30.2813 41.1353C31.3125 41.1353 32.2188 40.4165 32.4062 39.3853L32.75 37.6978C32.9375 36.3228 31.875 35.104 30.5 35.104H30.3125H30.125C28.75 35.104 27.6875 36.3228 27.875 37.6978L28.2187 39.3853C28.3437 40.3853 29.25 41.1353 30.2813 41.1353ZM55.9375 46.4165C55.9062 46.1353 55.75 45.8853 55.5625 45.6978L55.4375 45.604L52.1562 42.8853C52.0625 42.7915 51.9375 42.729 51.8125 42.6665C51.2812 42.2603 50.625 42.0103 49.9062 42.0103C48.1875 42.0103 46.8125 43.3853 46.8125 45.104V52.0728C46.8125 53.7915 48.1875 55.1665 49.9062 55.1665C51.625 55.1665 53 53.7915 53 52.0728V46.979L53.6562 47.354L54.4062 51.1353C54.5312 51.6978 55.0625 52.0728 55.6562 51.9478C56.1875 51.854 56.5625 51.3228 56.5 50.7915L55.9375 46.4165ZM40.9375 47.3853C40.9375 47.4165 40.9688 47.4165 40.9688 47.4478C41.2812 47.9478 41.375 48.5728 41.25 49.1665C41.1875 49.5103 41.0312 49.7915 40.8125 50.0415C40.875 50.0415 40.9062 50.0415 40.9688 50.0415L45.7188 49.3228C45.7812 49.3228 45.8125 49.2915 45.875 49.2915V45.104L44.6562 46.5103L40.9375 47.3853ZM49.4688 34.979H49.2812H49.0937C47.7187 34.979 46.6562 36.1978 46.8438 37.5728L47.1875 39.2603C47.375 40.2603 48.2812 41.0103 49.3125 41.0103C50.3438 41.0103 51.25 40.2915 51.4375 39.2603L51.7812 37.5728C51.9062 36.1978 50.8438 34.979 49.4688 34.979Z" fill="white"/>
<path d="M47.1562 41.4478C46.5625 40.979 46.1562 40.2915 46 39.5103L45.9062 38.9478C44.3125 38.5728 42.6562 38.354 40.9062 38.2915V33.1353H47.0625C47.0312 33.604 47 34.0728 46.9688 34.5103C47.5 34.104 48.1562 33.854 48.8125 33.7915C48.8125 33.5728 48.8438 33.354 48.8438 33.1353H54.0625C53.9375 34.9165 53.5 36.5728 52.8125 38.104L52.5625 39.479C52.4375 40.1353 52.125 40.729 51.6562 41.1665C51.9375 41.2915 52.1875 41.4478 52.4375 41.6353C52.5938 41.729 52.75 41.8228 52.9062 41.9478L53.1562 42.1665C55.25 39.4165 56.5 35.9478 56.5 32.229C56.5 23.1665 49.0937 15.7603 40 15.7603C30.9062 15.7603 23.5 23.1665 23.5 32.2603C23.5 35.7603 24.5938 38.979 26.4375 41.6665L27.4062 40.6978C27.2188 40.3853 27.0625 40.0103 27 39.6353L26.6562 37.8853C26.625 37.5415 26.625 37.229 26.6562 36.8853C26.25 35.6978 26 34.4478 25.9062 33.1665H31.1875C31.1875 33.4478 31.2187 33.7603 31.2187 34.0415C31.9062 34.1978 32.5625 34.5728 33.0312 35.1353C33.0625 35.1665 33.0937 35.229 33.125 35.2603C33.0312 34.604 33 33.9165 32.9687 33.229H39.0625V38.354C37.25 38.4165 35.5312 38.6353 33.875 39.0415C33.8125 38.854 33.7812 38.6665 33.7187 38.479L33.5 39.6353C33.375 40.229 33.125 40.7603 32.75 41.1978C32.9062 41.6665 33.0937 42.104 33.2812 42.5415C33.375 42.6665 33.5 42.8228 33.5937 42.979L35.7812 45.4478L37.0312 45.7603L36.9375 45.6353C35.9375 44.1353 35.0937 42.479 34.4375 40.729C35.9062 40.3853 37.4375 40.1665 39.0312 40.104V46.2603L39.5312 46.3853C39.625 46.4165 39.7187 46.4478 39.8125 46.479L40.8125 46.229V40.0728C42.4062 40.1353 43.9375 40.3228 45.4687 40.6978C44.8125 42.479 43.9687 44.104 42.9687 45.5728L42.9062 45.6353L43.9062 45.3853L46.125 42.8853C46.3125 42.5728 46.5625 42.2603 46.8438 42.0103C47 41.8228 47.0938 41.6353 47.1562 41.4478ZM51.5 24.0728C53 26.1665 53.9062 28.6665 54.0937 31.354H48.8438C48.7812 29.3853 48.4687 27.4165 47.9687 25.479C49.0625 25.1353 50.1875 24.6665 51.4062 24.104L51.5 24.0728ZM50.3125 22.6353C49.375 23.0728 48.4375 23.4478 47.4688 23.7603C46.9375 22.1978 46.2187 20.6665 45.375 19.1978C47.2812 19.979 48.9375 21.1665 50.3125 22.6353ZM40.9687 18.1665C41.5937 18.1978 42.2187 18.2915 42.8125 18.4165L43.125 18.9165C44.25 20.6665 45.1562 22.4478 45.7812 24.2603C44.2187 24.6353 42.5937 24.854 40.9687 24.9165V18.1665ZM40.9062 26.729C42.7187 26.6665 44.5 26.4165 46.25 26.0103C46.7187 27.7915 47 29.5728 47.0312 31.3853H40.9062V26.729ZM31.2812 31.3228H25.9062C26.0937 28.604 27.0312 26.104 28.5312 24.0415L28.6562 24.104C29.7187 24.6353 30.9062 25.104 32.125 25.5103C31.625 27.4165 31.3437 29.3853 31.2812 31.3228ZM32.6562 23.7915C31.625 23.4478 30.625 23.0728 29.6875 22.6353C31.0937 21.1353 32.8125 19.9478 34.7812 19.1665C33.9375 20.604 33.2187 22.1665 32.6562 23.7915ZM39.0625 31.354H33C33.0625 29.5728 33.3437 27.7603 33.7812 25.979C35.5 26.3853 37.2812 26.6353 39.0625 26.6978V31.354ZM39.1562 24.9165C37.5625 24.854 35.9687 24.6353 34.375 24.2603C35 22.4478 35.9062 20.6353 37.0312 18.854L37.3437 18.354C37.9375 18.229 38.5312 18.1665 39.1562 18.1353V24.9165Z" fill="white"/>
</g>
<defs>
<clipPath id="clip0_463_5605">
<rect width="40" height="40" fill="white" transform="translate(20 15.4478)"/>
</clipPath>
</defs>
</svg>
