<svg width="80" height="71" viewBox="0 0 80 71" fill="none" xmlns="http://www.w3.org/2000/svg">
<rect y="0.447754" width="80" height="70" rx="5" fill="#005B96"/>
<g clip-path="url(#clip0_463_5598)">
<path d="M54.2665 48.5754C50.5487 53.0189 45.1211 55.4445 39.5557 55.4445C37.2503 55.4445 34.9224 55.0287 32.6807 54.1679C29.4982 52.9457 26.7371 50.9303 24.6229 48.3L24.646 49.7339C24.6474 49.816 24.6325 49.8975 24.6023 49.9738C24.5722 50.0501 24.5272 50.1198 24.4701 50.1787C24.413 50.2377 24.3449 50.2848 24.2696 50.3175C24.1943 50.3501 24.1133 50.3676 24.0312 50.3689L24.021 50.369C23.857 50.3689 23.6996 50.3044 23.5827 50.1894C23.4658 50.0744 23.3989 49.918 23.3962 49.754L23.341 46.3319C23.3395 46.237 23.3595 46.1431 23.3997 46.0572C23.4398 45.9713 23.499 45.8957 23.5727 45.836C23.6464 45.7764 23.7327 45.7342 23.8251 45.7129C23.9174 45.6915 24.0135 45.6914 24.1059 45.7126L27.4415 46.4792C27.6012 46.5182 27.739 46.6184 27.8253 46.7583C27.9116 46.8981 27.9393 47.0663 27.9025 47.2265C27.8657 47.3866 27.7673 47.5258 27.6287 47.614C27.49 47.7021 27.3222 47.7321 27.1615 47.6975L25.4236 47.298C27.421 49.8634 30.0663 51.8247 33.1288 53.0009C40.2833 55.7486 48.3926 53.6478 53.3078 47.7732C53.4141 47.646 53.5667 47.5664 53.7318 47.5517C53.8969 47.537 54.0611 47.5885 54.1882 47.6949C54.3154 47.8013 54.395 47.9538 54.4097 48.1189C54.4244 48.284 54.3729 48.4482 54.2665 48.5754ZM28.2764 22.3317C30.8263 20.2676 33.8475 18.9573 37.0678 18.5103L35.8529 19.8156C35.743 19.9374 35.6854 20.0976 35.6925 20.2616C35.6997 20.4255 35.771 20.5801 35.8911 20.6919C36.0113 20.8037 36.1705 20.8638 36.3346 20.8592C36.4986 20.8546 36.6543 20.7856 36.7679 20.6672L39.0996 18.1618C39.1643 18.0924 39.2123 18.0092 39.24 17.9185C39.2677 17.8278 39.2743 17.732 39.2595 17.6383C39.2447 17.5446 39.2088 17.4556 39.1544 17.3778C39.1 17.3001 39.0287 17.2358 38.9458 17.1897L35.9545 15.5265C35.8098 15.4479 35.6399 15.4296 35.4817 15.4755C35.3236 15.5215 35.19 15.628 35.1099 15.772C35.0299 15.9159 35.0099 16.0856 35.0543 16.2442C35.0987 16.4028 35.2039 16.5374 35.3471 16.6189L36.6005 17.3158C33.2655 17.8316 30.1396 19.2151 27.4897 21.3602C21.1178 26.5184 18.7268 35.1547 21.5401 42.8503C21.597 43.006 21.7135 43.1326 21.8638 43.2025C22.0141 43.2723 22.186 43.2796 22.3417 43.2227C22.4974 43.1658 22.624 43.0494 22.6939 42.8991C22.7637 42.7487 22.771 42.5768 22.7141 42.4212C20.0843 35.2272 22.3195 27.1539 28.2764 22.3317ZM59.5323 42.6588C59.4471 42.5166 59.3089 42.4141 59.1481 42.3738C58.9874 42.3335 58.8171 42.3587 58.675 42.4439L57.4446 43.1809C58.6655 40.0348 59.0303 36.6358 58.4975 33.2687C57.2164 25.1712 50.9327 18.7824 42.8613 17.371C42.7804 17.3568 42.6976 17.3587 42.6175 17.3766C42.5374 17.3944 42.4615 17.4279 42.3944 17.4751C42.3272 17.5223 42.27 17.5822 42.226 17.6515C42.182 17.7208 42.1521 17.7981 42.138 17.879C42.1095 18.0422 42.1469 18.2102 42.2422 18.3458C42.3375 18.4814 42.4827 18.5737 42.646 18.6022C50.1911 19.9217 56.0652 25.8941 57.2628 33.464C57.7756 36.7043 57.3996 39.9758 56.1767 42.9882L55.6536 41.2835C55.6296 41.205 55.5903 41.132 55.538 41.0687C55.4858 41.0055 55.4215 40.9531 55.349 40.9146C55.2765 40.8762 55.1971 40.8524 55.1154 40.8446C55.0337 40.8368 54.9512 40.8452 54.8728 40.8694C54.7943 40.8934 54.7213 40.9327 54.6581 40.985C54.5948 41.0373 54.5424 41.1015 54.504 41.174C54.4655 41.2465 54.4417 41.3259 54.4339 41.4076C54.4262 41.4893 54.4345 41.5718 54.4586 41.6502L55.4626 44.9222C55.4904 45.0129 55.5385 45.0961 55.6032 45.1654C55.6679 45.2347 55.7475 45.2884 55.836 45.3224C55.9246 45.3564 56.0197 45.3699 56.1142 45.3617C56.2086 45.3535 56.3 45.3239 56.3814 45.2751L59.3175 43.5162C59.4596 43.431 59.5621 43.2928 59.6024 43.132C59.6427 42.9712 59.6175 42.801 59.5323 42.6588ZM37.5246 30.5378C37.5246 32.5522 35.8857 34.1912 33.8713 34.1912C31.8568 34.1912 30.2179 32.5522 30.2179 30.5378C30.2179 28.5233 31.8568 26.8844 33.8713 26.8844C35.8857 26.8844 37.5246 28.5233 37.5246 30.5378ZM36.2746 30.5378C36.2746 29.2126 35.1965 28.1344 33.8713 28.1344C32.5461 28.1344 31.4679 29.2126 31.4679 30.5378C31.4679 31.863 32.546 32.9412 33.8713 32.9412C35.1965 32.9412 36.2746 31.863 36.2746 30.5378ZM38.9495 24.0104L40.3988 25.4597C40.5039 25.5648 40.5681 25.7039 40.5799 25.852C40.5916 26.0002 40.5502 26.1477 40.4631 26.2681L39.3833 27.7594C39.5211 28.0321 39.6383 28.3148 39.7339 28.605L41.5515 28.8959C41.6983 28.9194 41.8319 28.9944 41.9283 29.1075C42.0248 29.2206 42.0778 29.3644 42.0778 29.513V31.5626C42.0778 31.7113 42.0248 31.855 41.9284 31.9681C41.8319 32.0812 41.6984 32.1562 41.5516 32.1797L39.7342 32.4707C39.6385 32.7609 39.5213 33.0436 39.3835 33.3163L40.4632 34.8076C40.5503 34.9279 40.5917 35.0755 40.5799 35.2236C40.5682 35.3718 40.504 35.5109 40.3989 35.616L38.9496 37.0653C38.8445 37.1704 38.7053 37.2346 38.5572 37.2464C38.409 37.2582 38.2614 37.2168 38.141 37.1296L36.6499 36.0498C36.3771 36.1876 36.0945 36.3048 35.8043 36.4004L35.5133 38.218C35.4898 38.3648 35.4148 38.4984 35.3017 38.5948C35.1886 38.6912 35.0448 38.7442 34.8962 38.7442H32.8467C32.698 38.7442 32.5543 38.6912 32.4412 38.5948C32.3281 38.4984 32.2531 38.3648 32.2296 38.218L31.9386 36.4006C31.6484 36.3049 31.3658 36.1877 31.093 36.0499L29.6018 37.1296C29.4814 37.2167 29.3339 37.2582 29.1857 37.2464C29.0375 37.2346 28.8984 37.1704 28.7933 37.0653L27.344 35.616C27.2389 35.5109 27.1747 35.3718 27.1629 35.2236C27.1512 35.0755 27.1926 34.9279 27.2797 34.8076L28.3594 33.3163C28.2217 33.0435 28.1045 32.7609 28.0088 32.4707L26.1913 32.1797C26.0445 32.1563 25.9109 32.0812 25.8145 31.9681C25.718 31.855 25.665 31.7113 25.665 31.5626V29.513C25.665 29.3644 25.718 29.2206 25.8144 29.1075C25.9109 28.9945 26.0445 28.9194 26.1912 28.8959L28.0088 28.605C28.1045 28.3148 28.2217 28.0321 28.3594 27.7594L27.2797 26.2681C27.1926 26.1477 27.1512 26.0002 27.1629 25.852C27.1747 25.7039 27.2389 25.5648 27.344 25.4597L28.7933 24.0104C28.8984 23.9053 29.0375 23.841 29.1857 23.8292C29.3339 23.8175 29.4814 23.8589 29.6018 23.9461L31.0928 25.0257C31.3656 24.8879 31.6484 24.7707 31.9386 24.675L32.2296 22.8576C32.2531 22.7108 32.3281 22.5772 32.4412 22.4808C32.5543 22.3844 32.698 22.3314 32.8467 22.3314H34.8962C35.0448 22.3314 35.1886 22.3844 35.3017 22.4808C35.4148 22.5772 35.4898 22.7108 35.5133 22.8576L35.8043 24.675C36.0945 24.7707 36.3772 24.8879 36.65 25.0257L38.1411 23.946C38.2615 23.8589 38.409 23.8175 38.5572 23.8293C38.7053 23.8411 38.8444 23.9053 38.9495 24.0104ZM38.1392 27.3462L39.1381 25.9666L38.4425 25.271L37.0629 26.2698C36.9642 26.3413 36.8467 26.3824 36.725 26.3879C36.6032 26.3935 36.4825 26.3633 36.3776 26.3012C35.9774 26.0637 35.5454 25.8845 35.0946 25.769C34.9766 25.7389 34.8699 25.6748 34.7878 25.5848C34.7056 25.4948 34.6516 25.3827 34.6324 25.2623L34.3633 23.5812H33.3796L33.1104 25.2623C33.0912 25.3827 33.0371 25.4947 32.955 25.5848C32.8729 25.6748 32.7662 25.7388 32.6482 25.769C32.1973 25.8844 31.7653 26.0636 31.3651 26.3011C31.2603 26.3633 31.1395 26.3935 31.0178 26.3879C30.896 26.3823 30.7785 26.3413 30.6798 26.2697L29.3003 25.2709L28.6047 25.9665L29.6035 27.3461C29.675 27.4448 29.7161 27.5623 29.7216 27.684C29.7272 27.8058 29.697 27.9265 29.6349 28.0313C29.3975 28.4315 29.2183 28.8635 29.1029 29.3143C29.0727 29.4324 29.0087 29.539 28.9187 29.6212C28.8286 29.7033 28.7165 29.7573 28.5962 29.7765L26.915 30.0457V31.0294L28.5961 31.2985C28.7165 31.3178 28.8285 31.3718 28.9186 31.4539C29.0086 31.536 29.0726 31.6427 29.1028 31.7608C29.2182 32.2116 29.3974 32.6436 29.6349 33.0437C29.6971 33.1486 29.7272 33.2693 29.7216 33.3911C29.7161 33.5128 29.675 33.6303 29.6035 33.729L28.6046 35.1087L29.3003 35.8043L30.6798 34.8055C30.7785 34.734 30.896 34.6929 31.0178 34.6874C31.1395 34.6818 31.2603 34.7119 31.3651 34.7741C31.7653 35.0116 32.1973 35.1908 32.6481 35.3062C32.7661 35.3364 32.8728 35.4005 32.9549 35.4905C33.0371 35.5805 33.0911 35.6926 33.1103 35.8129L33.3795 37.494H34.3632L34.6323 35.8128C34.6516 35.6925 34.7056 35.5804 34.7877 35.4904C34.8699 35.4004 34.9765 35.3363 35.0946 35.3061C35.5454 35.1906 35.9774 35.0115 36.3776 34.774C36.4824 34.7118 36.6032 34.6817 36.725 34.6872C36.8467 34.6928 36.9642 34.7339 37.0629 34.8054L38.4425 35.8043L39.1381 35.1087L38.1393 33.7291C38.0678 33.6304 38.0267 33.5129 38.0212 33.3911C38.0156 33.2694 38.0458 33.1487 38.1079 33.0438C38.3454 32.6436 38.5246 32.2116 38.64 31.7608C38.6702 31.6428 38.7343 31.5361 38.8243 31.454C38.9143 31.3718 39.0264 31.3178 39.1468 31.2986L40.8278 31.0295V30.0458L39.1467 29.7767C39.0263 29.7574 38.9143 29.7034 38.8242 29.6213C38.7342 29.5392 38.6702 29.4325 38.64 29.3144C38.5246 28.8636 38.3454 28.4316 38.1079 28.0315C38.0457 27.9267 38.0155 27.8059 38.0211 27.6842C38.0267 27.5624 38.0677 27.445 38.1392 27.3462ZM50.9215 38.6474L50.0017 39.9179C50.1083 40.1336 50.2006 40.356 50.2779 40.5839L51.8264 40.8317C51.9731 40.8552 52.1067 40.9302 52.2031 41.0433C52.2996 41.1564 52.3525 41.3002 52.3525 41.4488V43.2467C52.3525 43.3953 52.2996 43.5391 52.2031 43.6522C52.1067 43.7653 51.9731 43.8403 51.8264 43.8638L50.278 44.1116C50.2008 44.3395 50.1085 44.562 50.0018 44.7777L50.9216 46.0482C51.0088 46.1686 51.0502 46.3161 51.0384 46.4642C51.0266 46.6124 50.9624 46.7515 50.8573 46.8566L49.5859 48.1281C49.4808 48.2332 49.3417 48.2974 49.1935 48.3092C49.0454 48.321 48.8978 48.2796 48.7775 48.1924L47.507 47.2726C47.2913 47.3792 47.0688 47.4715 46.841 47.5487L46.5931 49.0972C46.5696 49.244 46.4946 49.3776 46.3815 49.474C46.2684 49.5705 46.1246 49.6234 45.976 49.6234H44.1781C44.0295 49.6234 43.8857 49.5704 43.7726 49.474C43.6595 49.3776 43.5845 49.244 43.561 49.0972L43.3132 47.5489C43.0853 47.4716 42.8628 47.3793 42.6471 47.2726L41.3766 48.1925C41.2562 48.2796 41.1087 48.321 40.9605 48.3093C40.8124 48.2975 40.6733 48.2333 40.5682 48.1282L39.2968 46.8569C39.1917 46.7518 39.1275 46.6126 39.1158 46.4645C39.104 46.3163 39.1454 46.1688 39.2325 46.0484L40.1524 44.7779C40.0458 44.5622 39.9535 44.3398 39.8762 44.1119L38.3277 43.864C38.1809 43.8405 38.0474 43.7655 37.9509 43.6524C37.8545 43.5393 37.8015 43.3956 37.8015 43.2469V41.449C37.8015 41.3004 37.8545 41.1567 37.9509 41.0436C38.0474 40.9305 38.1809 40.8554 38.3277 40.8319L39.8761 40.584C39.9534 40.3562 40.0457 40.1337 40.1523 39.918L39.2325 38.6476C39.1453 38.5272 39.1039 38.3797 39.1157 38.2315C39.1275 38.0833 39.1917 37.9442 39.2968 37.8391L40.5681 36.5678C40.6732 36.4627 40.8123 36.3985 40.9604 36.3867C41.1086 36.3749 41.2561 36.4163 41.3765 36.5035L42.6469 37.4233C42.8626 37.3166 43.0851 37.2243 43.313 37.147L43.5608 35.5987C43.5843 35.4519 43.6593 35.3183 43.7724 35.2219C43.8855 35.1255 44.0293 35.0725 44.1779 35.0725H45.9758C46.1244 35.0725 46.2682 35.1255 46.3813 35.2219C46.4944 35.3183 46.5694 35.4519 46.5929 35.5987L46.8407 37.147C47.0686 37.2243 47.2912 37.3165 47.5068 37.4233L48.7772 36.5034C48.8976 36.4163 49.0451 36.3749 49.1933 36.3866C49.3414 36.3984 49.4806 36.4626 49.5857 36.5677L50.857 37.839C50.9622 37.9441 51.0265 38.0832 51.0383 38.2313C51.0501 38.3795 51.0087 38.527 50.9215 38.6474ZM49.6924 41.7561C49.5721 41.7368 49.46 41.6828 49.37 41.6007C49.28 41.5186 49.2159 41.4119 49.1857 41.2939C49.0863 40.9055 48.9319 40.5333 48.7273 40.1885C48.6651 40.0837 48.635 39.9629 48.6405 39.8412C48.6461 39.7194 48.6871 39.6019 48.7586 39.5032L49.5965 38.346L49.0789 37.8283L47.9217 38.6662C47.8229 38.7376 47.7055 38.7787 47.5837 38.7842C47.4619 38.7898 47.3412 38.7597 47.2364 38.6975C46.8916 38.4928 46.5194 38.3385 46.131 38.239C46.013 38.2088 45.9063 38.1448 45.8242 38.0548C45.7421 37.9647 45.688 37.8527 45.6688 37.7323L45.4431 36.3223H44.7109L44.4852 37.7323C44.4659 37.8527 44.4119 37.9648 44.3297 38.0548C44.2476 38.1448 44.1409 38.2089 44.0228 38.239C43.6345 38.3384 43.2623 38.4928 42.9175 38.6974C42.8127 38.7596 42.692 38.7897 42.5702 38.7842C42.4484 38.7786 42.331 38.7376 42.2322 38.6661L41.0751 37.8283L40.5575 38.3459L41.3953 39.5031C41.4667 39.6018 41.5078 39.7193 41.5134 39.841C41.5189 39.9628 41.4888 40.0835 41.4266 40.1883C41.222 40.5331 41.0677 40.9053 40.9683 41.2937C40.9381 41.4118 40.8741 41.5185 40.784 41.6006C40.694 41.6827 40.5819 41.7367 40.4616 41.756L39.0514 41.9818V42.7139L40.4615 42.9396C40.5818 42.9589 40.6939 43.0129 40.7839 43.095C40.8739 43.1771 40.938 43.2837 40.9682 43.4018C41.0676 43.7902 41.222 44.1624 41.4266 44.5072C41.4888 44.6121 41.5189 44.7328 41.5133 44.8545C41.5078 44.9763 41.4667 45.0938 41.3953 45.1925L40.5574 46.3497L41.075 46.8673L42.2322 46.0295C42.331 45.958 42.4484 45.917 42.5702 45.9114C42.692 45.9058 42.8127 45.936 42.9175 45.9982C43.2623 46.2028 43.6345 46.3571 44.0228 46.4565C44.1409 46.4867 44.2476 46.5508 44.3297 46.6408C44.4119 46.7308 44.4659 46.8429 44.4852 46.9633L44.7109 48.3733H45.443L45.6688 46.9632C45.6881 46.8429 45.7421 46.7308 45.8242 46.6408C45.9063 46.5507 46.013 46.4867 46.131 46.4565C46.5194 46.3571 46.8916 46.2027 47.2363 45.9981C47.3411 45.9359 47.4619 45.9057 47.5836 45.9113C47.7054 45.9169 47.8229 45.9579 47.9216 46.0294L49.0788 46.8673L49.5964 46.3497L48.7586 45.1925C48.6871 45.0937 48.6461 44.9763 48.6405 44.8545C48.635 44.7327 48.6651 44.612 48.7273 44.5072C48.9319 44.1625 49.0863 43.7903 49.1857 43.4019C49.2159 43.2839 49.28 43.1772 49.37 43.0951C49.46 43.013 49.5721 42.9589 49.6925 42.9397L51.1025 42.714V41.9819L49.6924 41.7561ZM48.3585 42.3478C48.3585 44.1572 46.8864 45.6293 45.077 45.6293C43.2676 45.6293 41.7955 44.1572 41.7955 42.3478C41.7955 40.5384 43.2676 39.0663 45.077 39.0663C46.8864 39.0663 48.3585 40.5384 48.3585 42.3478ZM47.1085 42.3478C47.1085 41.2276 46.1971 40.3163 45.077 40.3163C43.9568 40.3163 43.0455 41.2276 43.0455 42.3478C43.0455 43.4679 43.9568 44.3793 45.077 44.3793C46.1971 44.3793 47.1085 43.468 47.1085 42.3478Z" fill="white"/>
</g>
<defs>
<clipPath id="clip0_463_5598">
<rect width="40" height="40" fill="white" transform="translate(20 15.4478)"/>
</clipPath>
</defs>
</svg>
