<svg width="80" height="71" viewBox="0 0 80 71" fill="none" xmlns="http://www.w3.org/2000/svg">
<rect y="0.447754" width="80" height="70" rx="5" fill="#005B96"/>
<g clip-path="url(#clip0_463_5613)">
<path d="M52.9375 38.1353C52.3125 37.9478 51.75 37.7603 51.375 37.5728C53.5 35.8853 55 33.0728 55 29.2603C55 25.0728 51.5625 21.6978 47.375 21.6978C46.75 18.0728 43.625 15.4478 40 15.4478C36.375 15.4478 33.3125 18.1353 32.625 21.6978C28.4375 21.6978 25 25.0728 25 29.1353C25 32.3228 26.3125 35.6353 28.625 37.5103L28.5625 37.5728C28.1875 37.7603 27.625 37.9478 27.0625 38.1353C24.4375 39.0103 20 40.5103 20 45.6353V49.0103C20 49.6978 20.5625 50.2603 21.25 50.2603H25.125C25.0625 50.6978 25 51.1978 25 51.6978V54.1978C25 54.8853 25.5625 55.4478 26.25 55.4478H53.75C54.4375 55.4478 55 54.8853 55 54.1978V51.6978C55 51.1978 54.9375 50.6978 54.875 50.2603H58.75C59.4375 50.2603 60 49.6978 60 49.0103V45.6353C60 40.5103 55.5625 39.0103 52.9375 38.1353ZM52.5 29.2603C52.5 32.3853 50.875 35.7603 48.125 36.5103C48.5 35.1978 48.75 33.8228 48.75 32.3228C48.75 29.1978 47.125 26.4478 44.625 24.9478C45.4375 24.5103 46.375 24.1978 47.3125 24.1978C50.1875 24.1978 52.5 26.4478 52.5 29.2603ZM33.75 32.3228C33.75 28.8853 36.5625 26.0728 40 26.0728C43.4375 26.0728 46.25 28.8853 46.25 32.3228C46.25 36.9478 43.125 41.6978 40 41.6978C36.875 41.6978 33.75 36.9478 33.75 32.3228ZM40 17.9478C42.375 17.9478 44.4375 19.6978 44.875 22.0728C43.8125 22.4478 42.8125 23.0103 41.9375 23.7603C41.3125 23.6353 40.625 23.5103 40 23.5103C39.3125 23.5103 38.6875 23.5728 38.0625 23.7603C37.25 23.0103 36.25 22.3853 35.125 22.0728C35.5625 19.6978 37.625 17.9478 40 17.9478ZM27.5 29.1353C27.5 26.3853 29.8125 24.1978 32.6875 24.1978C33.625 24.1978 34.5625 24.4478 35.375 24.9478C32.875 26.4478 31.25 29.1978 31.25 32.3228C31.25 33.8228 31.5 35.1978 31.875 36.5103C29.125 35.6978 27.5 32.3228 27.5 29.1353ZM22.5 47.7603V45.6353C22.5 42.5728 24.8125 41.5103 27.875 40.5103C28.5625 40.2603 29.1875 40.0728 29.6875 39.8228C30.1875 39.5728 30.625 39.2603 31 38.8228C31.625 39.0103 32.3125 39.1353 33.0625 39.1978C33.75 40.3853 34.5625 41.4478 35.5 42.2603C35.375 42.3228 35.25 42.3853 35.125 42.4478C34.6875 42.6353 34 42.8853 33.25 43.1353C31 43.8853 27.6875 44.9478 26.0625 47.7603H22.5ZM57.5 47.7603H54C52.375 45.0103 49.25 43.9478 47.3125 43.3228C46.625 43.1353 45.9375 43.4478 45.75 44.1353C45.5625 44.7603 45.875 45.5103 46.5625 45.6978C49.75 46.7603 52.5625 48.0103 52.5625 51.6978V52.9478H27.5V51.6978C27.5 47.9478 30.3125 46.6978 34 45.5103C34.875 45.2603 35.5625 45.0103 36.125 44.6978C36.6875 44.4478 37.1875 44.0728 37.5625 43.6353C38.375 44.0103 39.1875 44.1978 40 44.1978C42.5625 44.1978 45.25 42.2603 47 39.1978C47.6875 39.1978 48.375 39.0728 49.0625 38.8228C49.4375 39.2603 49.875 39.5728 50.375 39.8228C50.875 40.0728 51.5 40.2603 52.1875 40.5103C55.1875 41.5103 57.5625 42.5728 57.5625 45.6353V47.7603H57.5Z" fill="white"/>
</g>
<defs>
<clipPath id="clip0_463_5613">
<rect width="40" height="40" fill="white" transform="translate(20 15.4478)"/>
</clipPath>
</defs>
</svg>
