<svg width="70" height="71" viewBox="0 0 70 71" fill="none" xmlns="http://www.w3.org/2000/svg">
<circle cx="35" cy="35.4478" r="35" fill="#F2F2F2"/>
<path d="M47.5 41.5979V45.3479C47.5015 45.696 47.4301 46.0406 47.2907 46.3596C47.1512 46.6785 46.9467 46.9649 46.6901 47.2002C46.4336 47.4356 46.1308 47.6147 45.801 47.7263C45.4712 47.8378 45.1218 47.8792 44.775 47.8479C40.9286 47.4299 37.2338 46.1156 33.9875 44.0104C30.9673 42.0912 28.4067 39.5306 26.4875 36.5104C24.375 33.2494 23.0603 29.5366 22.65 25.6729C22.6188 25.3272 22.6599 24.9788 22.7707 24.6499C22.8814 24.321 23.0595 24.0187 23.2935 23.7624C23.5275 23.5061 23.8123 23.3013 24.1298 23.161C24.4473 23.0208 24.7905 22.9482 25.1375 22.9479H28.8875C29.4942 22.9419 30.0823 23.1567 30.5422 23.5523C31.0022 23.9479 31.3026 24.4972 31.3875 25.0979C31.5458 26.298 31.8394 27.4763 32.2625 28.6104C32.4307 29.0578 32.4671 29.544 32.3674 30.0115C32.2677 30.4789 32.0361 30.908 31.7 31.2479L30.1125 32.8354C31.892 35.9648 34.4831 38.5559 37.6125 40.3354L39.2 38.7479C39.5399 38.4118 39.969 38.1802 40.4364 38.0805C40.9039 37.9808 41.3901 38.0172 41.8375 38.1854C42.9716 38.6086 44.15 38.9021 45.35 39.0604C45.9572 39.146 46.5118 39.4519 46.9082 39.9197C47.3046 40.3876 47.5152 40.9848 47.5 41.5979Z" stroke="#222222" stroke-width="1.5" stroke-linecap="round" stroke-linejoin="round"/>
</svg>
