<svg width="70" height="71" viewBox="0 0 70 71" fill="none" xmlns="http://www.w3.org/2000/svg">
<circle cx="35" cy="35.4478" r="35" fill="#F2F2F2"/>
<g clip-path="url(#clip0_506_1544)">
<path d="M46.25 32.9478C46.25 41.6978 35 49.1978 35 49.1978C35 49.1978 23.75 41.6978 23.75 32.9478C23.75 29.9641 24.9353 27.1026 27.045 24.9928C29.1548 22.883 32.0163 21.6978 35 21.6978C37.9837 21.6978 40.8452 22.883 42.955 24.9928C45.0647 27.1026 46.25 29.9641 46.25 32.9478Z" stroke="#222222" stroke-width="1.5" stroke-linecap="round" stroke-linejoin="round"/>
<path d="M35 36.6978C37.0711 36.6978 38.75 35.0188 38.75 32.9478C38.75 30.8767 37.0711 29.1978 35 29.1978C32.9289 29.1978 31.25 30.8767 31.25 32.9478C31.25 35.0188 32.9289 36.6978 35 36.6978Z" stroke="#222222" stroke-width="1.5" stroke-linecap="round" stroke-linejoin="round"/>
</g>
<defs>
<clipPath id="clip0_506_1544">
<rect width="30" height="30" fill="white" transform="translate(20 20.4478)"/>
</clipPath>
</defs>
</svg>
