<svg width="135" height="125" viewBox="0 0 135 125" fill="none" xmlns="http://www.w3.org/2000/svg">
<g clip-path="url(#clip0_284_51405)">
<path d="M66.3884 87.6898C66.3884 87.833 66.1471 87.9762 65.8254 87.9762C65.5036 87.9762 65.2623 87.8688 65.2623 87.6898V44.6864C65.2623 44.5431 65.5036 44.3999 65.8254 44.3999C66.1471 44.3999 66.3884 44.5431 66.3884 44.6864V87.6898Z" fill="#6D6E71"/>
<path d="M46.923 92.6311C46.8828 92.8101 46.6013 92.8817 46.3198 92.7743C46.0383 92.7027 45.7969 92.4878 45.8372 92.3088L55.4492 45.9038C55.4894 45.7247 55.771 45.6889 56.0525 45.7605C56.3742 45.8321 56.5753 46.047 56.5351 46.226L46.923 92.6311Z" fill="#6D6E71"/>
<path d="M83.5615 91.6643C83.6017 91.8433 83.8832 91.9149 84.1648 91.8075C84.4865 91.7359 84.6876 91.5211 84.6474 91.342L75.0353 44.937C74.9951 44.758 74.7136 44.6863 74.432 44.7938C74.1103 44.8654 73.9092 45.0802 73.9494 45.2592L83.5615 91.6643Z" fill="#6D6E71"/>
<path d="M106.646 1.10999H23.0739V50.0931H106.646V1.10999Z" fill="#E2E2E2"/>
<path d="M107.933 1.11C107.933 1.32484 107.531 1.46806 107.049 1.46806H22.7521C22.2695 1.46806 21.8673 1.28903 21.8673 1.11V0.358064C21.8673 0.143225 22.2695 0 22.7521 0H107.049C107.531 0 107.933 0.179032 107.933 0.358064V1.11Z" fill="#6D6E71"/>
<path d="M107.933 49.8067C107.933 50.0215 107.531 50.1647 107.049 50.1647H22.7521C22.2695 50.1647 21.8673 49.9857 21.8673 49.8067V49.0547C21.8673 48.8399 22.2695 48.6967 22.7521 48.6967H107.049C107.531 48.6967 107.933 48.8757 107.933 49.0547V49.8067Z" fill="#6D6E71"/>
<path d="M104.354 2.36316H24.9641V47.694H104.354V2.36316Z" fill="white"/>
<path d="M105.44 48.5534H23.9989V1.46802H105.44V48.5534ZM26.0098 46.7631H103.429V3.25834H26.0098V46.7631Z" fill="#B24722"/>
<path d="M60.9993 26.7831C60.9993 28.7882 60.3559 30.686 59.27 32.2615C59.0689 32.5479 58.8276 32.8344 58.6265 33.1208C58.5863 33.1566 58.5863 33.1924 58.5461 33.1924C58.345 33.4431 58.1037 33.6579 57.9026 33.8727C57.8624 33.9085 57.7819 33.9802 57.7417 34.016C57.5406 34.2308 57.2993 34.4098 57.0982 34.5889C57.0178 34.6247 56.9776 34.6963 56.8971 34.7321C56.6558 34.9111 56.4145 35.0902 56.1732 35.2334C56.0928 35.2692 56.0526 35.305 55.9721 35.3408C55.7308 35.5198 55.4493 35.6631 55.1678 35.8063C55.1275 35.8421 55.0873 35.8421 55.0471 35.8779C54.7656 36.0211 54.4438 36.1643 54.1221 36.3076C54.0819 36.3076 54.0819 36.3434 54.0417 36.3434C53.7199 36.4866 53.358 36.594 53.0362 36.7014C53.0362 36.7014 53.0362 36.7014 52.996 36.7014C52.634 36.8089 52.2721 36.9163 51.9503 36.9879C51.9503 36.9879 51.9503 36.9879 51.9101 36.9879C51.5482 37.0595 51.1862 37.1311 50.8242 37.1669C50.784 37.1669 50.784 37.1669 50.7438 37.1669C50.4221 37.2027 50.0601 37.2385 49.6981 37.2385C49.6579 37.2385 49.6177 37.2385 49.5373 37.2385C49.2557 37.2385 49.0144 37.2385 48.7329 37.2385C48.8536 37.2385 49.0144 37.2385 49.1351 37.2385V44.0059C49.4568 44.0059 49.7786 44.0059 50.1003 44.0059C50.1808 44.0059 50.3014 44.0059 50.3818 44.0059C50.5829 44.0059 50.8242 43.9701 51.0253 43.9701C51.1862 43.9701 51.3873 43.9343 51.5482 43.8985C51.6688 43.8985 51.7895 43.8627 51.9101 43.8627C52.1514 43.8269 52.3927 43.7911 52.5938 43.7553C52.6743 43.7553 52.7145 43.7195 52.7949 43.7195C53.0764 43.6837 53.3177 43.6121 53.5993 43.5763C53.6395 43.5763 53.6797 43.5763 53.6797 43.5405C53.9612 43.4688 54.2427 43.3972 54.5243 43.3614H54.5645C54.846 43.2898 55.1275 43.2182 55.3688 43.1466C55.4091 43.1466 55.4091 43.1466 55.4493 43.1108C55.6906 43.0392 55.9721 42.9317 56.2134 42.8601C56.2536 42.8601 56.2939 42.8243 56.3341 42.8243C56.5754 42.7527 56.7765 42.6453 57.0178 42.5737C57.0982 42.5379 57.1787 42.5021 57.2189 42.5021C57.42 42.4305 57.5808 42.3588 57.7819 42.2514C57.9026 42.2156 57.983 42.144 58.1037 42.1082C58.2645 42.0366 58.3852 41.965 58.5461 41.8934C58.7069 41.8218 58.8276 41.7501 58.9885 41.6785C59.1091 41.6069 59.1895 41.5711 59.3102 41.4995C59.4711 41.3921 59.6722 41.2847 59.833 41.213C59.9135 41.1772 59.9537 41.1414 60.0341 41.1056C60.2352 40.9982 60.4363 40.855 60.6374 40.7118C60.6776 40.6759 60.7178 40.6759 60.758 40.6401C60.9591 40.4969 61.2004 40.3537 61.4015 40.1747L61.4417 40.1389C61.6428 39.9598 61.8841 39.8166 62.0852 39.6376L62.1254 39.6018C62.3265 39.4227 62.5276 39.2437 62.7287 39.0647C62.7689 39.0289 62.7689 39.0289 62.8091 38.993C63.0102 38.814 63.1711 38.635 63.3722 38.456C63.4124 38.4201 63.4526 38.3843 63.4928 38.3127C63.6537 38.1695 63.8146 37.9905 63.9352 37.8472C64.0157 37.7756 64.0961 37.6682 64.1765 37.5966C64.2972 37.4892 64.4179 37.346 64.4983 37.2385C64.6189 37.0953 64.7396 36.9163 64.8603 36.7731C64.9005 36.7014 64.9809 36.6298 65.0211 36.5582C67.1527 33.8011 68.3994 30.4353 68.3994 26.8189H60.9993V26.7831Z" fill="#77A7FB"/>
<path d="M55.8112 10.527C57.0177 10.9208 58.184 11.4221 59.3503 12.0308L55.3688 17.8315C58.7471 19.6576 60.9993 22.9876 60.9993 26.7831H68.6004C68.6004 19.2995 63.2917 12.9618 55.8112 10.527Z" fill="#FBCB43"/>
<path d="M48.8133 37.2385H48.7731C48.21 37.2027 47.6872 37.1669 47.1644 37.0953C47.1242 37.0953 47.0839 37.0953 47.0839 37.0953C46.5611 37.0237 46.0383 36.8805 45.5155 36.7373C45.4752 36.7373 45.4752 36.7373 45.435 36.7015C44.9122 36.5582 44.3894 36.3434 43.9067 36.1285C43.8665 36.1285 43.8665 36.0927 43.8263 36.0927C43.585 35.9853 43.3035 35.8421 43.0622 35.7347C39.6839 33.9086 37.4317 30.5786 37.4317 26.7831C37.4317 24.7779 38.0752 22.916 39.1208 21.3405C39.161 21.3047 39.2013 21.2689 39.2013 21.1973C39.161 21.2331 39.161 21.2689 39.1208 21.3047L32.6457 17.7599C30.8359 20.3738 29.7903 23.4889 29.7903 26.7831C29.7903 33.0134 33.4903 38.456 39.0404 41.4995C39.0806 41.4995 39.1208 41.5353 39.1208 41.5353C39.4828 41.7501 39.885 41.9292 40.2871 42.1082C40.3274 42.1082 40.3676 42.144 40.4078 42.144C41.2524 42.5379 42.0969 42.8243 42.9415 43.1108C43.0219 43.1466 43.0622 43.1466 43.1426 43.1824C43.5448 43.2898 43.9872 43.3972 44.3893 43.5047C44.4296 43.5047 44.51 43.5405 44.5502 43.5405C44.9122 43.6121 45.2741 43.6837 45.6361 43.7553C45.7568 43.7911 45.8372 43.7911 45.9578 43.7911C46.36 43.8627 46.7622 43.8985 47.1644 43.9343C47.2448 43.9343 47.3253 43.9343 47.4057 43.9343C47.7274 43.9701 48.0894 43.9701 48.4111 44.0059C48.5318 44.0059 48.6524 44.0059 48.8133 44.0059C48.8937 44.0059 49.0144 44.0059 49.0948 44.0059V37.2385C49.0948 37.2744 48.934 37.2385 48.8133 37.2385Z" fill="#64A74A"/>
<path d="M55.8112 10.527C55.771 10.527 55.771 10.527 55.7308 10.4912C55.4493 10.4196 55.208 10.3122 54.9264 10.2406C54.7656 10.2048 54.6449 10.169 54.484 10.1332C54.3232 10.0974 54.2025 10.0615 54.0416 10.0257C53.7601 9.95413 53.4786 9.91832 53.1971 9.84671C53.1569 9.84671 53.1568 9.84671 53.1166 9.84671C51.8699 9.63187 50.5427 9.48865 49.2155 9.48865C49.1351 9.48865 49.0144 9.48865 48.934 9.48865C48.8133 9.48865 48.6927 9.48865 48.572 9.48865C47.6872 9.52445 46.7622 9.59607 45.9176 9.73929C45.8774 9.73929 45.8372 9.73929 45.8372 9.73929C44.9122 9.88252 43.9872 10.0974 43.0622 10.3838C42.1774 10.6345 41.3328 10.9925 40.4882 11.3506C40.448 11.3864 40.3676 11.3864 40.3274 11.4222C39.9252 11.6012 39.5632 11.7803 39.2013 11.9951C39.1208 12.0309 39.0404 12.1025 38.96 12.1383C38.6784 12.2815 38.3969 12.4606 38.1556 12.6396C38.0349 12.7112 37.9143 12.7828 37.7936 12.8544C37.5121 13.0693 37.1904 13.2483 36.9088 13.4632C36.7882 13.5706 36.6273 13.678 36.5067 13.7496C36.3056 13.9286 36.0643 14.1077 35.8632 14.2867C35.7425 14.3941 35.5817 14.5015 35.461 14.6448C35.2197 14.8596 34.9784 15.1102 34.7371 15.3251C34.6567 15.4325 34.5762 15.5041 34.4556 15.6115C34.174 15.898 33.8925 16.1844 33.6512 16.5067C33.611 16.5425 33.5708 16.6141 33.5306 16.6499C33.249 17.008 32.9675 17.3302 32.7262 17.7241L39.2013 21.2689C39.2415 21.2331 39.2415 21.1973 39.2817 21.1615C39.4024 20.9825 39.523 20.8035 39.6839 20.6602C40.0458 20.1947 40.448 19.7651 40.8904 19.3712L40.9306 19.3354C40.9708 19.2996 41.0513 19.228 41.0915 19.1922C41.4132 18.9057 41.7752 18.6551 42.1372 18.4044C42.1774 18.4044 42.1774 18.3686 42.2176 18.3686C42.2578 18.3686 42.2578 18.3328 42.298 18.3328C42.5796 18.1538 42.8611 17.9748 43.1426 17.8315C43.3839 17.7241 43.6252 17.5809 43.8665 17.4735C44.1481 17.366 44.3894 17.2228 44.6709 17.1512C44.7513 17.1154 44.8318 17.1154 44.872 17.0796C45.0329 17.008 45.2339 16.9364 45.3948 16.9006C45.435 16.9006 45.4752 16.8648 45.5155 16.8648C45.5959 16.829 45.6361 16.829 45.7166 16.7931C45.9579 16.7215 46.1992 16.6857 46.4405 16.6141C46.5209 16.5783 46.6416 16.5783 46.722 16.5783C46.8024 16.5783 46.8829 16.5425 47.0035 16.5425C47.0437 16.5425 47.084 16.5425 47.1242 16.5425C47.4057 16.5067 47.647 16.4709 47.9285 16.4351C48.009 16.4351 48.0492 16.3993 48.1296 16.3993C48.1698 16.3993 48.1698 16.3993 48.2101 16.3993C48.5318 16.3635 48.8535 16.3635 49.2155 16.3635H49.2557C49.3362 16.3635 49.3764 16.3635 49.4568 16.3635C49.6177 16.3635 49.7786 16.3635 49.9394 16.3635C50.0601 16.3635 50.1405 16.3635 50.2612 16.3993C50.422 16.3993 50.6231 16.4351 50.784 16.4709C50.8242 16.4709 50.9047 16.4709 50.9449 16.4709C50.9449 16.4709 50.9449 16.4709 50.9851 16.4709C51.347 16.5067 51.6688 16.5783 52.0307 16.6499H52.071C52.071 16.6499 52.071 16.6499 52.1112 16.6499C52.3525 16.7215 52.5938 16.7573 52.8351 16.829C52.8753 16.829 52.9155 16.8648 52.996 16.8648C53.5188 17.008 54.0416 17.2228 54.5243 17.4377C54.5645 17.4377 54.5645 17.4735 54.6047 17.4735C54.846 17.5809 55.1275 17.7241 55.3688 17.8673L59.3504 12.1025C58.2243 11.4222 57.0178 10.9209 55.8112 10.527Z" fill="#F0851D"/>
<path d="M81.068 43.1466H68.4396L60.0743 37.1311L60.6776 36.4508L68.8016 42.2514H81.068V43.1466Z" fill="#4D4D4D"/>
<path d="M61.3613 36.773C61.3613 37.1669 60.9993 37.4891 60.5569 37.4891C60.1145 37.4891 59.7526 37.1669 59.7526 36.773C59.7526 36.3791 60.1145 36.0569 60.5569 36.0569C60.9993 36.0569 61.3613 36.3791 61.3613 36.773Z" fill="#4D4D4D"/>
<path d="M52.272 12.926C52.272 13.3198 51.9101 13.6421 51.4677 13.6421C51.0253 13.6421 50.6633 13.3198 50.6633 12.926C50.6633 12.5321 51.0253 12.2098 51.4677 12.2098C51.9101 12.2098 52.272 12.5321 52.272 12.926Z" fill="#4D4D4D"/>
<path d="M65.2624 22.9876C65.2624 23.3815 64.9004 23.7037 64.458 23.7037C64.0156 23.7037 63.6537 23.3815 63.6537 22.9876C63.6537 22.5937 64.0156 22.2715 64.458 22.2715C64.9004 22.2715 65.2624 22.5937 65.2624 22.9876Z" fill="#4D4D4D"/>
<path d="M81.1082 22.558H64.458V23.4531H81.1082V22.558Z" fill="#4D4D4D"/>
<path d="M51.7492 13.3199L51.1862 12.568L57.0982 9.05896H81.068V9.95412H57.3797L51.7492 13.3199Z" fill="#4D4D4D"/>
<path d="M81.068 20.0515H73.7886V21.627H81.068V20.0515Z" fill="#FBCB43"/>
<path d="M81.068 6.44507H73.7886V8.02055H81.068V6.44507Z" fill="#F0851D"/>
<path d="M81.068 39.745H73.7886V41.3205H81.068V39.745Z" fill="#77A7FB"/>
<path d="M100.493 18.1896H86.6582V19.1563H100.493V18.1896Z" fill="#999999"/>
<path d="M100.493 14.8954H86.6582V15.8622H100.493V14.8954Z" fill="#999999"/>
<path d="M100.493 10.8492H86.6582V12.5679H100.493V10.8492Z" fill="#DC4437"/>
<path d="M100.493 24.7422H86.6582V25.709H100.493V24.7422Z" fill="#999999"/>
<path d="M100.493 21.448H86.6582V22.4148H100.493V21.448Z" fill="#999999"/>
<path d="M100.493 31.4021H86.6582V32.3689H100.493V31.4021Z" fill="#999999"/>
<path d="M100.493 28.1079H86.6582V29.0747H100.493V28.1079Z" fill="#999999"/>
<path d="M100.493 37.9905H86.6582V38.9573H100.493V37.9905Z" fill="#999999"/>
<path d="M100.493 34.6605H86.6582V35.6273H100.493V34.6605Z" fill="#999999"/>
<path d="M69.1633 62.1957C68.6405 62.2315 67.4741 62.0882 66.4687 61.8376C65.4632 61.587 62.6078 62.0882 62.9697 62.4105C63.3317 62.697 63.1708 62.6969 64.6187 62.8044C66.0665 62.9118 65.7448 63.3415 65.9861 63.4847C66.2274 63.6279 65.0611 66.5282 65.0611 66.5282C65.0611 66.5282 69.1231 65.3466 69.9274 64.8453C70.772 64.3082 69.1633 62.1957 69.1633 62.1957Z" fill="#E8C8BA"/>
<path d="M60.3154 62.0166C61.522 62.3389 62.4068 62.4821 62.7687 62.4821C63.1307 62.4821 66.3079 62.876 66.5894 62.9834C66.8709 63.0908 68.6003 65.1676 68.7612 65.4182C68.922 65.6689 68.721 66.0985 67.9568 65.9195C67.9568 65.9195 67.6753 66.4924 66.9514 66.2059C66.7905 66.6356 66.2275 66.743 66.1068 66.7072C65.9861 66.8505 65.3427 66.9937 65.1416 66.8863C64.9405 66.7788 64.0155 65.8479 63.6937 65.7763C63.372 65.7047 61.9241 65.3108 61.2002 64.9527C60.5165 64.6305 59.0687 64.8811 58.9078 64.8095C58.8274 64.7021 60.3154 62.0166 60.3154 62.0166Z" fill="#DDAC9E"/>
<path d="M65.1014 66.8863C64.6992 66.9937 63.935 67.1011 63.8144 66.9937C63.7339 66.8863 62.8492 66.9221 62.8089 66.4208C62.0046 66.385 61.8839 65.9911 61.8839 65.8121C61.4415 65.5972 61.16 65.6689 61.3209 65.3824C61.4818 65.0959 61.8035 65.0243 62.1654 65.1676C62.6883 65.0243 63.1709 65.275 63.2513 65.633C63.7339 65.5256 64.1361 65.633 64.2166 66.0269C64.659 66.1343 65.1416 65.9911 65.1014 66.385C65.0611 66.7788 65.1014 66.8863 65.1014 66.8863Z" fill="#E8C8BA"/>
<path d="M70.3698 61.1215L68.7611 62.2315L70.4905 66.2776L73.2655 64.7021L70.3698 61.1215Z" fill="#D8D8D8"/>
<path d="M88.9103 40.4971C86.2559 43.1109 84.3255 49.377 78.8156 54.0677C77.9711 54.7838 69.4047 61.229 69.4047 61.229C69.4047 61.229 71.134 65.1677 71.9384 66.2777C73.1449 66.0628 81.6309 59.8683 82.5559 59.2238C87.0603 56.1803 91.7256 51.6687 91.7256 51.6687L88.9103 40.4971Z" fill="#001C49"/>
<path d="M32.8064 99.1479L38.8391 95.6388L38.638 91.4137L31.5999 94.3498L32.8064 99.1479Z" fill="black"/>
<path d="M40.6891 117.23H41.5739L38.7989 94.8869L37.2706 91.6643L16.8802 91.915V96.5698H16.9204L14.0649 117.337H14.9095L19.9367 96.5698H36.0641L40.6891 117.23Z" fill="black"/>
<path d="M12.6171 64.0934C11.0486 59.8682 9.96274 59.7966 5.49856 59.8324C1.7583 59.8682 0.55177 61.6228 0.672423 64.4515L6.54422 90.4111C6.66488 93.2756 9.23882 95.1733 12.2954 94.672C15.3519 94.1707 19.5748 92.3804 19.4139 89.5159L12.6171 64.0934Z" fill="#1E1E1E"/>
<path d="M35.2598 121.885H36.1848L33.4902 99.4343L33.5304 93.7411L8.99753 94.3856V99.4343H9.03775L5.90076 122.028H6.86598L12.2954 99.4343H30.2325L35.2598 121.885Z" fill="black"/>
<path d="M10.928 94.3856C9.84208 94.3856 9.76164 94.0634 10.7671 93.6695L16.7193 91.2347C17.6846 90.8408 19.3737 90.5186 20.4194 90.5186L37.1902 90.5902C38.2761 90.5902 39.2011 91.1631 38.3565 91.736L35.0989 93.4189C34.2543 93.9918 32.6858 94.4931 31.5999 94.4931L10.928 94.3856Z" fill="#1E1E1E"/>
<path d="M42.7804 86.723C43.1021 89.0504 40.488 94.672 39.7238 95.6746C38.9597 96.6772 36.4662 110.14 36.5869 111.143C37.0293 114.437 39.8043 117.123 42.4184 118.591C40.7293 119.486 38.6782 119.235 35.5814 116.836C34.2944 115.869 32.6857 115.225 32.364 114.33C31.6401 112.325 32.6857 113.506 32.7662 110.498C32.8466 107.491 30.4335 98.754 32.8868 94.1349C34.4151 91.3062 33.7716 87.2601 34.1738 86.2575C34.576 85.255 42.7804 86.723 42.7804 86.723Z" fill="#DDAC9E"/>
<path d="M32.4444 112.325C31.8009 112.79 31.3585 114.115 31.7607 115.297C32.2031 116.478 33.289 117.087 33.289 119.951C34.0129 120.095 34.0129 119.951 34.0129 119.951C34.0129 119.951 33.7716 116.407 34.4553 116.657C35.139 116.872 36.1042 118.483 37.3108 119.629C38.5173 120.775 42.8608 120.381 43.1021 120.023C43.3837 119.665 43.625 118.519 42.5391 118.197C41.4934 117.875 41.2119 117.552 41.2119 117.552C41.2119 117.552 39.4825 118.519 37.8738 117.337C35.9031 115.834 32.4444 112.325 32.4444 112.325Z" fill="#1E1E1E"/>
<path d="M41.2119 87.9404C41.5337 90.2679 38.9195 95.8895 38.1554 96.892C37.3912 97.8946 34.8977 111.358 35.0184 112.36C35.4608 115.655 38.2358 118.34 40.85 119.808C39.1608 120.703 37.1097 120.453 34.0129 118.054C32.726 117.087 31.1172 116.442 30.7955 115.547C30.0716 113.542 31.1172 114.724 31.1977 111.716C31.2781 108.708 28.865 99.9714 31.3183 95.3523C32.8466 92.5236 32.2031 88.4775 32.6053 87.475C33.0075 86.4724 41.2119 87.9404 41.2119 87.9404Z" fill="#E8C8BA"/>
<path d="M30.8759 113.542C30.2324 114.007 29.7901 115.332 30.1922 116.514C30.6346 117.696 31.7205 118.304 31.7205 121.169C32.4444 121.312 32.4444 121.169 32.4444 121.169C32.4444 121.169 32.2031 117.624 32.8868 117.875C33.5705 118.089 34.5358 119.701 35.7423 120.846C36.9488 121.992 41.2923 121.598 41.5337 121.24C41.775 120.882 42.0565 119.736 40.9706 119.414C39.8847 119.092 39.6434 118.77 39.6434 118.77C39.6434 118.77 37.914 119.736 36.3053 118.555C34.3749 117.087 30.8759 113.542 30.8759 113.542Z" fill="black"/>
<path d="M30.5139 101.941L42.3782 93.4187C42.8206 92.7742 41.3325 93.562 42.0162 91.4494C39.6032 90.0171 35.2597 88.5491 34.214 89.0862C33.6107 89.4084 33.0477 89.7665 32.5651 90.1604C32.5248 91.7 32.364 93.4903 31.5998 94.9942C30.5944 96.8561 30.3933 99.3626 30.5139 101.941Z" fill="url(#paint0_linear_284_51405)"/>
<path d="M33.7314 65.0959C29.9107 69.3927 31.1976 74.334 31.9216 78.6666C32.7661 83.6436 32.5248 93.383 32.5248 93.383H43.826L45.0326 65.5972L33.7314 65.0959Z" fill="#1E1E1E"/>
<path d="M30.9563 79.8481C31.077 84.8968 30.9563 93.4903 30.9563 93.4903L39.7238 93.3829C39.7238 90.1961 41.0912 76.0526 41.4129 72.9017C41.7347 70.073 41.4532 67.3159 43.0619 65.2391L33.7313 65.1675C29.9106 69.4642 30.8357 74.1191 30.9563 79.8481Z" fill="black"/>
<path d="M50.6632 41.034C47.8077 42.2157 45.9979 45.5098 46.3599 47.5508C46.6012 48.8756 45.3544 45.6531 43.3435 44.2924C41.6142 43.1108 41.4533 42.8244 40.2065 42.3231C41.2522 41.6069 44.6305 38.8857 44.5501 36.0928C44.4696 33.2641 50.6632 41.034 50.6632 41.034Z" fill="#E8C8BA"/>
<path d="M44.7512 35.6631C44.7109 34.016 48.8534 39.1005 50.4621 41.1057L42.3783 45.1876C41.212 44.3641 40.4881 43.6838 40.2065 43.0392C41.2522 42.3231 44.8316 38.5276 44.7512 35.6631Z" fill="url(#paint1_linear_284_51405)"/>
<path d="M40.85 42.2157L42.3783 39.4229L46.1587 43.3257L46.5207 48.267L40.85 42.2157Z" fill="#AAC9E2"/>
<path d="M43.5848 44.0418C44.4696 44.7579 47.8077 50.7018 47.8077 50.7018C48.5316 52.0624 49.2555 52.9934 49.4164 54.0318C49.6577 55.464 48.3305 57.3976 47.7273 58.0063C47.0838 58.615 47.0838 61.4079 46.9229 62.3389C46.762 63.2698 45.6762 70.5743 45.6762 70.5743C45.6762 70.5743 34.4152 68.4259 33.2488 67.8889C32.5249 67.5666 35.501 57.9347 35.9032 54.2108C36.3054 50.5228 35.9434 45.295 40.3272 41.786C42.0565 42.6812 42.2576 43.0034 43.5848 44.0418Z" fill="#1E1E1E"/>
<path d="M35.1792 53.3515C33.4096 63.7712 28.9857 66.564 29.7498 66.9221C29.7498 66.9221 39.7641 69.7866 39.9249 69.2495C42.7 58.9015 41.7347 48.9831 42.0565 47.2644C42.2978 46.0112 42.9011 44.5073 43.8261 43.7554C42.6597 42.8244 42.0163 42.538 40.3271 41.7502C35.9434 45.2593 35.7825 49.6993 35.1792 53.3515Z" fill="black"/>
<path d="M51.1055 27.7141C47.4859 26.9264 44.3892 27.929 43.3033 31.9751C42.2174 36.0212 45.6761 40.7835 49.1751 41.8576C50.824 42.3589 52.3925 41.0699 53.599 38.9215C54.1621 38.9573 54.6849 38.9215 54.7251 38.5635C54.6045 37.8473 54.5643 37.2744 54.5643 36.809C54.7251 36.3077 54.9262 35.8064 55.0469 35.2693C56.1328 31.259 54.7251 28.5019 51.1055 27.7141Z" fill="#E8C8BA"/>
<path d="M41.413 40.2821L45.3543 43.6121L45.4348 46.7989L40.0858 41.8576L41.413 40.2821Z" fill="black"/>
<path d="M44.5902 45.6888L47.0033 46.2259C47.0033 46.2259 48.5718 51.8117 48.8131 52.4921C49.0544 53.1724 44.5902 45.6888 44.5902 45.6888Z" fill="black"/>
<path d="M59.5915 61.4795L61.16 61.8376L60.2752 65.4182L58.4252 64.9527L59.5915 61.4795Z" fill="#AAC9E2"/>
<path d="M40.9304 44.5073C39.4423 44.2209 36.8684 46.2618 37.3912 48.8757C38.3162 53.8528 45.0326 60.5486 46.4 61.3721C47.7674 62.1957 58.6665 66.2776 58.6665 66.2776L60.2752 61.0499C60.2752 61.0499 50.7435 56.4667 50.462 56.1086C49.537 54.9628 44.4696 47.9089 43.3837 46.4409C42.2174 44.9728 40.9304 44.5073 40.9304 44.5073Z" fill="black"/>
<path d="M50.1805 56.216C48.6924 54.2824 44.188 48.0163 43.1021 46.5483C42.5793 45.8321 41.976 45.3667 41.5336 45.0802C41.2923 45.116 41.1717 45.1876 41.1717 45.1876C41.0108 47.3002 47.1641 55.9653 47.9283 56.8605C48.5718 57.6124 55.8914 61.3363 59.5512 63.1266L60.0338 61.4079C60.0338 61.4079 50.462 56.6098 50.1805 56.216Z" fill="#1E1E1E"/>
<path d="M102.946 98.7181L96.9136 95.209L97.0744 90.9839L104.153 93.92L102.946 98.7181Z" fill="black"/>
<path d="M95.0233 116.8H94.1385L96.9538 94.4571L98.4821 91.2704L118.873 91.4852V96.1401H118.792L121.688 116.944H120.803L115.816 96.1401H99.6484L95.0233 116.8Z" fill="black"/>
<path d="M123.055 64.0933C124.664 59.8682 125.75 59.8324 130.214 59.9398C133.954 60.0114 135.121 61.7659 135 64.6304L128.766 90.5184C128.605 93.3829 125.991 95.2449 122.975 94.7078C119.918 94.1707 115.695 92.3446 115.937 89.4801L123.055 64.0933Z" fill="#1E1E1E"/>
<path d="M100.493 121.491H99.5277L102.263 99.0403L102.222 93.3113L126.755 93.9916V99.0403H126.675L129.812 121.634H128.887L123.457 99.0403H105.52L100.493 121.491Z" fill="black"/>
<path d="M124.825 93.9916C125.911 93.9916 125.991 93.6693 124.986 93.2755L119.033 90.8406C118.068 90.4468 116.379 90.1245 115.333 90.1245L98.5625 90.1961C97.4766 90.1961 96.5516 90.769 97.3962 91.3419L100.654 93.0248C101.498 93.5977 103.067 94.099 104.153 94.099L124.825 93.9916Z" fill="#1E1E1E"/>
<path d="M89.3124 38.9932L88.0254 40.1748L87.8243 43.2899L89.6341 41.1774L89.3124 38.9932Z" fill="#D8D8D8"/>
<path d="M93.1734 33.4789C93.4549 34.6963 93.5354 36.236 94.943 37.5966C96.3506 38.9931 96.3506 38.9931 96.3506 38.9931L90.1571 42.0724C90.1571 42.0724 89.5538 39.3511 88.2668 38.4918C87.0603 37.6682 93.1734 33.4789 93.1734 33.4789Z" fill="#E8C8BA"/>
<path d="M81.9928 27.571C83.32 24.3126 92.0473 22.0568 93.4951 27.1413C96.1093 36.4509 89.594 38.3129 89.594 38.3129C87.3418 38.4561 86.819 38.7425 85.1298 38.3129C84.3255 38.098 83.682 37.1671 83.0787 35.8422C82.3548 35.7706 81.5504 35.8064 81.5906 35.3767C81.8722 34.7322 81.8722 33.6222 82.033 33.1568C81.4298 31.0442 81.3493 29.1106 81.9928 27.571Z" fill="#E8C8BA"/>
<path d="M87.7038 38.5276C85.9342 38.6708 86.6581 38.7425 85.17 38.3844C84.3657 38.1696 83.7222 37.2386 83.1189 35.9138C82.395 35.8421 81.5907 35.8779 81.6309 35.4483C81.9124 34.8038 81.9526 33.6938 82.0733 33.2283C81.5102 31.1515 80.6656 29.576 81.2689 28.0364C81.3493 27.8573 82.1939 27.356 82.2744 27.177L83.4809 27.3202C83.7222 31.0083 84.1646 36.4508 89.956 36.9521L92.6103 40.6044L89.9962 43.1108C89.956 43.1108 88.4679 39.745 87.7038 38.5276Z" fill="#DDAC9E"/>
<path d="M92.4494 24.4915C91.5646 23.668 90.3581 22.7728 87.6233 23.2741C84.9287 23.7396 83.2395 24.3841 81.8319 26.3176C81.108 27.2844 81.8721 28.2154 81.8721 28.2154C81.8721 28.2154 83.4004 27.1412 84.0439 27.177C84.7276 27.2128 85.5319 28.2154 86.5776 29.1463C87.5026 29.9341 87.02 31.0441 87.02 31.0441C87.02 31.0441 89.9559 31.4738 90.157 32.2615C90.3581 33.0492 93.4548 34.4815 93.4548 34.4815C93.4548 34.4815 95.3049 31.3305 95.4255 29.4328C95.707 25.0286 92.6505 24.7064 92.4494 24.4915Z" fill="#441800"/>
<path d="M85.6526 29.2538C84.5667 28.3228 84.6472 28.2154 83.9635 28.1438C83.2798 28.1079 80.8265 29.4328 80.8265 29.4328C80.8265 29.4328 79.5797 28.1796 80.3036 27.177C81.7113 25.2434 83.9635 23.668 86.6581 23.2025C87.7439 23.0234 88.7092 23.0234 89.5537 23.1667C88.3472 23.8112 86.1352 25.4941 87.5428 31.0441C86.7385 30.8292 87.02 30.9725 87.02 30.9725C87.02 30.9725 86.5776 30.0415 85.6526 29.2538Z" fill="#210500"/>
<path d="M88.1863 31.5454C88.6287 31.1515 89.3526 30.1132 89.9559 30.5428C90.5189 31.0083 90.7602 32.8702 89.7146 33.658C88.6689 34.4099 88.1863 31.5454 88.1863 31.5454Z" fill="#E8C8BA"/>
<path d="M101.137 112.289C100.614 113.542 101.016 114.903 101.177 116.585C101.378 118.268 101.82 119.557 99.8898 119.951C97.9995 120.345 88.5886 120.166 88.5886 120.166C88.5886 120.166 86.8994 118.161 91.1625 117.695C94.5006 117.337 96.23 114.688 96.1093 112.217C96.1495 111.573 101.137 112.289 101.137 112.289Z" fill="black"/>
<path d="M91.6049 71.6486C91.7657 77.9147 92.369 95.3524 92.4896 96.2475C93.6157 104.626 93.8168 115.941 93.8168 115.941L100.573 116.084C100.573 116.084 102.826 101.618 100.734 95.603C100.091 93.7769 103.107 75.8737 103.107 75.8737L91.6049 71.6486Z" fill="#001C49"/>
<path d="M105.802 122.386L104.515 121.813C104.515 121.813 105.601 120.775 105.802 120.811C105.963 120.811 105.802 122.386 105.802 122.386Z" fill="black"/>
<path d="M107.29 115.834C107.451 117.23 107.732 119.808 107.25 121.777C107.089 122.35 105.641 122.314 105.641 122.314C105.641 122.314 106.284 120.811 104.032 122.601C101.7 124.463 98.0397 123.747 97.4767 123.46C96.9136 123.174 96.2299 122.708 97.5974 121.563C98.7637 120.596 100.694 119.665 101.137 118.734C101.579 117.839 101.74 114.938 101.74 114.938L107.29 115.834Z" fill="#031C28"/>
<path d="M94.3799 70.7534C94.5408 77.0195 97.0343 96.0327 97.4767 96.8563C99.6082 100.723 99.206 118.519 99.206 118.519H108.496C108.496 118.519 107.41 103.158 106.485 95.6746C106.325 94.493 106.365 85.3266 107.048 77.2702C107.451 72.5079 105.158 67.5667 105.158 67.5667L94.3799 70.7534Z" fill="#0D3B7F"/>
<path d="M101.74 46.6915C101.217 43.3973 100.533 41.428 99.2463 40.1748C97.9995 38.9931 96.1495 37.7041 94.7821 36.809C94.7821 36.809 92.1277 38.4919 90.7603 40.1031C90.3984 40.5328 88.4679 42.0367 88.106 42.6454C87.1005 44.1851 86.5375 48.6609 86.457 52.8144C86.3766 58.5792 90.7603 78.0221 90.7603 78.0221C102.102 77.9863 108.255 76.0885 108.094 75.3724C105.721 65.2392 102.705 53.1725 101.74 46.6915Z" fill="#001C49"/>
<path d="M98.4821 67.6025C98.6429 68.3902 98.4419 69.7867 98.6027 70.5744C98.7636 71.3621 98.0799 74.2983 98.2408 74.7637C98.4016 75.2292 98.4016 75.9812 98.5223 76.4466C98.8038 77.6283 99.769 77.127 99.769 76.5183C99.769 76.3034 99.8093 76.3392 99.8093 76.3392C99.8093 76.3392 100.051 76.9121 100.493 76.8763C101.096 76.8405 101.217 76.5183 101.297 76.1244C101.539 76.5899 102.383 76.4466 102.464 75.7305C102.986 76.196 103.429 75.7663 103.509 74.7995C103.55 74.155 102.906 71.0399 102.705 70.1447C102.504 69.2496 102.785 66.5641 102.785 66.5641L98.4821 67.6025Z" fill="#E8C8BA"/>
<path d="M97.4766 70.3953L97.8385 72.0066L103.59 71.7917L103.389 69.1779L97.4766 70.3953Z" fill="white"/>
<path d="M93.7766 43.8628C93.6962 41.0699 96.994 39.1721 99.2462 40.2105C101.458 41.2489 103.911 50.4869 104.354 58.5434C104.354 58.5434 104.716 70.5027 104.716 71.183C100.855 70.6817 96.7929 71.4337 96.7929 71.4337L97.0342 56.5382L93.7766 43.8628Z" fill="#0D3B7F"/>
<path d="M88.5886 41.6071L88.4679 47.4435L93.7364 39.0648L88.5886 41.6071Z" fill="#D8D8D8"/>
<path d="M94.8223 36.7732L96.6723 37.9548L93.1733 42.5738L90.9614 43.7554L91.2429 44.937L87.02 54.6764C87.02 54.6764 87.7439 47.4793 88.9103 45.3309C90.0766 43.1467 94.8223 36.7732 94.8223 36.7732Z" fill="#0D3B7F"/>
<path d="M93.9777 35.3051L88.9103 40.497L90.3581 43.1108L95.2647 36.9163L93.9777 35.3051Z" fill="white"/>
<path d="M55.1676 30.9367C55.6502 30.1848 54.2828 27.6067 49.0143 26.819C46.6414 26.4609 44.7914 26.998 43.5848 27.9648C43.5446 28.0006 43.4642 28.0006 43.424 28.0364C41.7348 29.218 38.7587 33.7654 40.0859 36.5941C40.6892 37.8832 48.9338 42.7886 50.7436 43.6838C49.0947 41.4996 51.3871 35.0545 53.76 31.9751L55.1676 30.9367Z" fill="#210500"/>
<path d="M42.0163 84.3956H37.9141V125H42.0163V84.3956Z" fill="#7AA7D6"/>
<path d="M97.7984 84.3956H93.6962V125H97.7984V84.3956Z" fill="#7AA7D6"/>
<path d="M108.175 83.8943H26.7335L45.6359 76.1602H89.9157L108.175 83.8943Z" fill="#7AA7D6"/>
<path d="M68.2383 81.1373L69.4046 78.058H85.1298L91.6853 81.1373H68.2383Z" fill="white"/>
<path d="M40.287 81.3162H60.9187L63.6535 77.9146L47.3653 77.843L40.287 81.3162Z" fill="white"/>
<path d="M108.215 83.8585H26.7737V88.7998H108.215V83.8585Z" fill="#AAC9E2"/>
<path d="M55.2479 80.5643C55.1675 80.7791 55.0871 80.8865 55.0468 80.9223C55.0066 80.9581 54.886 81.0655 54.5642 81.0655C54.3631 81.0655 52.9153 81.1372 51.9903 80.8149C51.9099 80.7791 51.9501 80.7075 51.9903 80.6717C52.0707 80.6359 52.5533 80.5284 52.5936 80.6001C52.6338 80.6359 52.674 80.7433 52.7544 80.7791C52.8349 80.8149 54.3229 80.7433 54.4034 80.7075C54.4838 80.6717 54.4838 80.6001 54.4436 80.5284C54.8055 80.6001 55.2479 80.5643 55.2479 80.5643Z" fill="#001C49"/>
<path d="M45.3946 80.1704C45.3946 80.1704 45.1935 80.242 45.1935 80.2778C45.1935 80.3136 45.3946 80.3853 45.3946 80.3853V80.1704Z" fill="#001C49"/>
<path d="M45.3945 80.1704C45.5956 80.063 46.3195 79.9914 46.4402 79.9556V80.5643C46.2391 80.5643 45.5152 80.4569 45.3945 80.3852C45.3945 80.2778 45.3945 80.1704 45.3945 80.1704Z" fill="#AAC9E2"/>
<path d="M46.4 79.9556C46.7218 79.884 51.4273 79.705 51.4273 79.705L51.4675 80.7075C51.4675 80.7075 46.762 80.6359 46.4402 80.5643C46.4 80.2062 46.4 80.0272 46.4 79.9556Z" fill="#001C49"/>
<path d="M55.2078 80.1346L55.248 79.6333C55.2882 79.6333 55.9317 79.5975 55.9317 80.1346C55.9317 80.6717 55.2882 80.6359 55.248 80.6359L55.2078 80.1346Z" fill="#7AA7D6"/>
<path d="M51.5881 80.2062V80.063H51.6284V79.7049C51.6686 79.7049 55.1675 79.5975 55.3686 79.6333C55.3686 79.8481 55.3686 80.0272 55.3686 80.1346C55.3686 80.242 55.3686 80.3852 55.3686 80.6359C55.2077 80.6717 51.7088 80.6717 51.6686 80.6717L51.6284 80.3136H51.5881V80.2062Z" fill="#001C49"/>
<path d="M51.3871 80.7075H51.6686C51.6686 80.7075 51.7088 80.7075 51.6686 80.6717V79.6333C51.6686 79.6333 51.6686 79.5975 51.6284 79.5975H51.3469C51.3469 79.5975 51.3066 79.5975 51.3066 79.6333L51.3871 80.7075Z" fill="#7AA7D6"/>
<path d="M51.4273 79.705V80.1704L46.4 80.2421C46.4 80.0988 46.4 79.9914 46.4 79.9556C46.7218 79.884 51.4273 79.705 51.4273 79.705Z" fill="#0D3B7F"/>
<path d="M51.5881 80.063V79.7049C51.6284 79.7049 55.1675 79.5975 55.3284 79.6333C55.3284 79.8481 55.3284 79.9913 55.3284 80.0988L51.5881 80.1704V80.063Z" fill="#0D3B7F"/>
<path d="M55.9317 80.0988H55.3687V79.6333C55.3687 79.6333 55.8915 79.6333 55.9317 80.0988Z" fill="#AAC9E2"/>
<path d="M51.3871 79.6333H51.6686C51.6686 79.6333 51.7088 79.6333 51.7088 79.6691V80.1704H51.3871V79.6333Z" fill="#AAC9E2"/>
<path d="M75.6384 78.5234C75.7189 78.7382 75.7993 78.8456 75.8395 78.8814C75.8797 78.9172 76.0406 79.0246 76.3221 79.0246C76.5232 79.0246 77.9711 79.0963 78.8961 78.774C78.9765 78.7382 78.9363 78.6666 78.8961 78.6308C78.8156 78.595 78.333 78.5234 78.2928 78.5592C78.2526 78.595 78.2124 78.7024 78.1319 78.7382C78.0515 78.774 76.5634 78.7024 76.483 78.6666C76.4026 78.6308 76.4026 78.5592 76.4428 78.4875C76.0406 78.5592 75.6384 78.5234 75.6384 78.5234Z" fill="#001C49"/>
<path d="M85.4918 78.1295C85.4918 78.1295 85.6929 78.2011 85.6929 78.2369C85.6929 78.2727 85.4918 78.3444 85.4918 78.3444V78.1295Z" fill="#001C49"/>
<path d="M85.4917 78.1295C85.2504 78.0221 84.5667 77.9505 84.446 77.9147V78.5234C84.6471 78.5234 85.3711 78.416 85.4917 78.3443C85.4917 78.2369 85.4917 78.1653 85.4917 78.1295Z" fill="#AAC9E2"/>
<path d="M84.4461 77.9504C84.1243 77.8788 79.4188 77.6639 79.4188 77.6639V78.6665C79.4188 78.6665 84.1243 78.5949 84.4461 78.5233C84.4461 78.1652 84.4461 77.9862 84.4461 77.9504Z" fill="#001C49"/>
<path d="M75.6786 78.0937L75.6384 77.5924C75.5982 77.5924 74.9547 77.5566 74.9547 78.0937C74.9547 78.6308 75.5982 78.595 75.6384 78.595L75.6786 78.0937Z" fill="#7AA7D6"/>
<path d="M79.2982 78.1653L79.3385 78.0221H79.2982V77.664C79.258 77.664 75.7591 77.5566 75.558 77.5924C75.558 77.8072 75.558 77.9863 75.558 78.0937C75.558 78.2011 75.558 78.3801 75.558 78.595C75.7189 78.6308 79.2178 78.6308 79.258 78.6308L79.2982 78.2727H79.3385L79.2982 78.1653Z" fill="#001C49"/>
<path d="M79.4591 78.6666L79.1775 78.7024C79.1775 78.7024 79.1373 78.7024 79.1775 78.6666V77.6282C79.1775 77.6282 79.1775 77.5924 79.2178 77.6282H79.4993C79.4993 77.6282 79.4993 77.6282 79.5395 77.664L79.4591 78.6666Z" fill="#7AA7D6"/>
<path d="M79.4591 77.6641V78.1295L84.4863 78.2012C84.4863 78.0579 84.4863 77.9505 84.4863 77.9147C84.1244 77.8789 79.4591 77.6641 79.4591 77.6641Z" fill="#0D3B7F"/>
<path d="M79.258 78.0221V77.664C79.2177 77.664 75.6786 77.5566 75.5177 77.5924C75.5177 77.8072 75.5177 77.9505 75.5177 78.0579L79.258 78.1295V78.0221Z" fill="#0D3B7F"/>
<path d="M74.9547 78.0579H75.5178V77.5924C75.4775 77.5924 74.9547 77.6282 74.9547 78.0579Z" fill="#AAC9E2"/>
<path d="M79.4591 77.5924H79.1775C79.1775 77.5924 79.1373 77.5924 79.1373 77.6282V78.1295H79.4591V77.5924C79.4993 77.6282 79.4993 77.5924 79.4591 77.5924Z" fill="#AAC9E2"/>
</g>
<defs>
<linearGradient id="paint0_linear_284_51405" x1="31.9717" y1="101.218" x2="38.1904" y2="87.7303" gradientUnits="userSpaceOnUse">
<stop stop-color="white"/>
<stop offset="0.6429" stop-color="#C6C0B9"/>
</linearGradient>
<linearGradient id="paint1_linear_284_51405" x1="41.4581" y1="39.6252" x2="49.8416" y2="42.724" gradientUnits="userSpaceOnUse">
<stop stop-color="white"/>
<stop offset="0.6429" stop-color="#C6C0B9"/>
</linearGradient>
<clipPath id="clip0_284_51405">
<rect width="134.328" height="125" fill="white" transform="translate(0.672485)"/>
</clipPath>
</defs>
</svg>
