<svg width="1177" height="563" viewBox="0 0 1177 563" fill="none" xmlns="http://www.w3.org/2000/svg">
<g opacity="0.35" clip-path="url(#clip0_309_98288)">
<path d="M0 654.931V507.691H12.6294V437.459H31.1115V193.496H57.6025V162.076L114.281 135.585V103.858H122.29V193.496H133.379V437.459H144.16V309.317H174.04V243.089H182.664V437.459H205.151V363.531H220.245V344.741H254.745V280.053H273.843V234.464H296.945V167.929H305.262V234.464H328.673V280.053H347.771V344.741H382.271V363.531H397.365V437.459H414.923V344.741H449.422V144.826H460.512V122.648H534.44V144.826H550.15V289.602H613.297V303.772H636.707V314.861H613.297V371.54H679.216V182.714H693.386V142.362H724.189V0.0499878H732.814V142.362H754.993V182.714H884.059V169.469H891.76V259.107H902.849V260.647H909.626V350.285H920.407V374.62H943.818V308.701H952.135V466.106H961.376V399.879H969.693V503.07H974.929V429.142H989.715V410.044H1024.52V345.665H1043.31V300.076H1066.72V233.54H1075.04V300.076H1098.45V345.665H1117.24V410.044H1151.74V429.142H1166.83V501.53H1169.61V503.07H1177V654.931H0Z" fill="#E6E6E6"/>
<path d="M811.979 191.339H803.046V200.272H811.979V191.339Z" fill="#F0F0F0"/>
<path d="M811.979 206.433H803.046V215.366H811.979V206.433Z" fill="#F0F0F0"/>
<path d="M811.979 266.192H803.046V275.125H811.979V266.192Z" fill="#F0F0F0"/>
<path d="M811.979 280.977H803.046V289.91H811.979V280.977Z" fill="#F0F0F0"/>
<path d="M811.979 296.071H803.046V305.004H811.979V296.071Z" fill="#F0F0F0"/>
<path d="M811.979 341.044H803.046V349.977H811.979V341.044Z" fill="#F0F0F0"/>
<path d="M811.979 355.83H803.046V364.763H811.979V355.83Z" fill="#F0F0F0"/>
<path d="M797.809 251.098H788.876V260.031H797.809V251.098Z" fill="#F0F0F0"/>
<path d="M797.809 266.192H788.876V275.125H797.809V266.192Z" fill="#F0F0F0"/>
<path d="M797.809 280.977H788.876V289.91H797.809V280.977Z" fill="#F0F0F0"/>
<path d="M797.809 296.071H788.876V305.004H797.809V296.071Z" fill="#F0F0F0"/>
<path d="M797.809 310.857H788.876V319.79H797.809V310.857Z" fill="#F0F0F0"/>
<path d="M797.809 341.044H788.876V349.977H797.809V341.044Z" fill="#F0F0F0"/>
<path d="M797.809 355.83H788.876V364.763H797.809V355.83Z" fill="#F0F0F0"/>
<path d="M783.64 191.339H774.707V200.272H783.64V191.339Z" fill="#F0F0F0"/>
<path d="M783.64 206.433H774.707V215.366H783.64V206.433Z" fill="#F0F0F0"/>
<path d="M783.64 221.219H774.707V230.152H783.64V221.219Z" fill="#F0F0F0"/>
<path d="M783.64 236.312H774.707V245.246H783.64V236.312Z" fill="#F0F0F0"/>
<path d="M783.64 251.098H774.707V260.031H783.64V251.098Z" fill="#F0F0F0"/>
<path d="M783.64 266.192H774.707V275.125H783.64V266.192Z" fill="#F0F0F0"/>
<path d="M783.64 280.977H774.707V289.91H783.64V280.977Z" fill="#F0F0F0"/>
<path d="M783.64 296.071H774.707V305.004H783.64V296.071Z" fill="#F0F0F0"/>
<path d="M783.64 310.857H774.707V319.79H783.64V310.857Z" fill="#F0F0F0"/>
<path d="M783.64 325.95H774.707V334.883H783.64V325.95Z" fill="#F0F0F0"/>
<path d="M783.64 355.83H774.707V364.763H783.64V355.83Z" fill="#F0F0F0"/>
<path d="M769.47 191.339H760.537V200.272H769.47V191.339Z" fill="#F0F0F0"/>
<path d="M769.47 206.433H760.537V215.366H769.47V206.433Z" fill="#F0F0F0"/>
<path d="M769.47 221.219H760.537V230.152H769.47V221.219Z" fill="#F0F0F0"/>
<path d="M769.47 236.312H760.537V245.246H769.47V236.312Z" fill="#F0F0F0"/>
<path d="M769.47 251.098H760.537V260.031H769.47V251.098Z" fill="#F0F0F0"/>
<path d="M769.47 266.192H760.537V275.125H769.47V266.192Z" fill="#F0F0F0"/>
<path d="M769.47 280.977H760.537V289.91H769.47V280.977Z" fill="#F0F0F0"/>
<path d="M769.47 415.589H760.537V424.522H769.47V415.589Z" fill="#F0F0F0"/>
<path d="M755.301 191.339H746.368V200.272H755.301V191.339Z" fill="#F0F0F0"/>
<path d="M755.301 206.433H746.368V215.366H755.301V206.433Z" fill="#F0F0F0"/>
<path d="M755.301 221.219H746.368V230.152H755.301V221.219Z" fill="#F0F0F0"/>
<path d="M755.301 236.312H746.368V245.246H755.301V236.312Z" fill="#F0F0F0"/>
<path d="M755.301 251.098H746.368V260.031H755.301V251.098Z" fill="#F0F0F0"/>
<path d="M755.301 266.192H746.368V275.125H755.301V266.192Z" fill="#F0F0F0"/>
<path d="M755.301 280.977H746.368V289.91H755.301V280.977Z" fill="#F0F0F0"/>
<path d="M755.301 296.071H746.368V305.004H755.301V296.071Z" fill="#F0F0F0"/>
<path d="M755.301 385.709H746.368V394.642H755.301V385.709Z" fill="#F0F0F0"/>
<path d="M755.301 400.803H746.368V409.736H755.301V400.803Z" fill="#F0F0F0"/>
<path d="M755.301 415.589H746.368V424.522H755.301V415.589Z" fill="#F0F0F0"/>
<path d="M755.301 430.682H746.368V439.615H755.301V430.682Z" fill="#F0F0F0"/>
<path d="M755.301 490.441H746.368V499.374H755.301V490.441Z" fill="#F0F0F0"/>
<path d="M741.131 191.339H732.198V200.272H741.131V191.339Z" fill="#F0F0F0"/>
<path d="M741.131 206.433H732.198V215.366H741.131V206.433Z" fill="#F0F0F0"/>
<path d="M741.131 221.219H732.198V230.152H741.131V221.219Z" fill="#F0F0F0"/>
<path d="M741.131 236.312H732.198V245.246H741.131V236.312Z" fill="#F0F0F0"/>
<path d="M741.131 251.098H732.198V260.031H741.131V251.098Z" fill="#F0F0F0"/>
<path d="M741.131 266.192H732.198V275.125H741.131V266.192Z" fill="#F0F0F0"/>
<path d="M741.131 280.977H732.198V289.91H741.131V280.977Z" fill="#F0F0F0"/>
<path d="M741.131 296.071H732.198V305.004H741.131V296.071Z" fill="#F0F0F0"/>
<path d="M741.131 310.857H732.198V319.79H741.131V310.857Z" fill="#F0F0F0"/>
<path d="M741.131 325.95H732.198V334.883H741.131V325.95Z" fill="#F0F0F0"/>
<path d="M741.131 370.924H732.198V379.857H741.131V370.924Z" fill="#F0F0F0"/>
<path d="M741.131 385.709H732.198V394.642H741.131V385.709Z" fill="#F0F0F0"/>
<path d="M741.131 400.803H732.198V409.736H741.131V400.803Z" fill="#F0F0F0"/>
<path d="M741.131 415.589H732.198V424.522H741.131V415.589Z" fill="#F0F0F0"/>
<path d="M741.131 430.682H732.198V439.615H741.131V430.682Z" fill="#F0F0F0"/>
<path d="M741.131 490.441H732.198V499.374H741.131V490.441Z" fill="#F0F0F0"/>
<path d="M726.961 191.339H718.028V200.272H726.961V191.339Z" fill="#F0F0F0"/>
<path d="M726.961 206.433H718.028V215.366H726.961V206.433Z" fill="#F0F0F0"/>
<path d="M726.961 221.219H718.028V230.152H726.961V221.219Z" fill="#F0F0F0"/>
<path d="M726.961 236.312H718.028V245.246H726.961V236.312Z" fill="#F0F0F0"/>
<path d="M726.961 251.098H718.028V260.031H726.961V251.098Z" fill="#F0F0F0"/>
<path d="M726.961 266.192H718.028V275.125H726.961V266.192Z" fill="#F0F0F0"/>
<path d="M726.961 280.977H718.028V289.91H726.961V280.977Z" fill="#F0F0F0"/>
<path d="M726.961 296.071H718.028V305.004H726.961V296.071Z" fill="#F0F0F0"/>
<path d="M726.961 310.857H718.028V319.79H726.961V310.857Z" fill="#F0F0F0"/>
<path d="M726.961 325.95H718.028V334.883H726.961V325.95Z" fill="#F0F0F0"/>
<path d="M726.961 341.044H718.028V349.977H726.961V341.044Z" fill="#F0F0F0"/>
<path d="M726.961 355.83H718.028V364.763H726.961V355.83Z" fill="#F0F0F0"/>
<path d="M726.961 370.924H718.028V379.857H726.961V370.924Z" fill="#F0F0F0"/>
<path d="M726.961 385.709H718.028V394.642H726.961V385.709Z" fill="#F0F0F0"/>
<path d="M726.961 400.803H718.028V409.736H726.961V400.803Z" fill="#F0F0F0"/>
<path d="M726.961 415.589H718.028V424.522H726.961V415.589Z" fill="#F0F0F0"/>
<path d="M726.961 430.682H718.028V439.615H726.961V430.682Z" fill="#F0F0F0"/>
<path d="M726.961 445.468H718.028V454.401H726.961V445.468Z" fill="#F0F0F0"/>
<path d="M712.792 191.339H703.859V200.272H712.792V191.339Z" fill="#F0F0F0"/>
<path d="M712.792 206.433H703.859V215.366H712.792V206.433Z" fill="#F0F0F0"/>
<path d="M712.792 221.219H703.859V230.152H712.792V221.219Z" fill="#F0F0F0"/>
<path d="M712.792 236.312H703.859V245.246H712.792V236.312Z" fill="#F0F0F0"/>
<path d="M712.792 251.098H703.859V260.031H712.792V251.098Z" fill="#F0F0F0"/>
<path d="M712.792 266.192H703.859V275.125H712.792V266.192Z" fill="#F0F0F0"/>
<path d="M712.792 280.977H703.859V289.91H712.792V280.977Z" fill="#F0F0F0"/>
<path d="M712.792 296.071H703.859V305.004H712.792V296.071Z" fill="#F0F0F0"/>
<path d="M712.792 310.857H703.859V319.79H712.792V310.857Z" fill="#F0F0F0"/>
<path d="M712.792 325.95H703.859V334.883H712.792V325.95Z" fill="#F0F0F0"/>
<path d="M712.792 370.924H703.859V379.857H712.792V370.924Z" fill="#F0F0F0"/>
<path d="M712.792 385.709H703.859V394.642H712.792V385.709Z" fill="#F0F0F0"/>
<path d="M712.792 400.803H703.859V409.736H712.792V400.803Z" fill="#F0F0F0"/>
<path d="M712.792 415.589H703.859V424.522H712.792V415.589Z" fill="#F0F0F0"/>
<path d="M698.622 191.339H689.689V200.272H698.622V191.339Z" fill="#F0F0F0"/>
<path d="M698.622 206.433H689.689V215.366H698.622V206.433Z" fill="#F0F0F0"/>
<path d="M698.622 221.219H689.689V230.152H698.622V221.219Z" fill="#F0F0F0"/>
<path d="M698.622 236.312H689.689V245.246H698.622V236.312Z" fill="#F0F0F0"/>
<path d="M698.622 251.098H689.689V260.031H698.622V251.098Z" fill="#F0F0F0"/>
<path d="M698.622 266.192H689.689V275.125H698.622V266.192Z" fill="#F0F0F0"/>
<path d="M698.622 280.977H689.689V289.91H698.622V280.977Z" fill="#F0F0F0"/>
<path d="M698.622 296.071H689.689V305.004H698.622V296.071Z" fill="#F0F0F0"/>
<path d="M698.622 310.857H689.689V319.79H698.622V310.857Z" fill="#F0F0F0"/>
<path d="M698.622 325.95H689.689V334.883H698.622V325.95Z" fill="#F0F0F0"/>
<path d="M698.622 370.924H689.689V379.857H698.622V370.924Z" fill="#F0F0F0"/>
<path d="M698.622 385.709H689.689V394.642H698.622V385.709Z" fill="#F0F0F0"/>
<path d="M698.622 400.803H689.689V409.736H698.622V400.803Z" fill="#F0F0F0"/>
<path d="M539.06 152.527H530.127V161.46H539.06V152.527Z" fill="#F0F0F0"/>
<path d="M539.06 167.621H530.127V176.554H539.06V167.621Z" fill="#F0F0F0"/>
<path d="M539.06 182.406H530.127V191.339H539.06V182.406Z" fill="#F0F0F0"/>
<path d="M539.06 197.5H530.127V206.433H539.06V197.5Z" fill="#F0F0F0"/>
<path d="M539.06 212.286H530.127V221.219H539.06V212.286Z" fill="#F0F0F0"/>
<path d="M539.06 227.38H530.127V236.312H539.06V227.38Z" fill="#F0F0F0"/>
<path d="M539.06 242.165H530.127V251.098H539.06V242.165Z" fill="#F0F0F0"/>
<path d="M539.06 257.259H530.127V266.192H539.06V257.259Z" fill="#F0F0F0"/>
<path d="M539.06 302.232H530.127V311.165H539.06V302.232Z" fill="#F0F0F0"/>
<path d="M539.06 317.017H530.127V325.95H539.06V317.017Z" fill="#F0F0F0"/>
<path d="M524.891 152.527H515.958V161.46H524.891V152.527Z" fill="#F0F0F0"/>
<path d="M524.891 167.621H515.958V176.554H524.891V167.621Z" fill="#F0F0F0"/>
<path d="M524.891 182.406H515.958V191.339H524.891V182.406Z" fill="#F0F0F0"/>
<path d="M524.891 197.5H515.958V206.433H524.891V197.5Z" fill="#F0F0F0"/>
<path d="M524.891 212.286H515.958V221.219H524.891V212.286Z" fill="#F0F0F0"/>
<path d="M524.891 227.38H515.958V236.312H524.891V227.38Z" fill="#F0F0F0"/>
<path d="M524.891 242.165H515.958V251.098H524.891V242.165Z" fill="#F0F0F0"/>
<path d="M524.891 257.259H515.958V266.192H524.891V257.259Z" fill="#F0F0F0"/>
<path d="M524.891 317.017H515.958V325.95H524.891V317.017Z" fill="#F0F0F0"/>
<path d="M510.721 152.527H501.788V161.46H510.721V152.527Z" fill="#F0F0F0"/>
<path d="M510.721 167.621H501.788V176.554H510.721V167.621Z" fill="#F0F0F0"/>
<path d="M510.721 182.406H501.788V191.339H510.721V182.406Z" fill="#F0F0F0"/>
<path d="M510.721 197.5H501.788V206.433H510.721V197.5Z" fill="#F0F0F0"/>
<path d="M510.721 212.286H501.788V221.219H510.721V212.286Z" fill="#F0F0F0"/>
<path d="M510.721 227.38H501.788V236.312H510.721V227.38Z" fill="#F0F0F0"/>
<path d="M510.721 242.165H501.788V251.098H510.721V242.165Z" fill="#F0F0F0"/>
<path d="M510.721 257.259H501.788V266.192H510.721V257.259Z" fill="#F0F0F0"/>
<path d="M496.86 152.527H487.927V161.46H496.86V152.527Z" fill="#F0F0F0"/>
<path d="M496.86 167.621H487.927V176.554H496.86V167.621Z" fill="#F0F0F0"/>
<path d="M496.86 182.406H487.927V191.339H496.86V182.406Z" fill="#F0F0F0"/>
<path d="M496.86 197.5H487.927V206.433H496.86V197.5Z" fill="#F0F0F0"/>
<path d="M496.86 212.286H487.927V221.219H496.86V212.286Z" fill="#F0F0F0"/>
<path d="M496.86 227.38H487.927V236.312H496.86V227.38Z" fill="#F0F0F0"/>
<path d="M496.86 257.259H487.927V266.192H496.86V257.259Z" fill="#F0F0F0"/>
<path d="M496.86 272.044H487.927V280.977H496.86V272.044Z" fill="#F0F0F0"/>
<path d="M496.86 317.017H487.927V325.95H496.86V317.017Z" fill="#F0F0F0"/>
<path d="M496.86 332.111H487.927V341.044H496.86V332.111Z" fill="#F0F0F0"/>
<path d="M496.86 346.897H487.927V355.83H496.86V346.897Z" fill="#F0F0F0"/>
<path d="M496.86 361.991H487.927V370.924H496.86V361.991Z" fill="#F0F0F0"/>
<path d="M496.86 376.776H487.927V385.709H496.86V376.776Z" fill="#F0F0F0"/>
<path d="M496.86 391.87H487.927V400.803H496.86V391.87Z" fill="#F0F0F0"/>
<path d="M496.86 406.656H487.927V415.589H496.86V406.656Z" fill="#F0F0F0"/>
<path d="M482.69 152.527H473.757V161.46H482.69V152.527Z" fill="#F0F0F0"/>
<path d="M482.69 167.621H473.757V176.554H482.69V167.621Z" fill="#F0F0F0"/>
<path d="M482.69 182.406H473.757V191.339H482.69V182.406Z" fill="#F0F0F0"/>
<path d="M482.69 197.5H473.757V206.433H482.69V197.5Z" fill="#F0F0F0"/>
<path d="M482.69 212.286H473.757V221.219H482.69V212.286Z" fill="#F0F0F0"/>
<path d="M482.69 227.38H473.757V236.312H482.69V227.38Z" fill="#F0F0F0"/>
<path d="M482.69 272.044H473.757V280.977H482.69V272.044Z" fill="#F0F0F0"/>
<path d="M482.69 287.138H473.757V296.071H482.69V287.138Z" fill="#F0F0F0"/>
<path d="M482.69 302.232H473.757V311.165H482.69V302.232Z" fill="#F0F0F0"/>
<path d="M482.69 317.017H473.757V325.95H482.69V317.017Z" fill="#F0F0F0"/>
<path d="M482.69 332.111H473.757V341.044H482.69V332.111Z" fill="#F0F0F0"/>
<path d="M482.69 346.897H473.757V355.83H482.69V346.897Z" fill="#F0F0F0"/>
<path d="M482.69 361.991H473.757V370.924H482.69V361.991Z" fill="#F0F0F0"/>
<path d="M482.69 376.776H473.757V385.709H482.69V376.776Z" fill="#F0F0F0"/>
<path d="M482.69 391.87H473.757V400.803H482.69V391.87Z" fill="#F0F0F0"/>
<path d="M482.69 406.656H473.757V415.589H482.69V406.656Z" fill="#F0F0F0"/>
<path d="M482.69 421.749H473.757V430.682H482.69V421.749Z" fill="#F0F0F0"/>
<path d="M482.69 451.629H473.757V460.562H482.69V451.629Z" fill="#F0F0F0"/>
<path d="M468.52 152.527H459.587V161.46H468.52V152.527Z" fill="#F0F0F0"/>
<path d="M468.52 167.621H459.587V176.554H468.52V167.621Z" fill="#F0F0F0"/>
<path d="M468.52 182.406H459.587V191.339H468.52V182.406Z" fill="#F0F0F0"/>
<path d="M468.52 197.5H459.587V206.433H468.52V197.5Z" fill="#F0F0F0"/>
<path d="M468.52 212.286H459.587V221.219H468.52V212.286Z" fill="#F0F0F0"/>
<path d="M468.52 227.38H459.587V236.312H468.52V227.38Z" fill="#F0F0F0"/>
<path d="M468.52 272.044H459.587V280.977H468.52V272.044Z" fill="#F0F0F0"/>
<path d="M468.52 287.138H459.587V296.071H468.52V287.138Z" fill="#F0F0F0"/>
<path d="M468.52 302.232H459.587V311.165H468.52V302.232Z" fill="#F0F0F0"/>
<path d="M468.52 317.017H459.587V325.95H468.52V317.017Z" fill="#F0F0F0"/>
<path d="M468.52 361.991H459.587V370.924H468.52V361.991Z" fill="#F0F0F0"/>
<path d="M468.52 376.776H459.587V385.709H468.52V376.776Z" fill="#F0F0F0"/>
<path d="M468.52 391.87H459.587V400.803H468.52V391.87Z" fill="#F0F0F0"/>
<path d="M468.52 406.656H459.587V415.589H468.52V406.656Z" fill="#F0F0F0"/>
<path d="M468.52 421.749H459.587V430.682H468.52V421.749Z" fill="#F0F0F0"/>
<path d="M468.52 451.629H459.587V460.562H468.52V451.629Z" fill="#F0F0F0"/>
<path d="M468.52 466.414H459.587V475.347H468.52V466.414Z" fill="#F0F0F0"/>
<path d="M339.762 291.451H330.829V300.384H339.762V291.451Z" fill="#F0F0F0"/>
<path d="M339.762 306.544H330.829V315.477H339.762V306.544Z" fill="#F0F0F0"/>
<path d="M339.762 321.638H330.829V330.571H339.762V321.638Z" fill="#F0F0F0"/>
<path d="M339.762 336.424H330.829V345.357H339.762V336.424Z" fill="#F0F0F0"/>
<path d="M339.762 351.517H330.829V360.45H339.762V351.517Z" fill="#F0F0F0"/>
<path d="M339.762 366.303H330.829V375.236H339.762V366.303Z" fill="#F0F0F0"/>
<path d="M339.762 381.397H330.829V390.33H339.762V381.397Z" fill="#F0F0F0"/>
<path d="M339.762 426.062H330.829V434.995H339.762V426.062Z" fill="#F0F0F0"/>
<path d="M339.762 441.155H330.829V450.089H339.762V441.155Z" fill="#F0F0F0"/>
<path d="M339.762 455.941H330.829V464.874H339.762V455.941Z" fill="#F0F0F0"/>
<path d="M325.592 291.451H316.659V300.384H325.592V291.451Z" fill="#F0F0F0"/>
<path d="M325.592 306.544H316.659V315.477H325.592V306.544Z" fill="#F0F0F0"/>
<path d="M325.592 321.638H316.659V330.571H325.592V321.638Z" fill="#F0F0F0"/>
<path d="M325.592 336.424H316.659V345.357H325.592V336.424Z" fill="#F0F0F0"/>
<path d="M325.592 351.517H316.659V360.45H325.592V351.517Z" fill="#F0F0F0"/>
<path d="M325.592 366.303H316.659V375.236H325.592V366.303Z" fill="#F0F0F0"/>
<path d="M325.592 381.397H316.659V390.33H325.592V381.397Z" fill="#F0F0F0"/>
<path d="M311.423 291.451H302.49V300.384H311.423V291.451Z" fill="#F0F0F0"/>
<path d="M311.423 306.544H302.49V315.477H311.423V306.544Z" fill="#F0F0F0"/>
<path d="M311.423 321.638H302.49V330.571H311.423V321.638Z" fill="#F0F0F0"/>
<path d="M311.423 336.424H302.49V345.357H311.423V336.424Z" fill="#F0F0F0"/>
<path d="M311.423 351.517H302.49V360.45H311.423V351.517Z" fill="#F0F0F0"/>
<path d="M311.423 366.303H302.49V375.236H311.423V366.303Z" fill="#F0F0F0"/>
<path d="M311.423 381.397H302.49V390.33H311.423V381.397Z" fill="#F0F0F0"/>
<path d="M297.253 291.451H288.32V300.384H297.253V291.451Z" fill="#F0F0F0"/>
<path d="M297.253 306.544H288.32V315.477H297.253V306.544Z" fill="#F0F0F0"/>
<path d="M297.253 321.638H288.32V330.571H297.253V321.638Z" fill="#F0F0F0"/>
<path d="M297.253 336.424H288.32V345.357H297.253V336.424Z" fill="#F0F0F0"/>
<path d="M297.253 351.517H288.32V360.45H297.253V351.517Z" fill="#F0F0F0"/>
<path d="M297.253 366.303H288.32V375.236H297.253V366.303Z" fill="#F0F0F0"/>
<path d="M297.253 381.397H288.32V390.33H297.253V381.397Z" fill="#F0F0F0"/>
<path d="M297.253 396.182H288.32V405.115H297.253V396.182Z" fill="#F0F0F0"/>
<path d="M297.253 411.276H288.32V420.209H297.253V411.276Z" fill="#F0F0F0"/>
<path d="M297.253 426.062H288.32V434.995H297.253V426.062Z" fill="#F0F0F0"/>
<path d="M297.253 441.155H288.32V450.089H297.253V441.155Z" fill="#F0F0F0"/>
<path d="M283.084 291.451H274.151V300.384H283.084V291.451Z" fill="#F0F0F0"/>
<path d="M283.084 306.544H274.151V315.477H283.084V306.544Z" fill="#F0F0F0"/>
<path d="M283.084 321.638H274.151V330.571H283.084V321.638Z" fill="#F0F0F0"/>
<path d="M283.084 336.424H274.151V345.357H283.084V336.424Z" fill="#F0F0F0"/>
<path d="M283.084 351.517H274.151V360.45H283.084V351.517Z" fill="#F0F0F0"/>
<path d="M283.084 366.303H274.151V375.236H283.084V366.303Z" fill="#F0F0F0"/>
<path d="M283.084 381.397H274.151V390.33H283.084V381.397Z" fill="#F0F0F0"/>
<path d="M283.084 396.182H274.151V405.115H283.084V396.182Z" fill="#F0F0F0"/>
<path d="M283.084 411.276H274.151V420.209H283.084V411.276Z" fill="#F0F0F0"/>
<path d="M283.084 426.062H274.151V434.995H283.084V426.062Z" fill="#F0F0F0"/>
<path d="M283.084 441.155H274.151V450.089H283.084V441.155Z" fill="#F0F0F0"/>
<path d="M283.084 455.941H274.151V464.874H283.084V455.941Z" fill="#F0F0F0"/>
<path d="M283.084 500.914H274.151V509.847H283.084V500.914Z" fill="#F0F0F0"/>
<path d="M283.084 515.7H274.151V524.633H283.084V515.7Z" fill="#F0F0F0"/>
<path d="M268.914 291.451H259.981V300.384H268.914V291.451Z" fill="#F0F0F0"/>
<path d="M268.914 306.544H259.981V315.477H268.914V306.544Z" fill="#F0F0F0"/>
<path d="M268.914 321.638H259.981V330.571H268.914V321.638Z" fill="#F0F0F0"/>
<path d="M268.914 366.303H259.981V375.236H268.914V366.303Z" fill="#F0F0F0"/>
<path d="M268.914 381.397H259.981V390.33H268.914V381.397Z" fill="#F0F0F0"/>
<path d="M268.914 396.182H259.981V405.115H268.914V396.182Z" fill="#F0F0F0"/>
<path d="M268.914 411.276H259.981V420.209H268.914V411.276Z" fill="#F0F0F0"/>
<path d="M268.914 426.062H259.981V434.995H268.914V426.062Z" fill="#F0F0F0"/>
<path d="M268.914 441.155H259.981V450.089H268.914V441.155Z" fill="#F0F0F0"/>
<path d="M268.914 455.941H259.981V464.874H268.914V455.941Z" fill="#F0F0F0"/>
<path d="M268.914 500.914H259.981V509.847H268.914V500.914Z" fill="#F0F0F0"/>
<path d="M268.914 515.7H259.981V524.633H268.914V515.7Z" fill="#F0F0F0"/>
<path d="M268.914 530.793H259.981V539.726H268.914V530.793Z" fill="#F0F0F0"/>
<path d="M120.749 201.813H111.816V210.746H120.749V201.813Z" fill="#F0F0F0"/>
<path d="M120.749 216.906H111.816V225.839H120.749V216.906Z" fill="#F0F0F0"/>
<path d="M120.749 231.692H111.816V240.625H120.749V231.692Z" fill="#F0F0F0"/>
<path d="M120.749 246.786H111.816V255.719H120.749V246.786Z" fill="#F0F0F0"/>
<path d="M120.749 261.571H111.816V270.504H120.749V261.571Z" fill="#F0F0F0"/>
<path d="M120.749 276.665H111.816V285.598H120.749V276.665Z" fill="#F0F0F0"/>
<path d="M120.749 291.451H111.816V300.384H120.749V291.451Z" fill="#F0F0F0"/>
<path d="M120.749 306.544H111.816V315.477H120.749V306.544Z" fill="#F0F0F0"/>
<path d="M120.749 321.638H111.816V330.571H120.749V321.638Z" fill="#F0F0F0"/>
<path d="M120.749 336.424H111.816V345.357H120.749V336.424Z" fill="#F0F0F0"/>
<path d="M120.749 351.517H111.816V360.45H120.749V351.517Z" fill="#F0F0F0"/>
<path d="M120.749 366.303H111.816V375.236H120.749V366.303Z" fill="#F0F0F0"/>
<path d="M120.749 381.397H111.816V390.33H120.749V381.397Z" fill="#F0F0F0"/>
<path d="M120.749 396.182H111.816V405.115H120.749V396.182Z" fill="#F0F0F0"/>
<path d="M120.749 411.276H111.816V420.209H120.749V411.276Z" fill="#F0F0F0"/>
<path d="M120.749 426.062H111.816V434.995H120.749V426.062Z" fill="#F0F0F0"/>
<path d="M120.749 441.155H111.816V450.089H120.749V441.155Z" fill="#F0F0F0"/>
<path d="M120.749 455.941H111.816V464.874H120.749V455.941Z" fill="#F0F0F0"/>
<path d="M120.749 471.035H111.816V479.968H120.749V471.035Z" fill="#F0F0F0"/>
<path d="M120.749 485.82H111.816V494.754H120.749V485.82Z" fill="#F0F0F0"/>
<path d="M120.749 500.914H111.816V509.847H120.749V500.914Z" fill="#F0F0F0"/>
<path d="M120.749 515.7H111.816V524.633H120.749V515.7Z" fill="#F0F0F0"/>
<path d="M120.749 530.793H111.816V539.726H120.749V530.793Z" fill="#F0F0F0"/>
<path d="M106.58 201.813H97.6469V210.746H106.58V201.813Z" fill="#F0F0F0"/>
<path d="M106.58 216.906H97.6469V225.839H106.58V216.906Z" fill="#F0F0F0"/>
<path d="M106.58 231.692H97.6469V240.625H106.58V231.692Z" fill="#F0F0F0"/>
<path d="M106.58 246.786H97.6469V255.719H106.58V246.786Z" fill="#F0F0F0"/>
<path d="M106.58 261.571H97.6469V270.504H106.58V261.571Z" fill="#F0F0F0"/>
<path d="M106.58 276.665H97.6469V285.598H106.58V276.665Z" fill="#F0F0F0"/>
<path d="M106.58 291.451H97.6469V300.384H106.58V291.451Z" fill="#F0F0F0"/>
<path d="M106.58 306.544H97.6469V315.477H106.58V306.544Z" fill="#F0F0F0"/>
<path d="M106.58 321.638H97.6469V330.571H106.58V321.638Z" fill="#F0F0F0"/>
<path d="M106.58 336.424H97.6469V345.357H106.58V336.424Z" fill="#F0F0F0"/>
<path d="M106.58 351.517H97.6469V360.45H106.58V351.517Z" fill="#F0F0F0"/>
<path d="M106.58 366.303H97.6469V375.236H106.58V366.303Z" fill="#F0F0F0"/>
<path d="M106.58 381.397H97.6469V390.33H106.58V381.397Z" fill="#F0F0F0"/>
<path d="M106.58 396.182H97.6469V405.115H106.58V396.182Z" fill="#F0F0F0"/>
<path d="M106.58 411.276H97.6469V420.209H106.58V411.276Z" fill="#F0F0F0"/>
<path d="M106.58 426.062H97.6469V434.995H106.58V426.062Z" fill="#F0F0F0"/>
<path d="M106.58 441.155H97.6469V450.089H106.58V441.155Z" fill="#F0F0F0"/>
<path d="M106.58 455.941H97.6469V464.874H106.58V455.941Z" fill="#F0F0F0"/>
<path d="M106.58 471.035H97.6469V479.968H106.58V471.035Z" fill="#F0F0F0"/>
<path d="M92.4103 201.813H83.4773V210.746H92.4103V201.813Z" fill="#F0F0F0"/>
<path d="M92.4103 216.906H83.4773V225.839H92.4103V216.906Z" fill="#F0F0F0"/>
<path d="M92.4103 231.692H83.4773V240.625H92.4103V231.692Z" fill="#F0F0F0"/>
<path d="M92.4103 246.786H83.4773V255.719H92.4103V246.786Z" fill="#F0F0F0"/>
<path d="M92.4103 261.571H83.4773V270.504H92.4103V261.571Z" fill="#F0F0F0"/>
<path d="M92.4103 276.665H83.4773V285.598H92.4103V276.665Z" fill="#F0F0F0"/>
<path d="M92.4103 291.451H83.4773V300.384H92.4103V291.451Z" fill="#F0F0F0"/>
<path d="M92.4103 306.544H83.4773V315.477H92.4103V306.544Z" fill="#F0F0F0"/>
<path d="M92.4103 321.638H83.4773V330.571H92.4103V321.638Z" fill="#F0F0F0"/>
<path d="M92.4103 336.424H83.4773V345.357H92.4103V336.424Z" fill="#F0F0F0"/>
<path d="M92.4103 351.517H83.4773V360.45H92.4103V351.517Z" fill="#F0F0F0"/>
<path d="M92.4103 366.303H83.4773V375.236H92.4103V366.303Z" fill="#F0F0F0"/>
<path d="M92.4103 381.397H83.4773V390.33H92.4103V381.397Z" fill="#F0F0F0"/>
<path d="M92.4103 396.182H83.4773V405.115H92.4103V396.182Z" fill="#F0F0F0"/>
<path d="M92.4103 411.276H83.4773V420.209H92.4103V411.276Z" fill="#F0F0F0"/>
<path d="M92.4103 426.062H83.4773V434.995H92.4103V426.062Z" fill="#F0F0F0"/>
<path d="M92.4103 441.155H83.4773V450.089H92.4103V441.155Z" fill="#F0F0F0"/>
<path d="M92.4103 455.941H83.4773V464.874H92.4103V455.941Z" fill="#F0F0F0"/>
<path d="M92.4103 471.035H83.4773V479.968H92.4103V471.035Z" fill="#F0F0F0"/>
<path d="M78.2408 201.813H69.3078V210.746H78.2408V201.813Z" fill="#F0F0F0"/>
<path d="M78.2408 216.906H69.3078V225.839H78.2408V216.906Z" fill="#F0F0F0"/>
<path d="M78.2408 231.692H69.3078V240.625H78.2408V231.692Z" fill="#F0F0F0"/>
<path d="M78.2408 246.786H69.3078V255.719H78.2408V246.786Z" fill="#F0F0F0"/>
<path d="M78.2408 261.571H69.3078V270.504H78.2408V261.571Z" fill="#F0F0F0"/>
<path d="M78.2408 276.665H69.3078V285.598H78.2408V276.665Z" fill="#F0F0F0"/>
<path d="M78.2408 291.451H69.3078V300.384H78.2408V291.451Z" fill="#F0F0F0"/>
<path d="M78.2408 306.544H69.3078V315.477H78.2408V306.544Z" fill="#F0F0F0"/>
<path d="M78.2408 321.638H69.3078V330.571H78.2408V321.638Z" fill="#F0F0F0"/>
<path d="M78.2408 336.424H69.3078V345.357H78.2408V336.424Z" fill="#F0F0F0"/>
<path d="M78.2408 351.517H69.3078V360.45H78.2408V351.517Z" fill="#F0F0F0"/>
<path d="M78.2408 366.303H69.3078V375.236H78.2408V366.303Z" fill="#F0F0F0"/>
<path d="M78.2408 381.397H69.3078V390.33H78.2408V381.397Z" fill="#F0F0F0"/>
<path d="M78.2408 396.182H69.3078V405.115H78.2408V396.182Z" fill="#F0F0F0"/>
<path d="M78.2408 411.276H69.3078V420.209H78.2408V411.276Z" fill="#F0F0F0"/>
<path d="M64.0712 201.813H55.1382V210.746H64.0712V201.813Z" fill="#F0F0F0"/>
<path d="M64.0712 216.906H55.1382V225.839H64.0712V216.906Z" fill="#F0F0F0"/>
<path d="M64.0712 231.692H55.1382V240.625H64.0712V231.692Z" fill="#F0F0F0"/>
<path d="M64.0712 246.786H55.1382V255.719H64.0712V246.786Z" fill="#F0F0F0"/>
<path d="M64.0712 261.571H55.1382V270.504H64.0712V261.571Z" fill="#F0F0F0"/>
<path d="M64.0712 276.665H55.1382V285.598H64.0712V276.665Z" fill="#F0F0F0"/>
<path d="M64.0712 291.451H55.1382V300.384H64.0712V291.451Z" fill="#F0F0F0"/>
<path d="M64.0712 306.544H55.1382V315.477H64.0712V306.544Z" fill="#F0F0F0"/>
<path d="M64.0712 321.638H55.1382V330.571H64.0712V321.638Z" fill="#F0F0F0"/>
<path d="M64.0712 336.424H55.1382V345.357H64.0712V336.424Z" fill="#F0F0F0"/>
<path d="M64.0712 351.517H55.1382V360.45H64.0712V351.517Z" fill="#F0F0F0"/>
<path d="M64.0712 366.303H55.1382V375.236H64.0712V366.303Z" fill="#F0F0F0"/>
<path d="M64.0712 381.397H55.1382V390.33H64.0712V381.397Z" fill="#F0F0F0"/>
<path d="M49.9015 201.813H40.9685V210.746H49.9015V201.813Z" fill="#F0F0F0"/>
<path d="M49.9015 216.906H40.9685V225.839H49.9015V216.906Z" fill="#F0F0F0"/>
<path d="M49.9015 231.692H40.9685V240.625H49.9015V231.692Z" fill="#F0F0F0"/>
<path d="M49.9015 246.786H40.9685V255.719H49.9015V246.786Z" fill="#F0F0F0"/>
<path d="M49.9015 261.571H40.9685V270.504H49.9015V261.571Z" fill="#F0F0F0"/>
<path d="M49.9015 276.665H40.9685V285.598H49.9015V276.665Z" fill="#F0F0F0"/>
<path d="M49.9015 291.451H40.9685V300.384H49.9015V291.451Z" fill="#F0F0F0"/>
<path d="M49.9015 306.544H40.9685V315.477H49.9015V306.544Z" fill="#F0F0F0"/>
<path d="M49.9015 321.638H40.9685V330.571H49.9015V321.638Z" fill="#F0F0F0"/>
<path d="M49.9015 336.424H40.9685V345.357H49.9015V336.424Z" fill="#F0F0F0"/>
<path d="M49.9015 351.517H40.9685V360.45H49.9015V351.517Z" fill="#F0F0F0"/>
<path d="M49.9015 366.303H40.9685V375.236H49.9015V366.303Z" fill="#F0F0F0"/>
<path d="M1090.44 310.857H1081.51V319.79H1090.44V310.857Z" fill="#F0F0F0"/>
<path d="M1090.44 325.95H1081.51V334.883H1090.44V325.95Z" fill="#F0F0F0"/>
<path d="M1090.44 341.044H1081.51V349.977H1090.44V341.044Z" fill="#F0F0F0"/>
<path d="M1090.44 355.83H1081.51V364.763H1090.44V355.83Z" fill="#F0F0F0"/>
<path d="M1090.44 370.924H1081.51V379.857H1090.44V370.924Z" fill="#F0F0F0"/>
<path d="M1090.44 385.709H1081.51V394.642H1090.44V385.709Z" fill="#F0F0F0"/>
<path d="M1090.44 400.803H1081.51V409.736H1090.44V400.803Z" fill="#F0F0F0"/>
<path d="M1090.44 415.589H1081.51V424.522H1090.44V415.589Z" fill="#F0F0F0"/>
<path d="M1090.44 430.682H1081.51V439.615H1090.44V430.682Z" fill="#F0F0F0"/>
<path d="M1090.44 445.468H1081.51V454.401H1090.44V445.468Z" fill="#F0F0F0"/>
<path d="M1090.44 460.562H1081.51V469.495H1090.44V460.562Z" fill="#F0F0F0"/>
<path d="M1090.44 475.347H1081.51V484.28H1090.44V475.347Z" fill="#F0F0F0"/>
<path d="M1090.44 490.441H1081.51V499.374H1090.44V490.441Z" fill="#F0F0F0"/>
<path d="M1090.44 505.227H1081.51V514.16H1090.44V505.227Z" fill="#F0F0F0"/>
<path d="M1090.44 520.32H1081.51V529.253H1090.44V520.32Z" fill="#F0F0F0"/>
<path d="M1090.44 535.106H1081.51V544.039H1090.44V535.106Z" fill="#F0F0F0"/>
<path d="M1090.44 550.2H1081.51V559.133H1090.44V550.2Z" fill="#F0F0F0"/>
<path d="M1076.27 310.857H1067.34V319.79H1076.27V310.857Z" fill="#F0F0F0"/>
<path d="M1076.27 325.95H1067.34V334.883H1076.27V325.95Z" fill="#F0F0F0"/>
<path d="M1076.27 341.044H1067.34V349.977H1076.27V341.044Z" fill="#F0F0F0"/>
<path d="M1076.27 355.83H1067.34V364.763H1076.27V355.83Z" fill="#F0F0F0"/>
<path d="M1076.27 370.924H1067.34V379.857H1076.27V370.924Z" fill="#F0F0F0"/>
<path d="M1076.27 385.709H1067.34V394.642H1076.27V385.709Z" fill="#F0F0F0"/>
<path d="M1076.27 400.803H1067.34V409.736H1076.27V400.803Z" fill="#F0F0F0"/>
<path d="M1076.27 415.589H1067.34V424.522H1076.27V415.589Z" fill="#F0F0F0"/>
<path d="M1076.27 430.682H1067.34V439.615H1076.27V430.682Z" fill="#F0F0F0"/>
<path d="M1076.27 445.468H1067.34V454.401H1076.27V445.468Z" fill="#F0F0F0"/>
<path d="M1076.27 460.562H1067.34V469.495H1076.27V460.562Z" fill="#F0F0F0"/>
<path d="M1076.27 475.347H1067.34V484.28H1076.27V475.347Z" fill="#F0F0F0"/>
<path d="M1076.27 490.441H1067.34V499.374H1076.27V490.441Z" fill="#F0F0F0"/>
<path d="M1076.27 505.227H1067.34V514.16H1076.27V505.227Z" fill="#F0F0F0"/>
<path d="M1076.27 520.32H1067.34V529.253H1076.27V520.32Z" fill="#F0F0F0"/>
<path d="M1076.27 535.106H1067.34V544.039H1076.27V535.106Z" fill="#F0F0F0"/>
<path d="M1076.27 550.2H1067.34V559.133H1076.27V550.2Z" fill="#F0F0F0"/>
<path d="M1062.1 310.857H1053.17V319.79H1062.1V310.857Z" fill="#F0F0F0"/>
<path d="M1062.1 325.95H1053.17V334.883H1062.1V325.95Z" fill="#F0F0F0"/>
<path d="M1062.1 341.044H1053.17V349.977H1062.1V341.044Z" fill="#F0F0F0"/>
<path d="M1062.1 355.83H1053.17V364.763H1062.1V355.83Z" fill="#F0F0F0"/>
<path d="M1062.1 370.924H1053.17V379.857H1062.1V370.924Z" fill="#F0F0F0"/>
<path d="M1062.1 385.709H1053.17V394.642H1062.1V385.709Z" fill="#F0F0F0"/>
<path d="M1062.1 400.803H1053.17V409.736H1062.1V400.803Z" fill="#F0F0F0"/>
<path d="M1062.1 415.589H1053.17V424.522H1062.1V415.589Z" fill="#F0F0F0"/>
<path d="M1062.1 430.682H1053.17V439.615H1062.1V430.682Z" fill="#F0F0F0"/>
<path d="M1062.1 445.468H1053.17V454.401H1062.1V445.468Z" fill="#F0F0F0"/>
<path d="M1062.1 460.562H1053.17V469.495H1062.1V460.562Z" fill="#F0F0F0"/>
<path d="M1062.1 475.347H1053.17V484.28H1062.1V475.347Z" fill="#F0F0F0"/>
<path d="M1062.1 490.441H1053.17V499.374H1062.1V490.441Z" fill="#F0F0F0"/>
<path d="M1062.1 505.227H1053.17V514.16H1062.1V505.227Z" fill="#F0F0F0"/>
<path d="M1062.1 520.32H1053.17V529.253H1062.1V520.32Z" fill="#F0F0F0"/>
<path d="M1062.1 535.106H1053.17V544.039H1062.1V535.106Z" fill="#F0F0F0"/>
<path d="M1062.1 550.2H1053.17V559.133H1062.1V550.2Z" fill="#F0F0F0"/>
<path d="M1143.42 420.209H1134.49V429.142H1143.42V420.209Z" fill="#F0F0F0"/>
<path d="M1143.42 434.995H1134.49V443.928H1143.42V434.995Z" fill="#F0F0F0"/>
<path d="M1143.42 450.088H1134.49V459.021H1143.42V450.088Z" fill="#F0F0F0"/>
<path d="M1143.42 464.874H1134.49V473.807H1143.42V464.874Z" fill="#F0F0F0"/>
<path d="M1143.42 479.968H1134.49V488.901H1143.42V479.968Z" fill="#F0F0F0"/>
<path d="M1143.42 494.754H1134.49V503.687H1143.42V494.754Z" fill="#F0F0F0"/>
<path d="M1143.42 509.847H1134.49V518.78H1143.42V509.847Z" fill="#F0F0F0"/>
<path d="M1143.42 524.633H1134.49V533.566H1143.42V524.633Z" fill="#F0F0F0"/>
<path d="M1143.42 539.727H1134.49V548.66H1143.42V539.727Z" fill="#F0F0F0"/>
<path d="M1143.42 554.512H1134.49V563.445H1143.42V554.512Z" fill="#F0F0F0"/>
<path d="M1129.25 420.209H1120.32V429.142H1129.25V420.209Z" fill="#F0F0F0"/>
<path d="M1129.25 434.995H1120.32V443.928H1129.25V434.995Z" fill="#F0F0F0"/>
<path d="M1129.25 450.088H1120.32V459.021H1129.25V450.088Z" fill="#F0F0F0"/>
<path d="M1129.25 464.874H1120.32V473.807H1129.25V464.874Z" fill="#F0F0F0"/>
<path d="M1129.25 479.968H1120.32V488.901H1129.25V479.968Z" fill="#F0F0F0"/>
<path d="M1129.25 494.754H1120.32V503.687H1129.25V494.754Z" fill="#F0F0F0"/>
<path d="M1129.25 509.847H1120.32V518.78H1129.25V509.847Z" fill="#F0F0F0"/>
<path d="M1129.25 524.633H1120.32V533.566H1129.25V524.633Z" fill="#F0F0F0"/>
<path d="M1129.25 539.727H1120.32V548.66H1129.25V539.727Z" fill="#F0F0F0"/>
<path d="M1129.25 554.512H1120.32V563.445H1129.25V554.512Z" fill="#F0F0F0"/>
<path d="M1115.08 420.209H1106.15V429.142H1115.08V420.209Z" fill="#F0F0F0"/>
<path d="M1115.08 434.995H1106.15V443.928H1115.08V434.995Z" fill="#F0F0F0"/>
<path d="M1115.08 450.088H1106.15V459.021H1115.08V450.088Z" fill="#F0F0F0"/>
<path d="M1115.08 464.874H1106.15V473.807H1115.08V464.874Z" fill="#F0F0F0"/>
<path d="M1115.08 479.968H1106.15V488.901H1115.08V479.968Z" fill="#F0F0F0"/>
<path d="M1115.08 494.754H1106.15V503.687H1115.08V494.754Z" fill="#F0F0F0"/>
<path d="M1115.08 509.847H1106.15V518.78H1115.08V509.847Z" fill="#F0F0F0"/>
<path d="M1115.08 524.633H1106.15V533.566H1115.08V524.633Z" fill="#F0F0F0"/>
<path d="M1115.08 539.727H1106.15V548.66H1115.08V539.727Z" fill="#F0F0F0"/>
<path d="M1115.08 554.512H1106.15V563.445H1115.08V554.512Z" fill="#F0F0F0"/>
<path d="M1036.54 424.522H1027.6V433.454H1036.54V424.522Z" fill="#F0F0F0"/>
<path d="M1036.54 439.615H1027.6V448.548H1036.54V439.615Z" fill="#F0F0F0"/>
<path d="M1036.54 454.401H1027.6V463.334H1036.54V454.401Z" fill="#F0F0F0"/>
<path d="M1036.54 469.495H1027.6V478.428H1036.54V469.495Z" fill="#F0F0F0"/>
<path d="M1036.54 484.28H1027.6V493.213H1036.54V484.28Z" fill="#F0F0F0"/>
<path d="M1036.54 499.374H1027.6V508.307H1036.54V499.374Z" fill="#F0F0F0"/>
<path d="M1036.54 514.16H1027.6V523.093H1036.54V514.16Z" fill="#F0F0F0"/>
<path d="M1036.54 529.253H1027.6V538.186H1036.54V529.253Z" fill="#F0F0F0"/>
<path d="M1036.54 544.039H1027.6V552.972H1036.54V544.039Z" fill="#F0F0F0"/>
<path d="M1036.54 559.133H1027.6V568.066H1036.54V559.133Z" fill="#F0F0F0"/>
<path d="M1022.37 424.522H1013.43V433.454H1022.37V424.522Z" fill="#F0F0F0"/>
<path d="M1022.37 439.615H1013.43V448.548H1022.37V439.615Z" fill="#F0F0F0"/>
<path d="M1022.37 454.401H1013.43V463.334H1022.37V454.401Z" fill="#F0F0F0"/>
<path d="M1022.37 469.495H1013.43V478.428H1022.37V469.495Z" fill="#F0F0F0"/>
<path d="M1022.37 484.28H1013.43V493.213H1022.37V484.28Z" fill="#F0F0F0"/>
<path d="M1022.37 499.374H1013.43V508.307H1022.37V499.374Z" fill="#F0F0F0"/>
<path d="M1022.37 514.16H1013.43V523.093H1022.37V514.16Z" fill="#F0F0F0"/>
<path d="M1022.37 529.253H1013.43V538.186H1022.37V529.253Z" fill="#F0F0F0"/>
<path d="M1022.37 544.039H1013.43V552.972H1022.37V544.039Z" fill="#F0F0F0"/>
<path d="M1008.2 424.522H999.264V433.454H1008.2V424.522Z" fill="#F0F0F0"/>
<path d="M1008.2 439.615H999.264V448.548H1008.2V439.615Z" fill="#F0F0F0"/>
<path d="M1008.2 454.401H999.264V463.334H1008.2V454.401Z" fill="#F0F0F0"/>
<path d="M1008.2 469.495H999.264V478.428H1008.2V469.495Z" fill="#F0F0F0"/>
<path d="M1008.2 484.28H999.264V493.213H1008.2V484.28Z" fill="#F0F0F0"/>
<path d="M1008.2 499.374H999.264V508.307H1008.2V499.374Z" fill="#F0F0F0"/>
<path d="M1008.2 514.16H999.264V523.093H1008.2V514.16Z" fill="#F0F0F0"/>
<path d="M1008.2 529.253H999.264V538.186H1008.2V529.253Z" fill="#F0F0F0"/>
<path d="M876.358 197.5H867.425V206.433H876.358V197.5Z" fill="#F0F0F0"/>
<path d="M876.358 212.286H867.425V221.219H876.358V212.286Z" fill="#F0F0F0"/>
<path d="M876.358 227.38H867.425V236.312H876.358V227.38Z" fill="#F0F0F0"/>
<path d="M876.358 242.165H867.425V251.098H876.358V242.165Z" fill="#F0F0F0"/>
<path d="M876.358 257.259H867.425V266.192H876.358V257.259Z" fill="#F0F0F0"/>
<path d="M876.358 272.044H867.425V280.977H876.358V272.044Z" fill="#F0F0F0"/>
<path d="M876.358 287.138H867.425V296.071H876.358V287.138Z" fill="#F0F0F0"/>
<path d="M876.358 302.232H867.425V311.165H876.358V302.232Z" fill="#F0F0F0"/>
<path d="M876.358 317.017H867.425V325.95H876.358V317.017Z" fill="#F0F0F0"/>
<path d="M876.358 332.111H867.425V341.044H876.358V332.111Z" fill="#F0F0F0"/>
<path d="M876.358 346.897H867.425V355.83H876.358V346.897Z" fill="#F0F0F0"/>
<path d="M876.358 361.991H867.425V370.924H876.358V361.991Z" fill="#F0F0F0"/>
<path d="M876.358 376.776H867.425V385.709H876.358V376.776Z" fill="#F0F0F0"/>
<path d="M876.358 391.87H867.425V400.803H876.358V391.87Z" fill="#F0F0F0"/>
<path d="M876.358 406.656H867.425V415.589H876.358V406.656Z" fill="#F0F0F0"/>
<path d="M876.358 421.749H867.425V430.682H876.358V421.749Z" fill="#F0F0F0"/>
<path d="M876.358 436.535H867.425V445.468H876.358V436.535Z" fill="#F0F0F0"/>
<path d="M876.358 466.414H867.425V475.347H876.358V466.414Z" fill="#F0F0F0"/>
<path d="M876.358 481.508H867.425V490.441H876.358V481.508Z" fill="#F0F0F0"/>
<path d="M876.358 496.294H867.425V505.227H876.358V496.294Z" fill="#F0F0F0"/>
<path d="M876.358 511.387H867.425V520.32H876.358V511.387Z" fill="#F0F0F0"/>
<path d="M876.358 526.173H867.425V535.106H876.358V526.173Z" fill="#F0F0F0"/>
<path d="M862.189 197.5H853.256V206.433H862.189V197.5Z" fill="#F0F0F0"/>
<path d="M862.189 212.286H853.256V221.219H862.189V212.286Z" fill="#F0F0F0"/>
<path d="M862.189 227.38H853.256V236.312H862.189V227.38Z" fill="#F0F0F0"/>
<path d="M862.189 242.165H853.256V251.098H862.189V242.165Z" fill="#F0F0F0"/>
<path d="M862.189 257.259H853.256V266.192H862.189V257.259Z" fill="#F0F0F0"/>
<path d="M862.189 272.044H853.256V280.977H862.189V272.044Z" fill="#F0F0F0"/>
<path d="M862.189 287.138H853.256V296.071H862.189V287.138Z" fill="#F0F0F0"/>
<path d="M862.189 302.232H853.256V311.165H862.189V302.232Z" fill="#F0F0F0"/>
<path d="M862.189 317.017H853.256V325.95H862.189V317.017Z" fill="#F0F0F0"/>
<path d="M862.189 332.111H853.256V341.044H862.189V332.111Z" fill="#F0F0F0"/>
<path d="M862.189 346.897H853.256V355.83H862.189V346.897Z" fill="#F0F0F0"/>
<path d="M862.189 361.991H853.256V370.924H862.189V361.991Z" fill="#F0F0F0"/>
<path d="M862.189 376.776H853.256V385.709H862.189V376.776Z" fill="#F0F0F0"/>
<path d="M862.189 391.87H853.256V400.803H862.189V391.87Z" fill="#F0F0F0"/>
<path d="M862.189 406.656H853.256V415.589H862.189V406.656Z" fill="#F0F0F0"/>
<path d="M862.189 421.749H853.256V430.682H862.189V421.749Z" fill="#F0F0F0"/>
<path d="M862.189 511.387H853.256V520.32H862.189V511.387Z" fill="#F0F0F0"/>
<path d="M862.189 526.173H853.256V535.106H862.189V526.173Z" fill="#F0F0F0"/>
<path d="M848.019 197.5H839.086V206.433H848.019V197.5Z" fill="#F0F0F0"/>
<path d="M848.019 212.286H839.086V221.219H848.019V212.286Z" fill="#F0F0F0"/>
<path d="M848.019 227.38H839.086V236.312H848.019V227.38Z" fill="#F0F0F0"/>
<path d="M848.019 242.165H839.086V251.098H848.019V242.165Z" fill="#F0F0F0"/>
<path d="M848.019 257.259H839.086V266.192H848.019V257.259Z" fill="#F0F0F0"/>
<path d="M848.019 272.044H839.086V280.977H848.019V272.044Z" fill="#F0F0F0"/>
<path d="M848.019 287.138H839.086V296.071H848.019V287.138Z" fill="#F0F0F0"/>
<path d="M848.019 302.232H839.086V311.165H848.019V302.232Z" fill="#F0F0F0"/>
<path d="M848.019 317.017H839.086V325.95H848.019V317.017Z" fill="#F0F0F0"/>
<path d="M848.019 332.111H839.086V341.044H848.019V332.111Z" fill="#F0F0F0"/>
<path d="M848.019 346.897H839.086V355.83H848.019V346.897Z" fill="#F0F0F0"/>
<path d="M848.019 361.991H839.086V370.924H848.019V361.991Z" fill="#F0F0F0"/>
<path d="M848.019 376.776H839.086V385.709H848.019V376.776Z" fill="#F0F0F0"/>
<path d="M848.019 391.87H839.086V400.803H848.019V391.87Z" fill="#F0F0F0"/>
<path d="M848.019 406.656H839.086V415.589H848.019V406.656Z" fill="#F0F0F0"/>
<path d="M848.019 421.749H839.086V430.682H848.019V421.749Z" fill="#F0F0F0"/>
<path d="M848.019 451.629H839.086V460.562H848.019V451.629Z" fill="#F0F0F0"/>
<path d="M848.019 466.414H839.086V475.347H848.019V466.414Z" fill="#F0F0F0"/>
<path d="M848.019 481.508H839.086V490.441H848.019V481.508Z" fill="#F0F0F0"/>
<path d="M848.019 496.294H839.086V505.227H848.019V496.294Z" fill="#F0F0F0"/>
<path d="M848.019 526.173H839.086V535.106H848.019V526.173Z" fill="#F0F0F0"/>
<path d="M927.8 385.709H918.867V394.642H927.8V385.709Z" fill="#F0F0F0"/>
<path d="M927.8 400.803H918.867V409.736H927.8V400.803Z" fill="#F0F0F0"/>
<path d="M927.8 415.589H918.867V424.522H927.8V415.589Z" fill="#F0F0F0"/>
<path d="M927.8 430.682H918.867V439.615H927.8V430.682Z" fill="#F0F0F0"/>
<path d="M927.8 445.468H918.867V454.401H927.8V445.468Z" fill="#F0F0F0"/>
<path d="M927.8 460.562H918.867V469.495H927.8V460.562Z" fill="#F0F0F0"/>
<path d="M927.8 475.347H918.867V484.28H927.8V475.347Z" fill="#F0F0F0"/>
<path d="M927.8 505.227H918.867V514.16H927.8V505.227Z" fill="#F0F0F0"/>
<path d="M927.8 520.32H918.867V529.253H927.8V520.32Z" fill="#F0F0F0"/>
<path d="M927.8 535.106H918.867V544.039H927.8V535.106Z" fill="#F0F0F0"/>
<path d="M927.8 550.2H918.867V559.133H927.8V550.2Z" fill="#F0F0F0"/>
<path d="M913.63 385.709H904.698V394.642H913.63V385.709Z" fill="#F0F0F0"/>
<path d="M913.63 400.803H904.698V409.736H913.63V400.803Z" fill="#F0F0F0"/>
<path d="M913.63 415.589H904.698V424.522H913.63V415.589Z" fill="#F0F0F0"/>
<path d="M913.63 430.682H904.698V439.615H913.63V430.682Z" fill="#F0F0F0"/>
<path d="M913.63 445.468H904.698V454.401H913.63V445.468Z" fill="#F0F0F0"/>
<path d="M913.63 460.562H904.698V469.495H913.63V460.562Z" fill="#F0F0F0"/>
<path d="M913.63 505.227H904.698V514.16H913.63V505.227Z" fill="#F0F0F0"/>
<path d="M913.63 520.32H904.698V529.253H913.63V520.32Z" fill="#F0F0F0"/>
<path d="M913.63 535.106H904.698V544.039H913.63V535.106Z" fill="#F0F0F0"/>
<path d="M913.63 550.2H904.698V559.133H913.63V550.2Z" fill="#F0F0F0"/>
<path d="M899.461 385.709H890.528V394.642H899.461V385.709Z" fill="#F0F0F0"/>
<path d="M899.461 400.803H890.528V409.736H899.461V400.803Z" fill="#F0F0F0"/>
<path d="M899.461 415.589H890.528V424.522H899.461V415.589Z" fill="#F0F0F0"/>
<path d="M899.461 430.682H890.528V439.615H899.461V430.682Z" fill="#F0F0F0"/>
<path d="M899.461 445.468H890.528V454.401H899.461V445.468Z" fill="#F0F0F0"/>
<path d="M899.461 460.562H890.528V469.495H899.461V460.562Z" fill="#F0F0F0"/>
<path d="M899.461 490.441H890.528V499.374H899.461V490.441Z" fill="#F0F0F0"/>
<path d="M899.461 505.227H890.528V514.16H899.461V505.227Z" fill="#F0F0F0"/>
<path d="M899.461 520.32H890.528V529.253H899.461V520.32Z" fill="#F0F0F0"/>
<path d="M899.461 535.106H890.528V544.039H899.461V535.106Z" fill="#F0F0F0"/>
<path d="M899.461 550.2H890.528V559.133H899.461V550.2Z" fill="#F0F0F0"/>
<path d="M600.975 302.232H592.042V311.165H600.975V302.232Z" fill="#F0F0F0"/>
<path d="M600.975 317.017H592.042V325.95H600.975V317.017Z" fill="#F0F0F0"/>
<path d="M600.975 332.111H592.042V341.044H600.975V332.111Z" fill="#F0F0F0"/>
<path d="M600.975 346.897H592.042V355.83H600.975V346.897Z" fill="#F0F0F0"/>
<path d="M600.975 361.991H592.042V370.924H600.975V361.991Z" fill="#F0F0F0"/>
<path d="M600.975 376.776H592.042V385.709H600.975V376.776Z" fill="#F0F0F0"/>
<path d="M600.975 391.87H592.042V400.803H600.975V391.87Z" fill="#F0F0F0"/>
<path d="M600.975 406.656H592.042V415.589H600.975V406.656Z" fill="#F0F0F0"/>
<path d="M600.975 421.749H592.042V430.682H600.975V421.749Z" fill="#F0F0F0"/>
<path d="M600.975 436.535H592.042V445.468H600.975V436.535Z" fill="#F0F0F0"/>
<path d="M600.975 451.629H592.042V460.562H600.975V451.629Z" fill="#F0F0F0"/>
<path d="M600.975 466.414H592.042V475.347H600.975V466.414Z" fill="#F0F0F0"/>
<path d="M600.975 481.508H592.042V490.441H600.975V481.508Z" fill="#F0F0F0"/>
<path d="M600.975 511.387H592.042V520.32H600.975V511.387Z" fill="#F0F0F0"/>
<path d="M600.975 526.173H592.042V535.106H600.975V526.173Z" fill="#F0F0F0"/>
<path d="M600.975 541.267H592.042V550.2H600.975V541.267Z" fill="#F0F0F0"/>
<path d="M600.975 556.36H592.042V565.293H600.975V556.36Z" fill="#F0F0F0"/>
<path d="M586.806 302.232H577.873V311.165H586.806V302.232Z" fill="#F0F0F0"/>
<path d="M586.806 317.017H577.873V325.95H586.806V317.017Z" fill="#F0F0F0"/>
<path d="M586.806 332.111H577.873V341.044H586.806V332.111Z" fill="#F0F0F0"/>
<path d="M586.806 346.897H577.873V355.83H586.806V346.897Z" fill="#F0F0F0"/>
<path d="M586.806 361.991H577.873V370.924H586.806V361.991Z" fill="#F0F0F0"/>
<path d="M586.806 376.776H577.873V385.709H586.806V376.776Z" fill="#F0F0F0"/>
<path d="M586.806 391.87H577.873V400.803H586.806V391.87Z" fill="#F0F0F0"/>
<path d="M586.806 406.656H577.873V415.589H586.806V406.656Z" fill="#F0F0F0"/>
<path d="M586.806 421.749H577.873V430.682H586.806V421.749Z" fill="#F0F0F0"/>
<path d="M586.806 436.535H577.873V445.468H586.806V436.535Z" fill="#F0F0F0"/>
<path d="M586.806 451.629H577.873V460.562H586.806V451.629Z" fill="#F0F0F0"/>
<path d="M586.806 466.414H577.873V475.347H586.806V466.414Z" fill="#F0F0F0"/>
<path d="M586.806 481.508H577.873V490.441H586.806V481.508Z" fill="#F0F0F0"/>
<path d="M586.806 526.173H577.873V535.106H586.806V526.173Z" fill="#F0F0F0"/>
<path d="M586.806 541.267H577.873V550.2H586.806V541.267Z" fill="#F0F0F0"/>
<path d="M572.636 302.232H563.703V311.165H572.636V302.232Z" fill="#F0F0F0"/>
<path d="M572.636 317.017H563.703V325.95H572.636V317.017Z" fill="#F0F0F0"/>
<path d="M572.636 332.111H563.703V341.044H572.636V332.111Z" fill="#F0F0F0"/>
<path d="M572.636 346.897H563.703V355.83H572.636V346.897Z" fill="#F0F0F0"/>
<path d="M572.636 361.991H563.703V370.924H572.636V361.991Z" fill="#F0F0F0"/>
<path d="M572.636 376.776H563.703V385.709H572.636V376.776Z" fill="#F0F0F0"/>
<path d="M572.636 391.87H563.703V400.803H572.636V391.87Z" fill="#F0F0F0"/>
<path d="M572.636 406.656H563.703V415.589H572.636V406.656Z" fill="#F0F0F0"/>
<path d="M572.636 421.749H563.703V430.682H572.636V421.749Z" fill="#F0F0F0"/>
<path d="M572.636 436.535H563.703V445.468H572.636V436.535Z" fill="#F0F0F0"/>
<path d="M572.636 451.629H563.703V460.562H572.636V451.629Z" fill="#F0F0F0"/>
<path d="M572.636 466.414H563.703V475.347H572.636V466.414Z" fill="#F0F0F0"/>
<path d="M572.636 481.508H563.703V490.441H572.636V481.508Z" fill="#F0F0F0"/>
<path d="M572.636 496.294H563.703V505.227H572.636V496.294Z" fill="#F0F0F0"/>
<path d="M572.636 526.173H563.703V535.106H572.636V526.173Z" fill="#F0F0F0"/>
<path d="M572.636 556.36H563.703V565.293H572.636V556.36Z" fill="#F0F0F0"/>
<path d="M658.886 387.249H649.953V396.182H658.886V387.249Z" fill="#F0F0F0"/>
<path d="M658.886 402.343H649.953V411.276H658.886V402.343Z" fill="#F0F0F0"/>
<path d="M658.886 417.129H649.953V426.062H658.886V417.129Z" fill="#F0F0F0"/>
<path d="M658.886 432.222H649.953V441.155H658.886V432.222Z" fill="#F0F0F0"/>
<path d="M658.886 447.008H649.953V455.941H658.886V447.008Z" fill="#F0F0F0"/>
<path d="M658.886 462.102H649.953V471.035H658.886V462.102Z" fill="#F0F0F0"/>
<path d="M658.886 506.767H649.953V515.7H658.886V506.767Z" fill="#F0F0F0"/>
<path d="M658.886 521.86H649.953V530.794H658.886V521.86Z" fill="#F0F0F0"/>
<path d="M658.886 536.954H649.953V545.887H658.886V536.954Z" fill="#F0F0F0"/>
<path d="M658.886 551.74H649.953V560.673H658.886V551.74Z" fill="#F0F0F0"/>
<path d="M644.716 387.249H635.783V396.182H644.716V387.249Z" fill="#F0F0F0"/>
<path d="M644.716 402.343H635.783V411.276H644.716V402.343Z" fill="#F0F0F0"/>
<path d="M644.716 417.129H635.783V426.062H644.716V417.129Z" fill="#F0F0F0"/>
<path d="M644.716 432.222H635.783V441.155H644.716V432.222Z" fill="#F0F0F0"/>
<path d="M644.716 447.008H635.783V455.941H644.716V447.008Z" fill="#F0F0F0"/>
<path d="M644.716 462.102H635.783V471.035H644.716V462.102Z" fill="#F0F0F0"/>
<path d="M644.716 506.767H635.783V515.7H644.716V506.767Z" fill="#F0F0F0"/>
<path d="M644.716 521.86H635.783V530.794H644.716V521.86Z" fill="#F0F0F0"/>
<path d="M644.716 536.954H635.783V545.887H644.716V536.954Z" fill="#F0F0F0"/>
<path d="M644.716 551.74H635.783V560.673H644.716V551.74Z" fill="#F0F0F0"/>
<path d="M174.039 321.638H165.106V330.571H174.039V321.638Z" fill="#F0F0F0"/>
<path d="M174.039 336.424H165.106V345.357H174.039V336.424Z" fill="#F0F0F0"/>
<path d="M174.039 351.517H165.106V360.45H174.039V351.517Z" fill="#F0F0F0"/>
<path d="M174.039 366.303H165.106V375.236H174.039V366.303Z" fill="#F0F0F0"/>
<path d="M174.039 381.397H165.106V390.33H174.039V381.397Z" fill="#F0F0F0"/>
<path d="M174.039 396.182H165.106V405.115H174.039V396.182Z" fill="#F0F0F0"/>
<path d="M174.039 411.276H165.106V420.209H174.039V411.276Z" fill="#F0F0F0"/>
<path d="M174.039 426.062H165.106V434.995H174.039V426.062Z" fill="#F0F0F0"/>
<path d="M174.039 441.155H165.106V450.089H174.039V441.155Z" fill="#F0F0F0"/>
<path d="M174.039 455.941H165.106V464.874H174.039V455.941Z" fill="#F0F0F0"/>
<path d="M174.039 471.035H165.106V479.968H174.039V471.035Z" fill="#F0F0F0"/>
<path d="M174.039 500.914H165.106V509.847H174.039V500.914Z" fill="#F0F0F0"/>
<path d="M174.039 515.7H165.106V524.633H174.039V515.7Z" fill="#F0F0F0"/>
<path d="M174.039 530.793H165.106V539.726H174.039V530.793Z" fill="#F0F0F0"/>
<path d="M174.039 545.579H165.106V554.512H174.039V545.579Z" fill="#F0F0F0"/>
<path d="M174.039 560.673H165.106V569.606H174.039V560.673Z" fill="#F0F0F0"/>
<path d="M159.87 321.638H150.937V330.571H159.87V321.638Z" fill="#F0F0F0"/>
<path d="M159.87 336.424H150.937V345.357H159.87V336.424Z" fill="#F0F0F0"/>
<path d="M159.87 351.517H150.937V360.45H159.87V351.517Z" fill="#F0F0F0"/>
<path d="M159.87 366.303H150.937V375.236H159.87V366.303Z" fill="#F0F0F0"/>
<path d="M159.87 381.397H150.937V390.33H159.87V381.397Z" fill="#F0F0F0"/>
<path d="M159.87 396.182H150.937V405.115H159.87V396.182Z" fill="#F0F0F0"/>
<path d="M159.87 411.276H150.937V420.209H159.87V411.276Z" fill="#F0F0F0"/>
<path d="M159.87 426.062H150.937V434.995H159.87V426.062Z" fill="#F0F0F0"/>
<path d="M159.87 441.155H150.937V450.089H159.87V441.155Z" fill="#F0F0F0"/>
<path d="M159.87 455.941H150.937V464.874H159.87V455.941Z" fill="#F0F0F0"/>
<path d="M159.87 471.035H150.937V479.968H159.87V471.035Z" fill="#F0F0F0"/>
<path d="M159.87 485.82H150.937V494.754H159.87V485.82Z" fill="#F0F0F0"/>
<path d="M159.87 500.914H150.937V509.847H159.87V500.914Z" fill="#F0F0F0"/>
<path d="M159.87 515.7H150.937V524.633H159.87V515.7Z" fill="#F0F0F0"/>
<path d="M159.87 530.793H150.937V539.726H159.87V530.793Z" fill="#F0F0F0"/>
<path d="M159.87 545.579H150.937V554.512H159.87V545.579Z" fill="#F0F0F0"/>
<path d="M159.87 560.673H150.937V569.606H159.87V560.673Z" fill="#F0F0F0"/>
<path d="M243.963 379.857H235.03V388.789H243.963V379.857Z" fill="#F0F0F0"/>
<path d="M243.963 394.642H235.03V403.575H243.963V394.642Z" fill="#F0F0F0"/>
<path d="M243.963 409.736H235.03V418.669H243.963V409.736Z" fill="#F0F0F0"/>
<path d="M243.963 424.522H235.03V433.454H243.963V424.522Z" fill="#F0F0F0"/>
<path d="M243.963 439.615H235.03V448.548H243.963V439.615Z" fill="#F0F0F0"/>
<path d="M243.963 454.401H235.03V463.334H243.963V454.401Z" fill="#F0F0F0"/>
<path d="M243.963 469.495H235.03V478.428H243.963V469.495Z" fill="#F0F0F0"/>
<path d="M243.963 484.28H235.03V493.213H243.963V484.28Z" fill="#F0F0F0"/>
<path d="M243.963 499.374H235.03V508.307H243.963V499.374Z" fill="#F0F0F0"/>
<path d="M243.963 514.16H235.03V523.093H243.963V514.16Z" fill="#F0F0F0"/>
<path d="M229.794 379.857H220.861V388.789H229.794V379.857Z" fill="#F0F0F0"/>
<path d="M229.794 394.642H220.861V403.575H229.794V394.642Z" fill="#F0F0F0"/>
<path d="M229.794 409.736H220.861V418.669H229.794V409.736Z" fill="#F0F0F0"/>
<path d="M229.794 424.522H220.861V433.454H229.794V424.522Z" fill="#F0F0F0"/>
<path d="M229.794 439.615H220.861V448.548H229.794V439.615Z" fill="#F0F0F0"/>
<path d="M229.794 454.401H220.861V463.334H229.794V454.401Z" fill="#F0F0F0"/>
<path d="M229.794 469.495H220.861V478.428H229.794V469.495Z" fill="#F0F0F0"/>
<path d="M229.794 484.28H220.861V493.213H229.794V484.28Z" fill="#F0F0F0"/>
<path d="M229.794 499.374H220.861V508.307H229.794V499.374Z" fill="#F0F0F0"/>
</g>
<defs>
<clipPath id="clip0_309_98288">
<rect width="1177" height="654.881" fill="white" transform="translate(0 0.0499878)"/>
</clipPath>
</defs>
</svg>
