<svg width="203" height="108" viewBox="0 0 203 108" fill="none" xmlns="http://www.w3.org/2000/svg">
<g clip-path="url(#clip0_285_92421)">
<g opacity="0.35">
<path d="M197.008 24.2C196.156 23.8592 195.815 23.1775 195.815 22.3254L198.542 3.91972L179.625 7.83944C178.773 8.00986 177.751 7.4986 177.58 6.47606C177.41 5.45353 177.921 4.60141 178.944 4.43099L200.246 4.64171e-06C200.758 -0.170418 201.439 4.62681e-06 201.78 0.511272C202.121 0.852117 202.462 1.53381 202.292 2.04508L199.224 22.8366C199.054 23.8592 198.201 24.3704 197.179 24.3704C197.179 24.2 197.008 24.2 197.008 24.2Z" fill="#BDBDBD"/>
</g>
<g opacity="0.35">
<path d="M1.19296 132.93C1.02254 132.93 0.68169 132.759 0.511268 132.589C-0.170423 131.907 -0.170423 130.885 0.511268 130.203L56.4099 72.6C56.9211 72.0887 57.6028 71.9183 58.2845 72.2592C58.9662 72.4296 59.307 73.1113 59.4775 73.793L60.1592 93.3916L98.8451 44.1395C99.3563 43.4578 100.208 43.2873 100.89 43.6282C101.572 43.969 102.083 44.6507 101.913 45.5028L96.4592 84.0183L138.213 24.8817C138.724 24.2 139.406 24.0296 140.087 24.2C140.769 24.3704 141.28 25.0521 141.28 25.9042L141.792 61.1817L186.442 15.338C187.124 14.6564 188.146 14.6564 188.828 15.338C189.51 16.0197 189.51 17.0423 188.828 17.724L141.621 66.2944C141.11 66.8057 140.428 66.9761 139.746 66.6352C139.065 66.2944 138.724 65.7831 138.724 65.1014L138.213 31.0169L95.2662 91.6873C94.7549 92.369 93.9028 92.5395 93.2211 92.369C92.369 92.0282 92.0282 91.1761 92.0282 90.4944L97.4817 51.2972L59.8183 99.1859C59.307 99.6972 58.6254 100.038 57.9437 99.6972C57.262 99.5268 56.7507 98.8451 56.7507 98.1634L56.069 77.8831L2.89718 132.589C2.55634 133.1 1.70423 133.27 1.19296 132.93Z" fill="#BDBDBD"/>
</g>
</g>
<defs>
<clipPath id="clip0_285_92421">
<rect width="202.462" height="133.1" fill="white"/>
</clipPath>
</defs>
</svg>
