<svg width="46" height="46" viewBox="0 0 46 46" fill="none" xmlns="http://www.w3.org/2000/svg">
<rect x="0.5" y="0.447754" width="45" height="45" rx="4" fill="#F0F9FF"/>
<path d="M20.53 33.1378L22.86 31.1778C23.21 30.8778 23.79 30.8778 24.14 31.1778L26.47 33.1378C27.01 33.4078 27.67 33.1378 27.87 32.5578L28.31 31.2278C28.42 30.9078 28.31 30.4378 28.07 30.1978L25.8 27.9178C25.63 27.7578 25.5 27.4378 25.5 27.2078V24.3578C25.5 23.9378 25.81 23.7378 26.2 23.8978L31.11 26.0178C31.88 26.3478 32.51 25.9378 32.51 25.0978V23.8078C32.51 23.1378 32.01 22.3678 31.39 22.1078L25.8 19.6978C25.64 19.6278 25.5 19.4178 25.5 19.2378V16.2378C25.5 15.2978 24.81 14.1878 23.97 13.7578C23.67 13.6078 23.32 13.6078 23.02 13.7578C22.18 14.1878 21.49 15.3078 21.49 16.2478V19.2478C21.49 19.4278 21.35 19.6378 21.19 19.7078L15.61 22.1178C14.99 22.3678 14.49 23.1378 14.49 23.8078V25.0978C14.49 25.9378 15.12 26.3478 15.89 26.0178L20.8 23.8978C21.18 23.7278 21.5 23.9378 21.5 24.3578V27.2078C21.5 27.4378 21.37 27.7578 21.21 27.9178L18.94 30.1978C18.7 30.4378 18.59 30.8978 18.7 31.2278L19.14 32.5578C19.32 33.1378 19.98 33.4178 20.53 33.1378Z" stroke="#005B96" stroke-width="1.5" stroke-linecap="round" stroke-linejoin="round"/>
</svg>
