<svg width="46" height="46" viewBox="0 0 46 46" fill="none" xmlns="http://www.w3.org/2000/svg">
<rect x="0.5" y="0.447754" width="45" height="45" rx="4" fill="#F0F9FF"/>
<path d="M32.6901 19.4877L29.5101 16.3077C28.3101 15.1077 26.6601 15.1677 25.8501 16.4577L24.0801 19.2577L29.7501 24.9277L32.5501 23.1577C33.7601 22.3877 33.8301 20.6177 32.6901 19.4877Z" stroke="#005B96" stroke-width="1.5" stroke-linecap="round" stroke-linejoin="round"/>
<path d="M29.7501 24.9177L29.9901 29.0377C30.2201 31.3377 29.4201 32.1377 27.2401 32.3977L18.5201 33.4277C16.6801 33.6377 15.3601 32.3178 15.5801 30.4878L16.5601 22.2078" stroke="#005B96" stroke-width="1.5" stroke-linecap="round" stroke-linejoin="round"/>
<path d="M24.0801 19.2577L22.3301 19.1477" stroke="#005B96" stroke-width="1.5" stroke-linecap="round" stroke-linejoin="round"/>
<path d="M16.78 32.2277L19.96 29.0376" stroke="#005B96" stroke-width="1.5" stroke-linecap="round" stroke-linejoin="round"/>
<path d="M22.5 17.9478C22.5 18.3578 22.44 18.7678 22.33 19.1478C22.22 19.5478 22.06 19.9178 21.85 20.2678C21.61 20.6678 21.31 21.0278 20.96 21.3278C20.17 22.0278 19.14 22.4478 18 22.4478C17.49 22.4478 17.01 22.3678 16.56 22.2078C15.54 21.8678 14.69 21.1678 14.15 20.2678C13.74 19.5878 13.5 18.7878 13.5 17.9478C13.5 16.5278 14.15 15.2577 15.19 14.4377C15.96 13.8177 16.94 13.4478 18 13.4478C20.49 13.4478 22.5 15.4578 22.5 17.9478Z" stroke="#005B96" stroke-width="1.5" stroke-miterlimit="10" stroke-linecap="round" stroke-linejoin="round"/>
<path d="M18.02 19.6278V16.2678" stroke="#005B96" stroke-width="1.5" stroke-miterlimit="10" stroke-linecap="round" stroke-linejoin="round"/>
<path d="M19.66 17.9478H16.3" stroke="#005B96" stroke-width="1.5" stroke-miterlimit="10" stroke-linecap="round" stroke-linejoin="round"/>
</svg>
