<svg width="46" height="46" viewBox="0 0 46 46" fill="none" xmlns="http://www.w3.org/2000/svg">
<rect x="0.5" y="0.447754" width="45" height="45" rx="4" fill="#F0F9FF"/>
<path d="M19 30.4177H18.5C14.5 30.4177 12.5 29.4177 12.5 24.4177V19.4177C12.5 15.4177 14.5 13.4177 18.5 13.4177H26.5C30.5 13.4177 32.5 15.4177 32.5 19.4177V24.4177C32.5 28.4177 30.5 30.4177 26.5 30.4177H26C25.69 30.4177 25.39 30.5677 25.2 30.8177L23.7 32.8177C23.04 33.6977 21.96 33.6977 21.3 32.8177L19.8 30.8177C19.64 30.5977 19.28 30.4177 19 30.4177Z" stroke="#005B96" stroke-width="1.5" stroke-miterlimit="10" stroke-linecap="round" stroke-linejoin="round"/>
<path d="M18.5 20.1477L16.5 22.1477L18.5 24.1477" stroke="#005B96" stroke-width="1.5" stroke-miterlimit="10" stroke-linecap="round" stroke-linejoin="round"/>
<path d="M26.5 20.1477L28.5 22.1477L26.5 24.1477" stroke="#005B96" stroke-width="1.5" stroke-miterlimit="10" stroke-linecap="round" stroke-linejoin="round"/>
<path d="M23.5 19.8179L21.5 24.4779" stroke="#005B96" stroke-width="1.5" stroke-miterlimit="10" stroke-linecap="round" stroke-linejoin="round"/>
</svg>
