<svg width="46" height="46" viewBox="0 0 46 46" fill="none" xmlns="http://www.w3.org/2000/svg">
<rect x="0.5" y="0.447754" width="45" height="45" rx="4" fill="#F0F9FF"/>
<g clip-path="url(#clip0_416_5676)">
<path d="M29.531 28.0648L33.814 32.3468L32.399 33.7618L28.117 29.4788C26.5237 30.756 24.542 31.4507 22.5 31.4478C17.532 31.4478 13.5 27.4158 13.5 22.4478C13.5 17.4798 17.532 13.4478 22.5 13.4478C27.468 13.4478 31.5 17.4798 31.5 22.4478C31.5029 24.4898 30.8082 26.4715 29.531 28.0648ZM27.525 27.3228C28.7941 26.0176 29.5029 24.2682 29.5 22.4478C29.5 18.5798 26.367 15.4478 22.5 15.4478C18.632 15.4478 15.5 18.5798 15.5 22.4478C15.5 26.3148 18.632 29.4478 22.5 29.4478C24.3204 29.4506 26.0699 28.7419 27.375 27.4728L27.525 27.3228ZM23.678 18.6238C23.3831 18.757 23.125 18.9597 22.9257 19.2146C22.7264 19.4695 22.5919 19.769 22.5338 20.0873C22.4757 20.4056 22.4957 20.7332 22.5921 21.0421C22.6885 21.351 22.8583 21.6318 23.0871 21.8606C23.3159 22.0894 23.5968 22.2593 23.9057 22.3557C24.2145 22.452 24.5422 22.472 24.8605 22.4139C25.1788 22.3558 25.4782 22.2213 25.7331 22.0221C25.9881 21.8228 26.1908 21.5646 26.324 21.2698C26.5868 22.1234 26.5563 23.0404 26.2375 23.8747C25.9186 24.709 25.3297 25.4126 24.5646 25.8733C23.7994 26.3341 22.9021 26.5255 22.0155 26.4171C21.129 26.3087 20.3042 25.9067 19.6726 25.2751C19.0411 24.6436 18.6391 23.8188 18.5306 22.9322C18.4222 22.0457 18.6136 21.1483 19.0744 20.3832C19.5352 19.6181 20.2387 19.0291 21.073 18.7103C21.9074 18.3914 22.8244 18.361 23.678 18.6238Z" fill="#005B96"/>
</g>
<defs>
<clipPath id="clip0_416_5676">
<rect width="24" height="24" fill="white" transform="translate(11.5 11.4478)"/>
</clipPath>
</defs>
</svg>
