<svg width="485" height="520" viewBox="0 0 485 520" fill="none" xmlns="http://www.w3.org/2000/svg">
<g clip-path="url(#clip0_285_90654)">
<path d="M108.908 392.179L122.036 406.601L129.617 428.42C132.021 431.563 112.791 441.733 109.647 443.582L55.8407 477.049C55.8407 477.049 47.8898 456.34 44.0069 448.574C40.1239 440.808 27.5505 421.209 27.5505 421.209L86.3496 397.356C89.8628 396.062 107.798 388.481 108.908 392.179Z" fill="#00898D"/>
<path d="M131.836 428.42C131.836 428.42 121.666 435.816 105.949 445.986C63.2367 473.721 55.8406 477.049 55.8406 477.049C55.8406 477.049 51.0331 460.778 44.0068 448.574C44.0068 448.574 64.1612 438.589 93.3759 424.167C94.6702 423.427 117.413 410.484 118.708 409.745C196.182 374.983 145.149 411.594 131.836 428.42Z" fill="#004345"/>
<path d="M27.7354 421.209C26.2562 421.948 31.2486 435.076 39.0145 450.608C46.7804 465.955 54.3614 477.974 55.8406 477.234C57.3199 476.494 52.3275 463.366 44.5616 447.835C36.7956 432.303 29.2146 420.469 27.7354 421.209Z" fill="#004345"/>
<path d="M168.614 356.262L191.617 402.439L275.363 360.72L252.36 314.544L168.614 356.262Z" fill="#FF3C00"/>
<path d="M218.925 368.326C218.925 368.326 221.883 366.847 221.698 364.443C221.514 362.04 210.974 339.482 210.974 339.482C210.974 339.482 226.321 361.855 229.095 367.772C231.868 373.689 231.868 382.749 231.868 382.749L227.061 384.783L218.925 368.326Z" fill="#BA2700"/>
<path d="M205.242 316.739L241.298 388.296L244.996 396.986L316.184 361.67L276.245 281.422L205.242 316.739Z" fill="url(#paint0_linear_285_90654)"/>
<path d="M104.1 388.296L127.213 434.522L227.245 384.783L204.133 338.557L104.1 388.296Z" fill="url(#paint1_linear_285_90654)"/>
<path opacity="0.32" d="M213.748 357.787C213.748 357.787 208.755 367.217 197.846 374.428C186.937 381.824 115.564 411.224 115.564 411.224L127.028 434.337L227.061 384.598L213.748 357.787Z" fill="#00898D"/>
<path d="M355.568 254.426L366.107 288.633L387.001 317.478C391.439 323.58 390.33 331.716 384.783 335.229L289.558 394.213C289.558 394.213 274.211 354.089 266.815 339.297C259.419 324.504 235.751 286.045 235.751 286.045L340.406 245.551C346.323 243.147 353.349 247.4 355.568 254.426Z" fill="url(#paint2_linear_285_90654)"/>
<path d="M484.26 235.011C456.71 286.23 387.556 332.455 387.556 332.455C365.923 307.493 350.945 277.354 343.919 244.996C343.919 244.996 425.092 217.261 480.008 226.321C484.076 227.061 486.294 231.498 484.26 235.011Z" fill="#FF3C00"/>
<path d="M289.558 394.213L276.245 381.639C276.245 381.639 268.294 360.745 258.864 342.07C246.475 317.663 236.306 301.392 236.306 301.392L235.751 286.229L238.34 289.928C261.268 321.361 278.648 356.677 289.558 394.213Z" fill="#004345"/>
<path d="M232.053 382.564C232.053 382.564 229.095 373.134 222.253 359.821C213.378 342.255 208.94 336.153 208.94 336.153L209.31 324.689C223.178 344.474 234.087 366.108 241.668 388.851L232.053 382.564Z" fill="#004345"/>
<path opacity="0.32" d="M383.673 327.648C334.859 364.813 287.339 387.186 287.339 387.186C287.339 387.186 283.086 374.428 279.018 363.704C272.916 347.987 269.588 342.07 269.588 342.07C269.588 342.07 309.527 330.236 365.368 300.837C370.73 310.267 376.832 319.142 383.673 327.648Z" fill="#00898D"/>
<path d="M382.194 291.592C414.552 273.471 469.468 235.936 481.117 233.162C482.226 232.978 483.151 234.087 482.596 235.196C478.158 242.777 455.046 279.943 398.65 317.848C393.473 321.176 388.481 324.504 383.673 327.648C376.832 319.142 370.73 310.267 365.368 300.837C370.915 297.878 376.462 294.92 382.194 291.592Z" fill="#DD2400"/>
<path d="M350.09 323.45C356.421 304.894 346.511 284.719 327.955 278.388C309.399 272.057 289.224 281.967 282.893 300.523C276.562 319.079 286.472 339.254 305.028 345.585C323.584 351.916 343.759 342.006 350.09 323.45Z" fill="#FF3C00"/>
<path opacity="0.32" d="M230.389 360.93C230.389 360.93 242.407 352.794 247.03 340.221C250.173 331.346 246.106 319.697 243.332 313.595C242.223 311.006 241.298 309.342 241.298 309.342C241.298 309.342 256.46 335.783 263.301 350.576C270.143 365.368 276.43 381.639 276.43 381.639L245.181 397.171C245.181 397.171 243.702 394.028 242.223 389.96C238.894 381.639 234.087 368.511 230.389 360.93Z" fill="#00898D"/>
<path d="M306.24 371.094L366.921 341.978L363.722 335.31L303.04 364.426L306.24 371.094Z" fill="#004345"/>
<path d="M358.478 343.958L364.146 341.238L361.266 335.237L355.598 337.957L358.478 343.958Z" fill="#FFD400"/>
<path d="M351.199 347.461L356.867 344.741L353.987 338.739L348.319 341.459L351.199 347.461Z" fill="#FFD400"/>
<path d="M343.861 351.003L349.529 348.283L346.649 342.282L340.981 345.002L343.861 351.003Z" fill="#FFD400"/>
<path d="M336.552 354.529L342.22 351.808L339.339 345.807L333.671 348.527L336.552 354.529Z" fill="#FFD400"/>
<path d="M329.103 358.118L334.771 355.399L331.892 349.397L326.224 352.117L329.103 358.118Z" fill="#FFD400"/>
<path d="M321.763 361.665L327.432 358.945L324.551 352.943L318.883 355.664L321.763 361.665Z" fill="#FFD400"/>
<path d="M314.455 365.201L320.123 362.48L317.243 356.479L311.575 359.199L314.455 365.201Z" fill="#FFD400"/>
<path d="M307.174 368.712L312.842 365.992L309.962 359.99L304.294 362.71L307.174 368.712Z" fill="#FFD400"/>
<path opacity="0.66" d="M470.208 232.423C470.208 232.423 424.352 233.532 390.884 241.483C357.417 249.619 346.878 255.721 346.878 255.721L344.289 246.475C344.289 246.475 387.556 230.759 428.79 229.095C470.208 227.43 482.411 227.615 480.377 229.649C478.528 231.683 470.208 232.423 470.208 232.423Z" fill="url(#paint3_linear_285_90654)"/>
<path opacity="0.66" d="M345.768 262.007C345.768 262.007 317.663 272.362 297.324 280.682C276.984 289.188 250.174 302.501 250.174 302.501L241.113 288.448C241.113 288.448 283.641 271.622 310.082 261.637C334.119 252.577 342.81 249.989 342.81 249.989L345.768 262.007Z" fill="url(#paint4_linear_285_90654)"/>
<path d="M203.023 338.927L226.136 385.152C226.506 385.707 227.061 385.892 227.8 385.707C228.355 385.337 228.54 384.783 228.355 384.043L205.242 337.817C204.872 337.263 204.318 337.078 203.578 337.263C203.023 337.632 202.838 338.372 203.023 338.927Z" fill="#004345"/>
<path d="M104.84 381.824L132.76 437.665L219.48 394.583L191.559 338.742L104.84 381.824Z" fill="url(#paint5_linear_285_90654)"/>
<path opacity="0.32" d="M203.208 362.225C203.208 362.225 199.88 372.209 190.635 379.236C181.575 386.077 118.708 409.929 118.708 409.929L132.575 437.85L219.295 394.767L203.208 362.225Z" fill="#00898D"/>
<path d="M190.265 340.591L217.076 394.213C217.446 394.952 218.185 395.137 218.925 394.767C219.664 394.398 219.849 393.658 219.664 392.918L192.854 339.297C192.484 338.557 191.744 338.372 191.005 338.742C190.265 339.112 189.895 339.851 190.265 340.591Z" fill="#004345"/>
<path d="M97.6287 383.119L127.398 442.842L203.208 405.122L173.439 345.214L97.6287 383.119Z" fill="url(#paint6_linear_285_90654)"/>
<path opacity="0.32" d="M185.827 370.36C185.827 370.36 183.608 380.53 175.658 386.817C167.892 393.288 112.421 412.888 112.421 412.888L127.398 442.842L203.208 405.122L185.827 370.36Z" fill="#00898D"/>
<path d="M98.923 386.262C97.4438 387.001 102.436 400.13 110.202 415.661C117.968 431.008 125.549 443.027 127.028 442.287C128.507 441.548 123.515 428.42 115.749 412.888C107.983 397.356 100.587 385.522 98.923 386.262Z" fill="#004345"/>
<path d="M171.96 345.953L201.729 405.862C202.099 406.601 203.023 406.971 203.763 406.601C204.502 406.231 204.872 405.307 204.502 404.567L174.733 344.659C174.363 343.919 173.439 343.549 172.699 343.919C171.96 344.289 171.59 345.214 171.96 345.953Z" fill="#004345"/>
<path d="M319.327 293.441C328.942 288.078 337.263 292.886 341.515 302.131C345.768 311.376 344.474 321.361 334.859 326.723C334.119 327.093 333.38 327.463 332.64 327.833C330.791 328.757 328.757 329.127 326.723 329.312C325.984 329.312 325.244 329.312 324.689 329.312C321.176 329.312 312.671 328.387 309.157 328.572C304.165 328.757 298.248 331.346 296.029 332.455C295.29 332.825 294.55 333.01 293.626 333.01H292.516C291.407 333.01 290.297 332.27 289.743 331.346L285.305 323.21C284.565 321.916 285.305 320.252 286.784 319.697C291.777 318.218 302.131 314.52 305.274 310.452C309.342 304.905 311.931 298.063 317.108 294.92C317.663 294.365 318.403 293.81 319.327 293.441Z" fill="#BA2700"/>
<path d="M316.739 288.263C326.353 282.901 334.674 287.709 338.927 296.954C343.18 306.199 341.885 316.184 332.27 321.546C331.531 321.916 330.791 322.286 330.052 322.655C328.202 323.58 326.169 323.95 324.135 324.135C323.395 324.135 322.655 324.135 322.101 324.135C318.588 324.135 315.074 323.765 311.561 323.95C305.09 324.319 304.165 325.429 304.165 325.429L300.837 318.033L297.324 310.637C297.324 310.637 298.803 310.637 302.871 305.09C306.939 299.543 309.527 292.701 314.705 289.558C315.259 289.188 315.999 288.818 316.739 288.263Z" fill="#FFD400"/>
<path d="M298.618 309.897C298.618 309.897 298.433 313.595 300.652 318.218C302.686 322.655 305.644 324.874 305.644 324.874C305.644 324.874 304.905 328.202 303.795 328.018C302.686 327.833 302.686 327.463 302.686 327.463C302.686 327.463 295.475 332.085 292.516 331.161C289.743 330.236 287.894 325.984 287.524 325.244C287.154 324.689 285.305 320.621 286.23 317.848C287.339 314.705 294.92 311.006 294.92 311.006C294.92 311.006 294.735 310.822 295.105 309.712C295.66 308.788 298.618 309.897 298.618 309.897Z" fill="url(#paint7_linear_285_90654)"/>
<path d="M302.871 321.916C303.98 321.361 309.712 318.403 315.444 316.184C315.444 315.259 315.444 314.335 315.629 313.41C315.074 313.41 314.519 313.225 314.15 313.04C313.41 312.671 313.04 312.116 312.855 311.376L314.15 311.191C314.15 311.376 314.335 311.746 314.704 311.931C315.074 312.116 315.629 312.301 315.999 312.301C316.368 311.376 317.108 310.637 318.033 310.082C319.327 309.157 321.916 307.863 323.025 308.418C323.395 308.603 323.58 308.788 323.58 309.157C323.765 310.452 321.361 312.116 319.512 313.04C318.772 313.41 317.848 313.595 317.108 313.595C316.923 314.335 316.738 315.074 316.738 315.814C320.251 314.335 323.58 313.225 325.059 313.41C327.093 313.595 327.463 314.705 327.463 315.074C327.463 317.108 323.95 319.327 319.512 319.882C317.848 320.067 316.923 319.512 316.369 318.772C315.999 318.403 315.814 318.033 315.629 317.478C311.006 319.512 306.384 321.546 303.61 323.025L302.871 321.916ZM324.874 314.52C323.58 314.335 320.436 315.444 316.923 316.923C317.108 317.293 317.108 317.663 317.478 317.848C317.848 318.403 318.587 318.588 319.327 318.403C323.765 317.663 325.983 315.629 325.983 314.889C325.983 314.889 325.983 314.705 325.799 314.705C325.799 314.705 325.429 314.52 324.874 314.52ZM318.772 310.822C318.402 311.007 318.033 311.376 317.848 311.746C318.218 311.746 318.587 311.561 318.957 311.376C320.436 310.822 321.546 309.897 321.916 309.342C321.176 309.527 320.067 310.082 318.772 310.822Z" fill="black"/>
<path d="M298.988 313.41C301.576 311.746 306.014 308.973 310.267 306.014C310.082 305.644 309.897 305.275 309.712 304.905C309.527 303.98 309.527 302.686 310.637 301.207C313.78 297.878 317.293 296.029 318.957 297.139C319.512 297.509 320.067 298.248 318.957 300.282C318.218 301.576 315.444 303.98 312.116 306.199C312.671 306.569 313.225 306.939 313.965 307.308C314.52 306.569 315.074 306.014 315.814 305.459C317.478 304.35 320.252 303.241 321.176 304.165C321.361 304.35 321.546 304.72 321.361 305.09C321.176 306.384 318.403 307.863 317.293 308.418C316.369 308.973 315.444 308.973 314.52 308.788C314.15 309.342 313.965 309.897 313.965 310.267C313.965 310.452 313.965 310.822 314.15 311.191L313.04 312.116C312.671 311.561 312.486 311.007 312.671 310.267C312.671 309.712 313.04 309.157 313.225 308.603C312.301 308.233 311.561 307.678 311.006 307.124C305.644 310.822 299.543 314.705 299.173 314.889L298.988 313.41ZM318.218 298.433C317.663 298.063 314.889 298.988 311.746 302.316C311.006 303.056 310.822 303.795 311.006 304.72C311.006 304.905 311.191 305.09 311.376 305.459C314.52 303.241 317.108 301.022 317.848 299.912C318.403 298.803 318.403 298.433 318.218 298.433ZM316.923 306.754C316.554 306.939 316.184 307.308 315.814 307.678C316.184 307.678 316.554 307.493 316.923 307.308C318.403 306.569 319.512 305.829 320.067 305.275C319.327 305.275 318.033 305.829 316.923 306.754Z" fill="black"/>
<path d="M301.946 327.278C302.131 327.463 302.501 327.463 302.871 327.278C303.056 327.093 303.056 326.538 302.871 326.353C302.871 326.353 300.652 324.135 298.433 319.512C296.214 314.889 295.844 311.191 295.844 311.191C295.844 310.822 295.475 310.637 295.105 310.637C294.735 310.637 294.55 311.006 294.55 311.376C294.55 311.561 294.92 315.444 297.139 320.252C299.542 324.874 301.761 327.278 301.946 327.278Z" fill="black"/>
<path d="M297.878 327.648C298.063 327.833 298.433 327.833 298.803 327.648C298.988 327.463 299.173 326.908 298.803 326.723C298.803 326.723 296.214 323.95 294.92 320.437C293.626 316.923 293.626 314.705 293.626 314.705C293.626 314.335 293.256 313.965 292.886 313.965C292.516 313.965 292.146 314.335 292.146 314.705C292.146 314.889 292.146 317.108 293.626 320.806C294.92 324.689 297.693 327.463 297.878 327.648C297.693 327.648 297.693 327.648 297.878 327.648Z" fill="black"/>
<path d="M296.214 328.572C296.399 328.757 296.769 328.757 297.139 328.572C297.324 328.387 297.508 327.833 297.139 327.648C297.139 327.648 294.55 324.874 293.256 321.361C291.961 317.848 291.961 315.629 291.961 315.629C291.961 315.259 291.592 314.889 291.222 314.889C290.852 314.889 290.482 315.259 290.482 315.629C290.482 315.814 290.482 318.033 291.961 321.731C293.441 325.614 296.029 328.387 296.214 328.572Z" fill="black"/>
<path d="M294.55 329.497C294.735 329.682 295.105 329.682 295.475 329.497C295.66 329.312 295.844 328.757 295.475 328.572C295.475 328.572 292.886 325.799 291.592 322.286C290.297 318.772 290.297 316.554 290.297 316.554C290.297 316.184 289.928 315.814 289.558 315.814C289.188 315.814 288.818 316.184 288.818 316.554C288.818 316.738 288.818 318.957 290.297 322.655C291.777 326.353 294.365 329.312 294.55 329.497Z" fill="black"/>
<path d="M309.897 296.954C309.897 296.954 320.252 282.901 331.346 291.407C339.851 297.878 338.372 307.308 338.372 307.308C338.372 307.308 334.304 301.022 328.572 297.509C318.033 291.222 312.116 296.214 309.897 296.954Z" fill="url(#paint8_linear_285_90654)"/>
<path d="M357.602 287.894C358.157 289.188 358.896 290.482 359.636 291.777C377.202 325.799 386.632 333.01 387.002 333.38C387.556 333.75 388.296 333.75 388.666 333.195C389.035 332.64 389.036 331.9 388.481 331.531C388.296 331.531 378.866 324.135 361.855 290.852C344.844 257.754 345.398 245.181 345.398 245.181C345.398 244.441 345.029 243.887 344.289 243.887C343.549 243.887 342.995 244.257 342.995 244.996C342.81 245.366 342.07 256.83 357.602 287.894Z" fill="#004345"/>
<path d="M106.504 441.733L112.421 458.374L123.885 471.317C125.919 473.536 126.843 475.755 125.179 478.159C124.809 478.713 122.96 480.008 122.406 480.562L71.9271 519.392C71.9271 519.392 63.6065 500.162 59.5386 493.136C55.4708 486.109 42.5276 468.544 42.5276 468.544L98.3682 438.589C101.512 436.74 105.395 438.22 106.504 441.733Z" fill="url(#paint9_linear_285_90654)"/>
<path d="M177.507 416.401C164.748 446.17 124.255 478.898 124.255 478.898C112.606 467.989 104.285 453.751 100.217 437.85C100.402 437.85 147.922 414.367 177.507 416.401Z" fill="#FF3C00"/>
<path d="M75.2554 366.108L78.5837 382.749L88.1986 397.171C90.2325 400.13 88.9382 404.013 85.61 405.677L27.7354 431.748C27.7354 431.748 22.3732 412.333 19.4148 404.937C16.4563 397.541 5.91687 378.866 5.91687 378.866L69.7083 361.3C73.0366 360.376 74.5158 362.594 75.2554 366.108Z" fill="url(#paint10_linear_285_90654)"/>
<path d="M151.066 356.308C133.315 381.639 87.2742 404.382 87.2742 404.382C77.1045 391.994 70.8178 377.017 69.5235 361.3C69.5235 361.3 121.481 348.542 151.066 356.308Z" fill="#FF3C00"/>
<path opacity="0.32" d="M124.255 478.898C124.255 478.898 139.232 466.695 153.839 450.608C146.628 458.744 135.904 469.098 124.255 478.898C122.221 480.562 71.9272 519.207 71.9272 519.207C71.9272 519.207 66.7499 504.045 59.5387 492.951C59.5387 492.951 78.5837 480.932 106.134 463.551C107.429 462.812 108.723 461.887 109.832 461.148C113.9 467.619 118.708 473.536 124.255 478.898Z" fill="#00898D"/>
<path opacity="0.58" d="M222.808 495.355C222.993 495.17 222.993 494.8 223.178 494.615C223.178 494.615 223.178 494.8 222.808 495.355Z" fill="#00898D"/>
<path d="M110.017 461.148C136.458 443.767 165.303 417.51 167.152 416.771C170.85 416.401 174.363 416.401 177.507 416.586C177.322 416.771 177.322 417.141 177.137 417.326C175.843 420.654 170.48 432.303 154.024 450.608C139.417 466.88 124.44 478.898 124.44 478.898C118.708 473.536 113.9 467.619 110.017 461.148Z" fill="#DD2400"/>
<path opacity="0.58" d="M69.7084 363.334C69.7084 363.334 68.0442 363.334 61.3877 365.183C16.8262 377.756 7.76593 383.488 7.76593 383.488C7.76593 383.488 14.6073 391.994 18.3054 403.273C18.3054 403.273 39.1994 395.692 69.5235 384.783C70.8178 384.228 73.5913 383.673 75.0705 383.303C72.4819 377.017 70.0782 370.175 69.7084 363.334Z" fill="#00898D"/>
<path d="M74.8856 383.303C97.9985 375.538 121.851 369.99 132.39 367.587C135.349 366.847 138.122 365.553 140.711 363.889C140.711 363.889 140.711 363.889 140.896 363.889C143.3 362.225 142.56 358.342 139.602 357.787C134.794 356.862 124.44 355.568 108.168 356.862C86.9043 358.896 69.8932 363.334 69.8932 363.334C70.0782 370.175 72.4819 377.017 74.8856 383.303Z" fill="#DD2400"/>
<path d="M5.732 378.866C4.06787 379.421 7.76593 391.809 13.8677 406.416C19.9695 421.024 26.0713 432.488 27.7354 431.748C29.3996 431.193 25.7015 418.805 19.5997 404.198C13.4979 389.59 7.21122 378.311 5.732 378.866Z" fill="#FF3C00"/>
<path d="M42.1578 468.544C40.6786 469.468 46.2256 481.487 54.3614 495.539C62.4971 509.592 70.263 520.131 71.7422 519.207C73.2214 518.282 67.6744 506.264 59.5386 492.211C51.4029 478.159 43.637 467.619 42.1578 468.544Z" fill="#FF3C00"/>
<path opacity="0.58" d="M201.359 476.125C201.544 475.94 201.544 475.57 201.729 475.385C201.729 475.385 201.729 475.57 201.359 476.125Z" fill="#00898D"/>
<path d="M75.2554 462.997C75.6252 463.551 76.3648 463.736 76.9195 463.366C77.1044 463.182 99.8475 449.499 119.077 440.993C138.307 432.488 153.654 430.824 153.654 430.824C154.394 430.824 154.764 430.084 154.764 429.529C154.764 428.79 154.024 428.42 153.469 428.42C153.284 428.42 137.568 430.084 118.153 438.774C98.738 447.28 75.8101 461.148 75.6252 461.333C75.0705 461.702 74.8856 462.442 75.2554 462.997Z" fill="white"/>
<path d="M366.847 243.147C367.032 243.702 367.771 243.887 368.326 243.702C415.661 226.506 472.611 231.313 473.166 231.313C473.906 231.313 474.46 230.944 474.46 230.204C474.46 229.464 474.091 228.91 473.351 228.91C472.796 228.91 415.292 224.102 367.587 241.483C366.847 241.668 366.662 242.408 366.847 243.147Z" fill="white"/>
<path d="M211.899 320.621C212.268 321.176 213.008 321.361 213.563 321.176C221.514 316.923 234.827 310.082 236.306 309.897C237.045 309.897 237.415 309.342 237.415 308.603C237.415 307.863 236.86 307.493 236.121 307.493C234.642 307.678 220.774 314.889 212.638 319.142C211.899 319.327 211.714 320.067 211.899 320.621Z" fill="white"/>
<path d="M252.207 149.032C252.207 149.032 292.516 194.703 293.811 196.367C295.105 198.031 287.894 252.207 287.894 252.207L282.531 253.132C282.531 253.132 282.531 206.352 281.237 205.982C279.943 205.612 255.721 186.382 246.106 180.65C236.676 174.918 252.207 149.032 252.207 149.032Z" fill="#EF8B59"/>
<path d="M223.917 287.894C223.917 287.894 245.551 234.272 247.585 229.834C249.619 225.396 248.509 164.563 248.509 164.563L233.902 170.295L235.566 222.623L220.219 285.675L223.917 287.894Z" fill="#EF8B59"/>
<path d="M292.146 268.109C292.146 268.109 296.399 267 294.18 266.075C285.675 262.377 287.894 252.207 287.894 252.207L282.531 253.132L282.901 261.822L288.818 267.554C288.818 267.369 288.448 269.773 292.146 268.109Z" fill="#EF8B59"/>
<path d="M287.894 271.622L285.49 265.151L281.237 261.637L285.86 272.362L287.894 271.622Z" fill="#0D1E43"/>
<path d="M282.346 259.049C282.346 259.049 281.607 258.494 281.422 260.713C281.237 262.377 283.456 265.89 283.456 265.89C283.456 265.89 285.49 265.52 287.709 267.739C288.263 268.294 289.373 269.773 290.667 270.698C291.961 271.622 298.618 268.109 298.618 268.109C298.618 268.109 298.618 267.369 297.324 266.815C295.844 266.26 294.365 265.89 294.365 265.89C294.365 265.89 293.071 268.294 291.037 267.185C288.633 266.26 282.346 259.049 282.346 259.049Z" fill="#0D1E43"/>
<path d="M223.917 303.241C223.917 303.241 228.17 304.165 226.691 302.316C220.774 295.105 224.472 286.599 224.472 286.599L220.589 285.12L218.74 293.256L221.329 301.022C221.329 301.022 219.849 303.056 223.917 303.241Z" fill="#EF8B59"/>
<path d="M218.37 304.535L219.48 297.509L217.076 293.811L216.336 304.165L218.37 304.535Z" fill="#0D1E43"/>
<path d="M219.295 290.667C219.295 290.667 218.925 289.928 217.631 291.777C216.706 293.256 217.076 297.324 217.076 297.324C217.076 297.324 219.11 297.878 220.034 301.022C220.219 301.761 220.589 303.61 221.329 305.09C222.068 306.569 229.649 306.569 229.649 306.569C229.649 306.569 230.019 306.014 229.095 304.72C228.17 303.61 226.876 302.501 226.876 302.501C226.876 302.501 224.657 303.98 223.178 302.131C221.698 299.912 219.295 290.667 219.295 290.667Z" fill="#0D1E43"/>
<path d="M255.905 77.2894L290.297 80.4327L317.108 58.0595L321.176 62.682C321.176 62.682 303.056 83.9459 293.256 88.1986C283.456 92.4514 258.679 88.7533 258.679 88.7533L255.905 77.2894Z" fill="url(#paint11_linear_285_90654)"/>
<path d="M225.027 218.74L242.223 221.144L246.29 191.005L258.494 220.219C270.698 216.336 277.909 217.816 282.531 205.982C286.969 194.703 295.475 197.476 295.475 197.476C295.844 194.333 262.007 134.424 262.007 134.424C262.007 134.424 237.23 131.836 236.121 134.055C236.121 134.055 228.54 142.56 230.204 152.36C231.313 158.277 233.902 161.235 233.902 161.235L225.027 218.74Z" fill="#583360"/>
<path d="M251.838 69.5235C256.645 70.8178 254.241 73.4064 257.2 76.7347C259.973 79.878 265.52 88.1986 268.109 92.4514C269.958 95.2249 262.562 100.402 263.301 110.017C264.411 126.474 264.226 135.904 264.226 135.904L252.022 133.13L244.441 135.349L243.147 133.685L237.785 134.424C237.785 134.424 244.996 127.213 243.702 113.345C242.407 99.4777 239.079 79.6931 241.113 76.18C242.038 74.7007 242.223 74.5158 242.962 73.5913C243.147 73.2215 241.113 71.1876 241.298 71.0027C243.332 69.3386 249.434 68.9687 251.838 69.5235Z" fill="url(#paint12_linear_285_90654)"/>
<path d="M262.747 131.096C262.747 131.096 260.158 107.798 250.543 97.9985C248.694 96.1495 247.77 90.6024 250.173 84.6855C252.392 79.3233 248.879 72.6668 248.879 72.6668C248.879 72.6668 248.14 72.4819 247.03 72.4819C246.29 72.4819 245.551 72.4819 244.626 72.8517C242.038 73.7762 239.449 76.7347 240.189 85.2402C241.668 100.772 244.072 121.296 241.113 127.398C238.155 133.5 231.683 135.534 231.683 135.534C231.683 135.534 240.743 137.938 243.702 136.643C246.66 135.349 249.249 133.87 253.132 135.534C255.166 136.458 257.2 136.828 259.234 137.198C262.747 137.753 263.486 135.904 263.486 135.904L262.747 131.096Z" fill="#F29500"/>
<path d="M178.431 114.455C178.431 114.455 226.506 95.2249 233.717 91.8967C243.702 87.2741 244.996 83.2063 244.996 83.2063C244.996 83.2063 237.97 87.2741 235.011 88.5684C232.238 89.8628 177.507 112.421 177.507 112.421L178.431 114.455Z" fill="url(#paint13_linear_285_90654)"/>
<path d="M254.056 75.0705C254.056 75.0705 252.392 74.7007 251.468 75.8101C250.358 76.9196 250.174 81.9119 250.174 81.9119C250.174 81.9119 249.064 74.5158 247.585 73.7762C246.106 72.8517 243.332 73.7762 243.332 73.7762L241.853 71.3725C241.853 71.3725 245.736 69.5235 249.804 71.0027C252.577 71.9272 253.687 73.7762 253.687 73.7762L254.056 75.0705Z" fill="#F29500"/>
<path d="M257.385 42.8975C257.385 42.8975 258.864 48.2596 261.637 53.6218C261.822 53.9916 260.528 54.3614 260.528 54.9161C260.713 56.5803 260.528 58.4293 260.158 59.9085C259.603 61.9424 253.871 61.5726 253.871 61.5726C252.207 66.3801 259.788 79.878 259.788 79.878C259.788 79.878 258.864 79.5082 257.939 78.5837C257.015 77.8441 254.056 75.2554 254.796 72.6668C254.981 71.9272 255.166 71.5574 254.611 71.1876C252.762 70.0782 249.064 69.1537 248.139 69.1537C246.106 68.9688 244.626 69.5235 244.996 69.3386C249.434 67.4895 240.743 47.3351 244.996 44.3767C249.434 41.788 257.385 42.8975 257.385 42.8975Z" fill="#FFB68E"/>
<path d="M252.577 70.448C252.577 70.448 250.728 65.4556 250.358 60.833C249.988 56.2105 256.46 43.0824 256.46 43.0824C256.46 43.0824 245.921 44.7465 245.181 47.3351C244.626 49.9238 244.811 59.3538 244.811 59.3538C244.811 59.3538 245.366 65.2707 245.366 66.7499C245.366 68.2291 244.996 69.5235 244.996 69.5235C244.996 69.5235 248.879 68.9687 252.577 70.448Z" fill="#EF8B59"/>
<path d="M257.57 43.822C257.57 43.822 262.747 41.6031 258.494 36.7957C252.947 30.6939 240.928 35.5013 239.264 38.09C237.045 41.4182 236.861 44.9314 236.861 44.9314L235.751 50.6634C235.751 50.6634 237.415 58.4293 242.962 56.9501C244.442 56.5803 244.811 59.3538 244.811 59.3538C244.811 59.3538 248.509 57.135 248.509 55.6557C248.509 54.1765 245.736 50.2936 246.845 48.6294C247.4 47.8898 248.694 49.9238 249.064 49.1841C249.619 48.6294 251.468 42.7126 257.57 43.822Z" fill="#172755"/>
<path d="M237.415 50.6634C237.415 50.6634 231.498 54.3614 229.279 50.6634C226.321 45.8559 230.204 44.7465 228.725 42.7125C225.581 38.4598 228.725 33.8372 231.683 33.8372C237.785 33.4674 239.079 39.3843 239.079 39.3843C239.079 39.3843 242.223 45.3012 237.415 50.6634Z" fill="#172755"/>
<path d="M253.687 43.822C253.687 43.822 250.173 48.6294 251.653 51.7728C252.762 53.9916 253.871 56.0255 252.207 57.3199C250.543 58.6142 249.249 58.6142 249.249 58.6142C249.249 58.6142 251.653 56.95 251.283 55.4708C250.728 53.9916 248.324 52.8822 248.509 49.9237C248.509 46.9653 250.543 44.7465 250.543 44.7465L253.687 43.822Z" fill="#172755"/>
<path d="M259.603 40.1239C259.603 40.1239 261.268 42.5276 260.343 44.7465C259.418 46.9653 262.007 49.1841 262.007 49.1841C262.007 49.1841 259.603 48.2596 259.418 46.0408C259.234 43.822 259.603 43.0823 258.679 42.3427C257.754 41.4182 256.83 41.6031 256.83 41.6031L259.603 40.1239Z" fill="#172755"/>
<path d="M246.845 51.2181C246.845 51.2181 244.072 50.4785 244.072 48.9992C244.072 47.52 243.147 45.4861 242.223 45.8559C241.113 46.2257 241.853 43.822 240.928 44.0069C240.004 44.1918 239.634 45.8559 239.264 44.3767C238.894 42.8974 239.819 41.9729 239.264 40.3088C238.709 38.6447 238.709 38.6447 238.709 38.6447C238.709 38.6447 237.045 35.6862 237.6 36.4259C237.97 36.9806 237.6 40.8635 236.86 43.4522C236.121 46.0408 234.642 46.2257 232.793 45.3012C230.944 44.3767 231.868 41.6031 230.574 42.1578C229.279 42.7125 227.43 45.1163 227.615 48.2596C227.8 51.403 230.389 52.3275 232.053 52.5124C233.717 52.8822 235.936 51.403 235.936 51.403C235.936 51.403 234.826 54.9161 238.155 56.7652C240.928 58.2444 242.223 56.7652 243.332 57.135C244.257 57.5048 244.626 60.0934 244.626 60.0934C244.626 60.0934 247.585 58.2444 248.509 55.6557C249.804 53.6218 246.845 51.2181 246.845 51.2181Z" fill="#0C1B3F"/>
<path d="M251.283 56.2104C251.283 56.2104 252.947 54.1765 251.468 52.8822C249.434 50.8483 249.249 46.9653 250.173 44.7465C250.913 42.7125 252.207 41.6031 254.056 41.4182C255.905 41.2333 256.645 42.5276 256.645 42.5276C256.645 42.5276 255.536 39.5692 251.468 40.6786C247.4 41.6031 247.03 47.8898 247.77 50.6634C248.509 53.252 251.468 54.7312 251.283 56.2104Z" fill="#0C1B3F"/>
<path d="M198.377 100.786L196.168 127.877L232.474 130.837L234.683 103.746L198.377 100.786Z" fill="#1660A8"/>
<path d="M230.019 133.315L232.608 130.726L230.204 130.541L230.019 133.315Z" fill="#003663"/>
<path d="M200.619 102.066L199.695 103.176L198.586 126.474L231.128 130.356L232.238 129.062L234.272 104.655L200.619 102.066Z" fill="#6ACCBA"/>
<path d="M199.723 103.341L197.739 127.668L231.28 130.403L233.264 106.076L199.723 103.341Z" fill="white"/>
<path d="M228.91 128.692C228.91 128.877 229.094 129.062 229.279 129.062C229.464 129.062 229.649 128.877 229.649 128.692L231.313 107.429C231.313 107.244 231.128 107.059 230.943 107.059C230.759 107.059 230.574 107.244 230.574 107.429L228.91 128.692Z" fill="#020023"/>
<path d="M227.43 128.507C227.43 128.692 227.615 128.877 227.8 128.877C227.985 128.877 228.17 128.692 228.17 128.507L229.834 107.244C229.834 107.059 229.649 106.874 229.464 106.874C229.279 106.874 229.094 107.059 229.094 107.244L227.43 128.507Z" fill="#020023"/>
<path d="M225.951 128.507C225.951 128.692 226.136 128.877 226.321 128.877C226.506 128.877 226.691 128.692 226.691 128.507L228.355 107.244C228.355 107.059 228.17 106.874 227.985 106.874C227.8 106.874 227.615 107.059 227.615 107.244L225.951 128.507Z" fill="#020023"/>
<path d="M224.287 128.323C224.287 128.507 224.472 128.692 224.657 128.692C224.842 128.692 225.027 128.507 225.027 128.323L226.691 107.059C226.691 106.874 226.506 106.689 226.321 106.689C226.136 106.689 225.951 106.874 225.951 107.059L224.287 128.323Z" fill="#020023"/>
<path d="M222.808 128.138C222.808 128.323 222.993 128.507 223.178 128.507C223.362 128.507 223.547 128.323 223.547 128.138L225.211 106.874C225.211 106.689 225.027 106.504 224.842 106.504C224.657 106.504 224.472 106.689 224.472 106.874L222.808 128.138Z" fill="#020023"/>
<path d="M221.329 128.138C221.329 128.323 221.513 128.507 221.698 128.507C221.883 128.507 222.068 128.323 222.068 128.138L223.732 106.874C223.732 106.689 223.547 106.504 223.362 106.504C223.178 106.504 222.993 106.689 222.993 106.874L221.329 128.138Z" fill="#020023"/>
<path d="M219.664 127.953C219.664 128.138 219.849 128.323 220.034 128.323C220.219 128.323 220.404 128.138 220.404 127.953L222.068 106.689C222.068 106.504 221.883 106.319 221.698 106.319C221.513 106.319 221.329 106.504 221.329 106.689L219.664 127.953Z" fill="#020023"/>
<path d="M195.812 103.361L193.593 130.356L230.019 133.315L231.128 120.926L231.498 114.64L232.238 106.319L195.812 103.361Z" fill="#2E77CE"/>
<path d="M252.947 74.5158C253.132 74.5158 253.317 74.5158 253.317 74.3309C253.502 74.146 253.317 73.9611 253.132 73.7762C253.132 73.7762 251.098 72.6668 248.139 72.4819C245.181 72.297 243.887 72.6668 243.887 72.6668C243.702 72.6668 243.517 72.8517 243.702 73.0366C243.702 73.2215 243.887 73.4064 244.072 73.2215C244.072 73.2215 245.366 72.8517 248.139 73.0366C250.913 73.4064 252.762 74.5158 252.947 74.5158C252.762 74.5158 252.762 74.5158 252.947 74.5158Z" fill="#020023"/>
<path d="M247.585 77.1045C247.585 77.1045 246.475 70.8178 236.491 74.7007C230.574 76.9196 204.872 92.6363 203.578 96.3344C201.544 102.436 211.344 124.624 211.344 124.624L213.563 113.9C213.563 113.9 211.344 104.285 212.823 99.8475C213.193 98.5532 236.306 88.1986 241.853 85.2402C247.955 82.2818 247.585 78.7686 247.585 77.1045Z" fill="url(#paint14_linear_285_90654)"/>
<path d="M215.966 126.104C215.966 126.104 218.555 127.028 220.034 128.323C221.329 129.617 222.253 130.911 221.698 131.096C221.144 131.281 218.925 129.617 219.11 129.987C219.295 130.356 220.959 132.206 221.698 132.39C222.438 132.575 222.993 132.575 222.993 132.945C222.993 133.315 220.774 133.87 220.219 133.685C219.849 133.5 219.664 134.979 218.925 134.609C218.185 134.239 218.37 134.609 217.446 134.794C216.521 134.979 216.336 134.239 215.782 134.609C215.227 134.979 214.672 134.609 214.302 134.239C213.933 133.87 212.823 129.802 212.638 128.507C212.453 127.213 212.453 126.843 212.453 126.843L207.276 113.53L213.378 110.387L215.966 126.104Z" fill="#FFB68E"/>
<path d="M203.948 102.436C203.948 102.436 208.016 94.1155 224.472 85.61C239.264 77.8441 247.585 77.1045 247.585 77.1045C247.585 77.1045 247.77 72.4819 239.819 73.2215C231.868 73.9611 205.242 92.8212 203.763 94.6702C202.469 96.7042 203.948 102.436 203.948 102.436Z" fill="#F29500"/>
<path d="M286.045 200.62C286.045 200.62 267 202.469 255.905 192.854C244.811 183.239 249.989 160.865 243.517 157.537C236.86 154.024 233.717 151.435 233.717 146.443C233.717 141.451 234.826 136.088 234.826 136.088C234.826 136.088 226.506 143.669 230.019 153.469C231.498 157.907 232.423 159.201 233.347 160.496C234.087 161.42 233.162 163.824 232.977 164.933L224.842 218.74L242.038 221.144L246.106 191.005L258.309 220.219C258.309 220.219 272.916 221.698 279.203 213.008C283.086 207.831 283.641 202.653 286.045 200.62Z" fill="#412249"/>
<path d="M240.374 167.152C240.189 167.152 240.189 167.152 240.374 167.152C240.189 167.152 231.313 161.79 229.464 151.62C227.8 141.451 234.827 135.904 235.011 135.904C235.196 135.904 235.196 135.904 235.381 135.904C235.381 136.088 235.381 136.088 235.381 136.273C235.381 136.273 228.355 141.636 230.019 151.62C231.683 161.42 240.559 166.782 240.559 166.782C240.743 166.782 240.743 166.967 240.559 167.152H240.374Z" fill="#020023"/>
<path d="M242.038 221.514H241.668L224.842 219.11V218.925L233.347 164.379C233.347 164.194 233.532 164.194 233.532 164.194C233.717 164.194 233.717 164.379 233.717 164.379L225.212 218.74L242.038 221.144C242.223 221.144 242.223 221.329 242.223 221.329C242.223 221.329 242.223 221.514 242.038 221.514Z" fill="#020023"/>
<path d="M260.343 220.404C259.234 220.404 258.679 220.404 258.494 220.404H258.309V220.219L243.332 183.054C243.332 182.869 243.332 182.869 243.517 182.684C243.702 182.684 243.702 182.684 243.887 182.869L258.864 220.034C260.343 220.034 273.101 220.589 278.464 213.748C280.867 210.789 281.792 208.201 282.716 205.797C284.196 202.284 285.305 199.51 290.112 197.661C290.112 197.661 292.516 196.552 294.735 197.106C294.92 197.106 294.92 197.291 294.92 197.291C294.92 197.476 294.92 197.476 294.735 197.476C292.701 197.106 290.297 198.031 290.297 198.031C285.675 199.88 284.565 202.469 283.271 205.982C282.347 208.385 281.237 210.974 278.833 214.117C274.211 219.849 264.411 220.404 260.343 220.404Z" fill="#020023"/>
<path d="M260.713 137.383C259.973 137.383 259.049 137.198 257.939 137.013C256.275 136.643 254.981 136.088 253.687 135.719C251.098 134.609 249.064 133.87 246.29 135.719C242.038 138.307 232.238 135.904 231.868 135.719C231.683 135.719 231.683 135.534 231.683 135.349C231.683 135.164 231.868 135.164 232.053 135.164C232.238 135.164 242.038 137.753 246.106 135.164C249.064 133.315 251.098 134.055 253.872 135.164C254.981 135.719 256.46 136.088 257.939 136.458C260.713 137.198 262.192 136.828 262.747 136.273C263.302 135.904 263.486 135.534 263.486 135.534C263.486 135.349 263.671 135.349 263.671 135.349C263.856 135.349 263.856 135.534 263.856 135.534C263.856 135.534 263.671 136.088 262.932 136.643C262.562 137.198 261.822 137.383 260.713 137.383Z" fill="#020023"/>
<path d="M171.134 98.8047L170.656 97.8035L168.153 98.9989L168.632 100L171.134 98.8047Z" fill="#FFB600"/>
<path d="M168.434 91.6024L167.956 90.6013L165.453 91.7967L165.931 92.7978L168.434 91.6024Z" fill="#FFB600"/>
<path d="M178.801 113.891L178.323 112.89L175.82 114.085L176.298 115.086L178.801 113.891Z" fill="#FFB600"/>
<path d="M175.488 111.076L175.01 110.075L173.341 110.872L173.819 111.873L175.488 111.076Z" fill="#FFB600"/>
<path d="M158.277 127.953L144.409 98.7381L163.084 89.8628L176.952 119.077L158.277 127.953Z" fill="url(#paint15_linear_285_90654)"/>
<path d="M167.522 124.44L152.914 93.9306L163.824 88.5685L178.616 119.077L167.522 124.44Z" fill="url(#paint16_linear_285_90654)"/>
<path opacity="0.48" d="M148.107 96.8891C148.107 96.8891 149.771 101.697 156.058 109.832C161.42 116.674 164.379 117.968 164.379 117.968L153.1 94.4853L148.107 96.8891Z" fill="url(#paint17_linear_285_90654)"/>
<path d="M179.541 110.202L172.699 95.9646L169.001 97.8136L170.111 100.032L172.329 99.1079L176.952 108.538L174.548 109.462L175.658 111.866L179.541 110.202Z" fill="url(#paint18_linear_285_90654)"/>
<path d="M163.532 110.167L161.859 106.664L157.521 108.736L159.194 112.239L163.532 110.167Z" fill="#FFB600"/>
<path d="M161.975 106.874C161.975 106.874 160.496 107.798 159.571 109.462C158.647 110.942 159.201 112.236 159.201 112.236L163.454 110.202L161.975 106.874Z" fill="white"/>
<path d="M167.522 90.4175C167.522 90.4175 231.868 69.5234 242.407 71.3725C248.139 72.4819 248.139 76.5498 247.585 79.1384C247.215 80.4327 246.66 81.3572 246.66 81.3572C246.66 81.3572 249.064 75.0705 242.777 73.2215C237.785 71.5574 167.707 91.8967 167.707 91.8967L167.522 90.4175Z" fill="url(#paint19_linear_285_90654)"/>
<path d="M178.061 118.708C178.061 118.708 177.876 118.708 177.876 118.523L164.009 88.9382L153.469 93.9306L159.941 107.429C159.941 107.613 159.941 107.613 159.756 107.798C159.571 107.798 159.571 107.798 159.386 107.613L152.73 93.7457L164.009 88.3835L178.246 118.338C178.246 118.523 178.246 118.708 178.061 118.708Z" fill="#020023"/>
<path d="M212.453 99.6626C211.529 99.6626 208.016 97.2589 207.276 96.8891C207.091 96.8891 207.091 96.7042 207.276 96.5193C207.276 96.3344 207.461 96.3344 207.646 96.5193C209.125 97.4438 211.714 99.1079 212.453 99.2928C212.268 98.5532 210.604 96.1495 208.755 93.9306C208.755 93.7457 208.755 93.7457 208.755 93.5608C208.94 93.5608 208.94 93.5608 209.125 93.5608C210.604 95.4098 213.193 98.7381 212.823 99.4777C212.638 99.6626 212.638 99.6626 212.453 99.6626Z" fill="#020023"/>
<path d="M210.974 100.587L206.352 98.5532C206.167 98.5532 206.167 98.3683 206.167 98.1834C206.167 97.9985 206.352 97.9985 206.536 97.9985L211.159 100.032C211.344 100.032 211.344 100.217 211.344 100.402C211.159 100.402 211.159 100.587 210.974 100.587Z" fill="#020023"/>
<path d="M207.091 113.9L206.906 113.715C206.721 113.161 201.729 100.772 203.023 95.7797C203.578 93.7457 211.714 87.8288 219.48 83.0214C227.061 78.2139 236.491 73.0366 240.189 72.8517C242.408 72.6668 244.257 73.2215 245.366 74.3309C247.03 75.8102 246.845 78.029 246.845 78.029C246.845 78.2139 246.475 75.9951 244.996 74.5158C243.887 73.4064 242.223 73.0366 240.189 73.0366C233.347 73.4064 204.502 92.2665 203.393 95.7797C202.099 100.217 206.536 111.496 207.091 113.161L212.638 110.202C212.823 110.202 212.823 110.202 213.008 110.387C213.008 110.572 213.008 110.572 212.823 110.757L207.091 113.9Z" fill="#020023"/>
<path d="M254.426 99.2928C249.804 99.2928 247.955 95.2249 247.955 95.2249C247.955 95.04 247.955 95.04 248.139 94.8551C248.324 94.8551 248.324 94.8551 248.509 95.04C248.509 95.225 250.543 99.2928 255.351 98.7381C260.158 98.1834 261.637 95.9646 261.637 95.9646C261.637 95.7797 261.822 95.7797 262.007 95.9646C262.192 95.9646 262.192 96.1495 262.007 96.3344C262.007 96.5193 260.528 98.923 255.351 99.2928C254.981 99.2928 254.611 99.2928 254.426 99.2928Z" fill="#020023"/>
<path d="M237.23 136.643C237.23 136.643 237.045 136.643 237.045 136.458C237.045 136.273 237.045 136.273 237.23 136.088C237.23 136.088 240.743 134.239 242.592 130.356C244.441 126.474 244.811 123.33 244.811 123.33C244.811 123.145 244.996 123.145 244.996 123.145C245.181 123.145 245.181 123.33 245.181 123.33C245.181 123.33 244.811 126.658 242.962 130.541C240.928 134.609 237.415 136.458 237.23 136.643Z" fill="#020023"/>
<path d="M246.106 135.719C245.921 135.534 245.921 135.349 245.921 135.349C245.921 135.349 248.694 132.76 249.989 128.507C251.283 124.44 251.283 123.145 251.283 123.145C251.283 122.96 251.468 122.96 251.468 122.96C251.653 122.96 251.653 123.145 251.653 123.145C251.653 123.145 251.653 124.44 250.358 128.692C249.249 132.945 246.475 135.534 246.106 135.719Z" fill="#020023"/>
<path d="M279.018 91.1571C272.547 91.1571 266.815 90.2326 266.815 90.2326C266.63 90.2326 266.63 90.0477 266.63 90.0477C266.63 89.8628 266.815 89.8628 266.815 89.8628C267 89.8628 284.935 93.0061 293.626 88.0137C302.316 83.0214 320.621 63.0519 320.806 62.867C320.806 62.682 320.991 62.682 321.176 62.867C321.361 62.867 321.361 63.0519 321.176 63.2368C320.991 63.4217 302.686 83.5761 293.81 88.5684C290.112 90.6024 284.38 91.1571 279.018 91.1571Z" fill="#020023"/>
<path d="M249.804 58.7991C249.804 58.7991 249.619 58.7991 249.619 58.6142C249.619 58.4293 249.619 58.4293 249.804 58.2444C249.989 58.2444 252.207 57.135 251.098 53.9916L250.728 53.252C249.249 49.7389 247.215 44.5616 250.543 41.788C254.056 39.0145 257.2 42.5276 257.2 42.5276C257.2 42.7125 257.2 42.7126 257.2 42.8975C257.015 42.8975 257.015 42.8975 256.83 42.8975C256.645 42.7126 253.872 39.5692 250.728 42.1578C247.77 44.5616 249.804 49.7389 251.098 53.0671L251.468 53.8067C252.762 57.5048 249.804 58.7991 249.804 58.7991Z" fill="#020023"/>
<path d="M230.019 52.6973C227.615 52.6973 225.581 51.7728 224.287 50.4785C222.808 48.9992 222.438 47.1502 223.178 45.3012C225.027 40.6786 229.834 41.2333 229.834 41.2333C230.019 41.2333 230.019 41.4182 230.019 41.4182C230.019 41.6031 229.834 41.6031 229.834 41.6031C229.649 41.6031 225.397 41.0484 223.732 45.3012C222.993 46.9653 223.363 48.6294 224.842 49.9237C226.691 51.7728 230.204 52.6973 234.087 51.2181C240.189 48.8143 238.71 41.9729 238.71 41.9729C238.71 41.788 238.71 41.788 238.894 41.788C239.079 41.788 239.079 41.788 239.079 41.9729C239.079 41.9729 240.559 49.1841 234.087 51.7728C232.608 52.5124 231.313 52.6973 230.019 52.6973Z" fill="#020023"/>
<path d="M231.683 48.8143C231.498 48.8143 231.498 48.8143 231.683 48.8143C231.498 48.8143 230.389 48.2596 227.061 43.2673C225.212 40.3088 225.396 36.056 227.615 33.2825C229.279 31.0637 231.868 30.509 234.642 31.6184C236.306 32.358 237.6 33.4674 238.155 35.1315C239.634 38.8296 237.785 43.6371 237.785 43.822C237.785 44.0069 237.6 44.0069 237.415 44.0069C237.23 44.0069 237.23 43.822 237.23 43.6371C237.23 43.6371 239.079 38.8296 237.6 35.3164C237.045 33.8372 235.936 32.7278 234.272 32.1731C231.868 31.2486 229.464 31.8033 227.8 33.6523C225.766 36.241 225.396 40.3088 227.245 43.0824C230.389 47.8898 231.498 48.2596 231.498 48.2596C231.683 48.2596 231.683 48.4445 231.683 48.4445C231.868 48.6294 231.683 48.8143 231.683 48.8143Z" fill="#020023"/>
<path d="M231.868 50.4785C231.128 50.4785 230.019 50.1087 228.54 48.8143C226.691 47.3351 226.691 43.2673 227.615 40.3088C228.54 37.7202 230.019 36.056 232.053 36.056C233.162 36.056 234.272 36.2409 235.011 36.9806C236.491 38.4598 236.491 40.8635 236.676 41.6031V41.788C236.676 41.9729 236.676 41.9729 236.491 41.9729H236.306C236.306 41.9729 236.306 41.788 236.121 41.6031C236.121 40.8635 236.121 38.4598 234.642 37.1655C234.087 36.6108 233.162 36.2409 232.053 36.4259C230.389 36.4259 228.91 37.9051 228.17 40.4937C227.061 43.6371 227.43 47.3351 228.91 48.6294C231.498 50.8483 232.608 49.9238 232.608 49.9238C232.608 49.9238 232.793 49.9238 232.977 49.9238C232.977 49.9238 233.162 50.1087 232.977 50.2936C232.977 50.1087 232.608 50.4785 231.868 50.4785Z" fill="#020023"/>
<path d="M257.939 42.7125C257.754 42.7125 257.754 42.5276 257.754 42.3427C257.754 42.1578 259.049 38.09 254.796 36.056C250.358 34.0221 246.106 40.1239 246.106 40.1239C246.106 40.3088 245.921 40.3088 245.736 40.1239C245.551 40.1239 245.551 39.939 245.736 39.7541C245.921 39.5692 250.173 33.2825 254.981 35.5013C259.788 37.7202 258.309 42.1578 258.309 42.3427C258.124 42.7125 258.124 42.7125 257.939 42.7125Z" fill="#020023"/>
<path d="M257.939 43.4522C257.939 43.4522 257.754 43.4522 257.754 43.2673C257.754 43.0823 257.754 43.0824 257.754 42.8974C258.494 42.5276 260.343 41.0484 259.419 36.6108C259.234 35.3164 258.494 34.3919 257.57 33.8372C255.536 32.7278 252.392 33.8372 252.392 33.8372C252.207 33.8372 252.207 33.8372 252.022 33.6523C252.022 33.4674 252.022 33.4674 252.207 33.2825C252.392 33.2825 255.536 31.9882 257.754 33.2825C258.864 33.8372 259.603 34.9466 259.788 36.4259C260.898 41.4182 259.049 43.0823 257.939 43.4522Z" fill="#020023"/>
<path d="M251.098 56.9501C250.913 56.9501 250.913 56.7652 250.913 56.7652C250.913 55.8406 250.913 55.2859 249.434 51.9577C247.585 48.2596 249.804 45.3012 251.468 43.4522C253.872 41.0484 256.83 43.0823 256.83 43.0823C257.015 43.0823 257.015 43.2672 256.83 43.4522C256.83 43.6371 256.645 43.6371 256.46 43.4522C256.275 43.4522 253.687 41.6031 251.653 43.822C248.879 46.5955 248.324 48.9992 249.619 51.7728C251.283 55.101 251.283 55.8406 251.283 56.7652C251.283 56.9501 251.098 56.9501 251.098 56.9501Z" fill="#020023"/>
<path d="M240.374 58.984C239.634 58.984 238.894 58.7991 237.97 58.4293C236.861 57.8746 236.121 57.135 235.566 56.2105C234.642 54.1765 235.751 51.7728 235.751 51.5879C235.751 51.403 235.936 51.403 236.121 51.403C236.306 51.403 236.306 51.5879 236.306 51.7728C236.306 51.7728 235.381 54.1765 236.121 56.0256C236.491 56.9501 237.23 57.6897 238.155 58.0595C241.483 59.5387 243.332 57.3199 243.332 57.3199C243.332 57.135 243.517 57.135 243.702 57.3199C243.887 57.3199 243.887 57.5048 243.702 57.6897C243.702 57.6897 242.408 58.984 240.374 58.984Z" fill="#020023"/>
<path d="M245.366 57.135C244.996 57.135 242.407 57.135 240.004 55.6557C237.415 53.9916 237.785 48.4445 237.785 48.0747C237.785 47.8898 237.97 47.8898 237.97 47.8898C238.155 47.8898 238.155 48.0747 238.155 48.0747C238.155 48.0747 237.785 53.6218 240.189 55.101C242.777 56.5802 245.366 56.5802 245.366 56.5802C245.551 56.5802 245.551 56.7651 245.551 56.7651C245.736 56.9501 245.551 57.135 245.366 57.135Z" fill="#020023"/>
<path d="M317.108 58.2444C317.108 58.2444 323.025 54.1765 323.395 52.5124C324.319 48.6294 327.463 45.671 327.463 45.671C327.463 45.671 330.791 44.7465 331.346 46.4106C331.716 48.0747 330.421 51.5879 330.606 52.6973C330.791 53.8067 329.497 56.9501 329.497 56.9501L320.806 62.4971L317.108 58.2444Z" fill="#FFB68E"/>
<path d="M292.886 107.429L290.667 105.949L352.794 10.5395L355.013 11.8338L292.886 107.429Z" fill="url(#paint20_linear_285_90654)"/>
<path d="M352.794 10.5395C352.794 10.5395 342.81 4.80748 339.112 5.17728C335.229 5.73199 331.9 12.0187 327.093 8.69044C322.285 5.17728 323.58 1.10942 317.848 0.36981C312.116 -0.369801 305.089 2.03394 305.089 2.03394L310.821 7.95082L301.761 12.9432C301.761 12.9432 310.821 15.9016 313.225 20.3393C315.444 24.5921 322.101 29.0297 326.538 27.1807C330.976 25.3317 330.791 23.8525 333.749 23.4827C336.708 23.1129 341.885 27.1807 341.885 27.1807L352.794 10.5395Z" fill="white"/>
<path d="M302.871 12.2036C302.871 12.2036 312.116 13.8677 318.403 12.2036C324.689 10.5395 326.353 7.95083 326.353 7.95083C326.353 7.95083 328.942 9.98476 330.421 9.61496C331.901 9.24515 336.153 6.65651 336.153 6.65651L331.531 24.2223C331.531 24.2223 329.127 26.8109 326.908 26.9958C324.689 27.1807 321.361 27.5505 317.108 24.0374C312.856 20.5242 312.856 19.045 311.191 17.3809C309.342 15.5318 301.946 12.7583 301.946 12.7583L302.871 12.2036Z" fill="#DFEEF2"/>
<path d="M324.689 56.0256C324.689 56.0256 327.278 56.2105 328.202 56.5803C329.127 57.135 329.497 56.7652 329.497 56.7652C329.497 56.7652 330.791 56.0256 330.421 55.6557C330.051 55.101 330.051 55.2859 330.051 54.9161C330.236 54.5463 331.346 53.9916 331.161 53.4369C330.976 52.8822 330.606 52.5124 330.606 52.5124C330.606 52.5124 332.27 51.9577 331.531 51.2181C330.791 50.4785 331.161 49.7389 331.161 49.7389C331.161 49.7389 331.9 47.7049 330.976 47.7049C330.051 47.7049 326.353 49.554 326.723 49.9238C327.093 50.4785 327.093 50.6634 327.093 50.6634C327.093 50.6634 325.984 50.4785 325.799 51.5879C325.614 52.6973 327.833 52.5124 326.353 52.8822C325.799 53.0671 324.874 53.0671 324.874 53.6218C324.689 54.3614 325.984 54.3614 325.984 54.3614C325.984 54.3614 324.319 55.2859 324.689 56.0256Z" fill="#EA976E"/>
<path d="M323.765 54.1765C323.765 54.1765 325.429 54.7312 326.908 53.6218C328.387 52.3275 328.202 50.1087 329.127 49.3691C330.051 48.6294 334.674 47.1502 334.119 46.5955C333.564 45.8559 328.757 44.0069 327.463 45.671C326.353 47.3351 323.765 54.1765 323.765 54.1765Z" fill="#FFB68E"/>
<path d="M226.321 219.295C226.136 219.11 226.136 219.11 226.136 218.925C226.136 218.925 229.834 213.008 231.868 205.427C233.902 197.846 233.717 191.744 233.717 191.559C233.717 191.374 233.902 191.374 233.902 191.374C234.087 191.374 234.087 191.559 234.087 191.559C234.087 191.559 234.087 197.846 232.238 205.427C230.204 213.008 226.506 218.925 226.506 218.925C226.506 219.295 226.506 219.295 226.321 219.295Z" fill="#020023"/>
<path d="M237.045 220.404C236.86 220.219 236.86 220.219 236.86 220.034C236.86 220.034 237.785 218.185 238.524 211.899C239.264 205.612 237.23 192.669 237.045 192.484C237.045 192.299 237.045 192.299 237.23 192.299C237.415 192.299 237.415 192.299 237.415 192.484C237.415 192.669 239.634 205.612 238.894 212.084C238.155 218.37 237.23 220.219 237.045 220.404C237.23 220.404 237.23 220.404 237.045 220.404Z" fill="#020023"/>
<path d="M274.766 217.076C274.766 217.076 274.581 217.076 274.581 216.891C274.581 216.891 272.177 211.529 267.369 206.906C262.562 202.284 253.872 196.182 253.687 195.997C253.502 195.997 253.502 195.812 253.687 195.627C253.687 195.442 253.872 195.442 254.056 195.627C254.056 195.627 262.932 201.729 267.739 206.536C272.547 211.344 274.95 216.706 274.95 216.706C274.95 216.891 274.95 217.076 274.766 217.076Z" fill="#020023"/>
<path d="M324.134 23.4827L321.916 22.0034L327.463 13.6828C326.168 13.8677 324.874 13.8677 323.58 13.4979L324.874 11.464C325.614 11.6489 326.353 11.6489 327.463 11.6489C328.572 11.6489 329.312 11.2791 330.051 10.7244L331.9 11.8338L324.134 23.4827Z" fill="black"/>
<path d="M289.373 87.2741C289.188 87.2741 289.188 87.0892 289.188 87.0892C289.188 87.0892 289.188 86.7194 289.188 86.5345C289.373 82.2818 289.558 81.3573 289.927 81.1723C290.112 81.1723 290.112 81.1723 290.297 81.1723C290.852 81.5422 292.701 85.7949 293.071 86.5345C293.071 86.7194 293.071 86.7194 292.886 86.9043C292.701 86.9043 292.701 86.9043 292.516 86.7194C291.592 84.6855 290.297 82.2818 289.927 81.5421C289.743 82.0969 289.558 83.5761 289.558 86.3496C289.558 86.7194 289.558 86.9043 289.558 87.0892C289.558 87.2741 289.558 87.2741 289.373 87.2741Z" fill="#020023"/>
<path d="M294.735 84.1308C294.55 84.1308 294.55 84.1308 294.735 84.1308L291.592 81.1724C291.592 81.1724 291.592 80.9874 291.592 80.8025C291.592 80.8025 291.776 80.8025 291.961 80.8025L294.92 83.761C294.92 83.761 294.92 83.9459 294.735 84.1308Z" fill="#020023"/>
<path d="M290.667 106.134C290.482 105.949 290.482 105.949 290.482 105.764L324.689 54.1765C324.689 53.9916 324.874 53.9916 325.059 54.1765C325.244 54.1765 325.244 54.3614 325.059 54.5463L290.852 106.134H290.667Z" fill="#020023"/>
<path d="M330.421 45.1163C330.236 44.9314 330.236 44.9314 330.236 44.7465L352.61 10.3546C352.61 10.1697 352.794 10.1697 352.979 10.3546C353.164 10.3546 353.164 10.5395 352.979 10.7244L330.606 45.1163H330.421Z" fill="#020023"/>
<path d="M324.504 27.3656C323.95 27.3656 323.395 27.3656 322.655 27.1807C318.033 26.0713 315.814 23.4827 313.41 20.5242C312.856 19.9695 312.301 19.2299 311.746 18.6752C308.788 15.162 301.577 12.9432 301.577 12.9432C301.392 12.9432 301.392 12.7583 301.392 12.5734C301.392 12.3885 301.576 12.3885 301.761 12.3885C302.131 12.5734 309.158 14.7922 312.301 18.3054C312.856 18.8601 313.41 19.5997 313.965 20.1544C316.369 23.1129 318.403 25.5166 322.84 26.626C325.984 27.3656 327.833 26.0713 329.867 24.777C331.346 23.8525 332.64 22.928 334.489 22.928C338.372 23.1129 342.255 26.4411 342.44 26.626C342.44 26.626 342.625 26.8109 342.44 26.9958C342.44 27.1807 342.255 27.1807 342.07 26.9958C342.07 26.9958 338.372 23.4827 334.489 23.2978C334.489 23.2978 334.489 23.2978 334.304 23.2978C332.825 23.2978 331.531 24.2223 330.236 25.1468C328.572 26.2562 326.908 27.3656 324.504 27.3656Z" fill="#020023"/>
<path d="M253.687 65.4556C253.687 65.4556 251.468 67.3046 248.324 67.3046C245.181 67.3046 245.736 66.9348 245.736 66.9348C245.736 66.9348 244.441 68.414 244.626 68.9688C244.996 69.5235 254.426 68.2291 254.426 68.2291C254.426 68.2291 256.46 66.3801 253.687 65.4556Z" fill="#FF3C00"/>
<path d="M245.366 68.0442C245.366 68.0442 241.668 63.2368 237.415 64.1613C233.162 64.9009 231.683 65.2707 231.683 65.2707C231.683 65.2707 238.155 68.5989 239.634 68.414C241.483 68.414 245.366 68.0442 245.366 68.0442Z" fill="#FF3C00"/>
<path d="M245.181 68.414C245.181 68.414 238.155 66.565 235.751 67.3046C233.347 68.0442 231.313 70.0782 231.313 70.0782C231.313 70.0782 237.97 71.3725 240.374 70.2631C242.777 69.3385 245.181 68.414 245.181 68.414Z" fill="#C60000"/>
<path d="M252.947 68.4141C252.947 68.4141 249.804 68.4141 248.14 67.8593C246.29 67.3046 244.996 66.7499 244.996 66.7499C244.996 66.7499 245.366 67.6744 244.811 67.6744C244.257 67.6744 244.626 69.5235 244.626 69.5235C244.626 69.5235 250.358 69.3386 252.947 68.4141Z" fill="#C60000"/>
<path d="M244.811 67.8593C244.811 67.8593 243.517 66.3801 241.298 65.6405C239.079 64.9009 237.785 65.4556 237.785 65.4556L236.86 65.8254C236.86 65.8254 238.709 66.7499 240.004 66.9348C241.298 67.1197 244.441 68.2291 244.441 68.2291L244.811 67.8593Z" fill="#C60000"/>
<path d="M71.3724 192.484C73.961 186.937 92.4513 166.228 92.2664 157.907C92.0815 151.066 89.8627 136.828 89.8627 136.828L85.0552 137.383C85.0552 137.383 84.3156 152.915 84.3156 157.722C84.3156 162.53 65.8253 184.348 65.8253 188.601C66.0102 194.333 70.4479 194.518 71.3724 192.484Z" fill="#4EC6C6"/>
<path d="M70.8178 188.601C70.8178 188.601 72.4819 181.944 76.3649 176.027C80.9874 168.816 84.1308 161.79 85.4251 161.79C86.5345 161.975 89.308 162.16 89.308 161.79C89.1231 161.235 87.459 160.126 87.459 160.126C87.459 160.126 91.1571 158.462 90.4175 158.092C89.6779 157.722 87.459 156.613 87.459 156.613C87.459 156.613 90.7873 154.209 89.8628 154.209C88.9382 154.209 85.9798 153.654 85.9798 153.654L84.8704 143.3C84.8704 143.3 84.5006 157.167 84.3157 158.462C83.5761 161.975 67.6744 182.684 65.4556 182.684C64.5311 182.499 70.448 187.307 70.8178 188.601Z" fill="url(#paint21_linear_285_90654)"/>
<path d="M85.4252 134.055C85.4252 134.055 83.0214 125.364 83.0214 124.07C83.0214 122.775 85.2403 127.028 86.3497 126.289C87.4591 125.549 88.0138 123.145 89.3081 120.926C90.6024 118.708 92.0817 118.153 92.0817 118.523C92.0817 118.893 91.8968 120.742 91.8968 120.742C91.8968 120.742 93.5609 117.968 94.3005 118.338C95.0401 118.523 93.9307 120.742 93.9307 120.742C93.9307 120.742 95.7797 119.077 96.1495 120.002C96.3344 120.926 95.4099 122.406 95.4099 122.406C95.4099 122.406 96.1495 122.036 95.7797 122.775C95.4099 123.515 90.2326 129.802 90.0477 132.206C89.3081 134.979 89.8628 136.828 89.8628 136.828L85.0554 137.383L85.4252 134.055Z" fill="#EF8B59"/>
<path d="M89.8627 136.828L90.9721 134.424L83.7609 135.719L85.0552 137.383L89.8627 136.828Z" fill="#FFF9C5"/>
<path d="M17.9356 372.394C17.9356 372.394 47.1502 327.278 49.9238 323.21C52.5124 319.327 76.7347 260.343 76.7347 260.343L58.4293 257.015L39.5692 314.705L11.8338 378.681L17.9356 372.394Z" fill="#FFB68E"/>
<path d="M23.6676 351.13C23.6676 351.13 41.6032 320.437 43.2673 315.259C44.9314 310.082 50.4785 301.207 50.4785 301.207L61.018 297.694L46.9654 290.667L39.3843 314.889L23.6676 351.13Z" fill="#EF8B59"/>
<path d="M97.074 358.711C97.074 358.711 90.2326 318.218 90.2326 313.41C90.2326 306.754 68.7838 257.015 68.7838 257.015L56.2104 260.158L77.1045 312.486L91.8967 359.451L97.074 358.711Z" fill="#FFB68E"/>
<path d="M85.4251 297.878C85.4251 297.878 83.0213 301.946 81.727 306.754C80.6176 311.561 84.5006 316.184 84.8704 321.916C85.2402 327.278 89.6778 350.021 91.5269 358.711L76.1799 311.191L67.8593 295.66L81.5421 287.894L85.4251 297.878Z" fill="#EF8B59"/>
<path d="M103.73 367.772C103.73 367.772 105.949 365.183 103.361 365.183C97.4437 364.813 96.7041 357.232 96.7041 357.232L91.5268 354.828L92.2664 366.662L95.5947 368.881C95.5947 368.881 99.8474 368.696 103.73 367.772Z" fill="#FFB68E"/>
<path d="M48.4445 295.844L84.6855 290.297L74.3309 231.128C74.3309 231.128 55.8407 229.095 55.101 231.498C55.101 231.498 43.0824 252.762 45.671 262.007C46.0408 263.486 46.5955 264.411 47.1502 265.336C49.554 268.849 50.4785 273.101 50.1087 277.354L48.4445 295.844Z" fill="url(#paint22_linear_285_90654)"/>
<path d="M55.286 181.575C60.0935 182.314 65.4557 181.205 68.7839 184.163C71.7424 186.937 71.0027 195.257 73.9612 198.771C75.9951 201.359 68.2292 204.318 70.448 213.378C74.331 228.54 74.331 231.868 74.331 231.868L62.3123 231.498C62.3123 231.498 58.7992 233.347 56.2105 220.219C53.6219 207.091 46.2258 190.08 47.705 186.752C48.4446 185.273 48.6295 185.088 49.1842 183.978C49.3691 183.608 48.6295 184.348 48.8144 184.163C50.4785 182.314 52.8823 181.205 55.286 181.575Z" fill="url(#paint23_linear_285_90654)"/>
<path d="M71.0027 231.498C71.0027 231.498 67.3046 208.385 59.3538 206.721C55.8406 205.982 53.0671 200.065 54.1765 193.223C55.2859 186.752 53.8067 184.903 53.8067 184.903C53.8067 184.903 52.1426 182.869 51.5879 183.054C50.8483 183.239 51.403 182.869 50.6634 183.239C48.2596 184.348 46.2257 187.307 48.0747 195.257C52.1426 211.899 51.7728 225.951 44.5616 230.389C43.822 230.759 43.4522 233.347 44.5616 234.642C45.8559 235.936 48.8143 235.936 54.5463 232.053C56.7652 230.574 68.9687 231.683 68.9687 231.683L71.0027 231.498Z" fill="#4EC6C6"/>
<path d="M66.0103 154.394C66.0103 154.394 66.9348 159.571 69.1536 165.118C69.3385 165.488 68.0442 165.858 68.0442 166.228C68.0442 167.892 67.8593 169.556 67.3046 171.035C66.565 172.884 61.2028 172.145 61.2028 172.145C59.9085 174.918 60.2783 178.061 62.4971 181.759C63.0518 182.869 66.7499 185.827 67.3046 186.567C67.8593 187.122 66.7499 193.593 66.0103 193.039C64.531 191.929 62.4971 190.82 60.833 189.895C59.9085 189.34 60.0934 186.382 58.7991 184.163C58.0594 183.054 57.3198 181.759 55.4708 181.759C51.5879 181.944 52.3275 178.986 52.3275 178.986C54.7312 174.918 49.9237 157.537 54.3614 155.133C58.6142 152.915 66.0103 154.394 66.0103 154.394Z" fill="#FFB68E"/>
<path d="M55.286 181.944C56.2105 181.944 56.9501 181.39 57.3199 180.465C58.0595 178.061 59.3538 173.624 59.3538 170.48C59.3538 169.186 60.6481 167.522 59.7236 164.933C59.5387 164.194 56.0256 159.201 56.3954 158.462C56.7652 157.537 58.984 161.235 59.3538 160.496C59.5387 160.126 59.5387 157.907 59.9085 157.722C65.8254 157.167 65.2707 154.394 65.2707 154.394C65.2707 154.394 54.9162 155.133 54.1765 157.537C53.4369 159.941 52.8822 169.001 52.8822 169.001C52.8822 169.001 52.8822 174.733 52.8822 176.212C52.6973 177.692 52.8822 181.205 52.8822 181.205C52.8822 181.205 53.8067 181.759 55.286 181.944Z" fill="#EF8B59"/>
<path d="M92.2665 366.662C92.2665 366.662 91.7118 369.991 92.6363 370.545C93.5608 371.1 111.496 368.511 111.496 368.511C111.496 368.511 111.681 365.923 106.504 365.183C104.1 364.813 103.176 365.183 103.176 365.183C103.176 365.183 101.512 367.587 98.923 367.587C96.1494 367.587 92.2665 366.662 92.2665 366.662Z" fill="#0D1E43"/>
<path d="M22.3733 380.16C22.3733 380.16 24.2223 377.572 21.8186 377.572C15.7168 377.756 19.23 370.175 19.23 370.175L15.5319 369.806L11.0942 379.975L14.4225 381.824C14.6074 381.824 18.4904 381.454 22.3733 380.16Z" fill="#FFB68E"/>
<path d="M11.0942 379.975C11.0942 379.975 10.5395 383.119 11.464 383.488C12.3885 383.858 29.5845 380.345 29.5845 380.345C29.5845 380.345 29.5845 377.941 24.4072 377.571C22.1883 377.387 21.2638 377.756 21.2638 377.756C21.2638 377.756 19.9695 380.16 17.3809 380.345C14.9771 380.53 11.0942 379.975 11.0942 379.975Z" fill="#0D1E43"/>
<path d="M66.0103 154.394C66.0103 154.394 68.9688 156.798 72.1121 155.688C75.2555 154.394 74.7008 148.477 66.1952 144.779C57.6897 141.081 57.5048 147.737 56.0256 148.107C54.5464 148.477 44.9314 141.081 36.7957 160.311C28.66 179.541 38.8296 194.333 36.6108 198.401C34.392 202.469 31.4335 205.057 35.5014 208.94C39.5692 212.823 50.4785 207.646 50.4785 207.646C50.4785 207.646 46.2257 188.786 48.6295 184.903C50.8483 181.39 52.8822 181.944 55.1011 181.944C57.5048 181.944 58.6142 166.782 57.8746 164.748C57.3199 162.714 54.1766 159.571 55.4709 158.831C56.7652 158.092 58.984 160.681 58.7991 159.571C58.7991 158.277 56.7652 156.243 59.3538 156.058C61.7576 155.503 64.9009 158.462 66.0103 154.394Z" fill="#172755"/>
<path d="M58.6143 156.058C58.6143 156.058 55.286 151.99 52.8823 156.058C51.0332 159.201 52.6974 161.05 52.1427 169.371C51.588 177.692 47.3352 167.522 44.1918 172.884C41.0485 178.246 44.3767 185.273 39.5693 183.239C34.9467 181.205 33.4675 178.801 33.4675 178.801C33.4675 178.801 35.5014 194.518 34.5769 198.031C33.6524 201.544 28.8449 202.838 31.4336 207.461C37.1655 217.631 50.2936 207.646 50.2936 207.646C50.2936 207.646 48.6295 183.424 51.0332 182.314C53.437 181.205 54.3615 182.129 55.8407 181.39C57.8747 180.28 59.169 166.413 58.0596 164.379C57.135 162.16 54.7313 160.126 55.6558 159.201C56.5803 158.277 59.7237 161.605 59.5388 160.496C59.169 159.386 57.6897 156.798 58.6143 156.058Z" fill="#020023"/>
<path d="M85.4251 291.037L83.3912 282.531C83.3912 282.531 75.9951 287.894 67.3047 289.373C65.2707 289.743 60.8331 289.558 60.8331 289.558C60.8331 289.558 59.9085 277.724 58.4293 272.917C57.135 268.109 52.1426 260.528 53.6219 252.947C53.6219 252.392 57.5048 250.728 57.3199 250.358C52.8822 243.147 58.984 236.306 59.3538 236.306C64.716 235.566 73.9612 231.498 73.9612 231.498L70.2631 231.128H54.9162C54.9162 231.128 42.3428 251.838 43.4522 261.268C44.5616 270.513 50.2936 269.958 49.9238 275.32C49.554 280.682 44.1918 295.844 44.1918 295.844C44.1918 295.844 68.7839 302.686 85.4251 291.037Z" fill="#F29500"/>
<path d="M60.6481 298.248C51.9576 298.248 44.1917 296.584 44.0068 296.399C43.8219 296.399 43.8219 296.399 43.8219 296.214V296.029C43.8219 295.844 50.4784 280.128 49.7388 274.95C49.369 272.547 48.0747 271.252 46.7804 269.958C45.3011 268.294 43.4521 266.445 43.0823 262.377C41.9729 250.728 53.9916 232.423 54.5463 231.683C54.7312 231.498 54.9161 231.498 54.9161 231.683C55.101 231.868 55.101 232.053 54.9161 232.053C54.7312 232.238 42.5276 250.913 43.637 262.377C44.0068 266.26 45.6709 267.924 47.1502 269.588C48.4445 271.067 49.7388 272.362 50.1086 274.95C50.8482 279.943 45.3011 293.626 44.3766 296.029C46.4106 296.399 55.8406 298.248 64.9008 297.509C78.2138 296.399 84.6854 290.852 84.6854 290.852C84.8703 290.667 85.0552 290.667 85.0552 290.852C85.2401 291.037 85.2401 291.222 85.0552 291.222C85.0552 291.222 78.3987 296.954 64.9008 298.063C63.7914 298.248 62.1273 298.248 60.6481 298.248Z" fill="#020023"/>
<path d="M50.2935 196.182C47.8898 192.114 27.3656 166.967 27.5505 158.647C27.7354 151.805 29.9542 137.568 29.9542 137.568L34.7617 138.122C34.7617 138.122 35.5013 153.654 35.5013 158.462C35.5013 163.269 53.6218 183.424 52.6973 186.197C50.8482 191.744 51.403 198.216 50.2935 196.182Z" fill="#4EC6C6"/>
<path d="M53.8067 184.903C53.8067 184.903 47.7049 182.314 43.4522 176.767C39.1994 171.035 35.6862 162.53 34.3919 162.53C33.2825 162.714 31.0637 163.269 30.509 162.899C29.7693 162.345 30.8788 161.05 30.8788 161.05C30.8788 161.05 28.6599 159.016 29.3995 158.647C30.1391 158.277 32.358 157.167 32.358 157.167C32.358 157.167 29.9542 155.133 30.8788 155.133C31.8033 155.133 33.8372 154.209 33.8372 154.209L34.9466 143.854C34.9466 143.854 35.3164 158.277 35.6862 159.571C36.4258 163.084 50.1087 179.726 50.6634 180.65C51.2181 181.575 53.8067 183.978 53.8067 184.903Z" fill="url(#paint24_linear_285_90654)"/>
<path d="M34.3919 134.794C34.3919 134.794 36.7957 126.104 36.7957 124.809C36.7957 123.515 34.5768 127.768 33.4674 127.028C32.358 126.289 31.8033 123.885 30.509 121.666C29.2146 119.447 28.2901 118.708 27.7354 119.262C27.5505 119.447 27.9203 121.481 27.9203 121.481C27.9203 121.481 26.2562 118.708 25.5166 119.077C24.777 119.262 25.8864 121.481 25.8864 121.481C25.8864 121.481 24.0374 119.817 23.6676 120.742C23.4827 121.666 24.4072 123.145 24.4072 123.145C24.4072 123.145 22.5581 123.145 23.1128 123.885C23.4827 124.624 29.5844 130.541 29.9542 133.13C30.3241 135.534 29.7693 137.383 29.7693 137.383L34.5768 137.937L34.3919 134.794Z" fill="#EF8B59"/>
<path d="M29.9542 137.568L28.8448 135.164L36.056 136.458L34.7617 138.122L29.9542 137.568Z" fill="#FFF9C5"/>
<path d="M52.6973 183.793C52.5124 183.793 52.5124 183.793 52.5124 183.608C52.5124 183.608 51.0332 181.759 48.4445 177.876C48.0747 177.322 47.52 176.582 46.9653 175.843C43.2673 170.665 36.4259 162.16 35.5014 160.681L31.9882 161.79H31.8033L31.6184 161.605L30.8788 159.386C30.8788 159.201 30.8788 159.201 30.8788 159.016L31.0637 158.831H34.9466C35.1315 158.831 35.3165 159.016 35.3165 159.201C35.3165 159.386 35.1315 159.571 34.9466 159.571H31.6184L32.1731 161.05L35.5014 159.941C35.6863 159.941 35.6863 159.941 35.8712 160.126C35.8712 160.311 43.4522 169.926 47.52 175.473C48.2596 176.397 48.6295 177.137 48.9993 177.692C51.5879 181.39 53.0671 183.239 53.0671 183.239C53.252 183.424 53.252 183.608 53.0671 183.608C52.6973 183.608 52.6973 183.793 52.6973 183.793Z" fill="#020023"/>
<path d="M57.3199 200.435H63.9764L64.1613 203.578H57.3199V200.435Z" fill="#FFBB24"/>
<path d="M46.5954 235.566C46.4105 235.566 46.4105 235.566 46.2256 235.566C45.1162 235.566 44.3766 235.196 44.0068 234.457C43.0823 232.978 44.1917 230.944 44.1917 230.759C44.1917 230.574 44.3766 230.574 44.5615 230.574C44.7464 230.574 44.7464 230.759 44.7464 230.944C44.7464 230.944 43.8219 232.793 44.5615 233.902C44.9313 234.457 45.486 234.642 46.2256 234.642C48.4445 234.827 50.6633 233.532 52.5123 232.423C53.8067 231.683 54.9161 231.128 55.8406 230.944C58.799 230.574 73.5912 231.313 74.3309 231.313C74.5158 231.313 74.7007 231.498 74.7007 231.683C74.7007 231.868 74.5158 232.053 74.3309 232.053C74.146 232.053 58.799 231.313 56.0255 231.683C55.101 231.868 53.9916 232.423 52.8821 233.162C50.8482 234.272 48.8143 235.566 46.5954 235.566Z" fill="#020023"/>
<path d="M46.4106 232.238C46.2257 232.238 46.0408 232.053 46.0408 232.053C46.0408 231.868 46.0408 231.683 46.2257 231.683C46.2257 231.683 50.1086 230.759 52.1426 226.136C54.1765 221.329 53.252 216.706 53.252 216.706C53.252 216.521 53.252 216.336 53.4369 216.336C53.6218 216.336 53.8067 216.336 53.8067 216.521C53.8067 216.706 54.7312 221.329 52.6973 226.321C50.8482 231.313 46.7804 232.238 46.4106 232.238C46.5955 232.238 46.5955 232.238 46.4106 232.238Z" fill="#020023"/>
<path d="M53.9916 230.019C53.8067 230.019 53.8067 230.019 53.6218 229.834C53.6218 229.649 53.6218 229.464 53.8067 229.464C53.8067 229.464 56.9501 228.17 58.2444 225.212C59.5387 222.253 60.2783 218.925 60.2783 218.925C60.2783 218.74 60.4632 218.555 60.6481 218.74C60.833 218.74 61.0179 218.925 60.833 219.11C60.833 219.11 60.2783 222.438 58.7991 225.581C57.5048 228.54 54.1765 229.834 53.9916 230.019Z" fill="#020023"/>
<path d="M112.791 434.337C112.791 434.337 111.496 433.782 112.051 431.748C112.606 429.714 113.345 427.865 113.345 427.865L105.949 427.495C105.949 427.495 104.1 437.48 106.689 438.774C108.353 439.329 110.572 435.631 112.791 434.337Z" fill="white"/>
<path d="M104.47 437.11C104.47 437.11 105.764 440.254 107.983 439.514C110.387 438.774 127.398 433.042 127.028 432.673C126.474 432.118 126.474 430.824 126.104 431.008C125.549 431.193 117.783 433.042 115.564 431.563C113.53 430.084 114.64 429.529 114.64 429.529L111.681 430.639C111.681 430.639 111.311 432.118 110.942 433.597C110.387 435.076 104.47 437.11 104.47 437.11Z" fill="#050023"/>
<path d="M91.5269 317.478C91.5269 317.478 93.191 334.119 97.0739 345.213C101.142 356.308 107.244 376.462 106.689 389.775C106.134 402.903 104.84 431.193 104.1 432.118C103.361 433.042 114.085 428.235 114.085 428.235C114.085 428.235 124.994 393.288 123.885 376.832C122.775 360.376 116.859 332.825 118.523 329.127C120.187 325.429 126.843 321.361 127.213 314.15C127.768 304.905 119.447 296.584 119.447 296.584C119.447 296.584 92.6363 312.116 91.5269 317.478Z" fill="url(#paint25_linear_285_90654)"/>
<path d="M113.53 308.048C113.53 308.048 110.757 313.225 107.244 316.554C103.73 319.882 101.512 327.278 101.512 331.531C101.512 335.783 112.236 367.402 112.976 369.621C113.715 372.024 120.187 373.319 118.892 374.058C117.598 374.798 110.572 378.496 112.236 378.126C113.9 377.756 119.817 377.756 118.153 379.236C116.489 380.715 109.832 384.043 111.311 384.413C112.791 384.783 118.523 385.152 115.934 386.447C113.345 387.741 111.681 406.971 111.496 414.182C111.311 421.393 114.27 428.42 114.27 428.42L104.655 432.488C104.47 432.672 104.1 432.488 104.1 432.118C104.47 426.756 106.689 387.926 106.134 383.303C105.579 378.311 96.1494 345.213 93.9305 338.187C91.3419 329.867 91.157 325.614 91.157 325.614C91.157 325.614 102.251 310.637 106.689 308.973C110.942 306.754 113.53 308.048 113.53 308.048Z" fill="url(#paint26_linear_285_90654)"/>
<path d="M22.4439 314.554L21.191 314.229L20.2624 317.809L21.5153 318.134L22.4439 314.554Z" fill="#FFB600"/>
<path d="M38.3347 320.429L37.082 320.104L36.5246 322.252L37.7774 322.577L38.3347 320.429Z" fill="#FFB600"/>
<path d="M47.8484 325.656L6.8606 315.024L0.0819454 341.156L41.0697 351.788L47.8484 325.656Z" fill="#FF3C00"/>
<path d="M49.1496 324.397L6.37201 313.301L2.37911 328.693L45.1567 339.79L49.1496 324.397Z" fill="#FF3C00"/>
<path d="M1.29431 335.968C1.29431 335.968 7.58101 338.372 20.894 338.927C32.358 339.297 44.0069 339.481 44.0069 339.481L3.14334 328.942L1.29431 335.968Z" fill="#CE2C00"/>
<path d="M27.51 331.877L22.6774 330.624L21.0988 336.709L25.9314 337.963L27.51 331.877Z" fill="#FFB600"/>
<path d="M22.9279 330.606C22.9279 330.606 22.5581 333.01 23.4826 335.044C24.4071 337.263 26.0713 337.632 26.0713 337.632L27.5505 331.716L22.9279 330.606Z" fill="white"/>
<path d="M41.0484 315.629L21.0789 310.452L19.7846 315.814L22.928 316.738L23.8525 313.41L37.1655 316.923L36.241 320.067L39.5692 320.991L41.0484 315.629Z" fill="#FF3C00"/>
<path d="M22.6973 318.126L22.4651 319.021L35.7101 322.457L35.9422 321.562L22.6973 318.126Z" fill="#FF3C00"/>
<path d="M121.296 300.837L123.7 271.067L128.877 296.214L121.296 300.837Z" fill="#020023"/>
<path d="M121.666 299.912C121.666 299.912 125.549 283.271 124.255 264.411C122.96 245.551 111.127 245.366 110.202 245.181C103.915 243.517 81.727 249.434 80.9874 252.577C79.1384 259.973 93.7457 272.732 97.2589 288.818C99.6626 299.727 90.0477 325.244 88.1986 328.018C87.459 329.127 87.6439 330.051 88.3835 330.236C90.6024 330.791 98.7381 325.614 105.21 311.746C106.134 309.712 107.983 311.376 112.051 308.603C113.345 307.678 114.455 306.384 115.379 305.275C118.338 301.946 121.666 299.912 121.666 299.912Z" fill="url(#paint27_linear_285_90654)"/>
<path opacity="0.32" d="M101.327 309.897C101.327 309.897 109.277 290.852 110.942 280.498C112.606 270.143 109.277 260.713 108.168 258.309C107.059 255.905 107.059 251.653 107.059 251.653L101.696 250.358L96.3343 251.283C96.1494 251.098 101.142 305.829 101.327 309.897Z" fill="#00898D"/>
<path d="M94.1155 247.03C94.1155 247.03 97.0739 235.566 96.5192 231.868C95.9645 228.17 94.3004 220.404 100.032 218.185C105.764 215.966 108.538 221.329 109.278 223.547C110.017 225.766 111.681 231.868 111.311 231.868C110.942 232.053 109.462 231.313 109.462 231.313C109.462 231.313 110.387 235.196 108.908 236.676C107.428 238.155 105.21 238.155 105.21 238.155C105.21 238.155 104.1 243.887 104.655 245.366C105.21 247.03 107.613 250.358 107.613 250.358C107.613 250.358 96.3343 252.762 94.1155 247.03Z" fill="#FFB68E"/>
<path d="M93.0061 246.475C93.0061 246.475 103.73 256.275 107.244 263.671C110.757 271.067 103.176 310.452 98.7381 315.999C96.3343 318.957 92.8212 321.546 90.2325 323.21C88.7533 324.135 87.0892 323.395 87.2741 321.731C88.0137 313.04 89.1231 291.777 87.6439 280.313C85.9798 265.52 78.5837 256.275 81.5421 251.283C84.5005 246.29 93.0061 246.475 93.0061 246.475Z" fill="#19437F"/>
<path d="M105.949 244.257C105.949 244.257 112.606 255.536 117.783 261.268C122.96 267 128.877 296.214 128.877 296.214L130.172 295.105C130.172 295.105 126.658 260.343 124.624 254.056C122.591 247.77 114.27 243.702 111.866 244.072C109.647 244.072 105.949 244.257 105.949 244.257Z" fill="#19437F"/>
<path d="M86.9042 322.655C86.7193 323.765 88.0136 324.689 89.1231 324.135C92.6362 322.47 98.738 318.587 100.772 312.116C103.361 303.056 103.361 277.909 101.512 271.437C99.6625 264.966 98.738 264.411 98.738 264.411L102.806 262.747L97.6286 261.453C97.6286 261.453 97.4437 259.234 93.9305 255.721C90.4174 252.207 85.0552 248.694 85.0552 248.694C85.0552 248.694 79.3232 249.619 81.9118 257.57C84.5005 265.335 87.274 279.388 87.8287 284.565C88.0136 289.003 87.8287 313.78 86.9042 322.655Z" fill="url(#paint28_linear_285_90654)"/>
<path d="M112.051 243.887C112.051 243.887 120.372 253.687 121.481 255.166C122.59 256.46 118.708 257.2 118.708 257.2L122.59 257.57C122.59 257.57 124.809 262.007 125.919 265.705C127.028 269.218 127.028 282.531 127.028 282.531L129.062 296.399L131.466 294.735C131.466 294.735 128.507 260.898 125.364 253.317C122.221 245.921 117.783 244.257 116.489 244.072C115.194 243.702 112.051 243.887 112.051 243.887Z" fill="url(#paint29_linear_285_90654)"/>
<path d="M121.851 256.275C121.851 256.275 151.62 255.721 153.284 249.804C154.948 243.887 175.288 209.68 173.624 208.385C171.59 206.906 169.741 206.721 170.48 206.536L168.077 205.242C168.077 205.242 142.93 240.559 142.56 241.668C142.375 242.962 120.002 241.853 112.791 243.887C112.976 243.887 120.926 255.905 121.851 256.275Z" fill="url(#paint30_linear_285_90654)"/>
<path d="M83.2062 249.249C83.2062 249.249 49.369 269.958 43.2672 283.086C37.1654 296.214 33.6523 304.35 33.6523 304.35L39.939 308.233C39.939 308.233 50.1086 289.373 58.0595 281.607C66.0103 273.841 85.61 265.705 88.0137 260.898C90.2325 256.275 83.2062 249.249 83.2062 249.249Z" fill="url(#paint31_linear_285_90654)"/>
<path d="M33.4673 304.535C33.4673 304.535 40.3087 301.946 43.637 296.769C48.6294 289.003 51.4029 286.599 50.2935 285.675C48.9992 284.75 47.52 281.977 49.1841 282.347C50.6633 282.716 55.101 284.75 54.7312 283.456C54.3614 282.162 49.5539 278.279 51.7727 278.648C53.9916 279.018 57.6896 281.237 57.1349 280.128C56.7651 279.018 53.6217 274.581 56.2104 276.245C58.799 277.909 64.531 272.916 69.5234 269.773C74.5158 266.815 83.0213 255.536 83.0213 255.536C83.0213 255.536 85.9797 263.302 83.576 264.781C76.7346 269.218 62.3122 277.354 57.8745 281.607C53.4368 285.675 39.754 308.233 39.754 308.233L33.4673 304.535Z" fill="#020023"/>
<path d="M126.289 256.83C126.289 256.83 124.624 254.056 122.591 250.913C120.741 248.139 118.523 245.921 118.523 245.921C118.523 245.921 130.172 249.804 134.054 250.173C137.937 250.543 146.813 251.283 148.847 250.913C150.881 250.543 149.217 248.509 147.737 246.66C146.258 244.811 150.141 247.585 151.435 247.955C152.73 248.14 146.628 242.777 147.922 242.592C149.217 242.592 154.209 245.921 153.839 244.811C153.469 243.702 149.032 240.558 149.771 240.743C150.511 240.928 153.469 240.928 153.469 240.928C153.469 240.928 173.069 212.083 171.59 209.68C170.111 207.276 166.597 207.461 166.597 207.461L168.077 204.687C169.741 205.057 174.918 207.831 174.918 207.831C174.918 207.831 172.699 212.823 170.48 219.664C167.707 228.17 156.982 248.509 156.428 250.358C155.688 253.871 133.315 257.754 126.289 256.83Z" fill="#020023"/>
<path d="M38.6447 307.678C38.6447 307.678 38.8296 311.746 37.7202 315.074C36.7957 318.403 35.8711 317.663 35.8711 315.259C35.8711 313.04 35.5013 311.746 35.5013 311.746C35.5013 311.746 34.0221 313.41 33.8372 314.889C33.6523 315.629 35.3164 316.184 34.9466 316.369C33.4674 317.848 31.0637 315.814 31.0637 315.814C31.0637 315.814 30.509 317.108 29.7694 317.108C28.1052 317.108 28.8448 315.074 28.8448 315.074C28.8448 315.074 27.7354 316.554 27.1807 315.259C26.626 313.965 26.8109 313.965 26.8109 313.965C26.8109 313.965 23.6676 317.478 23.4827 315.629C23.2978 313.78 33.4674 304.165 33.4674 304.165L38.6447 307.678Z" fill="#FFB68E"/>
<path d="M105.949 244.257L105.395 244.996C105.395 244.996 115.01 257.57 117.413 261.453C121.296 267.739 121.666 269.773 122.96 273.101C123.33 274.026 124.44 278.279 124.44 278.279L128.692 296.029C128.692 296.029 127.213 276.245 121.296 266.075C119.077 261.822 105.949 244.257 105.949 244.257Z" fill="#020023"/>
<path d="M87.8289 299.173L95.0401 296.214L95.4099 293.626L87.8289 297.139V299.173Z" fill="#020023"/>
<path d="M105.764 264.041H105.579L97.0738 261.637V261.452C97.0738 261.452 96.5191 259.973 93.3758 255.905C90.2324 251.838 84.5005 248.879 84.5005 248.879C84.3156 248.879 84.3156 248.694 84.3156 248.509C84.3156 248.324 84.5005 248.324 84.6854 248.324C84.6854 248.324 90.6023 251.283 93.7456 255.351C96.5191 258.864 97.2588 260.528 97.4437 260.898L105.764 263.302C105.949 263.671 105.949 263.671 105.764 264.041C105.949 264.041 105.949 263.856 105.764 264.041Z" fill="#020023"/>
<path d="M102.621 295.29C102.251 295.29 102.251 295.29 102.251 295.105C102.251 294.92 102.991 285.675 101.881 277.909C100.772 269.958 98.5532 264.411 98.5532 264.411C98.5532 264.226 98.5532 264.041 98.7381 264.041C98.923 264.041 99.1079 264.041 99.1079 264.226C99.1079 264.226 101.512 269.958 102.621 277.909C103.546 285.675 102.806 295.105 102.621 295.29C102.806 295.29 102.806 295.105 102.621 295.29Z" fill="#020023"/>
<path d="M121.481 256.275C120.741 256.83 119.262 257.385 118.708 257.385C118.523 257.385 118.523 257.385 118.338 257.2C118.338 257.015 118.338 257.015 118.523 256.83C120.002 256.46 121.296 255.905 121.296 255.536C120.741 254.796 113.16 245.551 112.976 245.551C112.976 245.366 112.976 245.366 112.976 245.181C113.16 245.181 113.16 245.181 113.345 245.181C113.715 245.551 121.111 254.611 121.666 255.166C121.851 255.351 121.851 255.536 121.666 255.721C121.851 255.905 121.666 256.09 121.481 256.275Z" fill="#020023"/>
<path d="M127.213 277.909C127.028 278.094 127.213 278.094 127.213 277.909C126.843 277.909 126.843 277.909 126.843 277.724C126.843 277.724 126.474 270.883 125.734 266.815C124.994 262.747 122.406 258.124 122.406 257.939C122.406 257.754 122.406 257.57 122.591 257.57C122.775 257.57 122.96 257.57 122.96 257.754C122.96 257.754 125.549 262.562 126.289 266.63C127.028 270.698 127.398 277.539 127.398 277.724C127.213 277.909 127.213 277.909 127.213 277.909Z" fill="#020023"/>
<path d="M95.7796 236.676C95.7796 236.676 98.3682 234.457 99.1078 232.238C99.8474 230.019 100.032 228.725 99.4776 227.985C98.3682 226.136 98.738 222.438 99.6625 223.178C100.587 224.102 100.772 226.876 101.327 225.951C101.881 225.212 100.957 221.698 102.806 220.404C104.655 219.11 106.319 220.589 108.538 219.665C110.942 218.74 112.606 217.631 113.715 216.706C115.564 215.227 115.009 210.789 113.16 211.344C108.908 212.823 107.983 207.276 102.251 210.604C96.3343 214.117 93.5607 218.74 94.3003 220.589C95.0399 222.438 96.3343 221.883 94.4852 222.253C92.6362 222.623 91.8966 223.917 92.2664 225.396C92.8211 228.725 96.3343 232.608 95.7796 236.676Z" fill="#172755"/>
<path d="M91.8966 245.366C92.0815 245.181 94.8551 245.551 98.738 246.475C102.621 247.585 104.47 248.324 104.47 248.324C104.47 248.324 105.395 249.989 106.319 250.728C107.428 251.468 107.059 251.468 107.059 251.468C107.059 251.468 106.319 252.207 105.764 252.022C105.21 251.838 103.915 250.913 103.915 250.913L102.991 253.687C102.991 253.687 99.2927 252.392 95.5947 250.358C92.8211 248.879 88.9382 246.845 88.9382 246.845L91.8966 245.366Z" fill="url(#paint32_linear_285_90654)"/>
<path d="M104.47 243.887L107.613 243.332C107.613 243.332 109.278 244.441 109.832 246.475C110.387 248.509 109.647 251.098 109.647 251.098C109.647 251.098 107.983 249.434 107.798 249.804C107.613 249.989 107.798 250.913 107.798 250.913C107.798 250.913 104.84 246.66 104.655 245.736C104.47 244.626 104.47 243.887 104.47 243.887Z" fill="url(#paint33_linear_285_90654)"/>
<path d="M105.21 238.155L101.327 236.306C101.327 236.306 101.881 240.743 102.436 243.147C102.991 245.366 105.395 246.845 105.395 246.845C105.395 246.845 104.655 245.921 104.655 244.257C104.47 242.777 105.21 238.155 105.21 238.155Z" fill="#EF8B59"/>
<path d="M99.6626 228.725C99.6626 228.725 97.0739 227.43 95.4098 225.766C93.7457 224.102 93.3759 222.623 93.3759 222.623C93.3759 222.623 91.5268 223.363 92.0815 225.581C92.8211 227.985 94.8551 231.313 95.4098 233.162C95.9645 235.011 95.7796 236.491 95.7796 236.491C95.7796 236.491 100.587 232.977 99.6626 228.725Z" fill="#020023"/>
<path d="M168.631 204.687C168.631 204.687 179.541 189.156 180.835 188.971C182.129 188.786 178.246 194.703 178.246 194.703C178.246 194.703 180.465 196.182 180.465 198.401C180.465 200.62 179.91 203.948 178.801 203.948C177.692 203.948 177.692 204.687 176.582 205.427C175.473 206.167 174.178 207.091 174.178 207.091L168.631 204.687Z" fill="#FFB68E"/>
<path d="M172.329 206.351C172.329 206.351 173.993 203.763 175.103 203.023C176.212 202.284 180.835 202.284 180.28 201.359C179.725 200.435 177.137 200.065 177.137 199.695C177.137 199.325 178.431 194.518 178.431 194.518C178.431 194.518 181.39 194.518 181.205 198.216C181.02 201.914 180.835 203.948 179.91 204.318C178.986 204.687 178.246 204.318 178.246 204.318L174.178 206.906L172.329 206.351Z" fill="#EF8B59"/>
<path d="M121.666 299.912C125.364 295.844 165.488 279.018 170.48 284.565C175.473 290.112 177.692 338.557 177.692 338.557L168.446 343.18C168.446 343.18 166.967 333.565 164.563 322.84C161.05 305.644 160.865 303.241 160.865 303.241C157.907 302.316 115.379 327.833 115.379 327.833C115.379 327.833 117.413 304.535 121.666 299.912Z" fill="#19437F"/>
<path d="M118.708 328.942C117.413 329.497 121.481 323.765 120.002 318.033C118.338 312.301 118.338 308.048 118.338 308.603C118.153 309.157 122.96 315.814 123.7 315.074C124.44 314.15 130.726 306.569 150.511 297.139C158.831 293.256 160.496 294.55 161.235 294.365C161.975 294.18 167.892 287.524 166.967 289.373C166.228 291.222 162.529 298.433 163.454 297.693C164.379 296.954 168.631 294.18 167.152 296.769C165.673 299.358 162.529 304.72 163.824 303.98C165.118 303.241 167.707 301.946 166.967 303.795C166.043 305.644 169.556 322.84 171.405 327.278C173.254 331.716 177.876 338.742 177.876 338.742L168.631 343.364C168.631 343.364 161.42 304.35 159.201 303.98C155.873 303.425 130.911 318.218 127.768 320.621C125.179 322.655 123.885 326.538 118.708 328.942Z" fill="url(#paint34_linear_285_90654)"/>
<path d="M180.095 345.029C180.095 345.029 178.616 345.213 178.061 343.18C177.507 341.146 177.322 339.112 177.322 339.112L170.665 342.255C170.665 342.255 173.993 351.87 176.767 351.685C178.616 351.5 178.616 347.247 180.095 345.029Z" fill="white"/>
<path d="M174.178 351.5C174.178 351.5 176.767 353.719 178.431 351.87C180.095 350.206 192.299 336.708 191.559 336.523C190.82 336.338 190.265 335.229 189.895 335.599C189.525 335.968 183.608 341.515 181.02 341.146C178.431 340.776 177.691 338.927 177.691 338.927L175.103 341.885C175.103 341.885 177.691 343.734 178.061 345.213C178.246 346.693 174.178 351.5 174.178 351.5Z" fill="#050023"/>
<path d="M88.9382 330.051C88.5684 330.051 88.3835 330.051 88.3835 329.867C88.3835 329.682 88.5684 329.497 88.7533 329.497C88.7533 329.497 91.157 329.127 95.9645 324.874C99.1079 321.916 102.066 316.738 103.73 313.595C104.84 311.746 105.21 310.822 105.579 310.637C105.764 310.452 106.319 310.452 106.874 310.267C108.723 309.712 111.681 308.973 113.16 307.124C114.64 305.275 116.489 303.795 117.783 302.871C118.153 302.501 118.708 302.131 118.892 301.946C120.187 300.837 121.481 299.912 121.481 299.912C121.666 299.727 121.851 299.912 121.851 299.912C122.036 300.097 121.851 300.282 121.851 300.282C121.851 300.282 120.557 301.207 119.262 302.316C118.892 302.686 118.523 302.871 117.968 303.241C116.674 304.165 115.009 305.644 113.345 307.493C111.681 309.342 108.723 310.267 106.874 310.822C106.319 311.007 105.764 311.191 105.579 311.191C105.395 311.376 104.655 312.671 104.1 313.78C102.436 316.923 99.4777 322.286 96.1494 325.244C92.0815 329.127 89.6778 329.867 88.9382 330.051Z" fill="#020023"/>
<path d="M95.7796 334.304L94.8551 331.161L95.04 330.976C95.04 330.976 100.217 327.648 102.621 325.799C105.025 323.95 105.395 323.21 105.395 323.21L105.764 322.655L107.059 325.799L106.874 325.984C106.874 325.984 103.915 328.757 101.881 330.606C99.6626 332.455 96.1494 334.119 96.1494 334.304H95.7796ZM95.5947 331.346L96.1494 333.38C97.0739 332.825 99.6626 331.531 101.512 330.051C103.361 328.572 105.764 326.168 106.319 325.614L105.764 323.95C105.395 324.319 104.655 325.059 103.176 326.353C100.957 328.018 96.5192 330.791 95.5947 331.346Z" fill="#020023"/>
<path d="M115.749 385.707C114.825 385.892 113.715 385.892 111.866 385.337C107.798 384.228 106.504 383.303 106.504 383.303H106.319V383.119C106.319 383.119 105.579 379.42 104.655 376.092C103.73 372.764 95.5947 344.104 93.7457 338.002C91.8966 331.9 91.7117 328.572 91.7117 328.387C91.7117 328.202 91.8966 328.018 92.0815 328.018C92.2664 328.018 92.4513 328.202 92.4513 328.387C92.4513 328.387 92.6362 331.9 94.4853 337.817C96.3343 344.104 104.47 372.579 105.395 375.907C106.134 379.051 106.874 382.194 107.059 382.934C107.428 383.119 108.908 383.858 112.051 384.783C115.749 385.892 116.859 384.598 116.859 384.598C117.043 384.413 117.228 384.413 117.228 384.598C117.413 384.783 117.413 384.968 117.228 384.968C117.228 384.968 116.859 385.522 115.749 385.707Z" fill="#020023"/>
<path d="M115.564 379.975C113.161 379.605 107.429 378.866 107.059 377.941C107.059 377.756 107.059 377.571 107.059 377.571C107.429 376.647 114.64 374.428 117.598 373.319C117.783 373.319 117.968 373.319 117.968 373.504C117.968 373.689 117.968 373.873 117.783 373.873C113.345 375.353 108.538 377.017 107.798 377.571C108.538 377.941 112.236 378.681 115.564 379.236C115.749 379.236 115.934 379.421 115.749 379.605C115.934 379.79 115.749 379.79 115.564 379.975Z" fill="#020023"/>
<path d="M115.468 370.524L108.903 374.315L109.18 374.795L115.746 371.004L115.468 370.524Z" fill="#020023"/>
<path d="M104.47 432.118C104.285 432.118 104.1 431.933 104.1 431.748L104.47 426.386L114.085 423.797C114.27 423.797 114.455 423.797 114.455 423.982C114.455 424.167 114.455 424.352 114.27 424.352L105.025 426.756L104.655 431.563C104.655 432.118 104.655 432.118 104.47 432.118Z" fill="#020023"/>
<path d="M118.892 329.312C118.708 329.312 118.708 329.312 118.892 329.312C118.523 329.312 118.523 329.127 118.523 328.942C118.523 328.942 119.262 325.799 120.002 322.286C120.557 319.697 120.002 318.033 119.447 316.738C119.262 316.369 119.077 315.999 119.077 315.629C118.708 314.335 117.968 308.788 117.968 308.603C117.968 308.418 118.153 308.233 118.153 308.233C118.338 308.233 118.523 308.418 118.523 308.418C118.523 308.418 119.262 313.965 119.632 315.444C119.632 315.814 119.817 315.999 120.002 316.369C120.557 317.663 121.111 319.327 120.557 322.286C119.817 325.799 119.077 328.942 119.077 328.942C119.077 329.312 118.892 329.312 118.892 329.312Z" fill="#020023"/>
<path d="M118.892 329.312C118.708 329.312 118.523 329.312 118.523 329.127C118.523 328.942 118.523 328.757 118.708 328.757C118.708 328.757 123.145 327.093 125.364 323.025C126.843 320.252 129.247 318.957 133.87 316.369C136.273 315.074 139.417 313.41 143.3 311.006C150.881 306.384 154.579 304.905 156.798 304.165C157.722 303.795 158.462 303.425 159.201 303.056C160.68 302.131 163.084 295.105 163.824 292.516C163.824 292.331 164.009 292.331 164.194 292.331C164.379 292.331 164.379 292.516 164.379 292.701C164.009 293.626 161.42 302.316 159.386 303.61C158.647 303.98 157.907 304.35 156.798 304.72C154.579 305.644 150.881 306.939 143.3 311.561C139.232 313.965 136.273 315.629 133.685 316.923C129.062 319.327 126.843 320.621 125.364 323.21C123.515 327.648 119.077 329.312 118.892 329.312Z" fill="#020023"/>
<path d="M162.53 305.09C161.79 305.274 161.79 305.09 161.605 304.905C161.235 304.35 162.899 301.207 166.413 295.475C166.597 295.29 166.782 295.29 166.782 295.29C166.967 295.475 166.967 295.66 166.967 295.66C164.564 299.173 162.345 303.241 162.16 304.165C162.899 304.165 166.043 302.686 168.446 301.207C168.631 301.207 168.816 301.207 168.816 301.392C168.816 301.576 168.816 301.761 168.631 301.761C165.118 304.35 163.454 304.905 162.53 305.09Z" fill="#020023"/>
<path d="M168.446 343.734L167.707 337.632L171.035 335.968L177.877 333.38L178.246 338.927H178.061C178.061 338.927 176.582 339.666 175.288 340.406C173.994 341.146 169.186 343.549 169.001 343.734H168.446ZM168.262 338.002L168.816 342.81C170.111 342.255 173.624 340.406 174.733 339.666C175.658 339.112 176.952 338.557 177.322 338.372L177.137 334.119L171.035 336.338L168.262 338.002Z" fill="#020023"/>
</g>
<defs>
<linearGradient id="paint0_linear_285_90654" x1="280.59" y1="379.343" x2="240.602" y2="299.071" gradientUnits="userSpaceOnUse">
<stop offset="0.0892857" stop-color="#9CD9C7"/>
<stop offset="0.8737" stop-color="#DAFFC8"/>
</linearGradient>
<linearGradient id="paint1_linear_285_90654" x1="170.057" y1="378.427" x2="191.897" y2="338.241" gradientUnits="userSpaceOnUse">
<stop offset="0.0892857" stop-color="#9CD9C7"/>
<stop offset="0.8737" stop-color="#DAFFC8"/>
</linearGradient>
<linearGradient id="paint2_linear_285_90654" x1="321.397" y1="321.685" x2="294.468" y2="267.629" gradientUnits="userSpaceOnUse">
<stop offset="0.0892857" stop-color="#9CD9C7"/>
<stop offset="0.8737" stop-color="#DAFFC8"/>
</linearGradient>
<linearGradient id="paint3_linear_285_90654" x1="412.107" y1="240.375" x2="418.446" y2="208.989" gradientUnits="userSpaceOnUse">
<stop offset="0.0615079" stop-color="white"/>
<stop offset="0.4255" stop-color="white"/>
<stop offset="1" stop-color="white"/>
</linearGradient>
<linearGradient id="paint4_linear_285_90654" x1="293.667" y1="273.82" x2="302.045" y2="232.342" gradientUnits="userSpaceOnUse">
<stop offset="0.0615079" stop-color="white"/>
<stop offset="0.4255" stop-color="white"/>
<stop offset="1" stop-color="white"/>
</linearGradient>
<linearGradient id="paint5_linear_285_90654" x1="166.325" y1="380.579" x2="187.078" y2="342.391" gradientUnits="userSpaceOnUse">
<stop offset="0.0892857" stop-color="#9CD9C7"/>
<stop offset="0.8737" stop-color="#DAFFC8"/>
</linearGradient>
<linearGradient id="paint6_linear_285_90654" x1="154.292" y1="386.927" x2="173.728" y2="351.163" gradientUnits="userSpaceOnUse">
<stop offset="0.0892857" stop-color="#9CD9C7"/>
<stop offset="0.8737" stop-color="#DAFFC8"/>
</linearGradient>
<linearGradient id="paint7_linear_285_90654" x1="318.364" y1="332.661" x2="285.269" y2="315.109" gradientUnits="userSpaceOnUse">
<stop offset="0.1687" stop-color="#E0F3F4"/>
<stop offset="0.7907" stop-color="#4D98A0"/>
</linearGradient>
<linearGradient id="paint8_linear_285_90654" x1="340.586" y1="284.572" x2="317.919" y2="301.239" gradientUnits="userSpaceOnUse">
<stop offset="0.0615079" stop-color="white"/>
<stop offset="1" stop-color="white"/>
</linearGradient>
<linearGradient id="paint9_linear_285_90654" x1="83.628" y1="475.833" x2="87.8397" y2="425.365" gradientUnits="userSpaceOnUse">
<stop offset="0.0892857" stop-color="#9CD9C7"/>
<stop offset="0.8737" stop-color="#DAFFC8"/>
</linearGradient>
<linearGradient id="paint10_linear_285_90654" x1="59.2503" y1="419.352" x2="32.9141" y2="352.22" gradientUnits="userSpaceOnUse">
<stop offset="0.2492" stop-color="#9CD9C7"/>
<stop offset="0.6206" stop-color="#DAFFC8"/>
</linearGradient>
<linearGradient id="paint11_linear_285_90654" x1="302.754" y1="63.1137" x2="251.285" y2="99.729" gradientUnits="userSpaceOnUse">
<stop offset="0.1072" stop-color="#FFFFA4"/>
<stop offset="0.4147" stop-color="#FFD234"/>
<stop offset="0.7979" stop-color="#FF9200"/>
</linearGradient>
<linearGradient id="paint12_linear_285_90654" x1="252.583" y1="69.9895" x2="253.168" y2="127.228" gradientUnits="userSpaceOnUse">
<stop offset="0.1072" stop-color="#FFFFA4"/>
<stop offset="0.4147" stop-color="#FFD234"/>
<stop offset="0.7979" stop-color="#FF9200"/>
</linearGradient>
<linearGradient id="paint13_linear_285_90654" x1="179.458" y1="95.1787" x2="242.949" y2="102.38" gradientUnits="userSpaceOnUse">
<stop offset="0.121" stop-color="#0A2D51"/>
<stop offset="0.8552" stop-color="#19437F"/>
<stop offset="1" stop-color="#0A2D51"/>
</linearGradient>
<linearGradient id="paint14_linear_285_90654" x1="240.524" y1="91.644" x2="203.027" y2="109.694" gradientUnits="userSpaceOnUse">
<stop offset="0.1072" stop-color="#FFFFA4"/>
<stop offset="0.4147" stop-color="#FFD234"/>
<stop offset="0.7979" stop-color="#FF9200"/>
</linearGradient>
<linearGradient id="paint15_linear_285_90654" x1="143.433" y1="106.927" x2="177.928" y2="110.84" gradientUnits="userSpaceOnUse">
<stop offset="0.121" stop-color="#0A2D51"/>
<stop offset="0.8552" stop-color="#19437F"/>
<stop offset="1" stop-color="#0A2D51"/>
</linearGradient>
<linearGradient id="paint16_linear_285_90654" x1="151.723" y1="104.937" x2="179.81" y2="108.123" gradientUnits="userSpaceOnUse">
<stop offset="0.121" stop-color="#0A2D51"/>
<stop offset="0.8552" stop-color="#19437F"/>
<stop offset="1" stop-color="#0A2D51"/>
</linearGradient>
<linearGradient id="paint17_linear_285_90654" x1="147.238" y1="104.938" x2="165.764" y2="107.039" gradientUnits="userSpaceOnUse">
<stop offset="0.121" stop-color="#0A2D51"/>
<stop offset="0.8552" stop-color="#19437F"/>
<stop offset="1" stop-color="#0A2D51"/>
</linearGradient>
<linearGradient id="paint18_linear_285_90654" x1="168.322" y1="103.262" x2="180.109" y2="104.599" gradientUnits="userSpaceOnUse">
<stop offset="0.121" stop-color="#0A2D51"/>
<stop offset="0.8552" stop-color="#19437F"/>
<stop offset="1" stop-color="#0A2D51"/>
</linearGradient>
<linearGradient id="paint19_linear_285_90654" x1="169.023" y1="77.5385" x2="246.82" y2="86.3627" gradientUnits="userSpaceOnUse">
<stop offset="0.121" stop-color="#0A2D51"/>
<stop offset="0.8552" stop-color="#19437F"/>
<stop offset="1" stop-color="#0A2D51"/>
</linearGradient>
<linearGradient id="paint20_linear_285_90654" x1="321.77" y1="58.1798" x2="323.974" y2="59.6157" gradientUnits="userSpaceOnUse">
<stop offset="0.121" stop-color="#0A2D51"/>
<stop offset="0.8552" stop-color="#19437F"/>
<stop offset="1" stop-color="#0A2D51"/>
</linearGradient>
<linearGradient id="paint21_linear_285_90654" x1="65.357" y1="165.875" x2="90.421" y2="165.875" gradientUnits="userSpaceOnUse">
<stop offset="0.0892857" stop-color="#9CD9C7"/>
<stop offset="0.8737" stop-color="#DAFFC8"/>
</linearGradient>
<linearGradient id="paint22_linear_285_90654" x1="89.2341" y1="222.069" x2="49.3437" y2="301.984" gradientUnits="userSpaceOnUse">
<stop offset="0.1072" stop-color="#FFFFA4"/>
<stop offset="0.4147" stop-color="#FFD234"/>
<stop offset="0.7979" stop-color="#FF9200"/>
</linearGradient>
<linearGradient id="paint23_linear_285_90654" x1="47.5023" y1="206.702" x2="74.3632" y2="206.702" gradientUnits="userSpaceOnUse">
<stop offset="0.0892857" stop-color="#9CD9C7"/>
<stop offset="0.8737" stop-color="#DAFFC8"/>
</linearGradient>
<linearGradient id="paint24_linear_285_90654" x1="29.37" y1="164.414" x2="53.7834" y2="164.414" gradientUnits="userSpaceOnUse">
<stop offset="0.0892857" stop-color="#9CD9C7"/>
<stop offset="0.8737" stop-color="#DAFFC8"/>
</linearGradient>
<linearGradient id="paint25_linear_285_90654" x1="88.0566" y1="370.705" x2="139.703" y2="357.101" gradientUnits="userSpaceOnUse">
<stop offset="0.121" stop-color="#0A2D51"/>
<stop offset="0.8552" stop-color="#19437F"/>
<stop offset="1" stop-color="#0A2D51"/>
</linearGradient>
<linearGradient id="paint26_linear_285_90654" x1="89.1115" y1="374.689" x2="128.392" y2="364.343" gradientUnits="userSpaceOnUse">
<stop offset="0.121" stop-color="#0A2D51"/>
<stop offset="1" stop-color="#0A2D51"/>
</linearGradient>
<linearGradient id="paint27_linear_285_90654" x1="77.9488" y1="291.953" x2="128.736" y2="278.576" gradientUnits="userSpaceOnUse">
<stop offset="0.0892857" stop-color="#9CD9C7"/>
<stop offset="0.8737" stop-color="#DAFFC8"/>
</linearGradient>
<linearGradient id="paint28_linear_285_90654" x1="92.254" y1="301.51" x2="91.1981" y2="231.327" gradientUnits="userSpaceOnUse">
<stop offset="0.121" stop-color="#0A2D51"/>
<stop offset="0.4862" stop-color="#19437F"/>
</linearGradient>
<linearGradient id="paint29_linear_285_90654" x1="118.951" y1="270.429" x2="129.102" y2="267.755" gradientUnits="userSpaceOnUse">
<stop offset="0.121" stop-color="#0A2D51"/>
<stop offset="1" stop-color="#0A2D51"/>
</linearGradient>
<linearGradient id="paint30_linear_285_90654" x1="112.27" y1="241.294" x2="177.88" y2="224.013" gradientUnits="userSpaceOnUse">
<stop offset="0.121" stop-color="#0A2D51"/>
<stop offset="1" stop-color="#0A2D51"/>
</linearGradient>
<linearGradient id="paint31_linear_285_90654" x1="47.6186" y1="286.787" x2="106.723" y2="252.979" gradientUnits="userSpaceOnUse">
<stop offset="0.121" stop-color="#0A2D51"/>
<stop offset="0.4862" stop-color="#19437F"/>
</linearGradient>
<linearGradient id="paint32_linear_285_90654" x1="89.1388" y1="249.487" x2="106.984" y2="249.487" gradientUnits="userSpaceOnUse">
<stop offset="0.0892857" stop-color="#9CD9C7"/>
<stop offset="0.8737" stop-color="#DAFFC8"/>
</linearGradient>
<linearGradient id="paint33_linear_285_90654" x1="104.436" y1="247.014" x2="109.924" y2="247.014" gradientUnits="userSpaceOnUse">
<stop offset="0.0892857" stop-color="#9CD9C7"/>
<stop offset="0.8737" stop-color="#DAFFC8"/>
</linearGradient>
<linearGradient id="paint34_linear_285_90654" x1="118.552" y1="329.077" x2="173.924" y2="314.493" gradientUnits="userSpaceOnUse">
<stop offset="0.121" stop-color="#0A2D51"/>
<stop offset="1" stop-color="#0A2D51"/>
</linearGradient>
<clipPath id="clip0_285_90654">
<rect width="485" height="519.207" fill="white"/>
</clipPath>
</defs>
</svg>
