<svg width="140" height="125" viewBox="0 0 140 125" fill="none" xmlns="http://www.w3.org/2000/svg">
<g clip-path="url(#clip0_284_61874)">
<g opacity="0.3">
<path d="M51.8867 104.026H84.5994C87.7778 104.026 90.3205 101.561 90.3205 98.5848V28.6403C90.3205 25.6174 87.7289 23.1991 84.5994 23.1991H51.8867C48.7083 23.1526 46.1167 25.6174 46.1167 28.6403V98.5848C46.1167 101.561 48.7083 104.026 51.8867 104.026Z" fill="black"/>
</g>
<path d="M51.5444 101.98H81.6656C85.5774 101.98 88.7069 98.9569 88.7069 95.283V22.2691C88.7069 18.5486 85.5285 15.5723 81.6656 15.5723H51.5444C47.6326 15.5723 44.5031 18.5951 44.5031 22.2691V95.283C44.5031 98.9569 47.6815 101.98 51.5444 101.98Z" fill="white"/>
<path d="M53.3536 15.5259H79.8563C84.6972 15.5259 88.658 19.2463 88.658 23.8969V49.0099C88.658 55.7068 82.9369 61.1479 75.8956 61.1479H57.3144C50.2731 61.1479 44.552 55.7068 44.552 49.0099V23.8969C44.552 19.2463 48.5127 15.5259 53.3536 15.5259Z" fill="#F5F5F5"/>
<path d="M81.1766 37.709H50.6643C48.8061 37.709 47.2414 36.2674 47.2414 34.4536V32.7329C47.2414 30.9657 48.7572 29.4775 50.6643 29.4775H81.1766C83.0347 29.4775 84.5994 30.9192 84.5994 32.7329V34.4536C84.5505 36.2674 83.0347 37.709 81.1766 37.709Z" fill="#E0E0E0"/>
<path d="M78.2916 22.4084C78.7317 22.4084 79.1229 22.7805 79.1229 23.199C79.1229 23.6176 78.7317 23.9896 78.2916 23.9896C77.8515 23.9896 77.4603 23.6176 77.4603 23.199C77.4603 22.7805 77.8515 22.4084 78.2916 22.4084Z" fill="#263238"/>
<path d="M80.6876 22.4084C81.1277 22.4084 81.5189 22.7805 81.5189 23.199C81.5189 23.6176 81.1277 23.9896 80.6876 23.9896C80.2475 23.9896 79.8563 23.6176 79.8563 23.199C79.8563 22.7805 80.1986 22.4084 80.6876 22.4084Z" fill="#263238"/>
<path d="M83.0836 23.9896C83.5427 23.9896 83.9149 23.6357 83.9149 23.199C83.9149 22.7624 83.5427 22.4084 83.0836 22.4084C82.6245 22.4084 82.2523 22.7624 82.2523 23.199C82.2523 23.6357 82.6245 23.9896 83.0836 23.9896Z" fill="#263238"/>
<path d="M50.0774 22.0365C49.7352 22.3621 49.3929 22.6876 49.0506 23.0131C48.9528 23.1062 48.9039 23.3387 49.0506 23.4317C49.3929 23.7107 49.7352 23.9433 50.0774 24.2223C50.2241 24.3153 50.3708 24.3618 50.5175 24.2223C50.6153 24.1293 50.6642 23.8967 50.5175 23.8037C50.1752 23.5247 49.833 23.2922 49.4907 23.0131C49.4907 23.1527 49.4907 23.2922 49.4907 23.4317C49.833 23.1062 50.1752 22.7806 50.5175 22.4551C50.6153 22.3621 50.6642 22.1295 50.5175 22.0365C50.3708 21.897 50.1752 21.897 50.0774 22.0365Z" fill="#263238"/>
<path d="M51.2999 33.5235C51.2999 33.8026 51.1043 34.0816 50.8598 34.1746C50.5665 34.2676 50.2731 34.1746 50.0775 33.9421C49.8819 33.7096 49.8819 33.4305 50.0286 33.198C50.1753 32.9655 50.4687 32.826 50.762 32.8725C51.0554 32.919 51.2999 33.198 51.2999 33.5235C51.2999 33.7561 51.6911 33.7561 51.6911 33.5235C51.6911 33.105 51.3977 32.7329 51.0065 32.5469C50.6153 32.4074 50.0775 32.5469 49.833 32.826C49.5396 33.1515 49.4907 33.6165 49.7352 33.9886C49.9797 34.3606 50.4198 34.5467 50.8598 34.4537C51.3488 34.3606 51.74 33.9421 51.74 33.4305C51.6911 33.291 51.2999 33.291 51.2999 33.5235Z" fill="#263238"/>
<path d="M51.0554 34.2676C51.1532 34.4071 51.2999 34.5001 51.3977 34.6396L51.4466 34.6861C51.4955 34.7326 51.5444 34.7326 51.5933 34.7326C51.6422 34.7326 51.6911 34.7326 51.74 34.6861C51.7889 34.5931 51.7889 34.5001 51.74 34.4536C51.6422 34.3141 51.4955 34.2211 51.3977 34.0815L51.3488 34.035C51.2999 33.9885 51.251 33.9885 51.2021 33.9885C51.1532 33.9885 51.1043 33.9885 51.0554 34.035C51.0065 34.0815 51.0065 34.1745 51.0554 34.2676Z" fill="#263238"/>
<path d="M51.2021 44.9639H49.0017C48.0727 44.9639 47.3392 44.2663 47.3392 43.3827C47.3392 42.4991 48.0727 41.8015 49.0017 41.8015H51.2021C52.1312 41.8015 52.8647 42.4991 52.8647 43.3827C52.8647 44.2663 52.1312 44.9639 51.2021 44.9639Z" fill="#005B96"/>
<path d="M83.4748 44.9639H81.2744C80.3453 44.9639 79.6118 44.2663 79.6118 43.3827C79.6118 42.4991 80.3453 41.8015 81.2744 41.8015H83.4748C84.4038 41.8015 85.1373 42.4991 85.1373 43.3827C85.1373 44.2663 84.4038 44.9639 83.4748 44.9639Z" fill="#E0E0E0"/>
<path d="M65.8226 44.9639H56.7276C55.7985 44.9639 55.0651 44.2663 55.0651 43.3827C55.0651 42.4991 55.7985 41.8015 56.7276 41.8015H65.8226C66.7517 41.8015 67.4851 42.4991 67.4851 43.3827C67.4851 44.2663 66.7517 44.9639 65.8226 44.9639Z" fill="#EBEBEB"/>
<path d="M76.2868 44.9639H70.5657C69.6367 44.9639 68.9032 44.2663 68.9032 43.3827C68.9032 42.4991 69.6367 41.8015 70.5657 41.8015H76.2868C77.2159 41.8015 77.9493 42.4991 77.9493 43.3827C77.9493 44.2663 77.2159 44.9639 76.2868 44.9639Z" fill="#455A64"/>
<path d="M59.0732 77.9237H51.5429C50.8584 77.9237 50.3205 77.4121 50.3205 76.761C50.3205 76.11 50.8584 75.5984 51.5429 75.5984H59.1221C59.8067 75.5984 60.3446 76.11 60.3446 76.761C60.2957 77.4121 59.7578 77.9237 59.0732 77.9237Z" fill="#005B96"/>
<path d="M83.2792 92.8646C83.2792 93.7483 82.5457 94.4458 81.6167 94.4458C80.6876 94.4458 79.9541 93.7483 79.9541 92.8646C79.9541 91.981 80.6876 91.2834 81.6167 91.2834C82.4968 91.2834 83.2792 91.981 83.2792 92.8646Z" fill="#FEC30C"/>
<path d="M78.4383 92.8646C78.4383 93.7483 77.7048 94.4458 76.7758 94.4458C75.8467 94.4458 75.1133 93.7483 75.1133 92.8646C75.1133 91.981 75.8467 91.2834 76.7758 91.2834C77.7048 91.2834 78.4383 91.981 78.4383 92.8646Z" fill="#FEC30C"/>
<path d="M73.2551 92.8646C73.2551 93.7483 72.5216 94.4458 71.5926 94.4458C70.6635 94.4458 69.9301 93.7483 69.9301 92.8646C69.9301 91.981 70.6635 91.2834 71.5926 91.2834C72.5216 91.2834 73.2551 91.981 73.2551 92.8646Z" fill="#FEC30C"/>
<path d="M83.377 85.8888H70.1745C69.7345 85.8888 69.3922 85.5633 69.3922 85.1447C69.3922 84.7262 69.7345 84.4006 70.1745 84.4006H83.377C83.8171 84.4006 84.1594 84.7262 84.1594 85.1447C84.1594 85.5633 83.8171 85.8888 83.377 85.8888Z" fill="#263238"/>
<path d="M83.377 88.9582H70.1745C69.7345 88.9582 69.3922 88.6326 69.3922 88.2141C69.3922 87.7955 69.7345 87.47 70.1745 87.47H83.377C83.8171 87.47 84.1594 87.7955 84.1594 88.2141C84.1594 88.6326 83.8171 88.9582 83.377 88.9582Z" fill="#263238"/>
<path d="M80.7854 70.6348H52.0823C50.322 70.6348 48.855 69.2861 48.855 67.5654V52.5906C48.855 50.9164 50.2731 49.5212 52.0823 49.5212H80.7854C82.5457 49.5212 84.0127 50.8699 84.0127 52.5906V67.5654C84.0127 69.2396 82.5457 70.6348 80.7854 70.6348Z" fill="white"/>
<path d="M64.6491 58.1713C65.9453 58.1713 66.9962 57.1719 66.9962 55.9391C66.9962 54.7062 65.9453 53.7068 64.6491 53.7068C63.3528 53.7068 62.302 54.7062 62.302 55.9391C62.302 57.1719 63.3528 58.1713 64.6491 58.1713Z" fill="#455A64"/>
<path d="M84.0127 67.8912V60.4038C83.1325 59.3807 82.1545 58.404 81.1277 57.6134C79.3674 56.3113 77.2648 55.4277 75.1621 55.6602C72.4239 55.9392 70.1256 57.9855 68.512 60.4038C67.7296 61.5664 66.8984 63.0081 65.5781 63.2406C64.5513 63.4267 63.5733 62.8686 62.7421 62.171C61.9108 61.4734 61.1773 60.6363 60.2483 60.1713C58.3412 59.2877 56.1408 60.1248 54.3316 61.1479C52.4246 62.2175 50.5665 63.4732 48.9039 64.8683V67.8912C48.9039 69.3794 50.0286 70.5885 51.3977 70.5885H81.5189C82.888 70.635 84.0127 69.3794 84.0127 67.8912Z" fill="#455A64"/>
<path d="M80.7854 70.6349C80.7854 70.5884 81.1766 70.6814 81.8612 70.4489C82.2034 70.3094 82.5946 70.1234 82.9858 69.7978C83.377 69.4723 83.7193 68.9607 83.866 68.3097C83.9638 67.9841 83.9638 67.6586 83.9638 67.2865C83.9638 66.9145 83.9638 66.5424 83.9638 66.1239C83.9638 65.3333 83.9638 64.4497 83.9638 63.5196C83.9638 61.6594 83.9638 59.5201 83.9638 57.1948C83.9638 56.0322 83.9638 54.7765 83.9638 53.5209C83.9638 52.8698 84.0127 52.2187 83.7682 51.6141C83.5237 51.0096 83.0836 50.4515 82.4968 50.1259C82.2034 49.9399 81.8612 49.8004 81.5189 49.7539C81.1766 49.6609 80.8343 49.7074 80.4431 49.7074C79.7096 49.7074 78.9273 49.7074 78.1449 49.7074C76.5802 49.7074 75.0154 49.7074 73.4018 49.7074C66.8984 49.7074 59.7104 49.7074 52.1801 49.7074C51.251 49.7074 50.3709 50.1259 49.833 50.777C49.5396 51.1026 49.344 51.4746 49.2462 51.8932C49.0995 52.3117 49.1484 52.7303 49.1484 53.1488C49.1484 54.8695 49.1484 56.5902 49.1484 58.3109C49.1484 59.9851 49.1484 61.6594 49.1484 63.287C49.1484 64.0776 49.1484 64.9147 49.1484 65.7053C49.1484 66.1239 49.1484 66.4959 49.1484 66.868C49.1484 67.24 49.1484 67.6586 49.1973 68.0306C49.2951 68.7747 49.7352 69.4723 50.322 69.9374C50.9087 70.4024 51.6911 70.6349 52.4246 70.5884C53.9893 70.5884 55.4563 70.5884 56.9232 70.5884C59.8082 70.5884 62.5465 70.5884 64.9914 70.5884C69.9301 70.5884 73.8908 70.6349 76.678 70.6349C78.0471 70.6349 79.1229 70.6349 79.8563 70.6349C80.1986 70.6349 80.492 70.6349 80.6876 70.6349C80.6876 70.5884 80.7854 70.6349 80.7854 70.6349C80.7854 70.6349 80.6876 70.6349 80.492 70.6349C80.2964 70.6349 80.003 70.6349 79.6607 70.6349C78.9273 70.6349 77.8515 70.6349 76.4824 70.6349C73.6952 70.6349 69.7345 70.6349 64.7958 70.6814C62.3509 70.6814 59.6126 70.6814 56.7276 70.6814C55.2607 70.6814 53.7937 70.6814 52.229 70.6814C51.4466 70.7279 50.6154 70.4954 49.9797 69.9839C49.344 69.4723 48.9039 68.7747 48.8061 67.9376C48.7572 67.5191 48.7572 67.147 48.7572 66.775C48.7572 66.4029 48.7572 65.9844 48.7572 65.6123C48.7572 64.8217 48.7572 64.0311 48.7572 63.194C48.7572 61.5663 48.7572 59.8921 48.7572 58.2179C48.7572 56.5437 48.7572 54.823 48.7572 53.0558C48.7572 52.6373 48.7572 52.1722 48.855 51.7071C49.0017 51.2886 49.1973 50.87 49.4907 50.498C50.1264 49.8004 51.0554 49.3354 52.0334 49.3819C59.5637 49.3819 66.7517 49.3819 73.2551 49.3819C74.8687 49.3819 76.4824 49.3819 77.9982 49.3819C78.7806 49.3819 79.5141 49.3819 80.2964 49.3819C80.6876 49.3819 81.0788 49.3819 81.4211 49.4749C81.8123 49.5679 82.1545 49.7074 82.4479 49.8934C83.0836 50.2655 83.5726 50.8235 83.8171 51.4746C83.9149 51.8002 84.0127 52.1257 84.0127 52.4512C84.0127 52.7768 84.0127 53.1023 84.0127 53.4279C84.0127 54.73 84.0127 55.9392 84.0127 57.1018C84.0127 59.4271 84.0127 61.5663 84.0127 63.4266C84.0127 64.3567 84.0127 65.2403 84.0127 66.0309C84.0127 66.4494 84.0127 66.8215 84.0127 67.1935C84.0127 67.5656 84.0127 67.8911 83.9149 68.2166C83.7682 68.8677 83.377 69.3793 82.9858 69.7048C82.5946 70.0769 82.2034 70.2629 81.8123 70.3559C81.47 70.4954 81.1766 70.4954 80.981 70.4954C80.8832 70.6349 80.7854 70.6349 80.7854 70.6349Z" fill="#263238"/>
<path d="M61.7152 95.8408H53.0113C50.7131 95.8408 48.8061 94.0736 48.8061 91.8413V85.0515C48.8061 82.8657 50.6642 81.052 53.0113 81.052H61.7152C64.0134 81.052 65.9204 82.8192 65.9204 85.0515V91.8878C65.9204 94.0736 64.0134 95.8408 61.7152 95.8408Z" fill="white"/>
<path d="M59.6126 85.377C59.6126 86.2606 58.8791 86.9581 57.95 86.9581C57.021 86.9581 56.2875 86.2606 56.2875 85.377C56.2875 84.4934 57.021 83.7958 57.95 83.7958C58.8791 83.7493 59.6126 84.4934 59.6126 85.377Z" fill="#005B96"/>
<path d="M53.158 95.8408H61.6174C64.0134 95.8408 65.9204 94.0271 65.9204 91.7483V86.7722C65.3336 86.5862 64.649 86.4466 64.0134 86.4931C62.9376 86.5396 62.0085 87.0047 61.324 87.5628C60.6394 88.1208 60.1015 88.8184 59.4659 89.423C59.0258 89.8416 58.4879 90.2136 57.8033 90.2601C56.1408 90.3531 55.4562 88.6324 53.8915 88.3069C53.158 88.1674 52.3267 88.3534 51.6911 88.6789C51.0554 89.0045 50.6153 89.4695 50.1752 89.9346C49.7352 90.3996 49.2951 90.8647 48.855 91.3297V91.7948C48.8061 94.0271 50.762 95.8408 53.158 95.8408Z" fill="#FEC30C"/>
<path d="M61.7641 95.8409C61.7641 95.8409 61.9597 95.8409 62.3508 95.7944C62.742 95.7479 63.2799 95.6084 63.9156 95.2363C64.5512 94.8643 65.1869 94.2597 65.5781 93.3296C65.9693 92.3995 65.8226 91.2834 65.8226 90.0277C65.8226 88.7721 65.8226 87.4234 65.8226 85.9352C65.8226 85.1911 65.8715 84.447 65.5781 83.7029C65.3336 83.0054 64.7957 82.3543 64.1112 81.8892C63.4266 81.4242 62.5464 81.1916 61.6663 81.1916C60.7372 81.1916 59.8081 81.1916 58.8791 81.1916C56.9721 81.1916 55.0161 81.1916 53.0113 81.1916C52.0334 81.1916 51.1043 81.5172 50.3708 82.1217C49.6374 82.7263 49.1973 83.5169 49.0506 84.4005C48.9528 84.8191 49.0017 85.2841 49.0017 85.7027C49.0017 86.1212 49.0017 86.5863 49.0017 87.0048C49.0017 87.8884 49.0017 88.7255 49.0017 89.5627C49.0017 90.3998 49.0017 91.1903 49.0017 91.9809C49.0017 92.725 49.2951 93.4691 49.6863 94.0737C50.1263 94.6783 50.7131 95.0968 51.3488 95.3759C51.9845 95.6549 52.669 95.7479 53.3047 95.7479C55.8963 95.7479 58.0478 95.7944 59.5148 95.7944C60.2482 95.7944 60.7861 95.7944 61.2262 95.7944C61.4218 95.7944 61.5685 95.7944 61.6663 95.7944C61.7152 95.8409 61.7641 95.8409 61.7641 95.8409C61.7641 95.8409 61.7152 95.8409 61.6174 95.8409C61.5196 95.8409 61.3729 95.8409 61.1773 95.8409C60.7861 95.8409 60.1993 95.8409 59.4659 95.8409C57.9989 95.8409 55.8474 95.8409 53.2558 95.8874C52.6201 95.8874 51.8867 95.8409 51.2021 95.5154C50.5175 95.2363 49.9307 94.7713 49.4418 94.1202C49.0017 93.5156 48.7083 92.725 48.7083 91.9344C48.7083 91.1438 48.7083 90.3532 48.7083 89.5161C48.7083 88.679 48.7083 87.8419 48.7083 86.9583C48.7083 86.5398 48.7083 86.0747 48.7083 85.6562C48.7083 85.2376 48.6594 84.7726 48.7572 84.3075C48.9039 83.3774 49.3929 82.4938 50.1752 81.8892C50.9087 81.2381 51.9356 80.9126 52.9624 80.9126C54.9672 80.9126 56.9232 80.9126 58.8302 80.9126C59.7592 80.9126 60.6883 80.9126 61.6174 80.9126C62.5464 80.9126 63.4755 81.1451 64.209 81.6567C64.9424 82.1683 65.4803 82.8193 65.7737 83.6099C66.116 84.354 66.0182 85.1911 66.0182 85.8887C66.0182 87.3769 66.0182 88.7255 66.0182 89.9812C66.0182 90.5858 66.0182 91.1903 66.0182 91.7484C66.0182 92.3065 65.9204 92.8646 65.7248 93.3296C65.3336 94.2597 64.649 94.9108 64.0134 95.2363C63.3777 95.6084 62.7909 95.7014 62.3997 95.7479C61.9596 95.8874 61.7641 95.8409 61.7641 95.8409Z" fill="#263238"/>
<path d="M51.3977 101.98C51.3977 101.98 51.1532 101.98 50.7132 101.98C50.2731 101.933 49.6374 101.84 48.8061 101.561C48.0238 101.282 47.0458 100.724 46.2145 99.8405C45.3833 98.9569 44.6498 97.6547 44.4542 96.12C44.4053 95.3294 44.4053 94.5388 44.4053 93.6552C44.4053 92.8181 44.4053 91.888 44.4053 90.9579C44.4053 89.0512 44.4053 87.0049 44.4053 84.8192C44.4053 80.4011 44.4053 75.425 44.4053 69.8443C44.4053 58.776 44.4053 45.5684 44.3564 30.9191C44.3564 29.1054 44.3564 27.2452 44.3564 25.3384C44.3564 24.4083 44.3075 23.4782 44.3564 22.5016C44.4053 21.525 44.6987 20.5949 45.1388 19.7113C46.0189 17.944 47.6326 16.5024 49.6374 15.8513C50.6154 15.5257 51.6911 15.3862 52.718 15.3862C53.7448 15.3862 54.8206 15.3862 55.8474 15.3862C60.0527 15.3862 64.3068 15.3862 68.6098 15.3862C70.7613 15.3862 72.9617 15.3862 75.1621 15.3862C76.2379 15.3862 77.3625 15.3862 78.4872 15.3862C79.0251 15.3862 79.6119 15.3862 80.1497 15.3862C80.6876 15.3862 81.2744 15.3862 81.8123 15.4327C84.0616 15.6653 86.1153 16.9209 87.3866 18.6416C88.0223 19.5252 88.4624 20.5019 88.658 21.525C88.8536 22.5481 88.8047 23.6177 88.8047 24.6409C88.8047 28.7799 88.8047 32.8258 88.8047 36.8253C88.8047 44.7778 88.8047 52.4977 88.8047 59.7991C88.8047 67.147 88.8047 74.0764 88.8047 80.5872C88.8047 83.8425 88.8047 87.0049 88.8047 90.0278C88.8047 91.5625 88.8047 93.0042 88.8047 94.4923C88.8047 95.1899 88.8047 95.934 88.658 96.6316C88.5113 97.3292 88.2668 98.0268 87.8756 98.6313C87.5333 99.2359 87.0443 99.794 86.5065 100.259C85.9686 100.724 85.3818 101.096 84.7461 101.375C84.1105 101.654 83.4259 101.84 82.7413 101.933C82.0568 102.026 81.3722 101.98 80.7365 102.026C78.096 102.026 75.6511 102.026 73.304 102.026C68.6587 102.026 64.698 102.026 61.4218 102.026C58.1456 102.026 55.6518 102.026 53.9404 102.026C53.1092 102.026 52.4246 102.026 51.9845 102.026C51.5933 101.98 51.3977 101.98 51.3977 101.98C51.3977 101.98 51.6422 101.98 52.0823 101.98C52.5224 101.98 53.1581 101.98 54.0382 101.98C55.7496 101.98 58.2923 101.98 61.5196 101.98C64.7958 101.98 68.7565 101.98 73.4018 101.98C75.7 101.98 78.1938 101.98 80.8343 101.98C81.47 101.98 82.1545 101.98 82.8391 101.887C83.5237 101.794 84.1594 101.608 84.795 101.329C85.4307 101.05 86.0175 100.678 86.5065 100.213C86.9954 99.7475 87.4844 99.2359 87.8267 98.6313C88.169 98.0268 88.4135 97.3757 88.5602 96.6781C88.7069 95.9805 88.658 95.2829 88.7069 94.5388C88.7069 93.0972 88.7069 91.609 88.7069 90.0743C88.7069 87.0514 88.7069 83.8891 88.7069 80.6337C88.7069 74.1229 88.7069 67.147 88.7069 59.8456C88.7069 52.4977 88.7069 44.8243 88.7069 36.8718C88.7069 32.8724 88.7069 28.8264 88.7069 24.6874C88.7069 23.6642 88.7558 22.5946 88.5602 21.618C88.3646 20.5949 87.9245 19.6648 87.3377 18.8276C86.1153 17.1534 84.1105 15.9443 81.9101 15.7118C81.3722 15.6653 80.8343 15.6653 80.2475 15.6653C79.7097 15.6653 79.1229 15.6653 78.585 15.6653C77.4603 15.6653 76.3846 15.6653 75.2599 15.6653C73.0595 15.6653 70.908 15.6653 68.7076 15.6653C64.3557 15.6653 60.1016 15.6653 55.9452 15.6653C54.9184 15.6653 53.8426 15.6653 52.8158 15.6653C51.7889 15.6653 50.7621 15.7583 49.833 16.1303C47.926 16.7814 46.3612 18.1766 45.4811 19.8508C45.041 20.6879 44.7965 21.618 44.7476 22.5481C44.6987 23.4782 44.7476 24.4548 44.6987 25.3849C44.6987 27.2452 44.6987 29.1054 44.6987 30.9656C44.6987 45.6149 44.6987 58.8225 44.6498 69.8909C44.6498 75.425 44.6498 80.4476 44.6498 84.8657C44.6498 87.0514 44.6498 89.0977 44.6498 91.0044C44.6498 91.9345 44.6498 92.8646 44.6498 93.7017C44.6498 94.5388 44.6009 95.3759 44.6987 96.1665C44.8943 97.7012 45.5789 98.9569 46.4101 99.8405C47.2414 100.724 48.1705 101.236 48.9528 101.561C50.4687 102.073 51.3977 101.933 51.3977 101.98Z" fill="#263238"/>
<path d="M66.4583 123.233C66.4094 123.233 66.3116 118.489 66.3116 112.583C66.3116 106.723 66.3605 101.933 66.4583 101.933C66.5072 101.933 66.605 106.677 66.605 112.583C66.5561 118.489 66.5072 123.233 66.4583 123.233Z" fill="#263238"/>
<path d="M68.2675 14.7817C68.2675 16.0374 67.1917 17.0605 65.8715 17.0605C64.5513 17.0605 63.4755 16.0374 63.4755 14.7817C63.4755 13.5261 64.5513 12.5029 65.8715 12.5029C67.1917 12.5494 68.2675 13.5261 68.2675 14.7817Z" fill="#263238"/>
<path d="M66.605 125.047C67.9283 125.047 69.001 124.026 69.001 122.768C69.001 121.509 67.9283 120.489 66.605 120.489C65.2817 120.489 64.209 121.509 64.209 122.768C64.209 124.026 65.2817 125.047 66.605 125.047Z" fill="#263238"/>
<path d="M38.782 5.52697C38.782 5.52697 38.9287 5.52697 39.1243 5.48046C39.3688 5.48046 39.76 5.48046 40.1512 5.48046C41.0802 5.48046 42.4005 5.48046 44.0141 5.43396C47.2903 5.43396 51.7889 5.43396 56.7765 5.38745C57.9989 5.38745 59.2214 5.38745 60.3949 5.38745C60.9817 5.38745 61.5685 5.38745 62.1064 5.38745C62.6932 5.38745 63.2799 5.52697 63.7689 5.71299C64.7958 6.17805 65.4803 7.01515 65.7737 7.94526C65.9204 8.41032 65.9204 8.87537 65.9204 9.29393C65.9204 9.71248 65.9204 10.131 65.9204 10.5031C65.9204 12.0378 65.8715 13.2934 65.8715 14.177C65.8715 14.5956 65.8715 14.9211 65.8715 15.1536C65.8715 15.3862 65.8715 15.4792 65.8226 15.4792C65.8226 15.4792 65.8226 15.3397 65.7737 15.1536C65.7737 14.9211 65.7737 14.5491 65.7737 14.177C65.7737 13.2934 65.7737 12.0378 65.7248 10.5031C65.7248 10.131 65.7248 9.71248 65.7248 9.29393C65.7248 8.87537 65.7248 8.45682 65.5781 8.03827C65.3825 7.15467 64.698 6.36407 63.72 5.94552C62.7909 5.48046 61.6174 5.66649 60.4438 5.61998C59.2703 5.61998 58.0478 5.61998 56.8254 5.61998C51.8378 5.61998 47.3392 5.57347 44.063 5.57347C42.4494 5.57347 41.1291 5.52697 40.2001 5.52697C39.76 5.52697 39.4177 5.52697 39.1732 5.52697C38.9287 5.52697 38.782 5.52697 38.782 5.52697Z" fill="#263238"/>
</g>
<g clip-path="url(#clip1_284_61874)">
<path d="M107.421 81.3716L106.054 81.4226L101.147 91.5723L93.3708 95.2446L93.7462 99.0444C93.7462 99.0444 103.319 97.3613 105.705 96.0862C108.092 94.8111 111.122 86.574 111.122 86.574C111.122 86.6505 107.877 81.3716 107.877 81.3716" fill="#FFBF9D"/>
</g>
<g clip-path="url(#clip2_284_61874)">
<path d="M118.013 71.5787L126.968 70.6606L128.604 72.0888L122.222 75.6335L119.407 77.0361L116.618 76.2201L115.734 74.6644L118.013 71.5787Z" fill="#FFBF9D"/>
<path d="M105.973 81.9326C105.973 81.9326 108.762 76.8067 109.459 75.7102C110.639 73.7975 112.838 72.7264 112.838 72.7264L118.013 71.5788C118.013 71.5788 117.476 74.0525 120.694 74.2055C124.77 74.4096 127.317 70.6863 127.317 70.6863C127.317 70.6863 131.983 71.1453 133.27 71.6809C134.557 72.1909 138.203 73.6445 138.74 78.2603L140 85.7834L130.133 86.472L130.267 96.4942L130.32 102.207C125.923 103.941 119.353 104.935 113.186 103.38C112.811 103.278 112.999 99.2229 112.14 95.0661L110.532 91.2918C109.888 89.7872 109.486 88.2061 109.379 86.574C109.325 85.5029 109.352 84.7123 109.352 84.7123C109.352 84.7123 106.831 83.8963 105.973 81.9326Z" fill="#005B96"/>
<path d="M113.749 100.013L130.267 95.2956L130.133 86.4719L138.552 85.8599C138.552 85.8599 137.882 90.4247 137.774 92.7709C137.64 96.1371 135.924 100.855 134.798 101.85C133.645 102.844 113.293 103.941 113.293 103.941L113.749 100.013Z" fill="#FFBF9D"/>
<path d="M104.364 102.793C104.499 102.997 104.767 103.125 105.008 103.099C105.062 103.099 105.115 103.074 105.169 103.048C105.544 102.895 105.437 102.181 105.437 102.181L107.207 101.773C107.207 101.773 109.647 103.023 110.532 103.915C111.443 104.808 113.481 103.89 113.481 103.89L113.91 100.217L110.398 97.6417C110.398 97.6417 110.612 97.7947 110.344 97.2847C110.076 96.7747 109.057 97.0552 109.057 97.0552C108.869 96.8002 108.199 96.7747 108.199 96.7747L105.357 97.3102C104.767 97.4122 104.257 97.7692 103.989 98.2793L102.917 100.192C102.917 100.192 102.38 101.569 102.514 101.85C102.702 102.309 103.212 102.156 103.212 102.156C103.212 102.156 103.426 103.023 103.667 103.023C103.909 102.997 104.364 102.793 104.364 102.793Z" fill="#FFBF9D"/>
<path d="M110.29 99.7329C110.29 99.7584 109.915 99.7584 109.298 99.8349C108.681 99.9114 107.85 100.064 106.992 100.421C106.563 100.6 106.161 100.804 105.812 101.008C105.491 101.212 105.142 101.39 105.035 101.646C104.981 101.773 105.035 101.875 105.088 101.977C105.169 102.054 105.249 102.105 105.33 102.13C105.491 102.181 105.571 102.13 105.598 102.156C105.598 102.156 105.517 102.232 105.33 102.207C105.249 102.181 105.142 102.13 105.035 102.054C104.954 101.952 104.874 101.799 104.928 101.62C104.981 101.467 105.115 101.314 105.249 101.212C105.41 101.11 105.544 100.982 105.732 100.88C106.081 100.651 106.483 100.447 106.912 100.268C107.797 99.9114 108.655 99.7584 109.271 99.7074C109.888 99.6564 110.29 99.7074 110.29 99.7329Z" fill="#FF9A6C"/>
<path d="M110.612 101.467C110.612 101.518 109.432 101.569 108.011 101.747C106.59 101.926 105.437 102.181 105.41 102.13C105.41 102.105 105.678 102.003 106.134 101.901C106.59 101.798 107.234 101.671 107.958 101.569C108.681 101.467 109.325 101.441 109.808 101.441C110.317 101.416 110.612 101.441 110.612 101.467Z" fill="#FF9A6C"/>
<path d="M104.391 102.717C104.391 102.717 104.364 102.615 104.338 102.436C104.311 102.258 104.284 101.977 104.284 101.646C104.284 101.467 104.284 101.289 104.311 101.085C104.338 100.881 104.418 100.677 104.552 100.473C104.793 100.09 105.115 99.6565 105.544 99.3505C105.973 99.019 106.402 98.7639 106.858 98.5854C107.314 98.4069 107.743 98.3559 108.092 98.3049C108.44 98.2794 108.735 98.2539 108.923 98.2539C109.111 98.2539 109.245 98.2539 109.245 98.2539C109.245 98.2794 108.816 98.3304 108.118 98.4324C107.77 98.4834 107.368 98.5599 106.939 98.7384C106.51 98.8915 106.081 99.172 105.678 99.478C105.249 99.784 104.954 100.167 104.713 100.549C104.472 100.906 104.445 101.314 104.418 101.646C104.364 102.283 104.418 102.717 104.391 102.717Z" fill="#FF9A6C"/>
<path d="M108.118 97.4376C108.118 97.4631 107.689 97.5141 107.019 97.6416C106.376 97.7946 105.303 97.9222 104.767 98.8147C104.177 99.6563 103.694 100.447 103.48 101.059C103.265 101.696 103.319 102.104 103.292 102.104C103.292 102.104 103.265 102.002 103.238 101.824C103.238 101.645 103.238 101.365 103.346 101.033C103.506 100.37 104.016 99.5543 104.606 98.7127C104.767 98.5087 104.928 98.3047 105.115 98.1262C105.303 97.9477 105.544 97.8456 105.759 97.7691C106.215 97.6161 106.617 97.5396 106.965 97.4886C107.689 97.4121 108.118 97.4121 108.118 97.4376Z" fill="#FF9A6C"/>
<path d="M109.861 103.354C109.861 103.354 109.808 103.329 109.674 103.252C109.54 103.176 109.379 103.048 109.164 102.921C108.708 102.64 108.038 102.232 107.18 101.824H107.234C106.697 101.952 106.107 102.079 105.491 102.232L105.544 102.156C105.571 102.283 105.571 102.436 105.544 102.564C105.517 102.691 105.491 102.844 105.383 102.997C105.33 103.048 105.223 103.099 105.169 103.125C105.088 103.15 105.008 103.176 104.928 103.15C104.767 103.15 104.579 103.074 104.472 102.946C104.445 102.921 104.418 102.895 104.391 102.844L104.364 102.819V102.793C104.338 102.793 104.579 102.844 104.472 102.819L104.418 102.844C104.338 102.87 104.284 102.921 104.204 102.946C104.123 102.972 104.043 102.997 103.962 103.023C103.909 103.023 103.882 103.048 103.828 103.048C103.775 103.048 103.721 103.048 103.667 103.023C103.56 102.972 103.506 102.895 103.48 102.819C103.426 102.742 103.399 102.666 103.372 102.589C103.319 102.436 103.265 102.283 103.211 102.13L103.319 102.181C103.104 102.232 102.809 102.207 102.648 102.003C102.568 101.926 102.488 101.799 102.488 101.671C102.488 101.544 102.514 101.442 102.514 101.34C102.595 100.906 102.756 100.498 102.917 100.09C103.104 99.7585 103.292 99.4269 103.48 99.0699C103.614 98.8404 103.721 98.6364 103.828 98.4324C103.935 98.2283 104.043 97.9988 104.23 97.7948C104.391 97.6163 104.606 97.4378 104.847 97.3358C105.088 97.2083 105.33 97.1828 105.571 97.1318C106.51 96.9532 107.421 96.8002 108.252 96.6472C108.413 96.6727 108.574 96.6982 108.735 96.7237C108.896 96.7747 109.057 96.8257 109.164 96.9787L109.057 96.9532C109.352 96.8002 109.7 96.7747 109.995 96.9277C110.264 97.0807 110.424 97.3358 110.505 97.5908L110.478 97.5653C111.497 98.3048 112.301 98.8914 112.891 99.3249C113.159 99.5289 113.374 99.6819 113.535 99.8095C113.696 99.9115 113.749 99.988 113.749 99.988C113.749 99.988 113.669 99.937 113.508 99.835C113.347 99.7074 113.106 99.5544 112.838 99.3759C112.248 98.9679 111.417 98.3813 110.398 97.6673H110.371V97.6418C110.29 97.4123 110.156 97.1828 109.915 97.0807C109.7 96.9532 109.379 96.9787 109.137 97.1063L109.084 97.1318L109.03 97.0807C108.95 97.0042 108.816 96.9277 108.681 96.9022C108.547 96.8512 108.387 96.8512 108.226 96.8257H108.252C107.421 96.9787 106.51 97.1573 105.571 97.3358C105.33 97.3868 105.115 97.4123 104.901 97.5143C104.686 97.6163 104.499 97.7438 104.338 97.9223C104.177 98.1008 104.07 98.3048 103.962 98.5344C103.855 98.7384 103.721 98.9679 103.614 99.1719C103.426 99.5289 103.238 99.8605 103.051 100.192C102.89 100.6 102.756 101.008 102.675 101.416C102.648 101.518 102.648 101.62 102.648 101.697C102.648 101.773 102.702 101.85 102.756 101.926C102.863 102.054 103.077 102.079 103.265 102.054L103.292 102.028L103.319 102.105C103.346 102.258 103.399 102.411 103.453 102.564C103.506 102.691 103.587 102.87 103.667 102.921C103.667 102.921 103.694 102.921 103.748 102.921C103.775 102.921 103.828 102.921 103.855 102.895C103.935 102.87 103.989 102.844 104.07 102.819C104.15 102.793 104.204 102.768 104.284 102.742L104.338 102.717C104.23 102.691 104.472 102.742 104.445 102.742L104.472 102.768C104.499 102.793 104.525 102.819 104.525 102.844C104.633 102.946 104.74 102.997 104.874 102.997C104.928 102.997 105.008 102.997 105.062 102.972C105.142 102.946 105.169 102.946 105.223 102.895C105.383 102.717 105.383 102.411 105.357 102.181V102.13L105.41 102.105C106.054 101.952 106.644 101.824 107.18 101.697H107.207H107.234C108.118 102.13 108.762 102.538 109.218 102.844C109.432 102.997 109.593 103.125 109.7 103.201C109.808 103.303 109.861 103.354 109.861 103.354Z" fill="#FF9A6C"/>
<path d="M85.2999 103.864L79.7494 90.0166C79.5349 89.5066 79.9371 88.9456 80.527 88.9456H98.3314C98.6531 88.9456 98.9481 89.1241 99.0822 89.4046L104.418 102.615L115.599 102.793C116.055 102.793 116.431 103.15 116.431 103.584C116.431 104.017 116.055 104.374 115.599 104.374H86.0775C85.7289 104.374 85.4071 104.17 85.2999 103.864Z" fill="#455A64"/>
<path d="M92.8346 96.6726C92.8346 97.2847 92.3251 97.7947 91.6548 97.7947C91.0112 97.7947 90.4749 97.3102 90.4749 96.6726C90.4749 96.0606 90.9844 95.5505 91.6548 95.5505C92.2983 95.5505 92.8346 96.0351 92.8346 96.6726Z" fill="white"/>
<path d="M111.926 76.271C111.953 76.2965 111.685 76.7555 111.309 77.5461C110.934 78.3367 110.478 79.4587 110.103 80.7338C109.727 82.0089 109.513 83.2075 109.405 84.0746C109.298 84.9416 109.271 85.4772 109.245 85.4772C109.218 85.4772 109.218 85.3497 109.218 85.0947C109.218 84.8396 109.245 84.5081 109.271 84.0491C109.352 83.182 109.54 81.9834 109.915 80.6828C110.29 79.3822 110.8 78.2601 111.202 77.4951C111.417 77.1126 111.577 76.781 111.711 76.577C111.819 76.3985 111.899 76.271 111.926 76.271Z" fill="#263238"/>
<path d="M140 85.7578C140 85.7578 139.92 85.7833 139.785 85.7833C139.625 85.8088 139.437 85.8088 139.196 85.8343C138.659 85.8853 137.909 85.9363 136.997 86.0128C135.093 86.1403 132.465 86.3443 129.435 86.5483H129.328V86.4463C129.274 85.5027 129.194 84.4827 129.14 83.4626C129.033 81.6519 128.953 79.9433 128.926 78.3622C128.845 76.7811 129.248 75.353 129.891 74.3329C130.535 73.2873 131.393 72.7008 132.009 72.3948C132.331 72.2417 132.573 72.1652 132.76 72.1142C132.948 72.0632 133.028 72.0377 133.028 72.0632C133.028 72.0887 132.653 72.1652 132.036 72.4713C131.446 72.7773 130.615 73.3893 129.998 74.4094C129.382 75.4295 129.006 76.8066 129.087 78.3622C129.114 79.9178 129.221 81.6519 129.328 83.4371C129.382 84.4827 129.462 85.4772 129.516 86.4208L129.409 86.3443C132.439 86.1658 135.066 85.9873 136.97 85.8598C137.909 85.8088 138.632 85.7578 139.196 85.7323C139.437 85.7323 139.625 85.7068 139.785 85.7068C139.92 85.7578 140 85.7578 140 85.7578Z" fill="#263238"/>
<path d="M121.472 91.8783C121.472 91.8783 121.338 91.8528 121.15 91.7508C121.043 91.6998 120.909 91.6488 120.775 91.5723C120.64 91.4958 120.48 91.4193 120.319 91.2918C119.97 91.0878 119.595 90.7817 119.219 90.4247C118.844 90.0422 118.495 89.6087 118.174 89.0986C117.879 88.5886 117.664 88.053 117.503 87.5685C117.369 87.084 117.289 86.6249 117.262 86.2424C117.235 86.0384 117.262 85.8854 117.262 85.7324C117.262 85.5794 117.262 85.4518 117.289 85.3498C117.316 85.1458 117.342 85.0183 117.342 85.0183C117.369 85.0183 117.316 85.5028 117.396 86.2424C117.423 86.6249 117.53 87.0585 117.664 87.543C117.825 88.0275 118.04 88.5376 118.334 89.0221C118.629 89.5321 118.978 89.9657 119.327 90.3227C119.675 90.6797 120.051 90.9858 120.372 91.2153C121.016 91.6743 121.498 91.8528 121.472 91.8783Z" fill="#263238"/>
</g>
<g clip-path="url(#clip3_284_61874)">
<path d="M135.2 60.7406C135.361 58.675 135.871 56.6348 135.924 54.5437C135.978 52.478 135.576 50.2593 134.155 48.6782C132.733 47.0971 130.132 46.3576 128.282 47.4286L127.8 49.1628C127.934 57.1959 127.263 65.331 127.371 73.3641C127.397 74.4097 128.229 75.4297 128.658 76.3988C129.087 77.3679 130.052 78.2094 131.151 78.2094C132.599 78.2094 133.645 76.8833 134.208 75.6082C136.192 70.9924 134.798 65.739 135.2 60.7406Z" fill="#263238"/>
<path d="M130.722 49.6472C130.454 49.1116 130.159 48.5761 129.703 48.1426C129.274 47.709 128.658 47.403 128.014 47.4795C127.719 47.505 127.424 47.658 127.29 47.9131C127.183 48.1681 127.344 48.5251 127.639 48.5251L127.692 48.5761C128.309 49.1626 128.926 49.7492 129.569 50.3102C129.73 50.4632 129.891 50.5908 130.106 50.6673C130.374 50.7693 130.642 50.7693 130.776 50.6163C131.044 50.3867 130.91 49.9787 130.722 49.6472Z" fill="#FEC30C"/>
<path d="M131.822 51.7641C129.838 49.1119 127.022 47.4542 123.59 47.1992C121.659 47.0462 120.828 47.3777 119.407 47.6328C117.986 47.8878 116.672 48.5253 115.76 49.5964C114.688 50.8715 113.749 52.2996 113.427 53.9062C113.106 55.5638 113.133 57.196 113.374 58.5731C113.669 60.2307 114.688 62.8064 115.626 64.209L118.576 64.7445C121.043 64.9741 123.536 65.2291 125.976 64.8465C128.416 64.464 130.83 63.3929 132.251 61.4803C134.262 58.8026 133.806 54.4418 131.822 51.7641Z" fill="#263238"/>
<path d="M127.853 51.4834L122.061 48.8567L120.479 48.9332C116.967 48.7037 114.312 52.2229 114.098 54.9261C113.856 57.9099 113.669 61.5821 114.017 63.8263C114.715 68.3401 118.656 68.9522 118.656 68.9522C118.656 68.9522 118.415 71.3239 118.281 72.803L127.451 72.7775L129.328 53.1155C129.355 52.2994 128.711 51.5854 127.853 51.4834Z" fill="#FFBF9D"/>
<path d="M121.096 63.2398C121.069 63.0102 120.962 62.7807 120.801 62.6277C120.479 62.3217 119.97 62.2707 119.568 62.4747C119.166 62.7042 118.924 63.1888 118.951 63.6478C119.139 63.9283 119.461 64.1323 119.809 64.1833C119.863 64.1833 119.916 64.2088 119.97 64.2088C120.238 64.2088 120.533 64.1578 120.748 63.9793C120.962 63.8263 121.123 63.5203 121.096 63.2398Z" fill="#FF9A6C"/>
<path d="M115.063 59.0066C115.036 59.3126 115.304 59.5676 115.653 59.5931C115.975 59.6186 116.27 59.3891 116.297 59.0831C116.323 58.7771 116.055 58.5221 115.733 58.4966C115.358 58.4711 115.09 58.7006 115.063 59.0066Z" fill="#263238"/>
<path d="M115.036 56.4818C115.117 56.5583 115.573 56.2523 116.216 56.2523C116.86 56.2523 117.342 56.5838 117.423 56.5073C117.45 56.4818 117.396 56.3288 117.181 56.2013C116.967 56.0483 116.618 55.9208 116.216 55.8953C115.814 55.8953 115.465 56.0228 115.278 56.1758C115.09 56.3288 115.009 56.4563 115.036 56.4818Z" fill="#263238"/>
<path d="M118.871 61.6078C118.871 61.5823 118.468 61.5058 117.825 61.4038C117.664 61.3783 117.503 61.3528 117.476 61.2508C117.449 61.1233 117.503 60.9702 117.584 60.7917C117.744 60.4092 117.905 60.0012 118.093 59.5931C118.79 57.8845 119.326 56.4819 119.246 56.4564C119.166 56.4309 118.549 57.7825 117.825 59.5166C117.664 59.9502 117.503 60.3327 117.342 60.7152C117.289 60.8937 117.155 61.0978 117.235 61.3273C117.289 61.4548 117.396 61.5313 117.503 61.5568C117.61 61.5823 117.691 61.5823 117.798 61.6078C118.468 61.6333 118.871 61.6333 118.871 61.6078Z" fill="#263238"/>
<path d="M118.656 68.9522C118.656 68.9522 121.847 69.1818 125.011 67.4221C125.011 67.4221 123.268 70.5078 118.549 70.0488L118.656 68.9522Z" fill="#FF9A6C"/>
<path d="M120.801 62.0667C120.694 62.0667 120.694 62.7297 120.077 63.2142C119.461 63.6988 118.71 63.5968 118.71 63.6988C118.71 63.7498 118.871 63.8263 119.192 63.8518C119.514 63.8773 119.97 63.7753 120.345 63.4948C120.721 63.2142 120.882 62.8062 120.909 62.5512C120.909 62.2197 120.855 62.0667 120.801 62.0667Z" fill="#263238"/>
<path d="M115.412 54.3396C115.519 54.4926 116.028 54.3906 116.591 54.4416C117.181 54.4671 117.664 54.6457 117.798 54.5181C117.852 54.4416 117.798 54.3141 117.584 54.1611C117.396 54.0081 117.047 53.8551 116.645 53.8296C116.243 53.8041 115.894 53.8806 115.653 54.0081C115.465 54.1356 115.385 54.2631 115.412 54.3396Z" fill="#263238"/>
<path d="M121.74 59.1851C121.74 59.4911 121.472 59.7461 121.123 59.7461C120.801 59.7461 120.533 59.4911 120.533 59.1851C120.533 58.879 120.801 58.624 121.15 58.624C121.472 58.624 121.74 58.879 121.74 59.1851Z" fill="#263238"/>
<path d="M123.858 56.8133C123.778 56.8898 123.349 56.5328 122.678 56.5073C122.035 56.4563 121.525 56.7623 121.472 56.6858C121.445 56.6603 121.525 56.5073 121.74 56.3798C121.954 56.2523 122.303 56.1248 122.705 56.1503C123.107 56.1758 123.456 56.3288 123.644 56.4818C123.831 56.6348 123.912 56.7878 123.858 56.8133Z" fill="#263238"/>
<path d="M123.617 54.7987C123.483 54.9262 122.973 54.7732 122.383 54.7222C121.793 54.6712 121.257 54.7732 121.15 54.6201C121.096 54.5436 121.203 54.4161 121.418 54.2886C121.632 54.1611 122.008 54.0846 122.437 54.1101C122.839 54.1356 123.214 54.2886 123.402 54.4416C123.617 54.5946 123.67 54.7477 123.617 54.7987Z" fill="#263238"/>
<path d="M127.961 60.5875C127.961 60.256 128.39 59.4654 128.738 59.4144C129.677 59.2869 131.339 59.3889 131.339 61.6331C131.312 64.6933 128.095 64.0558 128.068 63.9538C128.068 63.8773 127.961 61.7351 127.961 60.5875Z" fill="#FFBF9D"/>
<path d="M128.953 62.8316C128.979 62.8316 129.006 62.8571 129.114 62.9081C129.194 62.9591 129.355 62.9846 129.543 62.9081C129.891 62.7806 130.186 62.2706 130.186 61.735C130.186 61.4545 130.132 61.1995 130.025 60.97C129.918 60.7405 129.784 60.5874 129.596 60.5619C129.435 60.5109 129.301 60.613 129.274 60.715C129.221 60.7915 129.248 60.868 129.221 60.868C129.221 60.868 129.14 60.817 129.167 60.6895C129.194 60.6385 129.221 60.5619 129.301 60.4854C129.382 60.4344 129.489 60.4089 129.623 60.4089C129.864 60.4344 130.106 60.6385 130.213 60.8935C130.347 61.1485 130.401 61.429 130.401 61.7605C130.374 62.3726 130.052 62.9591 129.569 63.0866C129.355 63.1376 129.14 63.0866 129.06 63.0101C128.979 62.9081 128.953 62.8571 128.953 62.8316Z" fill="#FF9A6C"/>
<path d="M128.872 59.44L127.987 60.1796C124.689 56.7623 118.388 48.2702 118.737 48.7802C118.737 48.7802 121.23 47.9897 123.804 48.5762C126.405 49.1628 131.285 50.7439 130.99 53.6766C130.696 56.6093 128.872 59.44 128.872 59.44Z" fill="#263238"/>
<path d="M133.591 59.0575C133.591 59.0575 133.591 59.0065 133.565 58.879C133.538 58.7515 133.484 58.5985 133.377 58.3945C133.189 57.9864 132.787 57.3999 132.143 56.8643C131.5 56.3288 130.588 55.8443 129.543 55.4617C128.497 55.0537 127.29 54.7222 126.137 54.1611C124.984 53.6256 123.938 52.937 123.08 52.274C122.222 51.5854 121.525 50.8969 120.962 50.2593C120.426 49.6473 120.024 49.0863 119.782 48.7037C119.675 48.5252 119.568 48.3722 119.487 48.2702C119.407 48.1682 119.38 48.1172 119.38 48.1172C119.38 48.1172 119.407 48.1682 119.461 48.2702C119.514 48.3722 119.595 48.5252 119.729 48.7292C119.97 49.1118 120.345 49.6728 120.882 50.3104C121.418 50.9479 122.115 51.662 122.973 52.3505C123.831 53.0391 124.877 53.7276 126.057 54.2631C127.237 54.8242 128.416 55.1557 129.462 55.5637C130.508 55.9463 131.42 56.4053 132.063 56.9153C132.707 57.4254 133.109 57.9864 133.323 58.369C133.511 58.828 133.565 59.083 133.591 59.0575Z" fill="#455A64"/>
<path d="M132.626 59.491C132.626 59.491 132.68 59.2359 132.546 58.8279C132.438 58.3944 132.09 57.8078 131.446 57.3233C130.803 56.8133 129.864 56.4562 128.845 56.1502C127.8 55.8697 126.673 55.5127 125.574 54.9261C124.475 54.3651 123.509 53.702 122.732 52.988C121.927 52.2994 121.311 51.5854 120.828 50.9478C120.345 50.3103 120.024 49.7747 119.809 49.3922C119.702 49.2137 119.621 49.0607 119.568 48.9587C119.514 48.8567 119.487 48.8057 119.461 48.8057C119.461 48.8057 119.487 48.8567 119.514 48.9587C119.568 49.0862 119.648 49.2392 119.729 49.4177C119.943 49.8002 120.238 50.3613 120.721 50.9988C121.203 51.6364 121.82 52.3759 122.625 53.0645C123.402 53.7785 124.394 54.4671 125.494 55.0281C126.593 55.6147 127.746 55.9717 128.792 56.2522C129.837 56.5327 130.749 56.8898 131.366 57.3743C132.009 57.8588 132.358 58.4199 132.492 58.8279C132.626 59.2359 132.599 59.491 132.626 59.491Z" fill="#455A64"/>
<path d="M128.39 64.5915C128.39 64.566 128.658 64.566 129.14 64.464C129.623 64.362 130.32 64.1325 131.017 63.6224C131.714 63.1124 132.358 62.2963 132.867 61.3018C133.35 60.3072 133.699 59.1086 133.806 57.8335C133.86 57.196 133.86 56.5584 133.779 55.9719C133.699 55.3853 133.538 54.7988 133.377 54.2887C133.001 53.2432 132.438 52.3761 131.902 51.713C130.803 50.3869 129.837 49.8259 129.864 49.7749C129.864 49.7749 129.918 49.8004 130.025 49.8769C130.132 49.9534 130.293 50.0554 130.481 50.2084C130.883 50.489 131.419 50.9735 131.983 51.611C132.546 52.2741 133.136 53.1412 133.538 54.2122C133.725 54.7478 133.886 55.3343 133.967 55.9464C134.047 56.5584 134.047 57.196 133.994 57.859C133.86 59.1596 133.511 60.3837 133.001 61.4038C132.492 62.4239 131.822 63.2654 131.071 63.75C130.347 64.26 129.623 64.4895 129.14 64.5405C128.899 64.5915 128.684 64.566 128.577 64.5915C128.47 64.617 128.39 64.617 128.39 64.5915Z" fill="#455A64"/>
</g>
<g clip-path="url(#clip4_284_61874)">
<path d="M31.4392 71.699H7.66329C3.63886 71.699 0.355774 68.5933 0.355774 64.749V6.98344C0.355774 3.15591 3.62121 0.0334473 7.66329 0.0334473H31.4392C35.4636 0.0334473 38.7467 3.13912 38.7467 6.98344V64.749C38.7467 68.5933 35.4636 71.699 31.4392 71.699Z" fill="#E0E0E0"/>
<path d="M31.4392 71.6991C31.4392 71.6991 31.6334 71.6823 31.9864 71.6656C32.1629 71.6656 32.3924 71.6152 32.6571 71.5816C32.7277 71.5648 32.7983 71.5648 32.8689 71.548C32.9395 71.5313 33.0102 71.5145 33.0984 71.4977C33.2573 71.4641 33.4161 71.4137 33.5926 71.3802C34.2634 71.1619 35.093 70.8262 35.9226 70.2218C35.9755 70.1883 36.0285 70.1547 36.0814 70.1043C36.1344 70.054 36.1873 70.0204 36.2226 69.97C36.3285 69.8861 36.4168 69.8022 36.5227 69.7014C36.6286 69.6175 36.7169 69.5 36.8228 69.3992C36.911 69.2985 37.0346 69.1978 37.1228 69.0803C37.2993 68.8453 37.4935 68.627 37.6524 68.3584C37.723 68.2241 37.8289 68.1066 37.8995 67.9555C37.9701 67.8212 38.0407 67.6702 38.1113 67.5191C38.1819 67.368 38.2349 67.2169 38.3055 67.0658C38.3408 66.9819 38.3584 66.9147 38.3937 66.8308C38.429 66.7468 38.4467 66.6629 38.4643 66.579C38.4996 66.4111 38.5526 66.2432 38.5879 66.0753C38.6232 65.9075 38.6408 65.7228 38.6761 65.5549C38.7467 64.8499 38.7291 64.0944 38.7291 63.3054C38.7291 61.7274 38.7291 60.0151 38.7291 58.1852C38.7291 54.5088 38.7291 50.3287 38.7291 45.7122C38.7291 36.4623 38.7291 25.4498 38.7114 13.2285C38.7114 11.7008 38.7114 10.1564 38.7114 8.59517C38.7114 8.20905 38.7114 7.80616 38.7114 7.42005C38.7114 7.01715 38.6938 6.63104 38.6761 6.24493C38.5879 5.45592 38.3584 4.70048 37.9877 3.97862C37.2464 2.55169 35.9755 1.34299 34.4046 0.688285C33.6279 0.352536 32.7807 0.151087 31.9334 0.100725C31.5098 0.0671497 31.0685 0.0839372 30.6273 0.0839372C30.186 0.0839372 29.7624 0.0839372 29.3211 0.0839372C22.3313 0.0839372 15.0944 0.0839372 7.66331 0.0839372C6.74546 0.0839372 5.82761 0.251812 4.98036 0.570773C4.13311 0.889734 3.35647 1.37657 2.68573 1.96413C2.03264 2.55169 1.48546 3.27355 1.09714 4.04577C0.726469 4.83478 0.497006 5.67415 0.444053 6.53031C0.408751 6.95 0.426402 7.38647 0.426402 7.80616C0.426402 8.22584 0.426402 8.66232 0.426402 9.082C0.426402 9.93816 0.426402 10.7775 0.426402 11.6337C0.426402 13.3292 0.426402 15.008 0.426402 16.6699C0.426402 23.3177 0.426402 29.7473 0.426402 35.858C0.426402 41.9686 0.426402 47.777 0.426402 53.2162C0.426402 55.9357 0.426402 58.5546 0.426402 61.0895C0.426402 62.3485 0.426402 63.5908 0.426402 64.7995C0.426402 64.9506 0.444053 65.1017 0.444053 65.2528L0.461704 65.471L0.497006 65.6892C0.514657 65.8403 0.549959 65.9914 0.56761 66.1257C0.602912 66.2768 0.638214 66.4111 0.673516 66.5622C0.74412 66.8476 0.867677 67.1162 0.955932 67.4015C1.00888 67.5358 1.07949 67.6701 1.15009 67.8044C1.2207 67.9387 1.27365 68.073 1.3619 68.1906C1.96204 69.181 2.79164 70.0372 3.78009 70.6079C4.7509 71.1955 5.84526 71.548 6.92197 71.6656C7.18674 71.6823 7.46915 71.6991 7.73392 71.6991C7.99868 71.6991 8.26345 71.6991 8.54586 71.6991C9.07539 71.6991 9.60492 71.6991 10.1168 71.6991C11.1406 71.6991 12.1467 71.6991 13.1175 71.6991C16.983 71.6991 20.3014 71.6991 23.0197 71.6991C25.7379 71.6991 27.8561 71.6991 29.2858 71.6991C30.0095 71.6991 30.539 71.6991 30.9097 71.6991C31.2451 71.6991 31.4392 71.6991 31.4392 71.6991C31.4392 71.6991 31.2451 71.6991 30.892 71.6991C30.5214 71.6991 29.9742 71.6991 29.2681 71.6991C27.8384 71.6991 25.7203 71.6991 23.002 71.6991C20.2838 71.6991 16.9654 71.6991 13.0998 71.6991C12.129 71.6991 11.1406 71.6991 10.0992 71.6991C9.58727 71.6991 9.05774 71.6991 8.52821 71.6991C8.26345 71.6991 7.99868 71.6991 7.71627 71.6991C7.4515 71.6823 7.16909 71.6823 6.90432 71.6656C5.80996 71.548 4.7156 71.1955 3.72714 70.6079C2.73868 70.0204 1.90909 69.181 1.2913 68.1738C1.20305 68.0563 1.15009 67.922 1.07949 67.7877C1.00888 67.6534 0.938281 67.5191 0.885328 67.3848C0.779422 67.0994 0.655865 66.8308 0.585261 66.5454C0.549959 66.3943 0.497006 66.26 0.461704 66.1089C0.444053 65.9578 0.408751 65.8067 0.3911 65.6724L0.373449 65.471L0.355798 65.2528C0.355798 65.1017 0.338147 64.9506 0.338147 64.7995C0.338147 63.5908 0.338147 62.3485 0.338147 61.0895C0.338147 58.5714 0.338147 55.9357 0.338147 53.2162C0.338147 47.777 0.338147 41.9686 0.338147 35.858C0.320496 29.7473 0.320496 23.3345 0.320496 16.6699C0.320496 15.008 0.320496 13.3292 0.320496 11.6337C0.320496 10.7943 0.320496 9.93816 0.320496 9.082C0.320496 8.66232 0.320496 8.22584 0.320496 7.80616C0.320496 7.38647 0.320496 6.95 0.338147 6.51352C0.408751 5.65736 0.638214 4.80121 1.02654 4.02898C1.41486 3.23997 1.96204 2.51812 2.63278 1.91377C3.30352 1.30942 4.09781 0.822584 4.96271 0.503623C5.82761 0.167874 6.74546 0 7.68096 0C15.0944 0 22.3313 0 29.3387 0C29.78 0 30.2036 0 30.6449 0C31.0862 0 31.5098 0 31.9511 0.0167874C32.816 0.0671497 33.6809 0.268599 34.4575 0.604348C36.0461 1.25906 37.317 2.48454 38.0583 3.94505C38.429 4.66691 38.6585 5.45592 38.7467 6.24493C38.782 6.64782 38.7997 7.03393 38.782 7.43683C38.782 7.82294 38.782 8.22584 38.782 8.61195C38.782 10.1732 38.782 11.7176 38.782 13.2453C38.782 25.4665 38.782 36.4791 38.7644 45.729C38.7644 50.3455 38.7644 54.5256 38.7644 58.202C38.7644 60.0319 38.7644 61.7442 38.7644 63.3222C38.7644 64.1112 38.782 64.8666 38.7114 65.5717C38.6761 65.7564 38.6585 65.9243 38.6232 66.0921C38.5879 66.26 38.5349 66.4279 38.4996 66.5957C38.482 66.6797 38.4643 66.7636 38.429 66.8476C38.3937 66.9315 38.3761 66.9986 38.3408 67.0826C38.2702 67.2337 38.2349 67.4015 38.1466 67.5358C38.076 67.6869 38.0054 67.8212 37.9348 67.9723C37.8642 68.1234 37.7759 68.2409 37.6877 68.3752C37.5288 68.6438 37.3346 68.8788 37.1581 69.0971C37.0699 69.2146 36.964 69.3153 36.8581 69.416C36.7522 69.5168 36.6639 69.6175 36.558 69.7182C36.4521 69.8021 36.3462 69.9029 36.2579 69.9868C36.205 70.0372 36.152 70.0707 36.0991 70.1211C36.0461 70.1547 35.9932 70.205 35.9402 70.2386C35.1106 70.843 34.281 71.1955 33.6103 71.3969C33.4338 71.4473 33.2749 71.4809 33.1161 71.5145C33.0455 71.5313 32.9749 71.548 32.8866 71.5648C32.816 71.5816 32.7454 71.5816 32.6748 71.5984C32.41 71.632 32.1806 71.6823 32.004 71.6823C31.6157 71.6823 31.4392 71.6991 31.4392 71.6991Z" fill="#263238"/>
<path d="M30.8214 69.4329H8.01631C4.75088 69.4329 2.12088 66.9148 2.12088 63.8259V7.38654C2.12088 4.28087 4.76853 1.77954 8.01631 1.77954H30.8214C34.0868 1.77954 36.7168 4.29766 36.7168 7.38654V63.8259C36.7168 66.9148 34.0868 69.4329 30.8214 69.4329Z" fill="white"/>
<g opacity="0.3">
<path d="M38.7467 65.6723L34.9517 56.456C34.8458 56.2042 35.04 55.9524 35.3224 55.9524H38.7467V65.6723Z" fill="black"/>
</g>
<path d="M31.9864 19.1375C31.9864 19.1208 32.2335 19.1375 32.6748 19.0368C32.8866 18.9697 33.1513 18.8689 33.4338 18.7011C33.6985 18.5164 33.9809 18.2478 34.1928 17.8953C34.2987 17.7106 34.3869 17.5092 34.4399 17.2909C34.4752 17.1734 34.4928 17.0727 34.5105 16.9552C34.5105 16.8377 34.5281 16.7202 34.5281 16.5859C34.5281 16.334 34.5281 16.0654 34.5281 15.7968C34.5281 15.5282 34.5281 15.2261 34.5105 14.9407C34.4399 14.3699 34.1575 13.7656 33.6103 13.3459C33.3455 13.1276 33.0278 12.9598 32.6748 12.8758C32.3217 12.7751 31.9511 12.7751 31.5628 12.7751C25.2966 12.7751 16.6477 12.7919 7.09846 12.8087C6.51598 12.8087 5.95115 13.0101 5.50987 13.3459C5.0686 13.6984 4.76853 14.1685 4.64497 14.7057C4.59202 14.9743 4.59202 15.2261 4.59202 15.5115C4.59202 15.7801 4.59202 16.0654 4.59202 16.334C4.59202 16.6026 4.57437 16.8712 4.62732 17.1231C4.68027 17.3749 4.76853 17.6267 4.90974 17.8449C5.1745 18.2982 5.59813 18.6507 6.09235 18.8689C6.33947 18.9697 6.60423 19.0368 6.85135 19.0536C7.11611 19.0704 7.39853 19.0704 7.66329 19.0704C8.74 19.0704 9.79907 19.0704 10.8405 19.0704C14.9708 19.0704 18.7128 19.0872 21.8371 19.0872C24.9613 19.104 27.503 19.104 29.2505 19.1208C30.1154 19.1208 30.8038 19.1375 31.2627 19.1375C31.4921 19.1375 31.6687 19.1375 31.7922 19.1543C31.8452 19.1543 31.8981 19.1543 31.9334 19.1543C31.9687 19.1375 31.9864 19.1375 31.9864 19.1375C31.9864 19.1375 31.9687 19.1375 31.9334 19.1375C31.8981 19.1375 31.8628 19.1375 31.7922 19.1375C31.6687 19.1375 31.4921 19.1375 31.2627 19.1543C30.8038 19.1543 30.1154 19.1711 29.2505 19.1711C27.503 19.1711 24.9613 19.1879 21.8371 19.2047C18.7128 19.2047 14.9708 19.2215 10.8405 19.2215C9.79907 19.2215 8.74 19.2215 7.66329 19.2215C7.39853 19.2215 7.13376 19.2215 6.8337 19.2047C6.55128 19.1711 6.26886 19.104 6.0041 19.0032C5.47457 18.785 5.03329 18.3989 4.75088 17.9121C4.60967 17.677 4.50376 17.4084 4.45081 17.1231L4.41551 16.9216L4.39786 16.7034C4.39786 16.5691 4.39786 16.4348 4.39786 16.3005C4.39786 16.0319 4.39786 15.7465 4.39786 15.4779C4.39786 15.2093 4.39786 14.9239 4.45081 14.6385C4.57437 14.0845 4.90974 13.5641 5.36866 13.1948C5.84524 12.8255 6.44537 12.624 7.06316 12.624C16.6124 12.6408 25.2613 12.6408 31.5275 12.6576C31.7216 12.6576 31.9158 12.6576 32.1099 12.6744C32.3041 12.6912 32.4983 12.7247 32.6748 12.7751C33.0454 12.8758 33.3808 13.0437 33.6456 13.2787C34.1928 13.732 34.5105 14.3531 34.5634 14.9575C34.5811 15.2597 34.5634 15.545 34.5811 15.8136C34.5811 16.0822 34.5811 16.3508 34.5811 16.6026C34.5987 17.1231 34.4399 17.5931 34.2281 17.9456C33.9986 18.315 33.7162 18.5836 33.4338 18.7514C33.1513 18.9361 32.8689 19.0368 32.6571 19.0872C32.6042 19.104 32.5512 19.1208 32.4983 19.1208C32.4453 19.1375 32.3924 19.1375 32.357 19.1375C32.2688 19.1543 32.1982 19.1543 32.1452 19.1543C32.0923 19.1543 32.0393 19.1543 32.004 19.1543C32.004 19.1375 31.9864 19.1375 31.9864 19.1375Z" fill="#005B96"/>
<path d="M28.5974 7.16811C28.5974 7.16811 28.5444 7.18489 28.4385 7.20168C28.3503 7.23526 28.2091 7.28562 28.1032 7.4367C27.9973 7.571 27.9443 7.78924 28.0149 7.99069C28.0855 8.19214 28.315 8.3768 28.5797 8.36001C28.8445 8.36001 29.074 8.19214 29.1446 7.99069C29.2328 7.78924 29.1622 7.571 29.0563 7.4367C28.9504 7.3024 28.8092 7.23526 28.721 7.20168C28.6503 7.16811 28.5974 7.16811 28.5974 7.16811C28.5974 7.16811 28.6504 7.15132 28.7563 7.16811C28.8622 7.18489 29.021 7.25204 29.1446 7.38634C29.2681 7.52064 29.3387 7.77245 29.2505 8.00748C29.1622 8.2425 28.8975 8.44395 28.5974 8.44395C28.2973 8.44395 28.0326 8.2425 27.9443 8.00748C27.8561 7.77245 27.9267 7.53743 28.0502 7.38634C28.1738 7.23526 28.3326 7.18489 28.4385 7.16811C28.5444 7.15132 28.5974 7.16811 28.5974 7.16811Z" fill="#FF725E"/>
<path d="M30.4684 7.16811C30.4684 7.16811 30.4154 7.18489 30.3095 7.20168C30.2213 7.23526 30.08 7.28562 29.9741 7.4367C29.8682 7.571 29.8153 7.78924 29.8859 7.99069C29.9565 8.19214 30.186 8.3768 30.4507 8.36001C30.7155 8.36001 30.9449 8.19214 31.0155 7.99069C31.1038 7.78924 31.0332 7.571 30.9273 7.4367C30.8214 7.3024 30.6802 7.23526 30.5919 7.20168C30.5213 7.16811 30.4684 7.16811 30.4684 7.16811C30.4684 7.16811 30.5213 7.15132 30.6272 7.16811C30.7331 7.18489 30.892 7.25204 31.0155 7.38634C31.1391 7.52064 31.2097 7.77245 31.1215 8.00748C31.0332 8.2425 30.7684 8.44395 30.4684 8.44395C30.1683 8.44395 29.9035 8.2425 29.8153 8.00748C29.727 7.77245 29.7976 7.53743 29.9212 7.38634C30.0447 7.23526 30.2036 7.18489 30.3095 7.16811C30.3978 7.15132 30.4684 7.16811 30.4684 7.16811Z" fill="#FF725E"/>
<path d="M32.3217 7.16811C32.3217 7.16811 32.2688 7.18489 32.1629 7.20168C32.0746 7.23526 31.9334 7.28562 31.8275 7.4367C31.7216 7.571 31.6686 7.78924 31.7392 7.99069C31.8099 8.19214 32.0393 8.3768 32.3041 8.36001C32.5688 8.36001 32.7983 8.19214 32.8689 7.99069C32.9572 7.78924 32.8866 7.571 32.7807 7.4367C32.6747 7.3024 32.5335 7.23526 32.4453 7.20168C32.3923 7.16811 32.3217 7.16811 32.3217 7.16811C32.3217 7.16811 32.3747 7.15132 32.4806 7.16811C32.5865 7.18489 32.7454 7.25204 32.8689 7.38634C32.9925 7.52064 33.0631 7.77245 32.9748 8.00748C32.8866 8.2425 32.6218 8.44395 32.3217 8.44395C32.0217 8.44395 31.7569 8.2425 31.6686 8.00748C31.5804 7.77245 31.651 7.53743 31.7745 7.38634C31.8981 7.23526 32.057 7.18489 32.1629 7.16811C32.2688 7.15132 32.3217 7.16811 32.3217 7.16811Z" fill="#FF725E"/>
<path d="M6.51601 6.86618C6.25124 7.11799 5.98648 7.38659 5.72171 7.6384C5.65111 7.72233 5.63346 7.85663 5.72171 7.94057C5.98648 8.14202 6.25124 8.36026 6.51601 8.56171C6.60426 8.62886 6.74547 8.64564 6.83373 8.56171C6.90433 8.49456 6.92198 8.34347 6.83373 8.25953C6.56896 8.05808 6.30419 7.83985 6.03943 7.6384C6.03943 7.73912 6.03943 7.83985 6.03943 7.94057C6.30419 7.68876 6.56896 7.42016 6.83373 7.16835C6.92198 7.08441 6.92198 6.95011 6.83373 6.86618C6.74547 6.78224 6.60426 6.78224 6.51601 6.86618Z" fill="#FF725E"/>
<path d="M8.58117 15.8474C8.58117 16.0824 8.42231 16.2838 8.19284 16.3678C7.96338 16.4517 7.69862 16.3846 7.53976 16.1999C7.3809 16.0153 7.36325 15.7634 7.4868 15.562C7.61036 15.3605 7.85747 15.2598 8.08694 15.2934C8.36935 15.3605 8.58117 15.5788 8.58117 15.8474C8.58117 15.9817 8.81063 15.9817 8.79298 15.8474C8.79298 15.5284 8.58117 15.243 8.26345 15.1255C7.94573 15.008 7.57506 15.1087 7.36325 15.3605C7.15143 15.6124 7.11613 15.9649 7.29264 16.2503C7.46915 16.5357 7.80452 16.67 8.13989 16.6028C8.51056 16.5357 8.79298 16.2167 8.79298 15.8474C8.79298 15.7131 8.58117 15.7131 8.58117 15.8474Z" fill="#FF725E"/>
<path d="M8.38704 16.4182C8.4753 16.5021 8.56355 16.6029 8.65181 16.6868C8.66946 16.7036 8.66946 16.7204 8.68711 16.7204C8.72241 16.754 8.81067 16.754 8.84597 16.7204C8.88127 16.67 8.88127 16.6197 8.84597 16.5693C8.75771 16.4854 8.66946 16.3846 8.5812 16.3007C8.56355 16.2839 8.56355 16.2671 8.5459 16.2671C8.5106 16.2335 8.42234 16.2335 8.38704 16.2671C8.35174 16.3007 8.35174 16.3678 8.38704 16.4182Z" fill="#FF725E"/>
<path d="M7.94575 24.8117C7.94575 24.7949 8.12226 24.8117 8.38702 24.711C8.52823 24.6606 8.66944 24.5767 8.81065 24.4424C8.95185 24.3081 9.07541 24.1234 9.14602 23.8884C9.21662 23.6534 9.19897 23.3848 9.07541 23.133C8.95185 22.8811 8.74004 22.6461 8.43998 22.5286C8.29877 22.4615 8.12226 22.4279 7.94575 22.4279C7.76924 22.4279 7.57508 22.4279 7.38092 22.4279C7.01024 22.4279 6.60427 22.4279 6.1983 22.4279C5.82763 22.4279 5.45696 22.5958 5.24514 22.8644C5.01568 23.133 4.94508 23.4687 4.99803 23.7709C5.05098 24.0731 5.22749 24.3417 5.45696 24.5095C5.58051 24.5935 5.70407 24.6606 5.82763 24.6942C5.95118 24.7278 6.09239 24.7445 6.21595 24.7445C6.74548 24.7445 7.1691 24.7613 7.46917 24.7781C7.78689 24.7781 7.94575 24.7949 7.94575 24.8117C7.94575 24.8285 7.78689 24.8285 7.48682 24.8453C7.18675 24.8621 6.76313 24.8621 6.2336 24.8788C6.09239 24.8788 5.95118 24.8621 5.80998 24.8285C5.66877 24.7781 5.52756 24.7278 5.38635 24.627C5.12159 24.4424 4.90977 24.1402 4.83917 23.8045C4.76857 23.4519 4.85682 23.0658 5.12159 22.7636C5.3687 22.4615 5.77467 22.26 6.21595 22.26C6.62192 22.26 7.01024 22.26 7.39857 22.26C7.59273 22.26 7.76924 22.26 7.9634 22.26C8.15756 22.26 8.35172 22.3104 8.51058 22.3775C8.84595 22.5286 9.09306 22.7972 9.21662 23.0826C9.34018 23.368 9.34018 23.6702 9.26957 23.9388C9.19897 24.1906 9.04011 24.392 8.88125 24.5263C8.72239 24.6606 8.54588 24.7445 8.40467 24.7949C8.26347 24.8453 8.13991 24.8453 8.0693 24.8453C7.9987 24.8117 7.94575 24.8117 7.94575 24.8117Z" fill="#FF725E"/>
<path d="M33.2043 24.8117C33.2043 24.7949 33.3808 24.8117 33.6456 24.711C33.7868 24.6606 33.928 24.5767 34.0692 24.4424C34.2104 24.3081 34.334 24.1234 34.4046 23.8884C34.4752 23.6534 34.4575 23.3848 34.334 23.133C34.2104 22.8811 33.9986 22.6461 33.6986 22.5286C33.5573 22.4615 33.3808 22.4279 33.2043 22.4279C33.0278 22.4279 32.8337 22.4279 32.6395 22.4279C32.2688 22.4279 31.8628 22.4279 31.4569 22.4279C31.0862 22.4279 30.7155 22.5958 30.5037 22.8644C30.2743 23.133 30.2037 23.4687 30.2566 23.7709C30.3096 24.0731 30.4861 24.3417 30.7155 24.5095C30.8391 24.5935 30.9626 24.6606 31.0862 24.6942C31.2098 24.7278 31.351 24.7445 31.4745 24.7445C32.0041 24.7445 32.4277 24.7613 32.7277 24.7781C33.0278 24.7949 33.2043 24.7949 33.2043 24.8117C33.2043 24.8285 33.0455 24.8285 32.7454 24.8453C32.4453 24.8621 32.0217 24.8621 31.4922 24.8788C31.351 24.8788 31.2098 24.8621 31.0686 24.8285C30.9273 24.7781 30.7861 24.7278 30.6449 24.627C30.3802 24.4424 30.1684 24.1402 30.0977 23.8045C30.0271 23.4519 30.1154 23.0658 30.3802 22.7636C30.6273 22.4615 31.0332 22.26 31.4745 22.26C31.8805 22.26 32.2688 22.26 32.6571 22.26C32.8513 22.26 33.0278 22.26 33.222 22.26C33.4161 22.26 33.6103 22.3104 33.7692 22.3775C34.1045 22.5286 34.3516 22.7972 34.4752 23.0826C34.5988 23.368 34.5988 23.6702 34.5281 23.9388C34.4575 24.1906 34.2987 24.392 34.1398 24.5263C33.981 24.6606 33.8045 24.7445 33.6632 24.7949C33.522 24.8453 33.3985 24.8453 33.3279 24.8453C33.2396 24.8117 33.2043 24.8117 33.2043 24.8117Z" fill="#FF725E"/>
<path d="M19.3836 24.8119C19.3836 24.7951 19.4542 24.8119 19.613 24.7783C19.7542 24.7447 19.9661 24.6776 20.1779 24.5097C20.3897 24.3418 20.6015 24.0565 20.6368 23.6871C20.6544 23.5025 20.6191 23.301 20.5485 23.1164C20.4603 22.9317 20.3191 22.747 20.1249 22.6127C19.9308 22.4784 19.6836 22.3945 19.4189 22.3945C19.1365 22.3945 18.854 22.3945 18.554 22.3945C17.9538 22.3945 17.3184 22.3945 16.6477 22.3945C15.3062 22.3945 13.8235 22.3945 12.2702 22.3945C11.8996 22.3945 11.5642 22.5624 11.3347 22.8142C11.1053 23.066 11.017 23.4185 11.07 23.7375C11.1229 24.0564 11.3171 24.3418 11.5995 24.5097C11.7407 24.5936 11.8819 24.6608 12.0408 24.6776C12.129 24.6944 12.1996 24.6944 12.2879 24.6944C12.3761 24.6944 12.4644 24.6944 12.535 24.6944C13.8765 24.6944 15.0944 24.7112 16.1005 24.7112C17.1066 24.7279 17.9362 24.7279 18.501 24.7447C18.7834 24.7447 18.9953 24.7615 19.1541 24.7615C19.313 24.7951 19.3836 24.7951 19.3836 24.8119C19.3836 24.8119 19.313 24.8287 19.1541 24.8287C18.9953 24.8287 18.7834 24.8455 18.501 24.8455C17.9185 24.8455 17.1066 24.8622 16.1005 24.879C15.0767 24.879 13.8765 24.8958 12.535 24.8958C12.4467 24.8958 12.3585 24.8958 12.2879 24.8958C12.1996 24.8958 12.1114 24.8958 12.0231 24.879C11.8466 24.8455 11.6701 24.7783 11.5112 24.6776C11.1935 24.4761 10.964 24.1572 10.9111 23.7879C10.8405 23.4185 10.9464 23.0156 11.2112 22.7302C11.4759 22.4281 11.8642 22.2434 12.2879 22.2434C13.8412 22.2434 15.3062 22.2434 16.6653 22.2434C17.3361 22.2434 17.9715 22.2434 18.5716 22.2434C18.8717 22.2434 19.1541 22.2434 19.4365 22.2434C19.7366 22.2434 20.0014 22.3441 20.2132 22.4952C20.425 22.6463 20.5838 22.8478 20.6721 23.0492C20.7604 23.2674 20.778 23.4857 20.7604 23.6703C20.7074 24.0732 20.4779 24.3754 20.2485 24.5265C20.019 24.6944 19.7895 24.7447 19.6483 24.7783C19.5777 24.7951 19.5071 24.7951 19.4718 24.7951C19.4012 24.8119 19.3836 24.8119 19.3836 24.8119Z" fill="#FF725E"/>
<path d="M27.5736 24.8117C27.5736 24.8117 27.6266 24.7949 27.7502 24.7781C27.8561 24.7613 28.0326 24.7278 28.2091 24.6103C28.3856 24.5095 28.5798 24.3416 28.7033 24.0731C28.8269 23.8212 28.8798 23.4855 28.7386 23.1497C28.6151 22.8308 28.2973 22.5118 27.8737 22.4279C27.7678 22.3943 27.6619 22.3943 27.556 22.3943C27.4324 22.3943 27.3265 22.3943 27.203 22.3943C26.9559 22.3943 26.7087 22.3943 26.4616 22.3943C25.4379 22.3943 24.3082 22.3943 23.1256 22.3943C22.8432 22.3943 22.5784 22.4782 22.3666 22.6461C22.1548 22.7972 21.9959 23.0322 21.943 23.2673C21.8724 23.5023 21.89 23.7541 21.9959 23.9891C22.0842 24.2074 22.243 24.392 22.4549 24.5263C22.5608 24.5935 22.6667 24.6438 22.7726 24.6774C22.8785 24.711 23.002 24.7278 23.1079 24.7278C23.3551 24.7278 23.5845 24.7278 23.814 24.7278C24.2729 24.7278 24.6965 24.7278 25.0849 24.7445C25.8615 24.7445 26.4793 24.7613 26.9206 24.7781C27.1324 24.7781 27.3089 24.7949 27.4148 24.7949C27.5207 24.7949 27.5736 24.7949 27.5736 24.8117C27.5736 24.8117 27.5207 24.8285 27.3971 24.8285C27.2912 24.8285 27.1147 24.8453 26.9029 24.8453C26.4616 24.8621 25.8438 24.8621 25.0672 24.8788C24.6789 24.8788 24.2553 24.8788 23.7963 24.8956C23.5669 24.8956 23.3374 24.8956 23.0903 24.8956C22.9667 24.8956 22.8255 24.8788 22.702 24.8453C22.5784 24.8117 22.4549 24.7613 22.3313 24.6774C22.1018 24.5263 21.9077 24.3249 21.8018 24.0731C21.6959 23.8212 21.6782 23.5359 21.7488 23.2505C21.8194 22.9819 21.9959 22.7133 22.2254 22.5454C22.4725 22.3607 22.7726 22.26 23.0903 22.26C24.2729 22.26 25.4026 22.26 26.4263 22.26C26.6734 22.26 26.9382 22.26 27.1677 22.26C27.2912 22.26 27.4148 22.26 27.5207 22.26C27.6442 22.26 27.7678 22.2768 27.8914 22.3104C28.3679 22.4279 28.7033 22.7804 28.8269 23.133C28.9681 23.5023 28.8975 23.8716 28.7563 24.1402C28.6151 24.4088 28.3856 24.5935 28.1914 24.6942C27.9973 24.7949 27.8208 24.8285 27.7149 24.8285C27.6266 24.8117 27.5736 24.8117 27.5736 24.8117Z" fill="#FF725E"/>
<path d="M8.06929 29.4284C8.06929 29.4284 8.05164 29.4284 8.01634 29.4284C7.98104 29.4284 7.92808 29.4284 7.85748 29.4284C7.71627 29.4452 7.48681 29.4452 7.22204 29.5291C6.95728 29.6131 6.63956 29.781 6.35714 30.0663C6.07473 30.3517 5.82761 30.7714 5.79231 31.275C5.79231 33.3399 5.80996 36.3448 5.80996 40.0381C5.80996 40.5081 5.80996 40.9782 5.80996 41.465C5.80996 41.7 5.80996 41.9518 5.80996 42.2037C5.80996 42.4555 5.79231 42.7073 5.84527 42.9423C5.93352 43.4291 6.18063 43.8992 6.60426 44.2181C7.01023 44.5539 7.53976 44.7553 8.10459 44.7553C10.3992 44.7553 12.8351 44.7553 15.4121 44.7553C20.5486 44.7553 26.2145 44.7553 32.1453 44.7553C32.869 44.7721 33.575 44.4364 33.981 43.8992C34.1928 43.6306 34.334 43.3116 34.4046 42.9927C34.4575 42.6737 34.4399 42.3212 34.4399 41.9686C34.4399 40.5921 34.4399 39.2323 34.4399 37.9061C34.4399 36.5799 34.4399 35.2704 34.4399 33.9946C34.4399 33.3567 34.4399 32.7188 34.4399 32.0976C34.4399 31.9465 34.4399 31.7787 34.4399 31.6276C34.4399 31.4765 34.4222 31.3254 34.3869 31.1911C34.3163 30.9057 34.1751 30.6203 33.9986 30.3853C33.6279 29.9153 33.0455 29.5963 32.4453 29.5459C32.3041 29.5291 32.1453 29.5291 31.9864 29.5291C31.8275 29.5291 31.6687 29.5291 31.5275 29.5291C31.2098 29.5291 30.9097 29.5291 30.6096 29.5291C29.3917 29.5291 28.2091 29.5291 27.0618 29.5291C24.7671 29.5291 22.649 29.5291 20.6898 29.5124C16.8065 29.4956 13.647 29.4956 11.4759 29.4788C10.3816 29.4788 9.55198 29.462 8.96949 29.462C8.68708 29.462 8.47526 29.462 8.31641 29.4452C8.2458 29.4452 8.19285 29.4452 8.15755 29.4452C8.08694 29.4284 8.06929 29.4284 8.06929 29.4284C8.06929 29.4284 8.08694 29.4284 8.12224 29.4284C8.15755 29.4284 8.2105 29.4284 8.2811 29.4284C8.42231 29.4284 8.65177 29.4284 8.93419 29.4116C9.51667 29.4116 10.3463 29.3948 11.4406 29.3948C13.6117 29.3948 16.7712 29.3781 20.6545 29.3613C22.5961 29.3613 24.7318 29.3613 27.0265 29.3445C28.1738 29.3445 29.3564 29.3445 30.5743 29.3445C30.8744 29.3445 31.1921 29.3445 31.4922 29.3445C31.651 29.3445 31.8099 29.3445 31.9511 29.3445C32.11 29.3445 32.2688 29.3445 32.4277 29.3613C33.0808 29.4284 33.6985 29.7642 34.0869 30.2678C34.281 30.5196 34.4399 30.8218 34.5105 31.1239C34.5458 31.275 34.5634 31.4429 34.5811 31.594C34.5811 31.7451 34.5811 31.913 34.5811 32.064C34.5811 32.6852 34.5811 33.3231 34.5811 33.961C34.5811 35.2369 34.5811 36.5463 34.5811 37.8725C34.5811 39.1987 34.5811 40.5585 34.5811 41.9351C34.5811 42.1029 34.5811 42.2708 34.5811 42.4555C34.5811 42.6233 34.5811 42.808 34.5458 42.9927C34.4752 43.3452 34.3163 43.6809 34.0869 43.9831C33.6456 44.5707 32.869 44.9232 32.0923 44.9064C26.1616 44.9064 20.4956 44.9064 15.3592 44.9064C12.7821 44.9064 10.3463 44.9064 8.05164 44.9064C7.46916 44.9064 6.88667 44.6882 6.46305 44.3357C6.03943 43.9831 5.75701 43.4795 5.66876 42.9759C5.6511 42.8416 5.63345 42.7241 5.63345 42.5898C5.63345 42.4723 5.63345 42.338 5.63345 42.2204C5.63345 41.9686 5.63345 41.7336 5.63345 41.4818C5.63345 40.995 5.63345 40.5249 5.63345 40.0549C5.6511 36.3616 5.6511 33.3567 5.66876 31.2918C5.72171 30.7714 5.96882 30.3349 6.26889 30.0496C6.56896 29.7642 6.90433 29.5963 7.16909 29.5124C7.45151 29.4284 7.66332 29.4284 7.82218 29.4284C7.89278 29.4284 7.94573 29.4284 7.98104 29.4284C8.05164 29.4116 8.06929 29.4116 8.06929 29.4284Z" fill="#FF725E"/>
<path d="M6.49833 30.4694C6.51598 30.419 12.482 33.4575 19.8072 37.2515C27.1323 41.0454 33.0631 44.1511 33.0278 44.1847C33.0101 44.2351 27.0441 41.1965 19.7189 37.4026C12.3938 33.6086 6.46302 30.5029 6.49833 30.4694Z" fill="#FF725E"/>
<path d="M33.2749 30.9224C33.2926 30.9728 27.2559 33.8602 19.7896 37.4024C12.3232 40.9277 6.25124 43.7648 6.23359 43.7144C6.21594 43.6641 12.2526 40.7766 19.719 37.2345C27.1853 33.7091 33.2573 30.8888 33.2749 30.9224Z" fill="#FF725E"/>
<path d="M13.5587 50.3454C13.5587 50.3286 13.6293 50.3454 13.7352 50.3118C13.8412 50.2783 14.0177 50.2279 14.1765 50.0936C14.3354 49.9593 14.4766 49.7243 14.4766 49.4221C14.4766 49.1367 14.2824 48.801 13.9294 48.6499C13.8412 48.6163 13.7529 48.5827 13.647 48.5827C13.5587 48.5827 13.4352 48.5827 13.3293 48.5827C13.0998 48.5827 12.8703 48.5827 12.6409 48.5827C12.1643 48.5827 11.6524 48.5827 11.1229 48.5827C10.0462 48.5827 8.88122 48.5827 7.64565 48.5827C7.36323 48.5827 7.09847 48.717 6.93961 48.9353C6.78075 49.1367 6.7278 49.4221 6.81605 49.6571C6.88666 49.8921 7.08082 50.0936 7.32793 50.1943C7.45149 50.2447 7.57504 50.2615 7.6986 50.2615C7.83981 50.2615 7.96337 50.2615 8.10457 50.2615C9.18129 50.2615 10.1344 50.2783 10.9464 50.2783C11.7583 50.2783 12.4114 50.295 12.8703 50.3118C13.0998 50.3118 13.2763 50.3286 13.3999 50.3286C13.5234 50.3286 13.5587 50.3286 13.5587 50.3454C13.5587 50.3454 13.4881 50.3622 13.3822 50.3622C13.2763 50.3622 13.0822 50.379 12.8527 50.379C12.3938 50.3958 11.7407 50.3958 10.9287 50.4126C10.1168 50.4126 9.14598 50.4293 8.08692 50.4293C7.94572 50.4293 7.82216 50.4293 7.68095 50.4293C7.53974 50.4293 7.38088 50.4126 7.23968 50.3622C6.95726 50.2615 6.7278 50.0264 6.62189 49.7243C6.53364 49.4389 6.56894 49.1031 6.78075 48.8513C6.97491 48.5995 7.29263 48.4316 7.64565 48.4316C8.88122 48.4316 10.0638 48.4316 11.1229 48.4316C11.6524 48.4316 12.1643 48.4316 12.6409 48.4316C12.8703 48.4316 13.0998 48.4316 13.3293 48.4316C13.4352 48.4316 13.5411 48.4316 13.6646 48.4316C13.7705 48.4484 13.8765 48.482 13.9824 48.5156C14.3883 48.6835 14.5825 49.0696 14.5648 49.3885C14.5648 49.7075 14.3883 49.9761 14.2118 50.1104C14.0353 50.2615 13.8412 50.3118 13.7352 50.3118C13.6823 50.3118 13.6293 50.3286 13.594 50.3118C13.5764 50.3454 13.5587 50.3454 13.5587 50.3454Z" fill="#FF725E"/>
<path d="M17.6891 64.4133C17.6891 64.3965 17.8656 64.4133 18.1656 64.3461C18.4657 64.279 18.9246 64.0775 19.2777 63.6243C19.4542 63.406 19.5954 63.1039 19.6307 62.7681C19.6483 62.6002 19.6483 62.4156 19.6483 62.2309C19.6483 62.0463 19.6483 61.8448 19.6483 61.6434C19.6483 60.8376 19.6483 59.8975 19.6307 58.8734C19.6307 57.8494 19.6307 56.7246 19.613 55.516C19.613 55.3649 19.613 55.2138 19.613 55.0627C19.613 54.9116 19.613 54.7605 19.5954 54.6094C19.5777 54.3073 19.4542 54.0219 19.2777 53.7533C18.9246 53.2329 18.2716 52.8971 17.5655 52.9475C14.7237 52.9475 11.5818 52.9475 8.29874 52.9475C8.10458 52.9475 7.91042 52.981 7.71625 53.0314C7.52209 53.0818 7.36323 53.1657 7.20438 53.2832C6.88666 53.5015 6.63954 53.8036 6.51599 54.1394C6.37478 54.4751 6.39243 54.8445 6.39243 55.2306C6.39243 55.5999 6.39243 55.9692 6.39243 56.3385C6.39243 57.8158 6.39243 59.226 6.39243 60.5858C6.39243 61.2573 6.39243 61.9288 6.39243 62.5667C6.41008 63.1878 6.7631 63.7586 7.29263 64.0608C7.5574 64.2118 7.83981 64.3126 8.13988 64.3294C8.28109 64.3461 8.43995 64.3461 8.58115 64.3461C8.72236 64.3461 8.88122 64.3461 9.02243 64.3461C9.60491 64.3461 10.1697 64.3461 10.7169 64.3461C12.8703 64.3629 14.6178 64.3629 15.8181 64.3797C16.4182 64.3797 16.8771 64.3965 17.2125 64.3965C17.3714 64.3965 17.4949 64.3965 17.5655 64.4133C17.6538 64.4133 17.6891 64.4133 17.6891 64.4133C17.6891 64.4133 17.6538 64.4133 17.5655 64.4301C17.4773 64.4301 17.3537 64.4301 17.2125 64.4469C16.8948 64.4469 16.4182 64.4637 15.8181 64.4637C14.6178 64.4637 12.8703 64.4804 10.7169 64.4972C10.1874 64.4972 9.62256 64.4972 9.02243 64.4972C8.88122 64.4972 8.72236 64.4972 8.58115 64.4972C8.43995 64.4972 8.28109 64.4972 8.12223 64.4972C7.80451 64.4804 7.48679 64.3629 7.22203 64.2118C6.65719 63.8929 6.26887 63.2717 6.25122 62.6002C6.25122 61.9623 6.25122 61.2908 6.25122 60.6193C6.25122 59.2595 6.25122 57.8494 6.25122 56.3721C6.25122 56.0028 6.25122 55.6335 6.25122 55.2641C6.25122 55.0795 6.25122 54.8948 6.25122 54.6934C6.25122 54.4919 6.30417 54.3073 6.37478 54.1058C6.51599 53.7365 6.78075 53.4007 7.13377 53.1657C7.31028 53.0482 7.50444 52.9643 7.6986 52.8971C7.91042 52.83 8.12223 52.8132 8.33404 52.7964C11.6171 52.7964 14.7414 52.7964 17.6008 52.7964C17.7773 52.7964 17.9715 52.8132 18.148 52.8467C18.3245 52.8803 18.501 52.9475 18.6599 53.0146C18.9776 53.1657 19.26 53.4007 19.4542 53.6861C19.6483 53.9715 19.7719 54.2905 19.7895 54.6094C19.8072 54.7773 19.7895 54.9284 19.7895 55.0795C19.7895 55.2306 19.7895 55.3816 19.7895 55.5327C19.7895 56.7414 19.7895 57.8662 19.7719 58.8902C19.7719 59.9143 19.7542 60.8376 19.7542 61.6601C19.7542 61.8616 19.7542 62.063 19.7542 62.2477C19.7542 62.4324 19.7542 62.617 19.7366 62.8017C19.6836 63.1542 19.5424 63.4564 19.3483 63.6914C18.9776 64.1615 18.501 64.3461 18.201 64.4133C18.0421 64.4469 17.9185 64.4637 17.8479 64.4637C17.7244 64.4301 17.6891 64.4301 17.6891 64.4133Z" fill="#FF725E"/>
<path d="M20.4426 59.629C20.425 59.6457 20.2661 59.4779 19.9661 59.1925C19.666 58.9071 19.2247 58.4874 18.6422 58.0342C18.3598 57.7991 17.9892 57.6313 17.5655 57.5641C17.3537 57.5305 17.1243 57.5137 16.8948 57.5641C16.6653 57.5977 16.4535 57.6816 16.2417 57.8159C15.8181 58.0677 15.4827 58.4371 15.1826 58.8735C15.0238 59.0918 14.8826 59.31 14.7237 59.5282C14.5649 59.7465 14.3883 59.9815 14.1589 60.1829C13.9294 60.3676 13.6294 60.5187 13.3116 60.4851C12.9939 60.4683 12.7292 60.2837 12.535 60.099C12.129 59.7297 11.8466 59.2932 11.4406 59.0582C11.3347 58.991 11.2288 58.9575 11.1229 58.9239C11.017 58.8903 10.8935 58.8903 10.7875 58.9071C10.5581 58.9239 10.3463 58.991 10.1698 59.1086C9.79909 59.31 9.53432 59.629 9.32251 59.9143C8.89889 60.5019 8.54587 60.9887 8.29875 61.3245C8.1752 61.4924 8.08694 61.6099 8.01634 61.6938C7.94573 61.7778 7.91043 61.8281 7.91043 61.8113C7.91043 61.8113 7.92808 61.761 7.99869 61.6602C8.05164 61.5763 8.13989 61.442 8.26345 61.2573C8.49291 60.9216 8.82828 60.418 9.25191 59.8136C9.46372 59.5114 9.72848 59.1757 10.1345 58.9575C10.3286 58.84 10.5581 58.756 10.8228 58.7392C10.9464 58.7224 11.0876 58.7392 11.2112 58.756C11.3347 58.7896 11.4583 58.8399 11.5818 58.9071C12.0408 59.1757 12.3408 59.6122 12.7115 59.9647C12.9057 60.1326 13.1175 60.2837 13.3822 60.3005C13.647 60.334 13.8941 60.2165 14.0883 60.0319C14.3001 59.864 14.459 59.629 14.6178 59.4107C14.7767 59.1925 14.9355 58.9743 15.0767 58.756C15.3768 58.3195 15.7475 57.9166 16.1888 57.6648C16.4182 57.5305 16.6477 57.4466 16.8948 57.3962C17.1419 57.3627 17.389 57.3794 17.6185 57.413C18.0774 57.4802 18.4657 57.6816 18.7658 57.9334C19.3483 58.4035 19.7719 58.8399 20.0543 59.1421C20.1955 59.2932 20.3014 59.4107 20.372 59.4947C20.425 59.5786 20.4603 59.629 20.4426 59.629Z" fill="#FF725E"/>
<path d="M14.7766 56.2042C14.759 56.2042 14.759 56.0867 14.706 55.9021C14.6531 55.7174 14.5119 55.4488 14.2295 55.2474C14.0883 55.1466 13.9117 55.0627 13.6999 55.0291C13.4881 54.9955 13.2763 55.0123 13.0468 55.0795C12.835 55.1466 12.6232 55.2977 12.482 55.4824C12.3408 55.667 12.2526 55.9188 12.2526 56.1707C12.2526 56.4225 12.3408 56.6743 12.482 56.8589C12.6232 57.0604 12.835 57.1947 13.0468 57.2618C13.2587 57.3458 13.4881 57.3458 13.6999 57.3122C13.9117 57.2786 14.0883 57.1947 14.2295 57.094C14.5119 56.8925 14.6531 56.6239 14.706 56.4393C14.759 56.3217 14.759 56.2042 14.7766 56.2042C14.7766 56.2042 14.8119 56.3217 14.7766 56.5232C14.7413 56.7246 14.6178 57.01 14.3001 57.2451C14.1412 57.3626 13.947 57.4633 13.7176 57.4969C13.4881 57.5304 13.241 57.5304 12.9762 57.4465C12.7291 57.3626 12.4997 57.2115 12.3232 56.9932C12.1466 56.775 12.0584 56.4896 12.0407 56.2042C12.0407 55.9188 12.1466 55.6335 12.3232 55.4152C12.4997 55.197 12.7291 55.0291 12.9762 54.962C13.2234 54.878 13.4881 54.878 13.7176 54.9116C13.947 54.962 14.1412 55.0459 14.3001 55.1634C14.6178 55.3984 14.7413 55.7006 14.7766 55.8853C14.8119 56.0867 14.7766 56.2042 14.7766 56.2042Z" fill="#FF725E"/>
<path d="M33.2926 62.3148C33.2749 62.3148 33.2749 62.1973 33.222 62.0127C33.169 61.828 33.0278 61.5594 32.7454 61.3579C32.6042 61.2572 32.4277 61.1733 32.2159 61.1397C32.0041 61.1061 31.7922 61.1229 31.5628 61.1901C31.351 61.2572 31.1392 61.4083 30.9979 61.593C30.8567 61.7776 30.7685 62.0294 30.7685 62.2813C30.7685 62.5331 30.8567 62.7849 30.9979 62.9695C31.1392 63.171 31.351 63.3053 31.5628 63.3724C31.7746 63.4564 32.0041 63.4564 32.2159 63.4228C32.4277 63.3892 32.6042 63.3053 32.7454 63.2046C33.0278 63.0031 33.169 62.7345 33.222 62.5499C33.2749 62.4156 33.2749 62.298 33.2926 62.3148C33.2926 62.3148 33.3279 62.4323 33.2926 62.6338C33.2573 62.8352 33.1337 63.1206 32.816 63.3556C32.6571 63.4732 32.463 63.5739 32.2335 63.6075C32.0041 63.641 31.7569 63.641 31.4922 63.5571C31.2451 63.4732 31.0156 63.3221 30.8391 63.1038C30.6626 62.8856 30.5743 62.6002 30.5567 62.3148C30.5567 62.0294 30.6626 61.7441 30.8391 61.5258C31.0156 61.3076 31.2451 61.1397 31.4922 61.0726C31.7393 60.9886 32.0041 60.9886 32.2335 61.0222C32.463 61.0726 32.6571 61.1565 32.816 61.274C33.1337 61.509 33.2573 61.8112 33.2926 61.9959C33.3279 62.1973 33.2926 62.3148 33.2926 62.3148Z" fill="#FF725E"/>
<path d="M29.6035 62.3148C29.5858 62.3148 29.5858 62.1973 29.5329 62.0127C29.4799 61.828 29.3387 61.5594 29.0563 61.3579C28.9151 61.2572 28.7386 61.1733 28.5268 61.1397C28.315 61.1061 28.1032 61.1229 27.8737 61.1901C27.6619 61.2572 27.4501 61.4083 27.3089 61.593C27.1677 61.7776 27.0794 62.0294 27.0794 62.2813C27.0794 62.5331 27.1677 62.7849 27.3089 62.9695C27.4501 63.171 27.6619 63.3053 27.8737 63.3724C28.0855 63.4564 28.315 63.4564 28.5268 63.4228C28.7386 63.3892 28.9151 63.3053 29.0563 63.2046C29.3387 63.0031 29.4799 62.7345 29.5329 62.5499C29.5858 62.4156 29.5858 62.298 29.6035 62.3148C29.6035 62.3148 29.6388 62.4323 29.6035 62.6338C29.5682 62.8352 29.4446 63.1206 29.1269 63.3556C28.9681 63.4732 28.7739 63.5739 28.5444 63.6075C28.315 63.641 28.0679 63.641 27.8031 63.5571C27.556 63.4732 27.3265 63.3221 27.15 63.1038C26.9735 62.8856 26.8852 62.6002 26.8676 62.3148C26.8676 62.0294 26.9735 61.7441 27.15 61.5258C27.3265 61.3076 27.556 61.1397 27.8031 61.0726C28.0502 60.9886 28.315 60.9886 28.5444 61.0222C28.7739 61.0726 28.9681 61.1565 29.1269 61.274C29.4446 61.509 29.5682 61.8112 29.6035 61.9959C29.6388 62.1973 29.6211 62.3148 29.6035 62.3148Z" fill="#FF725E"/>
<path d="M25.5085 62.3148C25.4908 62.3148 25.4908 62.1973 25.4379 62.0127C25.3849 61.828 25.2437 61.5594 24.9613 61.3579C24.8201 61.2572 24.6436 61.1733 24.4317 61.1397C24.2199 61.1061 24.0081 61.1229 23.7787 61.1901C23.5668 61.2572 23.355 61.4083 23.2138 61.593C23.0726 61.7776 22.9844 62.0294 22.9844 62.2813C22.9844 62.5331 23.0726 62.7849 23.2138 62.9695C23.355 63.171 23.5668 63.3053 23.7787 63.3724C23.9905 63.4564 24.2199 63.4564 24.4317 63.4228C24.6436 63.3892 24.8201 63.3053 24.9613 63.2046C25.2437 63.0031 25.3849 62.7345 25.4379 62.5499C25.4908 62.4156 25.4908 62.298 25.5085 62.3148C25.5085 62.3148 25.5438 62.4323 25.5085 62.6338C25.4732 62.8352 25.3496 63.1206 25.0319 63.3556C24.873 63.4732 24.6789 63.5739 24.4494 63.6075C24.2199 63.641 23.9728 63.641 23.7081 63.5571C23.4609 63.4732 23.2315 63.3221 23.055 63.1038C22.8785 62.8856 22.7902 62.6002 22.7726 62.3148C22.7726 62.0294 22.8785 61.7441 23.055 61.5258C23.2315 61.3076 23.4609 61.1397 23.7081 61.0726C23.9552 60.9886 24.2199 60.9886 24.4494 61.0222C24.6789 61.0726 24.873 61.1565 25.0319 61.274C25.3496 61.509 25.4732 61.8112 25.5085 61.9959C25.5438 62.1973 25.5261 62.3148 25.5085 62.3148Z" fill="#FF725E"/>
<path d="M32.7277 56.8255C32.7277 56.8087 32.816 56.8255 32.9572 56.7583C33.0278 56.7247 33.1161 56.6744 33.1867 56.5904C33.2573 56.5065 33.3102 56.389 33.3102 56.2379C33.3102 56.1036 33.2396 55.9357 33.1161 55.835C33.0455 55.7846 32.9748 55.7343 32.8689 55.7175C32.816 55.7007 32.7807 55.7007 32.7277 55.7007C32.6748 55.7007 32.6218 55.7007 32.5689 55.7007C32.1276 55.7007 31.6157 55.7007 31.0685 55.7175C28.8445 55.7343 25.7732 55.7511 22.3842 55.7511C22.2077 55.7511 22.0312 55.8518 21.943 55.9861C21.8547 56.1372 21.8371 56.3218 21.9253 56.4729C21.9959 56.624 22.1724 56.7247 22.3313 56.7415C22.5078 56.7415 22.7373 56.7415 22.9314 56.7415C23.7257 56.7415 24.5024 56.7415 25.2437 56.7415C26.7087 56.7415 28.0326 56.7583 29.1446 56.7583C30.2566 56.7751 31.1568 56.7751 31.7746 56.7919C32.0746 56.7919 32.3218 56.8087 32.4983 56.8087C32.6395 56.8087 32.7277 56.8255 32.7277 56.8255C32.7277 56.8255 32.6395 56.8423 32.4806 56.8423C32.3041 56.8423 32.0746 56.859 31.7569 56.859C31.1215 56.859 30.2389 56.8758 29.1269 56.8926C28.0149 56.8926 26.6911 56.9094 25.2261 56.9094C24.4847 56.9094 23.7257 56.9094 22.9138 56.9094C22.702 56.9094 22.5255 56.9094 22.296 56.9094C22.0665 56.8926 21.8371 56.7415 21.7312 56.5401C21.6253 56.3386 21.6253 56.0868 21.7488 55.8854C21.8724 55.6839 22.1018 55.5664 22.3489 55.5664C25.7379 55.5664 28.8092 55.5832 31.0332 55.6C31.5804 55.6 32.0923 55.6168 32.5336 55.6168C32.5865 55.6168 32.6395 55.6168 32.6924 55.6168C32.7454 55.6168 32.7983 55.6168 32.8513 55.6336C32.9572 55.6671 33.0455 55.7175 33.1337 55.7846C33.2926 55.9189 33.3455 56.1036 33.3455 56.2547C33.3455 56.4058 33.2749 56.5401 33.2043 56.6408C33.1161 56.7247 33.0278 56.7919 32.9572 56.8087C32.8866 56.8423 32.816 56.8423 32.763 56.8423C32.7454 56.8255 32.7277 56.8255 32.7277 56.8255Z" fill="#FF725E"/>
<path d="M32.7277 59.2595C32.7277 59.2428 32.816 59.2595 32.9572 59.1924C33.0278 59.1588 33.1161 59.1085 33.1867 59.0245C33.2573 58.9406 33.3102 58.8231 33.3102 58.672C33.3102 58.5377 33.2396 58.3698 33.1161 58.2691C33.0455 58.2187 32.9748 58.1684 32.8689 58.1516C32.816 58.1348 32.7807 58.1348 32.7277 58.1348C32.6748 58.1348 32.6218 58.1348 32.5689 58.1348C32.1276 58.1348 31.6157 58.1348 31.0685 58.1516C28.8445 58.1684 25.7732 58.1852 22.3842 58.1852C22.2077 58.1852 22.0312 58.2859 21.943 58.4202C21.8547 58.5713 21.8371 58.7559 21.9253 58.907C21.9959 59.0581 22.1724 59.1588 22.3313 59.1756C22.5078 59.1756 22.7373 59.1756 22.9314 59.1756C23.7257 59.1756 24.5024 59.1756 25.2437 59.1756C26.7087 59.1756 28.0326 59.1924 29.1446 59.1924C30.2566 59.2092 31.1568 59.2092 31.7746 59.226C32.0746 59.226 32.3218 59.2428 32.4983 59.2428C32.6395 59.2428 32.7277 59.2428 32.7277 59.2595C32.7277 59.2595 32.6395 59.2763 32.4806 59.2763C32.3041 59.2763 32.0746 59.2931 31.7569 59.2931C31.1215 59.2931 30.2389 59.3099 29.1269 59.3267C28.0149 59.3267 26.6911 59.3435 25.2261 59.3435C24.4847 59.3435 23.7257 59.3435 22.9138 59.3435C22.702 59.3435 22.5255 59.3435 22.296 59.3435C22.0665 59.3267 21.8371 59.1756 21.7312 58.9742C21.6253 58.7727 21.6253 58.5209 21.7488 58.3194C21.8724 58.118 22.1018 58.0005 22.3489 58.0005C25.7379 58.0005 28.8092 58.0173 31.0332 58.0341C31.5804 58.0341 32.0923 58.0508 32.5336 58.0508C32.5865 58.0508 32.6395 58.0508 32.6924 58.0508C32.7454 58.0508 32.7983 58.0508 32.8513 58.0676C32.9572 58.1012 33.0455 58.1516 33.1337 58.2187C33.2926 58.353 33.3455 58.5377 33.3455 58.6888C33.3455 58.8399 33.2749 58.9742 33.2043 59.0749C33.1161 59.1588 33.0278 59.226 32.9572 59.2428C32.8866 59.2763 32.816 59.2763 32.763 59.2763C32.7454 59.2595 32.7277 59.2595 32.7277 59.2595Z" fill="#FF725E"/>
<path d="M32.5689 49.4221C32.5689 49.4724 29.4094 49.506 25.5085 49.506C21.6076 49.506 18.4481 49.4724 18.4481 49.4221C18.4481 49.3717 21.6076 49.3381 25.5085 49.3381C29.4094 49.3381 32.5689 49.3885 32.5689 49.4221Z" fill="#FF725E"/>
</g>
<defs>
<clipPath id="clip0_284_61874">
<rect width="51.5385" height="119.613" fill="white" transform="translate(38.782 5.38745)"/>
</clipPath>
<clipPath id="clip1_284_61874">
<rect width="17.7507" height="17.6728" fill="white" transform="translate(93.3708 81.3716)"/>
</clipPath>
<clipPath id="clip2_284_61874">
<rect width="60.3042" height="33.7135" fill="white" transform="translate(79.6958 70.6606)"/>
</clipPath>
<clipPath id="clip3_284_61874">
<rect width="22.7381" height="31.3163" fill="white" transform="translate(113.213 46.9441)"/>
</clipPath>
<clipPath id="clip4_284_61874">
<rect width="38.4615" height="71.7159" fill="white" transform="translate(0.320496)"/>
</clipPath>
</defs>
</svg>
