<svg width="245" height="125" viewBox="0 0 245 125" fill="none" xmlns="http://www.w3.org/2000/svg">
<path d="M122.79 125C190.256 125 244.948 123.254 244.948 121.1C244.948 118.947 190.256 117.201 122.79 117.201C55.3237 117.201 0.631775 118.947 0.631775 121.1C0.631775 123.254 55.3237 125 122.79 125Z" fill="#EEEFF3"/>
<path d="M40.1161 42.6855C40.2732 42.7382 40.3779 42.8436 40.3779 43.0017L40.535 44.8461C40.535 45.0042 40.4826 45.1096 40.3256 45.1623L38.8071 45.5839L40.0114 46.6906C40.1161 46.796 40.1685 46.954 40.0638 47.0594L39.226 48.6931C39.1736 48.7985 39.0689 48.8512 38.9642 48.8512H38.9118L37.341 48.4823L37.8122 50.0105C37.8646 50.1686 37.8122 50.274 37.7075 50.3267L36.1367 51.2753C36.0843 51.328 36.032 51.328 35.9796 51.328C35.8749 51.328 35.8225 51.2753 35.7702 51.2226L34.5659 50.1686L34.1993 51.6442C34.147 51.8023 34.0423 51.855 33.9375 51.855H32.0525C31.8955 51.855 31.7907 51.7496 31.7384 51.6442L31.2148 50.1686L30.1676 51.2226C30.1152 51.2753 30.0105 51.328 29.9581 51.328C29.9057 51.328 29.8534 51.328 29.801 51.2753L28.0731 50.3267C27.9684 50.274 27.8637 50.1159 27.916 50.0105L28.1778 48.4823L26.6594 48.8512H26.607C26.5023 48.8512 26.3976 48.7985 26.3452 48.6931L25.298 47.0594C25.2456 46.954 25.2456 46.796 25.298 46.6906L26.2928 45.5839L24.722 45.1623C24.5649 45.1096 24.4602 45.0042 24.4602 44.8461L24.3031 43.0017C24.3031 42.8436 24.3555 42.7382 24.5126 42.6855L25.9787 42.2639L24.7744 41.1573C24.6697 41.0519 24.6173 40.8938 24.722 40.7884L25.5598 39.1547C25.6122 39.0493 25.7169 38.9966 25.8216 38.9966H25.874L27.4448 39.3655L26.9735 37.8373C26.9212 37.6792 26.9735 37.5738 27.0783 37.5211L28.6491 36.5725C28.7014 36.5198 28.7538 36.5198 28.8062 36.5198C28.9109 36.5198 28.9632 36.5725 29.0156 36.6252L30.2199 37.7319L30.5341 36.2563C30.5864 36.0982 30.6912 36.0455 30.7959 36.0455H32.6809C32.838 36.0455 32.9427 36.1509 32.995 36.2563L33.5186 37.7319L34.5659 36.6252C34.6182 36.5725 34.7229 36.5198 34.7753 36.5198C34.8277 36.5198 34.88 36.5198 34.9324 36.5725L36.6603 37.5211C36.765 37.5738 36.8697 37.7319 36.8174 37.8373L36.5556 39.3655L38.074 38.9966H38.1264C38.2311 38.9966 38.3358 39.0493 38.3882 39.1547L39.4354 40.7884C39.4878 40.8938 39.4878 41.0519 39.4354 41.1573L38.4406 42.2639L40.1161 42.6855ZM32.6285 47.3229C34.5135 47.3229 35.9796 45.7947 35.8225 43.9503C35.6654 42.1058 34.0423 40.5776 32.1573 40.5776C30.2723 40.5776 28.8062 42.1058 28.9632 43.9503C29.068 45.7947 30.7435 47.3229 32.6285 47.3229Z" fill="#EEEFF3"/>
<path d="M46.7136 20.1307C46.923 20.1834 47.0801 20.3415 47.0801 20.5523L47.2895 23.3453C47.2895 23.5561 47.1848 23.7142 46.9754 23.7669L44.7762 24.3993L46.5565 26.0856C46.7136 26.2437 46.7659 26.4545 46.6612 26.6126L45.4046 29.0367C45.3522 29.1948 45.1951 29.2475 45.038 29.2475C44.9857 29.2475 44.9857 29.2475 44.9333 29.2475L42.6294 28.6678L43.3625 30.9338C43.4148 31.1446 43.3625 31.3554 43.2054 31.4608L40.8492 32.831C40.7968 32.8837 40.6921 32.8837 40.6397 32.8837C40.535 32.8837 40.3779 32.831 40.3256 32.7783L38.4929 31.1973L38.0217 33.4107C37.9693 33.6215 37.8122 33.7268 37.6028 33.7268H34.6706C34.4611 33.7268 34.2517 33.5688 34.1993 33.4107L33.3616 31.1973L31.7907 32.7783C31.686 32.8837 31.5813 32.8837 31.4766 32.8837C31.3718 32.8837 31.3195 32.8837 31.2148 32.831L28.6491 31.4608C28.4396 31.3554 28.3349 31.1446 28.3873 30.9338L28.8062 28.6678L26.5546 29.2475C26.5023 29.2475 26.5023 29.2475 26.4499 29.2475C26.2928 29.2475 26.1358 29.1421 26.031 29.0367L24.4602 26.6126C24.3555 26.4545 24.3555 26.191 24.5126 26.0856L26.031 24.3993L23.7272 23.7669C23.5177 23.7142 23.3606 23.5561 23.3606 23.3453L23.1512 20.5523C23.1512 20.3415 23.2559 20.1834 23.4653 20.1307L25.6645 19.4983L23.8842 17.812C23.7272 17.6539 23.6748 17.4431 23.7795 17.285L25.0362 14.8609C25.0885 14.7028 25.2456 14.6501 25.4027 14.6501C25.4551 14.6501 25.4551 14.6501 25.5074 14.6501L27.8113 15.2298L27.0782 12.9638C27.0259 12.753 27.0782 12.5422 27.2353 12.4368L29.5916 11.0666C29.6439 11.0139 29.7487 11.0139 29.801 11.0139C29.9057 11.0139 30.0628 11.0666 30.1152 11.1193L31.9478 12.7003L32.4191 10.487C32.4714 10.2762 32.6285 10.1708 32.8379 10.1708H35.6654C35.8749 10.1708 36.0843 10.3289 36.1367 10.487L36.9745 12.7003L38.5453 11.1193C38.65 11.0139 38.7547 11.0139 38.8594 11.0139C38.9642 11.0139 39.0165 11.0139 39.1213 11.0666L41.6869 12.4368C41.8964 12.5422 42.0011 12.753 41.9487 12.9638L41.5299 15.2298L43.7814 14.6501C43.8337 14.6501 43.8337 14.6501 43.8861 14.6501C44.0432 14.6501 44.2003 14.7555 44.305 14.8609L45.8758 17.285C45.9805 17.4431 45.9805 17.7066 45.8234 17.812L44.4097 19.4983L46.7136 20.1307ZM35.6131 26.9815C38.4406 26.9815 40.535 24.7155 40.3779 21.9752C40.1685 19.1822 37.7075 16.9688 34.9324 16.9688C32.1049 16.9688 30.0105 19.2349 30.1675 21.9752C30.3246 24.7155 32.7856 26.9815 35.6131 26.9815Z" fill="#EEEFF3"/>
<path d="M77.397 40.8938C77.7112 40.9992 77.9206 41.2627 77.9206 41.5262L78.2348 45.6366C78.2348 45.9528 78.0777 46.2163 77.7636 46.269L74.4648 47.2175L77.0829 49.6944C77.2923 49.9052 77.397 50.2213 77.24 50.4848L75.4073 54.0683C75.3026 54.2791 75.0932 54.3845 74.8313 54.3845C74.779 54.3845 74.7266 54.3845 74.6743 54.3845L71.2185 53.5413L72.318 56.8613C72.4228 57.1775 72.318 57.441 72.0562 57.5991L68.6004 59.6543C68.4957 59.707 68.391 59.7597 68.2862 59.7597C68.1292 59.7597 67.9197 59.707 67.815 59.5489L65.1446 57.1775L64.4115 60.4448C64.3592 60.761 64.0974 60.9191 63.7832 60.9191H59.5943C59.2802 60.9191 59.0184 60.7083 58.9136 60.4448L57.7093 57.1775L55.3531 59.5489C55.2484 59.6543 55.0389 59.7597 54.8819 59.7597C54.7771 59.7597 54.6201 59.707 54.5153 59.6543L50.7453 57.5991C50.4835 57.441 50.3265 57.1248 50.3788 56.8613L50.9548 53.5413L47.6037 54.3845C47.5513 54.3845 47.499 54.3845 47.4466 54.3845C47.1848 54.3845 46.9754 54.2791 46.8183 54.0683L44.462 50.4848C44.305 50.2213 44.305 49.9052 44.5144 49.6944L46.7659 47.2175L43.3625 46.269C43.0483 46.1636 42.8389 45.9001 42.8389 45.6366L42.5247 41.5262C42.5247 41.21 42.6818 40.9465 42.9959 40.8938L46.2947 39.9452L43.6766 37.4684C43.4672 37.2576 43.3625 36.9414 43.5195 36.6779L45.3522 33.1471C45.4569 32.9364 45.6663 32.831 45.9281 32.831C45.9805 32.831 46.0329 32.831 46.0852 32.831L49.541 33.6741L48.4415 30.3541C48.3367 30.038 48.4415 29.7745 48.7033 29.6164L52.1591 27.5611C52.2638 27.5084 52.3685 27.4557 52.4733 27.4557C52.6303 27.4557 52.8398 27.5084 52.9445 27.6665L55.6149 30.038L56.348 26.7707C56.4003 26.4545 56.6621 26.2964 56.9763 26.2964H61.1652C61.4793 26.2964 61.7411 26.5072 61.8459 26.7707L63.0502 30.038L65.4064 27.6665C65.5111 27.5611 65.7206 27.4557 65.8776 27.4557C65.9824 27.4557 66.1394 27.5084 66.2442 27.5611L70.0142 29.6164C70.276 29.7745 70.433 30.0907 70.3807 30.3541L69.8047 33.6741L73.1558 32.831C73.2082 32.831 73.2605 32.831 73.3129 32.831C73.5747 32.831 73.7841 32.9364 73.9412 33.1471L76.2975 36.6779C76.4545 36.9414 76.4545 37.2576 76.2451 37.4684L73.9936 39.9452L77.397 40.8938ZM60.9034 51.0645C65.0922 51.0645 68.2339 47.7445 67.9197 43.6341C67.6056 39.5236 63.9926 36.2036 59.8038 36.2036C55.6149 36.2036 52.4733 39.5236 52.7874 43.6341C53.1016 47.7445 56.7145 51.0645 60.9034 51.0645Z" fill="#EEEFF3"/>
<path d="M69.1764 10.5396C69.3858 10.5923 69.4906 10.7504 69.4906 10.9612L69.7 13.4907C69.7 13.7015 69.5953 13.8596 69.4382 13.9123L67.3961 14.492L69.0193 16.0202C69.1764 16.1783 69.1764 16.3364 69.124 16.4945L67.9721 18.7078C67.9197 18.8132 67.7627 18.9186 67.6056 18.9186C67.5532 18.9186 67.5532 18.9186 67.5009 18.9186L65.3541 18.3917L66.0347 20.4469C66.0871 20.605 66.0347 20.8158 65.8777 20.9212L63.7309 22.1332C63.6785 22.1859 63.5738 22.1859 63.5214 22.1859C63.4167 22.1859 63.312 22.1332 63.2073 22.0805L61.5317 20.605L61.1128 22.6602C61.0605 22.8183 60.9034 22.9764 60.7463 22.9764H58.1806C57.9712 22.9764 57.8141 22.871 57.7617 22.6602L57.0287 20.605L55.5626 22.0805C55.5102 22.1332 55.4055 22.1859 55.3008 22.1859C55.2484 22.1859 55.1437 22.1859 55.0913 22.1332L52.7874 20.8685C52.6304 20.7631 52.5256 20.605 52.578 20.3942L52.9445 18.339L50.9025 18.8659C50.8501 18.8659 50.8501 18.8659 50.7977 18.8659C50.6407 18.8659 50.4836 18.8132 50.4312 18.6551L48.9651 16.4418C48.8604 16.2837 48.8604 16.0729 49.0175 15.9675L50.3788 14.4393L48.2844 13.8596C48.075 13.8069 47.9702 13.6488 47.9702 13.438L47.7608 10.9085C47.7608 10.6977 47.8655 10.5396 48.0226 10.4869L50.0647 9.90725L48.3368 8.43171C48.1797 8.27361 48.1797 8.11552 48.2321 7.95742L49.384 5.7441C49.4364 5.58601 49.5934 5.53331 49.7505 5.53331C49.8029 5.53331 49.8029 5.53331 49.8552 5.53331L52.002 6.06029L51.3213 4.00506C51.269 3.84697 51.3213 3.63617 51.4784 3.53078L53.6252 2.26602C53.6776 2.21332 53.7823 2.21332 53.8347 2.21332C53.9394 2.21332 54.0441 2.26602 54.1488 2.31872L55.8244 3.79427L56.2956 1.73904C56.348 1.58095 56.5051 1.42285 56.6622 1.42285H59.2278C59.4373 1.42285 59.5944 1.52825 59.6467 1.73904L60.3798 3.79427L61.8459 2.31872C61.8982 2.26602 62.003 2.21332 62.1077 2.21332C62.16 2.21332 62.2648 2.21332 62.3171 2.26602L64.621 3.53078C64.7781 3.63617 64.8828 3.79427 64.8304 4.00506L64.4639 6.06029L66.506 5.53331C66.5584 5.53331 66.5584 5.53331 66.6107 5.53331C66.7678 5.53331 66.9249 5.58601 66.9772 5.7441L68.4433 7.95742C68.5481 8.11552 68.5481 8.32631 68.391 8.43171L67.0296 9.95995L69.1764 10.5396ZM59.0184 16.758C61.5841 16.758 63.5214 14.7028 63.3643 12.1733C63.1549 9.64376 60.9557 7.58853 58.3901 7.58853C55.8244 7.58853 53.887 9.64376 54.0441 12.1733C54.2012 14.7028 56.4527 16.758 59.0184 16.758Z" fill="#EEEFF3"/>
<path d="M217.829 51.4334L216.572 52.5927C216.468 52.6981 216.31 52.6981 216.153 52.5927L214.321 51.3807C214.216 51.328 214.164 51.1699 214.164 51.0645C214.164 51.0118 214.164 51.0118 214.164 50.9591L214.583 49.2201L212.855 49.5362C212.698 49.5889 212.54 49.4835 212.488 49.3254L211.441 47.3229C211.389 47.2702 211.389 47.2175 211.389 47.1121C211.389 47.0067 211.441 46.954 211.493 46.8486L212.75 45.6366L211.022 45.0042C210.865 44.9515 210.76 44.7934 210.76 44.6353V42.422C210.76 42.2639 210.865 42.1058 211.022 42.1058L212.75 41.7369L211.493 40.3141C211.441 40.2614 211.389 40.156 211.389 40.0506C211.389 39.9979 211.389 39.9452 211.441 39.8925L212.488 38.048C212.54 37.89 212.75 37.8373 212.855 37.89L214.583 38.4696L214.164 36.6779C214.164 36.6252 214.164 36.6252 214.164 36.5725C214.164 36.4671 214.216 36.309 214.321 36.2563L216.153 35.3077C216.31 35.255 216.468 35.255 216.572 35.4131L217.829 36.7833L218.3 35.0443C218.353 34.8862 218.457 34.7808 218.614 34.7808L220.761 34.9389C220.918 34.9389 221.075 35.0443 221.075 35.2023L221.547 36.9941L222.803 35.8347C222.908 35.7293 223.065 35.7293 223.222 35.8347L225.055 37.0468C225.159 37.0995 225.212 37.2576 225.212 37.363C225.212 37.4157 225.212 37.4157 225.212 37.4684L224.793 39.2074L226.521 38.8912C226.678 38.8385 226.835 38.9439 226.887 39.102L227.935 41.1045C227.987 41.1572 227.987 41.2099 227.987 41.2626C227.987 41.368 227.935 41.4207 227.882 41.5261L226.626 42.7382L228.353 43.3706C228.511 43.4233 228.615 43.5814 228.615 43.7394V45.9528C228.615 46.1109 228.511 46.269 228.353 46.269L226.626 46.6378L227.882 48.0607C227.935 48.1134 227.987 48.2188 227.987 48.3242C227.987 48.3769 227.987 48.4296 227.935 48.4823L226.887 50.3267C226.835 50.4848 226.626 50.5375 226.521 50.4848L224.793 49.9051L225.212 51.6969C225.212 51.7496 225.212 51.7496 225.212 51.8023C225.212 51.9077 225.159 52.0658 225.055 52.1185L223.222 53.067C223.065 53.1197 222.908 53.1197 222.803 52.9616L221.547 51.5915L221.075 53.3305C221.023 53.4886 220.918 53.594 220.761 53.594L218.614 53.4359C218.457 53.4359 218.3 53.3305 218.3 53.1724L217.829 51.4334ZM223.589 44.5826C223.589 42.3693 221.861 40.4722 219.766 40.3141C217.619 40.156 215.944 41.7896 215.944 44.0029C215.944 46.2163 217.672 48.1134 219.766 48.2715C221.861 48.3769 223.589 46.7432 223.589 44.5826Z" fill="#EEEFF3"/>
<path d="M191.858 58.1788L189.973 59.9178C189.816 60.0759 189.554 60.0759 189.345 59.9705L186.622 58.1261C186.465 58.0207 186.36 57.8099 186.36 57.6518C186.36 57.5991 186.36 57.5464 186.36 57.5464L186.988 54.9642L184.423 55.4385C184.213 55.4912 183.951 55.3331 183.847 55.1223L182.276 52.1712C182.224 52.0658 182.224 52.0131 182.224 51.9077C182.224 51.7496 182.276 51.6442 182.381 51.5388L184.213 49.6944L181.7 48.7458C181.49 48.6404 181.333 48.4296 181.333 48.2188V44.9516C181.333 44.6881 181.49 44.53 181.7 44.4773L184.213 43.8976L182.381 41.7897C182.276 41.6843 182.224 41.5262 182.224 41.4208C182.224 41.3154 182.224 41.2627 182.276 41.1573L183.847 38.4697C183.951 38.2589 184.213 38.2062 184.423 38.2589L186.988 39.1021L186.36 36.4145C186.36 36.3618 186.36 36.3091 186.36 36.3091C186.36 36.0983 186.465 35.9402 186.622 35.8875L189.345 34.4646C189.554 34.3592 189.816 34.4119 189.973 34.57L191.858 36.5726L192.591 33.9903C192.643 33.7796 192.853 33.6215 193.115 33.6215L196.256 33.8323C196.466 33.8323 196.675 34.043 196.78 34.2538L197.513 36.9414L199.398 35.2024C199.555 35.0443 199.817 35.0443 200.026 35.1497L202.749 36.9941C202.906 37.0995 203.011 37.3103 203.011 37.4684C203.011 37.5211 203.011 37.5738 203.011 37.5738L202.382 40.156L204.948 39.6817C205.158 39.6291 205.419 39.7871 205.524 39.9979L207.095 42.949C207.147 43.0544 207.147 43.1071 207.147 43.2125C207.147 43.3706 207.095 43.476 206.99 43.5814L205.158 45.4258L207.671 46.3744C207.88 46.4798 208.037 46.6906 208.037 46.9014V50.1687C208.037 50.4322 207.88 50.5903 207.671 50.643L205.158 51.2226L206.99 53.3306C207.095 53.436 207.147 53.5941 207.147 53.6995C207.147 53.8049 207.147 53.8575 207.095 53.9629L205.524 56.6506C205.419 56.8613 205.158 56.914 204.948 56.8613L202.382 56.0182L203.011 58.7058C203.011 58.7585 203.011 58.8112 203.011 58.8112C203.011 59.022 202.906 59.1801 202.749 59.2328L200.026 60.6556C199.817 60.761 199.555 60.7083 199.398 60.5502L197.513 58.5477L196.78 61.1299C196.728 61.3407 196.518 61.4988 196.256 61.4988L193.115 61.288C192.905 61.288 192.696 61.0772 192.591 60.8664L191.858 58.1788ZM200.393 48.0081C200.393 44.7408 197.827 41.9478 194.685 41.6843C191.544 41.4735 188.978 43.8976 188.978 47.1649C188.978 50.4322 191.544 53.2252 194.685 53.4887C197.827 53.6995 200.393 51.2226 200.393 48.0081Z" fill="#EEEFF3"/>
<path d="M215.211 92.2746L212.383 94.8568C212.122 95.0676 211.755 95.1203 211.441 94.9095L207.409 92.2219C207.147 92.0638 207.043 91.8003 207.043 91.4841C207.043 91.4314 207.043 91.3787 207.043 91.2733L207.985 87.4263L204.215 88.1114C203.901 88.1641 203.534 88.006 203.377 87.6898L201.021 83.3159C200.969 83.2105 200.916 83.0524 200.916 82.8943C200.916 82.6835 200.969 82.5254 201.126 82.3673L203.849 79.6797L200.079 78.3096C199.764 78.2042 199.503 77.8353 199.503 77.5191V72.6708C199.503 72.302 199.712 72.0385 200.079 71.9331L203.849 71.0899L201.126 67.9807C200.969 67.8226 200.916 67.6118 200.916 67.401C200.916 67.2429 200.969 67.1375 201.021 67.0321L203.377 63.0271C203.534 62.7109 203.901 62.6055 204.215 62.7109L207.985 63.9757L207.043 60.0233C207.043 59.9706 207.043 59.9179 207.043 59.8125C207.043 59.549 207.2 59.2855 207.409 59.1274L211.441 57.0195C211.755 56.8614 212.122 56.9141 212.383 57.2303L215.211 60.2341L216.31 56.4398C216.415 56.1236 216.729 55.9128 217.044 55.9128L221.704 56.2817C222.07 56.2817 222.332 56.5452 222.437 56.9141L223.536 60.8665L226.364 58.2843C226.626 58.0735 226.992 58.0208 227.306 58.2316L231.338 60.9192C231.6 61.0773 231.705 61.3408 231.705 61.6569C231.705 61.7096 231.705 61.7623 231.705 61.8677L230.762 65.7147L234.532 65.0296C234.846 64.9769 235.213 65.135 235.37 65.4512L237.726 69.8252C237.778 69.9305 237.831 70.0886 237.831 70.2467C237.831 70.4575 237.778 70.6683 237.621 70.7737L234.899 73.4613L238.669 74.8315C238.983 74.9369 239.245 75.3058 239.245 75.6219V80.4702C239.245 80.8391 239.035 81.1026 238.669 81.208L234.899 82.0511L237.621 85.1603C237.778 85.3184 237.831 85.5292 237.831 85.74C237.831 85.8981 237.778 86.0035 237.726 86.1089L235.37 90.1139C235.213 90.4301 234.846 90.5355 234.532 90.4301L230.762 89.1654L231.705 93.1177C231.705 93.1704 231.705 93.2231 231.705 93.3285C231.705 93.592 231.547 93.8555 231.338 94.0136L227.306 96.1215C226.992 96.2796 226.626 96.2269 226.364 95.9107L223.536 92.9069L222.437 96.7012C222.332 97.0174 222.018 97.2282 221.704 97.2282L217.044 96.8593C216.677 96.8593 216.415 96.5958 216.31 96.2269L215.211 92.2746ZM227.83 77.2029C227.83 72.4074 224.06 68.1915 219.347 67.8753C214.687 67.5064 210.865 71.1426 210.865 75.9908C210.865 80.7864 214.635 85.0022 219.347 85.3184C224.06 85.6346 227.83 81.9984 227.83 77.2029Z" fill="#EEEFF3"/>
<path d="M181.019 84.3171L179.291 85.898C179.134 86.0561 178.925 86.0561 178.715 85.9507L176.202 84.2644C176.045 84.159 175.94 84.0009 175.94 83.8428C175.94 83.7901 175.94 83.7901 175.94 83.7374L176.516 81.366L174.16 81.7876C173.951 81.8403 173.741 81.7349 173.636 81.5241L172.17 78.8365C172.118 78.7311 172.118 78.6784 172.118 78.573C172.118 78.4676 172.17 78.3095 172.275 78.2568L173.951 76.5705L171.647 75.7273C171.437 75.6746 171.28 75.4638 171.28 75.253V72.3019C171.28 72.0911 171.437 71.8803 171.647 71.8276L173.951 71.3006L172.275 69.4035C172.17 69.2981 172.118 69.1927 172.118 69.0346C172.118 68.9292 172.118 68.8765 172.17 68.7711L173.636 66.2943C173.741 66.1362 173.951 66.0308 174.16 66.0835L176.516 66.874L175.94 64.3972C175.94 64.3445 175.94 64.2918 175.94 64.2918C175.94 64.1337 176.045 63.9756 176.202 63.8702L178.715 62.5527C178.925 62.4474 179.134 62.5001 179.291 62.6581L181.019 64.5026L181.7 62.1839C181.752 61.9731 181.962 61.8677 182.171 61.8677L185.051 62.0785C185.26 62.0785 185.47 62.2366 185.522 62.4474L186.203 64.8715L187.931 63.2905C188.088 63.1324 188.297 63.1324 188.507 63.2378L191.02 64.9242C191.177 65.0296 191.282 65.1877 191.282 65.3458C191.282 65.3985 191.282 65.3984 191.282 65.4511L190.706 67.8226L193.062 67.401C193.272 67.3483 193.481 67.4537 193.586 67.6645L195.052 70.3521C195.104 70.4575 195.104 70.5102 195.104 70.6156C195.104 70.721 195.052 70.8791 194.947 70.9318L193.272 72.6181L195.576 73.4613C195.785 73.514 195.942 73.7248 195.942 73.9356V76.8866C195.942 77.0974 195.785 77.3082 195.576 77.3609L193.272 77.8879L194.947 79.785C195.052 79.8904 195.104 79.9958 195.104 80.1539C195.104 80.2593 195.104 80.312 195.052 80.4174L193.586 82.8942C193.481 83.0523 193.272 83.1577 193.062 83.105L190.706 82.3146L191.282 84.7914C191.282 84.8441 191.282 84.8968 191.282 84.8968C191.282 85.0549 191.177 85.213 191.02 85.3183L188.507 86.6358C188.35 86.7412 188.088 86.6885 187.931 86.5304L186.203 84.686L185.522 87.0047C185.47 87.2155 185.26 87.3209 185.051 87.3209L182.171 87.1101C181.962 87.1101 181.752 86.952 181.7 86.7412L181.019 84.3171ZM188.821 74.9895C188.821 72.0384 186.465 69.4562 183.585 69.2454C180.705 69.0346 178.349 71.2479 178.349 74.2517C178.349 77.2028 180.705 79.785 183.585 79.9958C186.465 80.2066 188.821 77.9933 188.821 74.9895Z" fill="#EEEFF3"/>
<path d="M114.626 85.7399V108.716L116.825 115.883L120.333 117.043L157.038 117.675L152.378 113.354L151.174 106.134V85.1075L114.626 85.7399Z" fill="#E68C6E"/>
<path d="M152.535 109.138V70.5101H148.451V113.248C148.451 116.463 151.069 119.098 154.263 119.098H185.103V114.987H158.347C155.153 114.987 152.535 112.352 152.535 109.138Z" fill="#E68C6E"/>
<path d="M152.535 91.5894H117.558V97.07H152.535V91.5894Z" fill="#D2785A"/>
<path d="M185.103 114.987H150.126V119.098H185.103V114.987Z" fill="#EFA181"/>
<path d="M117.558 109.138V70.5101H113.474V113.248C113.474 116.463 116.092 119.098 119.286 119.098H150.126V114.987H123.37C120.176 114.987 117.558 112.352 117.558 109.138Z" fill="#D2785A"/>
<path d="M208.404 0C211.336 0 213.797 2.42411 214.007 5.37521L218.981 84.2643C219.19 87.2154 216.991 89.6395 214.059 89.6395H73.5747C70.6425 89.6395 68.1815 87.2154 67.9721 84.2643L62.9454 5.37521C62.7884 2.42411 64.9875 0 67.8674 0H208.404Z" fill="#EFA181"/>
<path d="M214.059 89.6395H73.5747C70.6425 89.6395 68.1815 87.2154 67.9721 84.2643L62.9454 5.37515C62.8407 3.89961 63.3643 2.52945 64.3068 1.52819C64.4115 1.37009 64.5686 1.2647 64.7257 1.1593L62.0553 3.37262C60.9034 4.37389 60.2227 5.90213 60.3274 7.58848L65.3017 86.4776C65.5111 89.4287 67.9721 91.8528 70.9043 91.8528H211.389C212.593 91.8528 213.692 91.4312 214.583 90.6935L217.253 88.4801C216.363 89.2179 215.263 89.6395 214.059 89.6395Z" fill="#E68C6E"/>
<path d="M209.137 9.38025L213.64 80.1012H72.6846L68.2339 9.38025H209.137Z" fill="white"/>
<path d="M163.583 29.2475L163.374 26.1383C163.269 24.8209 162.169 23.7142 160.86 23.7142H84.3087C82.9997 23.7142 82.0048 24.7682 82.1096 26.1383L82.319 29.2475L84.8847 67.6645C84.9894 68.9819 86.089 70.0886 87.398 70.0886H163.897C165.206 70.0886 166.149 68.9819 166.096 67.6645L163.583 29.2475Z" fill="#B4BEC8"/>
<path d="M164.368 28.457H83.1044L85.6701 66.874C85.7748 68.1914 86.8744 69.2981 88.1834 69.2981H164.683C165.992 69.2981 166.934 68.1914 166.882 66.874L164.368 28.457Z" fill="#353638"/>
<path d="M161.646 22.9237H85.0941C83.7851 22.9237 82.7903 23.9777 82.895 25.3478L83.1044 28.457H164.316L164.107 25.3478C164.054 23.9777 162.902 22.9237 161.646 22.9237Z" fill="#2B79EE"/>
<path d="M87.398 24.6627C86.8221 24.6627 86.4032 25.137 86.4555 25.7167C86.5079 26.2964 86.9791 26.7706 87.5551 26.7706C88.1311 26.7706 88.55 26.2964 88.4976 25.7167C88.4452 25.137 87.974 24.6627 87.398 24.6627Z" fill="white"/>
<path d="M91.1157 24.6627C90.5397 24.6627 90.1208 25.137 90.1732 25.7167C90.2255 26.2964 90.6968 26.7706 91.2728 26.7706C91.8487 26.7706 92.2676 26.2964 92.2153 25.7167C92.2153 25.137 91.6916 24.6627 91.1157 24.6627Z" fill="white"/>
<path d="M94.8333 24.6627C94.2573 24.6627 93.8384 25.137 93.8908 25.7167C93.9432 26.2964 94.4144 26.7706 94.9904 26.7706C95.5663 26.7706 95.9852 26.2964 95.9329 25.7167C95.9329 25.137 95.4093 24.6627 94.8333 24.6627Z" fill="white"/>
<path d="M115.149 32.6202H89.4925C88.9165 32.6202 88.4452 33.0945 88.4976 33.6742C88.55 34.2539 89.0736 34.7282 89.6495 34.7282H115.306C115.882 34.7282 116.354 34.2539 116.301 33.6742C116.249 33.0945 115.725 32.6202 115.149 32.6202Z" fill="#EEEFF3"/>
<path d="M144.471 32.6202H118.815C118.239 32.6202 117.767 33.0945 117.82 33.6742C117.872 34.2539 118.396 34.7282 118.972 34.7282H144.628C145.204 34.7282 145.676 34.2539 145.623 33.6742C145.571 33.0945 145.1 32.6202 144.471 32.6202Z" fill="#E66E62"/>
<path d="M127.925 36.3091H89.7542C89.1783 36.3091 88.707 36.7834 88.7594 37.363C88.8117 37.9427 89.3354 38.417 89.9113 38.417H128.082C128.658 38.417 129.13 37.9427 129.077 37.363C129.025 36.7834 128.501 36.3091 127.925 36.3091Z" fill="#51B175"/>
<path d="M143.895 39.998H90.016C89.4401 39.998 88.9688 40.4723 89.0212 41.052C89.0736 41.6317 89.5972 42.106 90.1731 42.106H144.052C144.628 42.106 145.1 41.6317 145.047 41.052C144.995 40.4723 144.524 39.998 143.895 39.998Z" fill="#E66E62"/>
<path d="M129.548 43.6869H90.3302C89.7542 43.6869 89.283 44.1612 89.3353 44.7409C89.3877 45.3205 89.9113 45.7948 90.4873 45.7948H129.706C130.282 45.7948 130.753 45.3205 130.7 44.7409C130.648 44.1612 130.124 43.6869 129.548 43.6869Z" fill="#EEEFF3"/>
<path d="M152.483 47.3757H90.592C90.016 47.3757 89.5448 47.85 89.5972 48.4297C89.6495 49.0094 90.1731 49.4837 90.7491 49.4837H152.692C153.268 49.4837 153.739 49.0094 153.687 48.4297C153.582 47.85 153.059 47.3757 152.483 47.3757Z" fill="#E66E62"/>
<path d="M145.257 51.0646H90.8538C90.2779 51.0646 89.8066 51.5389 89.859 52.1185C89.9113 52.6982 90.4349 53.1725 91.0109 53.1725H145.414C145.99 53.1725 146.461 52.6982 146.409 52.1185C146.356 51.5389 145.833 51.0646 145.257 51.0646Z" fill="#E66E62"/>
<path d="M134.104 54.7534H91.1156C90.5397 54.7534 90.0684 55.2277 90.1208 55.8074C90.1731 56.3871 90.6967 56.8613 91.2727 56.8613H134.261C134.837 56.8613 135.308 56.3871 135.256 55.8074C135.203 55.2277 134.68 54.7534 134.104 54.7534Z" fill="#51B175"/>
<path d="M139.707 58.4424H91.3774C90.8015 58.4424 90.3302 58.9167 90.3826 59.4963C90.4349 60.076 90.9586 60.5503 91.5345 60.5503H139.864C140.44 60.5503 140.911 60.076 140.858 59.4963C140.806 58.9167 140.283 58.4424 139.707 58.4424Z" fill="#51B175"/>
<path d="M153.582 62.1312H91.6392C91.0633 62.1312 90.592 62.6055 90.6444 63.1852C90.6967 63.7649 91.2203 64.2392 91.7963 64.2392H153.739C154.315 64.2392 154.786 63.7649 154.734 63.1852C154.682 62.6055 154.158 62.1312 153.582 62.1312Z" fill="#EEEFF3"/>
<path d="M200.026 10.118L199.817 7.00883C199.712 5.69138 198.613 4.58472 197.303 4.58472H120.804C119.495 4.58472 118.5 5.63868 118.605 7.00883L118.815 10.118L121.38 48.535C121.485 49.8524 122.585 50.9591 123.894 50.9591H200.393C201.702 50.9591 202.644 49.8524 202.592 48.535L200.026 10.118Z" fill="#B4BEC8"/>
<path d="M200.812 9.32751H119.6L122.166 47.7445C122.27 49.0619 123.37 50.1686 124.679 50.1686H201.178C202.487 50.1686 203.43 49.0619 203.377 47.7445L200.812 9.32751Z" fill="#353638"/>
<path d="M198.089 3.79419H121.59C120.281 3.79419 119.286 4.84815 119.391 6.2183L119.6 9.32749H200.812L200.602 6.2183C200.497 4.90085 199.398 3.79419 198.089 3.79419Z" fill="#2B79EE"/>
<path d="M150.755 13.1746H125.098C124.522 13.1746 124.051 13.6488 124.103 14.2285C124.155 14.8082 124.679 15.2825 125.255 15.2825H150.912C151.488 15.2825 151.959 14.8082 151.907 14.2285C151.854 13.6488 151.331 13.1746 150.755 13.1746Z" fill="#EEEFF3"/>
<path d="M180.129 13.1746H154.472C153.896 13.1746 153.425 13.6488 153.477 14.2285C153.53 14.8082 154.053 15.2825 154.629 15.2825H180.286C180.862 15.2825 181.333 14.8082 181.281 14.2285C181.229 13.6488 180.705 13.1746 180.129 13.1746Z" fill="#E66E62"/>
<path d="M163.531 16.8634H125.36C124.784 16.8634 124.312 17.3377 124.365 17.9174C124.417 18.497 124.941 18.9713 125.517 18.9713H163.688C164.264 18.9713 164.735 18.497 164.683 17.9174C164.63 17.3377 164.107 16.8634 163.531 16.8634Z" fill="#51B175"/>
<path d="M179.501 20.5524H125.674C125.098 20.5524 124.627 21.0267 124.679 21.6063C124.731 22.186 125.255 22.6603 125.831 22.6603H179.71C180.286 22.6603 180.757 22.186 180.705 21.6063C180.653 21.0267 180.129 20.5524 179.501 20.5524Z" fill="#E66E62"/>
<path d="M165.154 24.1885H125.936C125.36 24.1885 124.888 24.6628 124.941 25.2424C124.993 25.8221 125.517 26.2964 126.093 26.2964H165.311C165.887 26.2964 166.358 25.8221 166.306 25.2424C166.253 24.6628 165.73 24.1885 165.154 24.1885Z" fill="#EEEFF3"/>
<path d="M188.088 27.8773H126.197C125.621 27.8773 125.15 28.3516 125.203 28.9313C125.255 29.511 125.779 29.9852 126.354 29.9852H188.297C188.873 29.9852 189.345 29.511 189.292 28.9313C189.188 28.3516 188.716 27.8773 188.088 27.8773Z" fill="#E66E62"/>
<path d="M180.862 31.5663H126.459C125.883 31.5663 125.412 32.0406 125.464 32.6202C125.517 33.1999 126.04 33.6742 126.616 33.6742H181.019C181.595 33.6742 182.066 33.1999 182.014 32.6202C181.962 32.0406 181.438 31.5663 180.862 31.5663Z" fill="#E66E62"/>
<path d="M169.709 35.2551H126.721C126.145 35.2551 125.674 35.7294 125.726 36.3091C125.778 36.8888 126.302 37.3631 126.878 37.3631H169.866C170.442 37.3631 170.914 36.8888 170.861 36.3091C170.809 35.7294 170.285 35.2551 169.709 35.2551Z" fill="#51B175"/>
<path d="M175.312 38.944H126.983C126.407 38.944 125.936 39.4183 125.988 39.9979C126.04 40.5776 126.564 41.0519 127.14 41.0519H175.469C176.045 41.0519 176.516 40.5776 176.464 39.9979C176.411 39.4183 175.888 38.944 175.312 38.944Z" fill="#51B175"/>
<path d="M189.188 42.6328H127.245C126.669 42.6328 126.197 43.1071 126.25 43.6868C126.302 44.2665 126.826 44.7407 127.402 44.7407H189.345C189.921 44.7407 190.392 44.2665 190.339 43.6868C190.287 43.1071 189.763 42.6328 189.188 42.6328Z" fill="#EEEFF3"/>
<path d="M123.527 5.53333C122.951 5.53333 122.532 6.00761 122.584 6.58729C122.637 7.16697 123.108 7.64125 123.684 7.64125C124.26 7.64125 124.679 7.16697 124.627 6.58729C124.627 6.00761 124.103 5.53333 123.527 5.53333Z" fill="white"/>
<path d="M127.297 5.53333C126.721 5.53333 126.302 6.00761 126.354 6.58729C126.407 7.16697 126.878 7.64125 127.454 7.64125C128.03 7.64125 128.449 7.16697 128.397 6.58729C128.344 6.00761 127.873 5.53333 127.297 5.53333Z" fill="white"/>
<path d="M131.015 5.53333C130.439 5.53333 130.02 6.00761 130.072 6.58729C130.124 7.16697 130.596 7.64125 131.172 7.64125C131.748 7.64125 132.167 7.16697 132.114 6.58729C132.114 6.00761 131.591 5.53333 131.015 5.53333Z" fill="white"/>
<path d="M223.274 9.27487C223.222 8.16821 222.28 7.27234 221.18 7.27234H187.931C186.831 7.27234 185.993 8.16821 186.098 9.27487L186.727 18.4443C186.779 19.551 187.721 20.4469 188.821 20.4469H222.07C223.17 20.4469 223.955 19.551 223.903 18.4443L223.274 9.27487Z" fill="#B4BEC8"/>
<path d="M208.98 22.186H175.731C174.631 22.186 173.793 23.0819 173.898 24.1886L174.526 33.358C174.579 34.4647 175.521 35.3606 176.621 35.3606H209.87C210.97 35.3606 211.755 34.4647 211.703 33.358L211.074 24.1886C211.022 23.0819 210.079 22.186 208.98 22.186Z" fill="#B4BEC8"/>
<path d="M221.965 6.4292H188.716C187.617 6.4292 186.779 7.32507 186.884 8.43173L187.512 17.6012C187.564 18.7079 188.507 19.6037 189.606 19.6037H222.856C223.955 19.6037 224.741 18.7079 224.688 17.6012L224.06 8.43173C224.008 7.32507 223.065 6.4292 221.965 6.4292Z" fill="#E66E62"/>
<path d="M198.037 9.6438L193.324 11.8044L193.429 13.28L198.403 15.4406L198.298 13.7016L195.209 12.5422L198.141 11.3828L198.037 9.6438Z" fill="white"/>
<path d="M200.288 14.4392C199.712 14.4392 199.293 14.9135 199.346 15.4932C199.398 16.0729 199.869 16.5471 200.445 16.5471C201.021 16.5471 201.44 16.0729 201.388 15.4932C201.335 14.9662 200.864 14.4392 200.288 14.4392Z" fill="white"/>
<path d="M203.325 14.4392C202.749 14.4392 202.33 14.9135 202.382 15.4932C202.435 16.0729 202.906 16.5471 203.482 16.5471C204.058 16.5471 204.477 16.0729 204.425 15.4932C204.372 14.9662 203.901 14.4392 203.325 14.4392Z" fill="white"/>
<path d="M206.362 14.4392C205.786 14.4392 205.367 14.9135 205.419 15.4932C205.472 16.0729 205.943 16.5471 206.519 16.5471C207.095 16.5471 207.514 16.0729 207.461 15.4932C207.409 14.9662 206.885 14.4392 206.362 14.4392Z" fill="white"/>
<path d="M212.645 7.5885H212.017L208.352 17.4958H209.032L212.645 7.5885Z" fill="white"/>
<path d="M213.588 9.6438L213.692 11.3828L216.782 12.5422L213.85 13.7016L213.954 15.4406L218.667 13.28L218.562 11.8044L213.588 9.6438Z" fill="white"/>
<path d="M209.765 21.3954H176.516C175.417 21.3954 174.579 22.2913 174.684 23.3979L175.312 32.5674C175.364 33.6741 176.307 34.5699 177.406 34.5699H210.655C211.755 34.5699 212.54 33.6741 212.488 32.5674L211.86 23.3979C211.807 22.2913 210.865 21.3954 209.765 21.3954Z" fill="#2B79EE"/>
<path d="M188.297 24.5573H186.936L187.093 26.9814H185.156L184.999 24.5573H183.585L184.004 30.881H185.418L185.208 28.3515H187.145L187.355 30.881H188.769L188.297 24.5573Z" fill="white"/>
<path d="M193.533 24.5573H188.926L189.03 25.9274H190.601L190.968 30.881H192.329L192.015 25.9274H193.586L193.533 24.5573Z" fill="white"/>
<path d="M200.288 24.5573H198.874L197.408 27.3503L195.523 24.5573H194.109L194.528 30.881H195.942L195.733 27.1922L197.513 29.8798H197.67L199.084 27.1922L199.293 30.881H200.707L200.288 24.5573Z" fill="white"/>
<path d="M202.749 24.5573H201.335L201.754 30.881H205.367L205.262 29.4582H203.063L202.749 24.5573Z" fill="white"/>
<path d="M109.756 63.185C109.704 62.1838 108.866 61.3933 107.871 61.3933H78.0254C77.0306 61.3933 76.2975 62.1838 76.3499 63.185L76.9258 71.406C76.9782 72.4072 77.816 73.1977 78.8108 73.1977H108.657C109.651 73.1977 110.384 72.4072 110.28 71.406L109.756 63.185Z" fill="#B4BEC8"/>
<path d="M108.657 60.5502H78.8108C77.816 60.5502 77.0829 61.3406 77.1353 62.3419L77.7112 70.5628C77.7636 71.5641 78.6014 72.3546 79.5962 72.3546H109.442C110.437 72.3546 111.17 71.5641 111.065 70.5628L110.489 62.3419C110.489 61.3933 109.651 60.5502 108.657 60.5502Z" fill="#E66E62"/>
<path d="M87.6074 63.1851H86.246L86.5078 67.0847C86.5078 67.4536 86.4031 67.7698 85.7748 67.7698C85.3035 67.7698 85.0941 67.6117 84.937 67.2955L83.8374 67.9806C84.2563 68.7184 84.9894 69.0873 85.8795 69.0873C87.0838 69.0873 87.9216 68.4022 87.8692 67.1374L87.6074 63.1851Z" fill="white"/>
<path d="M90.3301 66.7685L90.8537 64.6606L91.6915 66.7685H90.3301ZM91.6392 63.1851H89.9112L88.3404 68.9292H89.8065L90.016 68.0333H92.2151L92.5817 68.9292H94.0478L91.6392 63.1851Z" fill="white"/>
<path d="M98.8126 63.1851H97.3465L96.3517 67.4009L94.7808 63.1851H93.3147L95.6186 68.9292H97.3465L98.8126 63.1851Z" fill="white"/>
<path d="M100.907 66.7685L101.431 64.6606L102.268 66.7685H100.907ZM102.216 63.1851H100.488L98.9173 68.9292H100.383L100.593 68.0333H102.792L103.159 68.9292H104.625L102.216 63.1851Z" fill="white"/>
<path d="M75.1979 41.8424H41.8963C40.7968 41.8424 39.959 42.7383 40.0637 43.8449L40.692 53.0144C40.7444 54.1211 41.6869 55.0169 42.7865 55.0169H76.0356C77.1352 55.0169 77.9206 54.1211 77.8683 53.0144L77.2399 43.8449C77.2399 42.7383 76.2974 41.8424 75.1979 41.8424Z" fill="#2B79EE"/>
<path d="M53.3634 44.0029C51.0072 44.0029 49.4363 45.742 49.5934 48.008C49.7505 50.274 51.5831 52.013 53.9394 52.013C55.3531 52.013 56.5574 51.328 57.1857 50.2213L55.5626 49.3254C55.2484 49.9051 54.6201 50.274 53.8346 50.274C52.4209 50.274 51.4784 49.3781 51.3737 48.008C51.269 46.6378 52.1067 45.742 53.4681 45.742C54.2535 45.742 54.9342 46.1109 55.3531 46.6905L56.8192 45.7947C56.0862 44.688 54.7771 44.0029 53.3634 44.0029Z" fill="white"/>
<path d="M61.0081 45.4785H59.4372L59.5943 47.2176H57.8141L57.9188 48.7458H59.6991L59.8038 50.5375H61.3746L61.2699 48.7458H63.0501L62.9454 47.2176H61.1652L61.0081 45.4785Z" fill="white"/>
<path d="M67.2914 45.4785H65.7205L65.8253 47.2176H64.045L64.1497 48.7458H65.9823L66.0871 50.5375H67.6579L67.5532 48.7458H69.3334L69.2287 47.2176H67.3961L67.2914 45.4785Z" fill="white"/>
<path d="M35.8749 103.815H33.4139V115.356H35.8749V103.815Z" fill="#B4BEC8"/>
<path d="M24.6697 117.833L34.3564 116.726V114.671L23.4654 116.621C22.9418 116.726 22.6276 117.148 22.6276 117.675V118.676H24.6697V117.833Z" fill="#B4BEC8"/>
<path d="M44.0955 117.833L34.4088 116.726V114.671L45.2998 116.621C45.8235 116.726 46.1376 117.148 46.1376 117.675V118.676H44.0955V117.833Z" fill="#B4BEC8"/>
<path d="M23.5701 121.206C24.4376 121.206 25.1409 120.498 25.1409 119.625C25.1409 118.752 24.4376 118.044 23.5701 118.044C22.7026 118.044 21.9993 118.752 21.9993 119.625C21.9993 120.498 22.7026 121.206 23.5701 121.206Z" fill="#353638"/>
<path d="M45.1951 121.206C46.0627 121.206 46.766 120.498 46.766 119.625C46.766 118.752 46.0627 118.044 45.1951 118.044C44.3276 118.044 43.6243 118.752 43.6243 119.625C43.6243 120.498 44.3276 121.206 45.1951 121.206Z" fill="#353638"/>
<path d="M54.4106 120.995L64.4116 86.6885H62.6313L53.2587 120.995H54.4106Z" fill="#B4BEC8"/>
<path d="M36.032 104.237H33.3616C32.9427 104.237 32.6285 103.921 32.6285 103.499V97.7024C32.6285 97.2808 32.9427 96.9646 33.3616 96.9646H36.032C36.4509 96.9646 36.765 97.2808 36.765 97.7024V103.499C36.765 103.868 36.4509 104.237 36.032 104.237Z" fill="#353638"/>
<path d="M31.8431 73.3031C29.6439 80.1538 29.6439 87.3735 31.8431 94.6985H27.6018C25.5074 87.3735 25.298 80.2065 27.6018 73.2504L31.8431 73.3031Z" fill="#CFD3E6"/>
<path d="M28.0207 94.7512C25.8216 87.3735 25.8216 80.1539 28.0207 73.3031H27.5495C25.3503 80.2066 25.3503 87.3735 27.5495 94.7512H28.0207Z" fill="#B4BEC8"/>
<path d="M31.8431 73.3031C29.6439 80.1538 29.6439 87.3735 31.8431 94.6985H31.3718C29.1727 87.3208 29.1727 80.1011 31.3718 73.2504L31.8431 73.3031Z" fill="#CFD3E6"/>
<path d="M26.7641 76.1488C26.6594 76.5177 26.607 76.8866 26.5023 77.2555H30.7959C30.8482 76.8866 30.953 76.5177 31.0577 76.1488H26.7641Z" fill="#CFD3E6"/>
<path d="M37.0268 76.1488H24.722C23.6748 76.1488 22.7847 75.3057 22.7847 74.199V68.0333C22.7847 66.9794 23.6224 66.0835 24.722 66.0835H37.0268C38.074 66.0835 38.9642 66.9267 38.9642 68.0333V74.199C38.9642 75.253 38.074 76.1488 37.0268 76.1488Z" fill="#353638"/>
<path d="M47.6037 98.1239H27.2877C26.8165 98.1239 26.45 97.755 26.45 97.2808V96.016H47.6037V98.1239Z" fill="#B4BEC8"/>
<path d="M25.7169 96.0161H49.8553C50.3265 96.0161 50.693 95.6472 50.693 95.1729C50.693 94.6986 50.3265 94.3297 49.8553 94.3297H25.7169C25.2456 94.3297 24.8791 94.6986 24.8791 95.1729C24.8791 95.6472 25.2456 96.0161 25.7169 96.0161Z" fill="#353638"/>
<path d="M61.4794 114.46L62.9978 116.094C62.9978 116.094 67.5532 118.307 67.7627 118.676C67.9721 119.045 67.7627 119.677 67.082 119.888C66.4536 120.099 59.8038 119.677 58.233 119.519C58.0759 119.519 57.9188 119.414 57.8141 119.309C57.657 119.15 57.5523 118.887 57.6047 118.676L58.1806 114.987L61.4794 114.46Z" fill="#353638"/>
<path d="M41.7917 87.795C41.7917 87.795 50.5883 91.2204 54.9342 94.1715C57.6046 96.016 61.3746 113.09 61.3746 113.09L57.5523 113.881C57.5523 113.881 51.6355 102.603 51.0072 98.3347L35.9272 92.9595L41.7917 87.795Z" fill="#3C66B7"/>
<path d="M29.5392 91.1151C29.5392 91.1151 29.8534 94.804 36.2938 96.9119C42.1582 98.8618 46.8707 99.863 46.8707 99.863C46.8707 99.863 46.766 100.021 46.6613 104.184C46.5565 108.347 47.3943 112.827 47.3943 112.827L51.0072 112.774C51.0072 112.774 52.9969 105.291 53.2064 101.128C53.4158 96.9646 53.3634 97.1754 51.7403 95.9634C50.1171 94.7513 40.7968 89.745 40.7968 89.745L29.5392 91.1151Z" fill="#2B79EE"/>
<path d="M35.0895 95.4891C38.2416 95.4891 40.7968 92.9173 40.7968 89.745C40.7968 86.5726 38.2416 84.0009 35.0895 84.0009C31.9374 84.0009 29.3821 86.5726 29.3821 89.745C29.3821 92.9173 31.9374 95.4891 35.0895 95.4891Z" fill="#2B79EE"/>
<path d="M45.6664 78.9945L46.2423 81.7875L42.6818 82.4726L41.7393 79.8377L45.6664 78.9945Z" fill="#EF8C78"/>
<path d="M40.1685 70.7736C40.1685 70.7736 41.2157 68.8238 43.1007 70.1412C45.1951 71.6168 45.9805 79.3107 45.9805 79.3107L41.0062 80.2066C41.0062 80.2066 39.8019 75.8853 39.5925 74.3044C39.3831 72.7761 39.6449 71.7222 40.1685 70.7736Z" fill="#3CA078"/>
<path d="M45.8758 81.3658L55.2484 80.6281L55.3531 82.6833C55.3531 82.6833 46.2423 84.6858 44.8286 84.8966C43.4148 85.1074 42.6818 82.5252 42.6818 82.5252L45.8758 81.3658Z" fill="#EF8C78"/>
<path d="M55.3007 80.6281L59.0183 81.155L58.9136 83.1576C58.9136 83.1576 57.1857 83.5264 55.3531 82.6833L55.3007 80.6281Z" fill="#EF8C78"/>
<path d="M58.7566 83.1575L59.8038 83.3156C59.8038 83.3156 60.3274 83.7899 60.7463 83.8426C61.1652 83.8953 61.1652 83.5264 61.0081 83.3683C60.7987 83.2629 60.118 82.736 60.118 82.736L58.6519 82.3671L58.7566 83.1575Z" fill="#EFA181"/>
<path d="M58.5995 81.7874L59.6991 81.8927L60.7986 82.2089C60.7986 82.2089 61.4793 82.7359 61.6888 82.894C61.8982 83.0521 61.7411 83.421 61.3222 83.2629C60.9034 83.1048 60.5892 82.8413 60.5892 82.8413L59.5943 82.5778L58.2853 82.4724L58.5995 81.7874Z" fill="#EFA181"/>
<path d="M58.8089 81.155L59.9085 81.2077L61.0081 81.4712C61.0081 81.4712 61.7935 82.1036 62.0029 82.209C62.2124 82.3671 62.0553 82.6833 61.6364 82.5252C61.2175 82.3671 60.9034 82.1036 60.9034 82.1036L59.8561 81.8401L58.5471 81.7874L58.8089 81.155Z" fill="#EFA181"/>
<path d="M38.7548 69.4034C38.7548 69.4034 36.9745 69.1927 34.6706 70.4047C32.2096 71.6695 29.801 83.8427 29.5392 86.5303C29.5392 86.5303 30.1676 89.1652 35.7178 89.9557C40.4827 90.5881 43.1531 87.9532 43.1531 87.9532C43.1531 87.9532 44.7239 81.6294 44.9857 78.204C45.2999 74.199 44.305 69.825 42.4724 69.7196L38.7548 69.4034Z" fill="#51B175"/>
<path d="M39.0689 69.3507C39.0689 69.3507 38.5977 69.298 37.8646 69.4034C37.8122 69.6669 37.7599 69.9304 37.7599 70.1939C37.7599 71.6167 38.8595 72.7761 40.2208 72.7761C41.5822 72.7761 42.6818 71.6167 42.6818 70.1939C42.6818 70.0358 42.6818 69.825 42.6294 69.6669C42.5771 69.6669 42.5247 69.6669 42.4724 69.6142L39.0689 69.3507Z" fill="#EFA181"/>
<path d="M46.3471 62.6055C46.3471 62.6055 46.3471 64.6607 46.3471 66.6105C46.3471 68.5604 45.0904 69.3508 43.1007 69.3508C41.111 69.3508 39.1213 69.3508 39.1213 69.3508V62.6055H46.3471Z" fill="#EFA181"/>
<path d="M38.0217 71.4059H42.0011L43.1007 68.0859H39.1212L38.0217 71.4059Z" fill="#EFA181"/>
<path d="M46.3471 63.4486C46.3471 63.4486 47.0278 62.7635 47.0278 61.4461C47.0278 60.1286 44.881 59.3381 42.996 59.2327C41.111 59.1274 39.9067 60.1286 39.9067 60.1286C39.9067 60.1286 38.8595 59.8651 38.1788 60.8137C37.4981 61.7623 37.341 65.5565 39.0689 68.0333L40.535 66.6105C40.535 66.6105 39.3831 66.347 39.4354 65.5565C39.4878 64.7134 39.9591 64.4499 40.5874 64.6607L41.0063 65.8727C41.0063 65.8727 41.3204 64.8714 41.111 63.9756C40.9015 63.0797 40.6397 62.6054 40.6397 62.6054C40.6397 62.6054 40.8492 62.9743 41.1634 63.1324C41.4252 63.2905 43.8338 64.0283 46.3471 63.4486Z" fill="#353638"/>
<path d="M42.3153 70.4574L42.6818 69.3507C42.1582 69.2453 41.2157 68.8764 40.5874 68.0859C40.5874 68.0859 40.9015 69.8777 42.3153 70.4574Z" fill="#E66E62"/>
<path d="M39.6972 80.0486L40.3256 82.8416L36.8174 83.6321L35.8225 80.9972L39.6972 80.0486Z" fill="#EFA181"/>
<path d="M34.0422 71.9857C34.0422 71.9857 35.0371 69.9831 36.9221 71.3006C39.0689 72.7235 40.0114 80.4174 40.0114 80.4174L35.0371 81.4186C35.0371 81.4186 33.7281 77.1501 33.5186 75.5691C33.3092 73.9882 33.571 72.9342 34.0422 71.9857Z" fill="#3CA078"/>
<path d="M40.0114 82.4726L49.384 81.524L49.5411 83.5793C49.5411 83.5793 40.4827 85.7399 39.0689 86.0034C37.6552 86.2669 36.8698 83.6847 36.8698 83.6847L40.0114 82.4726Z" fill="#EFA181"/>
<path d="M49.384 81.524L53.1016 81.9983L53.0493 84.0009C53.0493 84.0009 51.3214 84.3698 49.4887 83.5793L49.384 81.524Z" fill="#EFA181"/>
<path d="M52.8922 83.9482L53.9394 84.0536C53.9394 84.0536 54.463 84.5279 54.8819 84.5806C55.3008 84.6333 55.3008 84.2644 55.1437 84.1063C54.9342 84.0009 54.2536 83.5266 54.2536 83.5266L52.7874 83.2104L52.8922 83.9482Z" fill="#EFA181"/>
<path d="M52.6827 82.578L53.7823 82.6307L54.8819 82.8942C54.8819 82.8942 55.5626 83.4212 55.772 83.5266C55.9815 83.6847 55.8244 84.0536 55.4055 83.8955C54.9866 83.7374 54.6724 83.5266 54.6724 83.5266L53.6776 83.2631L52.3686 83.2104L52.6827 82.578Z" fill="#EFA181"/>
<path d="M52.8922 81.9457L53.9918 81.9984L55.1437 82.2092C55.1437 82.2092 55.9291 82.7888 56.1385 82.9469C56.4004 83.105 56.1909 83.4212 55.772 83.3158C55.3531 83.1577 54.9866 82.8942 54.9866 82.8942L53.9394 82.6308L52.6304 82.5781L52.8922 81.9457Z" fill="#EFA181"/>
<path d="M50.2218 85.6345H74.046C74.3078 85.6345 74.5172 85.4237 74.5172 85.1602C74.5172 84.8967 74.3078 84.6859 74.046 84.6859H50.2218C49.96 84.6859 49.7505 84.8967 49.7505 85.1602C49.7505 85.4237 49.96 85.6345 50.2218 85.6345Z" fill="#2B79EE"/>
<path d="M73.8889 84.844L56.4527 84.6859C56.1386 84.6859 55.9291 84.4752 55.9815 84.159L57.9712 74.0936C58.0235 73.8301 58.3377 73.5666 58.5995 73.6193L76.0357 73.7774C76.3499 73.7774 76.5593 73.9882 76.5069 74.3044L74.5172 84.3698C74.4649 84.6332 74.2031 84.844 73.8889 84.844Z" fill="#CFD3E6"/>
<path d="M74.2554 84.844L56.8192 84.6859C56.5051 84.6859 56.2956 84.4752 56.348 84.159L58.3377 74.0936C58.3901 73.8301 58.7042 73.5666 58.966 73.6193L76.4022 73.7774C76.7164 73.7774 76.9258 73.9882 76.8734 74.3044L74.8837 84.3698C74.8314 84.6332 74.5696 84.844 74.2554 84.844Z" fill="#2B79EE"/>
<path d="M68.8099 79.5215C68.6528 80.3647 67.8674 81.0498 66.9772 81.0498C66.1395 81.0498 65.5635 80.3647 65.7206 79.5215C65.8777 78.6784 66.6631 77.9933 67.5532 77.9933C68.4434 77.9933 68.967 78.6784 68.8099 79.5215Z" fill="white"/>
<path d="M50.5883 113.459L52.0021 117.675L53.1016 120.204V120.942C53.1016 120.942 52.5257 121.364 50.4836 121.469C48.1797 121.575 47.3419 120.679 47.3419 120.679L47.3943 117.78L47.9179 113.512L50.5883 113.459Z" fill="#353638"/>
<path d="M51.1643 113.828H47.3419L47.0801 112.142H51.3737L51.1643 113.828Z" fill="#3C66B7"/>
<path d="M61.8983 114.408L57.7094 115.304L57.0811 113.723L61.8459 112.721L61.8983 114.408Z" fill="#3C66B7"/>
<path d="M38.5977 120.995L48.5986 86.6885H46.8707L37.4981 120.995H38.5977Z" fill="#B4BEC8"/>
<path d="M97.5036 120.995L87.4503 86.6885H89.2306L98.6032 120.995H97.5036Z" fill="#B4BEC8"/>
<path d="M83.7327 120.995L73.7318 86.6885H75.4597L84.8847 120.995H83.7327Z" fill="#B4BEC8"/>
<path d="M92.5817 86.2669C92.5817 86.6358 92.2676 86.9519 91.901 86.9519H45.8758C45.5093 86.9519 45.1951 86.6358 45.1951 86.2669C45.1951 85.898 45.5093 85.5818 45.8758 85.5818H91.901C92.2676 85.6345 92.5817 85.898 92.5817 86.2669Z" fill="#353638"/>
<path d="M215.682 123.208H172.38C170.966 123.208 169.814 122.049 169.814 120.626V40.7357C169.814 39.3128 170.966 38.1534 172.38 38.1534H215.682C217.096 38.1534 218.248 39.3128 218.248 40.7357V120.679C218.248 122.102 217.096 123.208 215.682 123.208Z" fill="#2B79EE"/>
<path d="M216.52 43.9502H171.49V114.091H216.52V43.9502Z" fill="#353638"/>
<path d="M210.865 50.5902H177.197C176.516 50.5902 175.94 50.0105 175.94 49.3254C175.94 48.6403 176.516 48.0607 177.197 48.0607H210.865C211.546 48.0607 212.122 48.6403 212.122 49.3254C212.122 50.0105 211.546 50.5902 210.865 50.5902Z" fill="white"/>
<path d="M201.806 54.5426H177.197C176.516 54.5426 175.94 53.9629 175.94 53.2778C175.94 52.5927 176.516 52.0131 177.197 52.0131H201.806C202.487 52.0131 203.063 52.5927 203.063 53.2778C203.063 53.9629 202.487 54.5426 201.806 54.5426Z" fill="#51B175"/>
<path d="M192.748 58.4948H177.197C176.516 58.4948 175.94 57.9152 175.94 57.2301C175.94 56.545 176.516 55.9653 177.197 55.9653H192.748C193.429 55.9653 194.005 56.545 194.005 57.2301C194.005 57.9152 193.481 58.4948 192.748 58.4948Z" fill="#E66E62"/>
<path d="M210.865 62.4472H177.197C176.516 62.4472 175.94 61.8676 175.94 61.1825C175.94 60.4974 176.516 59.9177 177.197 59.9177H210.865C211.546 59.9177 212.122 60.4974 212.122 61.1825C212.122 61.8676 211.546 62.4472 210.865 62.4472Z" fill="white"/>
<path d="M198.089 66.3469H177.197C176.516 66.3469 175.94 65.7672 175.94 65.0821C175.94 64.3971 176.516 63.8174 177.197 63.8174H198.089C198.77 63.8174 199.346 64.3971 199.346 65.0821C199.398 65.8199 198.822 66.3469 198.089 66.3469Z" fill="white"/>
<path d="M204.32 70.2993H177.197C176.516 70.2993 175.94 69.7196 175.94 69.0345C175.94 68.3495 176.516 67.7698 177.197 67.7698H204.32C205 67.7698 205.576 68.3495 205.576 69.0345C205.576 69.7196 205 70.2993 204.32 70.2993Z" fill="#E66E62"/>
<path d="M204.32 74.2517H177.197C176.516 74.2517 175.94 73.672 175.94 72.9869C175.94 72.3018 176.516 71.7222 177.197 71.7222H204.32C205 71.7222 205.576 72.3018 205.576 72.9869C205.576 73.672 205 74.2517 204.32 74.2517Z" fill="white"/>
<path d="M204.32 78.2039H177.197C176.516 78.2039 175.94 77.6243 175.94 76.9392C175.94 76.2541 176.516 75.6744 177.197 75.6744H204.32C205 75.6744 205.576 76.2541 205.576 76.9392C205.576 77.6243 205 78.2039 204.32 78.2039Z" fill="#51B175"/>
<path d="M204.32 102.129H177.197C176.516 102.129 175.94 101.549 175.94 100.864C175.94 100.179 176.516 99.5995 177.197 99.5995H204.32C205 99.5995 205.576 100.179 205.576 100.864C205.576 101.549 205 102.129 204.32 102.129Z" fill="#E66E62"/>
<path d="M204.32 106.081H177.197C176.516 106.081 175.94 105.502 175.94 104.817C175.94 104.132 176.516 103.552 177.197 103.552H204.32C205 103.552 205.576 104.132 205.576 104.817C205.576 105.502 205 106.081 204.32 106.081Z" fill="white"/>
<path d="M204.32 110.034H177.197C176.516 110.034 175.94 109.454 175.94 108.769C175.94 108.084 176.516 107.504 177.197 107.504H204.32C205 107.504 205.576 108.084 205.576 108.769C205.576 109.454 205 110.034 204.32 110.034Z" fill="#51B175"/>
<path d="M207.566 82.1563H177.197C176.516 82.1563 175.94 81.5767 175.94 80.8916C175.94 80.2065 176.516 79.6268 177.197 79.6268H207.566C208.247 79.6268 208.823 80.2065 208.823 80.8916C208.875 81.5767 208.299 82.1563 207.566 82.1563Z" fill="white"/>
<path d="M210.865 86.1087H177.197C176.516 86.1087 175.94 85.5291 175.94 84.844C175.94 84.1589 176.516 83.5792 177.197 83.5792H210.865C211.546 83.5792 212.122 84.1589 212.122 84.844C212.122 85.5291 211.546 86.1087 210.865 86.1087Z" fill="#E66E62"/>
<path d="M201.806 90.0611H177.197C176.516 90.0611 175.94 89.4814 175.94 88.7964C175.94 88.1113 176.516 87.5316 177.197 87.5316H201.806C202.487 87.5316 203.063 88.1113 203.063 88.7964C203.063 89.4814 202.487 90.0611 201.806 90.0611Z" fill="white"/>
<path d="M206.938 93.9608H177.197C176.516 93.9608 175.94 93.3811 175.94 92.696C175.94 92.011 176.516 91.4313 177.197 91.4313H206.938C207.619 91.4313 208.194 92.011 208.194 92.696C208.247 93.4338 207.671 93.9608 206.938 93.9608Z" fill="#51B175"/>
<path d="M210.865 97.9132H177.197C176.516 97.9132 175.94 97.3335 175.94 96.6484C175.94 95.9633 176.516 95.3837 177.197 95.3837H210.865C211.546 95.3837 212.122 95.9633 212.122 96.6484C212.122 97.3335 211.546 97.9132 210.865 97.9132Z" fill="#E66E62"/>
<path d="M202.278 40.3667H185.784C185.522 40.3667 185.26 40.5775 185.26 40.8937C185.26 41.1572 185.47 41.4207 185.784 41.4207H202.278C202.54 41.4207 202.801 41.2099 202.801 40.8937C202.801 40.5775 202.54 40.3667 202.278 40.3667Z" fill="#353638"/>
<path d="M197.251 118.413C197.251 116.621 195.837 115.198 194.057 115.198C192.277 115.198 190.863 116.621 190.863 118.413C190.863 120.204 192.277 121.627 194.057 121.627C195.837 121.627 197.251 120.204 197.251 118.413Z" fill="#353638"/>
<path d="M194.005 120.837C195.335 120.837 196.413 119.752 196.413 118.413C196.413 117.074 195.335 115.989 194.005 115.989C192.674 115.989 191.596 117.074 191.596 118.413C191.596 119.752 192.674 120.837 194.005 120.837Z" fill="white"/>
</svg>
