<svg width="24" height="25" viewBox="0 0 24 25" fill="none" xmlns="http://www.w3.org/2000/svg">
<path fill-rule="evenodd" clip-rule="evenodd" d="M12 24.4478C18.6274 24.4478 24 19.0752 24 12.4478C24 5.82034 18.6274 0.447754 12 0.447754C5.37258 0.447754 0 5.82034 0 12.4478C0 19.0752 5.37258 24.4478 12 24.4478ZM12 23.0078C17.8321 23.0078 22.56 18.2799 22.56 12.4478C22.56 6.61563 17.8321 1.88775 12 1.88775C6.16787 1.88775 1.44 6.61563 1.44 12.4478C1.44 18.2799 6.16787 23.0078 12 23.0078ZM6.72 10.1044V17.0837H8.98084V10.1044H6.72ZM7.99905 6.68775C7.22563 6.68775 6.72 7.20897 6.72 7.89328C6.72 8.56342 7.21069 9.09964 7.96971 9.09964H7.98415C8.77247 9.09964 9.26343 8.56342 9.26343 7.89328C9.24876 7.20897 8.77247 6.68775 7.99905 6.68775ZM14.6769 10.1044C13.4766 10.1044 12.9391 10.7818 12.6391 11.257V10.2685H10.378C10.4078 10.9234 10.378 17.2478 10.378 17.2478H12.6391V13.35C12.6391 13.1414 12.6538 12.9333 12.7135 12.7839C12.8769 12.3672 13.249 11.9358 13.8736 11.9358C14.692 11.9358 15.0192 12.5758 15.0192 13.5137V17.2476H17.2799L17.28 13.2459C17.28 11.1021 16.1647 10.1044 14.6769 10.1044Z" fill="#828282"/>
</svg>
