<svg width="24" height="24" viewBox="0 0 24 24" fill="none" xmlns="http://www.w3.org/2000/svg">
<path d="M12.0013 8.9227C10.2987 8.9227 8.92538 10.296 8.92538 11.9987C8.92538 13.7013 10.2987 15.0746 12.0013 15.0746C13.704 15.0746 15.0773 13.7013 15.0773 11.9987C15.0773 10.296 13.704 8.9227 12.0013 8.9227ZM12.0013 13.9984C10.9011 13.9984 10.0016 13.1016 10.0016 11.9987C10.0016 10.8957 10.8984 9.99888 12.0013 9.99888C13.1043 9.99888 14.0011 10.8957 14.0011 11.9987C14.0011 13.1016 13.1016 13.9984 12.0013 13.9984ZM15.9206 8.79688C15.9206 9.19576 15.5993 9.51433 15.2031 9.51433C14.8042 9.51433 14.4857 9.19308 14.4857 8.79688C14.4857 8.40067 14.8069 8.07942 15.2031 8.07942C15.5993 8.07942 15.9206 8.40067 15.9206 8.79688ZM17.9578 9.52504C17.9123 8.56397 17.6928 7.71266 16.9887 7.01127C16.2873 6.30987 15.436 6.09035 14.475 6.04216C13.4844 5.98595 10.5156 5.98595 9.52504 6.04216C8.56665 6.08767 7.71534 6.30719 7.01127 7.00859C6.30719 7.70998 6.09035 8.56129 6.04216 9.52236C5.98595 10.5129 5.98595 13.4818 6.04216 14.4723C6.08767 15.4334 6.30719 16.2847 7.01127 16.9861C7.71534 17.6875 8.56397 17.907 9.52504 17.9552C10.5156 18.0114 13.4844 18.0114 14.475 17.9552C15.436 17.9096 16.2873 17.6901 16.9887 16.9861C17.6901 16.2847 17.9096 15.4334 17.9578 14.4723C18.0141 13.4818 18.0141 10.5156 17.9578 9.52504ZM16.6782 15.5351C16.4694 16.0598 16.0651 16.464 15.5378 16.6755C14.748 16.9887 12.8741 16.9165 12.0013 16.9165C11.1286 16.9165 9.25198 16.9861 8.46492 16.6755C7.94021 16.4667 7.53597 16.0625 7.32448 15.5351C7.01127 14.7453 7.08355 12.8714 7.08355 11.9987C7.08355 11.1259 7.01394 9.2493 7.32448 8.46224C7.5333 7.93753 7.93753 7.5333 8.46492 7.32181C9.25466 7.00859 11.1286 7.08087 12.0013 7.08087C12.8741 7.08087 14.7507 7.01127 15.5378 7.32181C16.0625 7.53062 16.4667 7.93486 16.6782 8.46224C16.9914 9.25198 16.9191 11.1259 16.9191 11.9987C16.9191 12.8714 16.9914 14.748 16.6782 15.5351Z" fill="#828282"/>
<circle cx="12" cy="12" r="11.25" stroke="#828282" stroke-width="1.5"/>
</svg>
