<svg width="24" height="25" viewBox="0 0 24 25" fill="none" xmlns="http://www.w3.org/2000/svg">
<path fill-rule="evenodd" clip-rule="evenodd" d="M12 24.4478C18.6274 24.4478 24 19.0752 24 12.4478C24 5.82034 18.6274 0.447754 12 0.447754C5.37258 0.447754 0 5.82034 0 12.4478C0 19.0752 5.37258 24.4478 12 24.4478ZM12 23.0078C17.8321 23.0078 22.56 18.2799 22.56 12.4478C22.56 6.61563 17.8321 1.88775 12 1.88775C6.16787 1.88775 1.44 6.61563 1.44 12.4478C1.44 18.2799 6.16787 23.0078 12 23.0078ZM11.8475 10.3138L11.8704 10.7083L11.4889 10.66C10.1002 10.4748 8.88697 9.8469 7.8569 8.79231L7.3533 8.26904L7.22359 8.65545C6.94891 9.51684 7.1244 10.4265 7.69666 11.0383C8.00187 11.3765 7.9332 11.4248 7.40672 11.2235C7.22359 11.1591 7.06336 11.1108 7.0481 11.1349C6.99469 11.1913 7.17781 11.9239 7.32278 12.2137C7.52117 12.6162 7.92557 13.0107 8.36812 13.2441L8.742 13.4293L8.29945 13.4373C7.87216 13.4373 7.8569 13.4454 7.90268 13.6144C8.05528 14.1377 8.65807 14.6932 9.32952 14.9347L9.80259 15.1038L9.39056 15.3614C8.78015 15.7317 8.06291 15.941 7.34567 15.9571C7.00232 15.9651 6.72 15.9973 6.72 16.0215C6.72 16.102 7.65088 16.5528 8.19263 16.7299C9.81785 17.2532 11.7483 17.0278 13.198 16.1342C14.2281 15.4982 15.2582 14.2343 15.7389 13.0107C15.9983 12.3586 16.2577 11.1672 16.2577 10.5956C16.2577 10.2253 16.2806 10.177 16.7079 9.73419C16.9597 9.47658 17.1962 9.19482 17.242 9.11432C17.3183 8.96136 17.3107 8.96136 16.9216 9.09822C16.273 9.33973 16.1814 9.30753 16.5019 8.94526C16.7384 8.68765 17.0207 8.22073 17.0207 8.08388C17.0207 8.05973 16.9063 8.09998 16.7766 8.17243C16.6392 8.25293 16.334 8.37369 16.1051 8.44614L15.6931 8.583L15.3192 8.31734C15.1132 8.17243 14.8233 8.01142 14.6706 7.96312C14.2815 7.85042 13.6864 7.86652 13.3354 7.99532C12.3816 8.35759 11.7788 9.29143 11.8475 10.3138Z" fill="#828282"/>
</svg>
